<?xml version="1.0" encoding="utf-8" standalone="no"?>
<!DOCTYPE svg PUBLIC "-//W3C//DTD SVG 1.1//EN"
  "http://www.w3.org/Graphics/SVG/1.1/DTD/svg11.dtd">
<!-- Created with matplotlib (https://matplotlib.org/) -->
<svg height="612pt" version="1.1" viewBox="0 0 792 612" width="792pt" xmlns="http://www.w3.org/2000/svg" xmlns:xlink="http://www.w3.org/1999/xlink">
 <defs>
  <style type="text/css">
*{stroke-linecap:butt;stroke-linejoin:round;}
  </style>
 </defs>
 <g id="figure_1">
  <g id="patch_1">
   <path d="M 0 612 
L 792 612 
L 792 0 
L 0 0 
z
" style="fill:none;"/>
  </g>
  <g id="axes_1">
   <g id="patch_2">
    <path d="M 99 535.5 
L 712.8 535.5 
L 712.8 73.44 
L 99 73.44 
z
" style="fill:none;"/>
   </g>
   <g id="matplotlib.axis_1">
    <g id="xtick_1">
     <g id="line2d_1">
      <path clip-path="url(#p3b0d141aa9)" d="M 712.8 535.5 
L 712.8 73.44 
" style="fill:none;stroke:#808080;stroke-linecap:round;stroke-opacity:0.25;"/>
     </g>
     <g id="text_1">
      <!-- 0.41 -->
      <defs>
       <path d="M 4.15625 35.296875 
Q 4.15625 48 6.765625 55.734375 
Q 9.375 63.484375 14.515625 67.671875 
Q 19.671875 71.875 27.484375 71.875 
Q 33.25 71.875 37.59375 69.546875 
Q 41.9375 67.234375 44.765625 62.859375 
Q 47.609375 58.5 49.21875 52.21875 
Q 50.828125 45.953125 50.828125 35.296875 
Q 50.828125 22.703125 48.234375 14.96875 
Q 45.65625 7.234375 40.5 3 
Q 35.359375 -1.21875 27.484375 -1.21875 
Q 17.140625 -1.21875 11.234375 6.203125 
Q 4.15625 15.140625 4.15625 35.296875 
z
M 13.1875 35.296875 
Q 13.1875 17.671875 17.3125 11.828125 
Q 21.4375 6 27.484375 6 
Q 33.546875 6 37.671875 11.859375 
Q 41.796875 17.71875 41.796875 35.296875 
Q 41.796875 52.984375 37.671875 58.78125 
Q 33.546875 64.59375 27.390625 64.59375 
Q 21.34375 64.59375 17.71875 59.46875 
Q 13.1875 52.9375 13.1875 35.296875 
z
" id="ArialMT-48"/>
       <path d="M 9.078125 0 
L 9.078125 10.015625 
L 19.09375 10.015625 
L 19.09375 0 
z
" id="ArialMT-46"/>
       <path d="M 32.328125 0 
L 32.328125 17.140625 
L 1.265625 17.140625 
L 1.265625 25.203125 
L 33.9375 71.578125 
L 41.109375 71.578125 
L 41.109375 25.203125 
L 50.78125 25.203125 
L 50.78125 17.140625 
L 41.109375 17.140625 
L 41.109375 0 
z
M 32.328125 25.203125 
L 32.328125 57.46875 
L 9.90625 25.203125 
z
" id="ArialMT-52"/>
       <path d="M 37.25 0 
L 28.46875 0 
L 28.46875 56 
Q 25.296875 52.984375 20.140625 49.953125 
Q 14.984375 46.921875 10.890625 45.40625 
L 10.890625 53.90625 
Q 18.265625 57.375 23.78125 62.296875 
Q 29.296875 67.234375 31.59375 71.875 
L 37.25 71.875 
z
" id="ArialMT-49"/>
      </defs>
      <g style="fill:#262626;" transform="translate(702.096484 552.873594)scale(0.11 -0.11)">
       <use xlink:href="#ArialMT-48"/>
       <use x="55.615234" xlink:href="#ArialMT-46"/>
       <use x="83.398438" xlink:href="#ArialMT-52"/>
       <use x="139.013672" xlink:href="#ArialMT-49"/>
      </g>
     </g>
    </g>
    <g id="xtick_2">
     <g id="line2d_2">
      <path clip-path="url(#p3b0d141aa9)" d="M 637.946341 535.5 
L 637.946341 73.44 
" style="fill:none;stroke:#808080;stroke-linecap:round;stroke-opacity:0.25;"/>
     </g>
     <g id="text_2">
      <!-- 0.42 -->
      <defs>
       <path d="M 50.34375 8.453125 
L 50.34375 0 
L 3.03125 0 
Q 2.9375 3.171875 4.046875 6.109375 
Q 5.859375 10.9375 9.828125 15.625 
Q 13.8125 20.3125 21.34375 26.46875 
Q 33.015625 36.03125 37.109375 41.625 
Q 41.21875 47.21875 41.21875 52.203125 
Q 41.21875 57.421875 37.46875 61 
Q 33.734375 64.59375 27.734375 64.59375 
Q 21.390625 64.59375 17.578125 60.78125 
Q 13.765625 56.984375 13.71875 50.25 
L 4.6875 51.171875 
Q 5.609375 61.28125 11.65625 66.578125 
Q 17.71875 71.875 27.9375 71.875 
Q 38.234375 71.875 44.234375 66.15625 
Q 50.25 60.453125 50.25 52 
Q 50.25 47.703125 48.484375 43.546875 
Q 46.734375 39.40625 42.65625 34.8125 
Q 38.578125 30.21875 29.109375 22.21875 
Q 21.1875 15.578125 18.9375 13.203125 
Q 16.703125 10.84375 15.234375 8.453125 
z
" id="ArialMT-50"/>
      </defs>
      <g style="fill:#262626;" transform="translate(627.242826 552.873594)scale(0.11 -0.11)">
       <use xlink:href="#ArialMT-48"/>
       <use x="55.615234" xlink:href="#ArialMT-46"/>
       <use x="83.398438" xlink:href="#ArialMT-52"/>
       <use x="139.013672" xlink:href="#ArialMT-50"/>
      </g>
     </g>
    </g>
    <g id="xtick_3">
     <g id="line2d_3">
      <path clip-path="url(#p3b0d141aa9)" d="M 563.092683 535.5 
L 563.092683 73.44 
" style="fill:none;stroke:#808080;stroke-linecap:round;stroke-opacity:0.25;"/>
     </g>
     <g id="text_3">
      <!-- 0.43 -->
      <defs>
       <path d="M 4.203125 18.890625 
L 12.984375 20.0625 
Q 14.5 12.59375 18.140625 9.296875 
Q 21.78125 6 27 6 
Q 33.203125 6 37.46875 10.296875 
Q 41.75 14.59375 41.75 20.953125 
Q 41.75 27 37.796875 30.921875 
Q 33.84375 34.859375 27.734375 34.859375 
Q 25.25 34.859375 21.53125 33.890625 
L 22.515625 41.609375 
Q 23.390625 41.5 23.921875 41.5 
Q 29.546875 41.5 34.03125 44.421875 
Q 38.53125 47.359375 38.53125 53.46875 
Q 38.53125 58.296875 35.25 61.46875 
Q 31.984375 64.65625 26.8125 64.65625 
Q 21.6875 64.65625 18.265625 61.421875 
Q 14.84375 58.203125 13.875 51.765625 
L 5.078125 53.328125 
Q 6.6875 62.15625 12.390625 67.015625 
Q 18.109375 71.875 26.609375 71.875 
Q 32.46875 71.875 37.390625 69.359375 
Q 42.328125 66.84375 44.9375 62.5 
Q 47.5625 58.15625 47.5625 53.265625 
Q 47.5625 48.640625 45.0625 44.828125 
Q 42.578125 41.015625 37.703125 38.765625 
Q 44.046875 37.3125 47.5625 32.6875 
Q 51.078125 28.078125 51.078125 21.140625 
Q 51.078125 11.765625 44.234375 5.25 
Q 37.40625 -1.265625 26.953125 -1.265625 
Q 17.53125 -1.265625 11.296875 4.34375 
Q 5.078125 9.96875 4.203125 18.890625 
z
" id="ArialMT-51"/>
      </defs>
      <g style="fill:#262626;" transform="translate(552.389167 552.873594)scale(0.11 -0.11)">
       <use xlink:href="#ArialMT-48"/>
       <use x="55.615234" xlink:href="#ArialMT-46"/>
       <use x="83.398438" xlink:href="#ArialMT-52"/>
       <use x="139.013672" xlink:href="#ArialMT-51"/>
      </g>
     </g>
    </g>
    <g id="xtick_4">
     <g id="line2d_4">
      <path clip-path="url(#p3b0d141aa9)" d="M 488.239024 535.5 
L 488.239024 73.44 
" style="fill:none;stroke:#808080;stroke-linecap:round;stroke-opacity:0.25;"/>
     </g>
     <g id="text_4">
      <!-- 0.44 -->
      <g style="fill:#262626;" transform="translate(477.535509 552.873594)scale(0.11 -0.11)">
       <use xlink:href="#ArialMT-48"/>
       <use x="55.615234" xlink:href="#ArialMT-46"/>
       <use x="83.398438" xlink:href="#ArialMT-52"/>
       <use x="139.013672" xlink:href="#ArialMT-52"/>
      </g>
     </g>
    </g>
    <g id="xtick_5">
     <g id="line2d_5">
      <path clip-path="url(#p3b0d141aa9)" d="M 413.385366 535.5 
L 413.385366 73.44 
" style="fill:none;stroke:#808080;stroke-linecap:round;stroke-opacity:0.25;"/>
     </g>
     <g id="text_5">
      <!-- 0.45 -->
      <defs>
       <path d="M 4.15625 18.75 
L 13.375 19.53125 
Q 14.40625 12.796875 18.140625 9.390625 
Q 21.875 6 27.15625 6 
Q 33.5 6 37.890625 10.78125 
Q 42.28125 15.578125 42.28125 23.484375 
Q 42.28125 31 38.0625 35.34375 
Q 33.84375 39.703125 27 39.703125 
Q 22.75 39.703125 19.328125 37.765625 
Q 15.921875 35.84375 13.96875 32.765625 
L 5.71875 33.84375 
L 12.640625 70.609375 
L 48.25 70.609375 
L 48.25 62.203125 
L 19.671875 62.203125 
L 15.828125 42.96875 
Q 22.265625 47.46875 29.34375 47.46875 
Q 38.71875 47.46875 45.15625 40.96875 
Q 51.609375 34.46875 51.609375 24.265625 
Q 51.609375 14.546875 45.953125 7.46875 
Q 39.0625 -1.21875 27.15625 -1.21875 
Q 17.390625 -1.21875 11.203125 4.25 
Q 5.03125 9.71875 4.15625 18.75 
z
" id="ArialMT-53"/>
      </defs>
      <g style="fill:#262626;" transform="translate(402.68185 552.873594)scale(0.11 -0.11)">
       <use xlink:href="#ArialMT-48"/>
       <use x="55.615234" xlink:href="#ArialMT-46"/>
       <use x="83.398438" xlink:href="#ArialMT-52"/>
       <use x="139.013672" xlink:href="#ArialMT-53"/>
      </g>
     </g>
    </g>
    <g id="xtick_6">
     <g id="line2d_6">
      <path clip-path="url(#p3b0d141aa9)" d="M 338.531707 535.5 
L 338.531707 73.44 
" style="fill:none;stroke:#808080;stroke-linecap:round;stroke-opacity:0.25;"/>
     </g>
     <g id="text_6">
      <!-- 0.46 -->
      <defs>
       <path d="M 49.75 54.046875 
L 41.015625 53.375 
Q 39.84375 58.546875 37.703125 60.890625 
Q 34.125 64.65625 28.90625 64.65625 
Q 24.703125 64.65625 21.53125 62.3125 
Q 17.390625 59.28125 14.984375 53.46875 
Q 12.59375 47.65625 12.5 36.921875 
Q 15.671875 41.75 20.265625 44.09375 
Q 24.859375 46.4375 29.890625 46.4375 
Q 38.671875 46.4375 44.84375 39.96875 
Q 51.03125 33.5 51.03125 23.25 
Q 51.03125 16.5 48.125 10.71875 
Q 45.21875 4.9375 40.140625 1.859375 
Q 35.0625 -1.21875 28.609375 -1.21875 
Q 17.625 -1.21875 10.6875 6.859375 
Q 3.765625 14.9375 3.765625 33.5 
Q 3.765625 54.25 11.421875 63.671875 
Q 18.109375 71.875 29.4375 71.875 
Q 37.890625 71.875 43.28125 67.140625 
Q 48.6875 62.40625 49.75 54.046875 
z
M 13.875 23.1875 
Q 13.875 18.65625 15.796875 14.5 
Q 17.71875 10.359375 21.1875 8.171875 
Q 24.65625 6 28.46875 6 
Q 34.03125 6 38.03125 10.484375 
Q 42.046875 14.984375 42.046875 22.703125 
Q 42.046875 30.125 38.078125 34.390625 
Q 34.125 38.671875 28.125 38.671875 
Q 22.171875 38.671875 18.015625 34.390625 
Q 13.875 30.125 13.875 23.1875 
z
" id="ArialMT-54"/>
      </defs>
      <g style="fill:#262626;" transform="translate(327.828192 552.873594)scale(0.11 -0.11)">
       <use xlink:href="#ArialMT-48"/>
       <use x="55.615234" xlink:href="#ArialMT-46"/>
       <use x="83.398438" xlink:href="#ArialMT-52"/>
       <use x="139.013672" xlink:href="#ArialMT-54"/>
      </g>
     </g>
    </g>
    <g id="xtick_7">
     <g id="line2d_7">
      <path clip-path="url(#p3b0d141aa9)" d="M 263.678049 535.5 
L 263.678049 73.44 
" style="fill:none;stroke:#808080;stroke-linecap:round;stroke-opacity:0.25;"/>
     </g>
     <g id="text_7">
      <!-- 0.47 -->
      <defs>
       <path d="M 4.734375 62.203125 
L 4.734375 70.65625 
L 51.078125 70.65625 
L 51.078125 63.8125 
Q 44.234375 56.546875 37.515625 44.484375 
Q 30.8125 32.421875 27.15625 19.671875 
Q 24.515625 10.6875 23.78125 0 
L 14.75 0 
Q 14.890625 8.453125 18.0625 20.40625 
Q 21.234375 32.375 27.171875 43.484375 
Q 33.109375 54.59375 39.796875 62.203125 
z
" id="ArialMT-55"/>
      </defs>
      <g style="fill:#262626;" transform="translate(252.974533 552.873594)scale(0.11 -0.11)">
       <use xlink:href="#ArialMT-48"/>
       <use x="55.615234" xlink:href="#ArialMT-46"/>
       <use x="83.398438" xlink:href="#ArialMT-52"/>
       <use x="139.013672" xlink:href="#ArialMT-55"/>
      </g>
     </g>
    </g>
    <g id="xtick_8">
     <g id="line2d_8">
      <path clip-path="url(#p3b0d141aa9)" d="M 188.82439 535.5 
L 188.82439 73.44 
" style="fill:none;stroke:#808080;stroke-linecap:round;stroke-opacity:0.25;"/>
     </g>
     <g id="text_8">
      <!-- 0.48 -->
      <defs>
       <path d="M 17.671875 38.8125 
Q 12.203125 40.828125 9.5625 44.53125 
Q 6.9375 48.25 6.9375 53.421875 
Q 6.9375 61.234375 12.546875 66.546875 
Q 18.171875 71.875 27.484375 71.875 
Q 36.859375 71.875 42.578125 66.421875 
Q 48.296875 60.984375 48.296875 53.171875 
Q 48.296875 48.1875 45.671875 44.5 
Q 43.0625 40.828125 37.75 38.8125 
Q 44.34375 36.671875 47.78125 31.875 
Q 51.21875 27.09375 51.21875 20.453125 
Q 51.21875 11.28125 44.71875 5.03125 
Q 38.234375 -1.21875 27.640625 -1.21875 
Q 17.046875 -1.21875 10.546875 5.046875 
Q 4.046875 11.328125 4.046875 20.703125 
Q 4.046875 27.6875 7.59375 32.390625 
Q 11.140625 37.109375 17.671875 38.8125 
z
M 15.921875 53.71875 
Q 15.921875 48.640625 19.1875 45.40625 
Q 22.46875 42.1875 27.6875 42.1875 
Q 32.765625 42.1875 36.015625 45.375 
Q 39.265625 48.578125 39.265625 53.21875 
Q 39.265625 58.0625 35.90625 61.359375 
Q 32.5625 64.65625 27.59375 64.65625 
Q 22.5625 64.65625 19.234375 61.421875 
Q 15.921875 58.203125 15.921875 53.71875 
z
M 13.09375 20.65625 
Q 13.09375 16.890625 14.875 13.375 
Q 16.65625 9.859375 20.171875 7.921875 
Q 23.6875 6 27.734375 6 
Q 34.03125 6 38.125 10.046875 
Q 42.234375 14.109375 42.234375 20.359375 
Q 42.234375 26.703125 38.015625 30.859375 
Q 33.796875 35.015625 27.4375 35.015625 
Q 21.234375 35.015625 17.15625 30.90625 
Q 13.09375 26.8125 13.09375 20.65625 
z
" id="ArialMT-56"/>
      </defs>
      <g style="fill:#262626;" transform="translate(178.120875 552.873594)scale(0.11 -0.11)">
       <use xlink:href="#ArialMT-48"/>
       <use x="55.615234" xlink:href="#ArialMT-46"/>
       <use x="83.398438" xlink:href="#ArialMT-52"/>
       <use x="139.013672" xlink:href="#ArialMT-56"/>
      </g>
     </g>
    </g>
    <g id="xtick_9">
     <g id="line2d_9">
      <path clip-path="url(#p3b0d141aa9)" d="M 113.970732 535.5 
L 113.970732 73.44 
" style="fill:none;stroke:#808080;stroke-linecap:round;stroke-opacity:0.25;"/>
     </g>
     <g id="text_9">
      <!-- 0.49 -->
      <defs>
       <path d="M 5.46875 16.546875 
L 13.921875 17.328125 
Q 14.984375 11.375 18.015625 8.6875 
Q 21.046875 6 25.78125 6 
Q 29.828125 6 32.875 7.859375 
Q 35.9375 9.71875 37.890625 12.8125 
Q 39.84375 15.921875 41.15625 21.1875 
Q 42.484375 26.46875 42.484375 31.9375 
Q 42.484375 32.515625 42.4375 33.6875 
Q 39.796875 29.5 35.234375 26.875 
Q 30.671875 24.265625 25.34375 24.265625 
Q 16.453125 24.265625 10.296875 30.703125 
Q 4.15625 37.15625 4.15625 47.703125 
Q 4.15625 58.59375 10.578125 65.234375 
Q 17 71.875 26.65625 71.875 
Q 33.640625 71.875 39.421875 68.109375 
Q 45.21875 64.359375 48.21875 57.390625 
Q 51.21875 50.4375 51.21875 37.25 
Q 51.21875 23.53125 48.234375 15.40625 
Q 45.265625 7.28125 39.375 3.03125 
Q 33.5 -1.21875 25.59375 -1.21875 
Q 17.1875 -1.21875 11.859375 3.4375 
Q 6.546875 8.109375 5.46875 16.546875 
z
M 41.453125 48.140625 
Q 41.453125 55.71875 37.421875 60.15625 
Q 33.40625 64.59375 27.734375 64.59375 
Q 21.875 64.59375 17.53125 59.8125 
Q 13.1875 55.03125 13.1875 47.40625 
Q 13.1875 40.578125 17.3125 36.296875 
Q 21.4375 32.03125 27.484375 32.03125 
Q 33.59375 32.03125 37.515625 36.296875 
Q 41.453125 40.578125 41.453125 48.140625 
z
" id="ArialMT-57"/>
      </defs>
      <g style="fill:#262626;" transform="translate(103.267216 552.873594)scale(0.11 -0.11)">
       <use xlink:href="#ArialMT-48"/>
       <use x="55.615234" xlink:href="#ArialMT-46"/>
       <use x="83.398438" xlink:href="#ArialMT-52"/>
       <use x="139.013672" xlink:href="#ArialMT-57"/>
      </g>
     </g>
    </g>
    <g id="xtick_10">
     <g id="line2d_10">
      <path clip-path="url(#p3b0d141aa9)" d="M 697.829268 535.5 
L 697.829268 73.44 
" style="fill:none;stroke:#808080;stroke-linecap:round;stroke-opacity:0.25;"/>
     </g>
    </g>
    <g id="xtick_11">
     <g id="line2d_11">
      <path clip-path="url(#p3b0d141aa9)" d="M 682.858537 535.5 
L 682.858537 73.44 
" style="fill:none;stroke:#808080;stroke-linecap:round;stroke-opacity:0.25;"/>
     </g>
    </g>
    <g id="xtick_12">
     <g id="line2d_12">
      <path clip-path="url(#p3b0d141aa9)" d="M 667.887805 535.5 
L 667.887805 73.44 
" style="fill:none;stroke:#808080;stroke-linecap:round;stroke-opacity:0.25;"/>
     </g>
    </g>
    <g id="xtick_13">
     <g id="line2d_13">
      <path clip-path="url(#p3b0d141aa9)" d="M 652.917073 535.5 
L 652.917073 73.44 
" style="fill:none;stroke:#808080;stroke-linecap:round;stroke-opacity:0.25;"/>
     </g>
    </g>
    <g id="xtick_14">
     <g id="line2d_14">
      <path clip-path="url(#p3b0d141aa9)" d="M 622.97561 535.5 
L 622.97561 73.44 
" style="fill:none;stroke:#808080;stroke-linecap:round;stroke-opacity:0.25;"/>
     </g>
    </g>
    <g id="xtick_15">
     <g id="line2d_15">
      <path clip-path="url(#p3b0d141aa9)" d="M 608.004878 535.5 
L 608.004878 73.44 
" style="fill:none;stroke:#808080;stroke-linecap:round;stroke-opacity:0.25;"/>
     </g>
    </g>
    <g id="xtick_16">
     <g id="line2d_16">
      <path clip-path="url(#p3b0d141aa9)" d="M 593.034146 535.5 
L 593.034146 73.44 
" style="fill:none;stroke:#808080;stroke-linecap:round;stroke-opacity:0.25;"/>
     </g>
    </g>
    <g id="xtick_17">
     <g id="line2d_17">
      <path clip-path="url(#p3b0d141aa9)" d="M 578.063415 535.5 
L 578.063415 73.44 
" style="fill:none;stroke:#808080;stroke-linecap:round;stroke-opacity:0.25;"/>
     </g>
    </g>
    <g id="xtick_18">
     <g id="line2d_18">
      <path clip-path="url(#p3b0d141aa9)" d="M 548.121951 535.5 
L 548.121951 73.44 
" style="fill:none;stroke:#808080;stroke-linecap:round;stroke-opacity:0.25;"/>
     </g>
    </g>
    <g id="xtick_19">
     <g id="line2d_19">
      <path clip-path="url(#p3b0d141aa9)" d="M 533.15122 535.5 
L 533.15122 73.44 
" style="fill:none;stroke:#808080;stroke-linecap:round;stroke-opacity:0.25;"/>
     </g>
    </g>
    <g id="xtick_20">
     <g id="line2d_20">
      <path clip-path="url(#p3b0d141aa9)" d="M 518.180488 535.5 
L 518.180488 73.44 
" style="fill:none;stroke:#808080;stroke-linecap:round;stroke-opacity:0.25;"/>
     </g>
    </g>
    <g id="xtick_21">
     <g id="line2d_21">
      <path clip-path="url(#p3b0d141aa9)" d="M 503.209756 535.5 
L 503.209756 73.44 
" style="fill:none;stroke:#808080;stroke-linecap:round;stroke-opacity:0.25;"/>
     </g>
    </g>
    <g id="xtick_22">
     <g id="line2d_22">
      <path clip-path="url(#p3b0d141aa9)" d="M 473.268293 535.5 
L 473.268293 73.44 
" style="fill:none;stroke:#808080;stroke-linecap:round;stroke-opacity:0.25;"/>
     </g>
    </g>
    <g id="xtick_23">
     <g id="line2d_23">
      <path clip-path="url(#p3b0d141aa9)" d="M 458.297561 535.5 
L 458.297561 73.44 
" style="fill:none;stroke:#808080;stroke-linecap:round;stroke-opacity:0.25;"/>
     </g>
    </g>
    <g id="xtick_24">
     <g id="line2d_24">
      <path clip-path="url(#p3b0d141aa9)" d="M 443.326829 535.5 
L 443.326829 73.44 
" style="fill:none;stroke:#808080;stroke-linecap:round;stroke-opacity:0.25;"/>
     </g>
    </g>
    <g id="xtick_25">
     <g id="line2d_25">
      <path clip-path="url(#p3b0d141aa9)" d="M 428.356098 535.5 
L 428.356098 73.44 
" style="fill:none;stroke:#808080;stroke-linecap:round;stroke-opacity:0.25;"/>
     </g>
    </g>
    <g id="xtick_26">
     <g id="line2d_26">
      <path clip-path="url(#p3b0d141aa9)" d="M 398.414634 535.5 
L 398.414634 73.44 
" style="fill:none;stroke:#808080;stroke-linecap:round;stroke-opacity:0.25;"/>
     </g>
    </g>
    <g id="xtick_27">
     <g id="line2d_27">
      <path clip-path="url(#p3b0d141aa9)" d="M 383.443902 535.5 
L 383.443902 73.44 
" style="fill:none;stroke:#808080;stroke-linecap:round;stroke-opacity:0.25;"/>
     </g>
    </g>
    <g id="xtick_28">
     <g id="line2d_28">
      <path clip-path="url(#p3b0d141aa9)" d="M 368.473171 535.5 
L 368.473171 73.44 
" style="fill:none;stroke:#808080;stroke-linecap:round;stroke-opacity:0.25;"/>
     </g>
    </g>
    <g id="xtick_29">
     <g id="line2d_29">
      <path clip-path="url(#p3b0d141aa9)" d="M 353.502439 535.5 
L 353.502439 73.44 
" style="fill:none;stroke:#808080;stroke-linecap:round;stroke-opacity:0.25;"/>
     </g>
    </g>
    <g id="xtick_30">
     <g id="line2d_30">
      <path clip-path="url(#p3b0d141aa9)" d="M 323.560976 535.5 
L 323.560976 73.44 
" style="fill:none;stroke:#808080;stroke-linecap:round;stroke-opacity:0.25;"/>
     </g>
    </g>
    <g id="xtick_31">
     <g id="line2d_31">
      <path clip-path="url(#p3b0d141aa9)" d="M 308.590244 535.5 
L 308.590244 73.44 
" style="fill:none;stroke:#808080;stroke-linecap:round;stroke-opacity:0.25;"/>
     </g>
    </g>
    <g id="xtick_32">
     <g id="line2d_32">
      <path clip-path="url(#p3b0d141aa9)" d="M 293.619512 535.5 
L 293.619512 73.44 
" style="fill:none;stroke:#808080;stroke-linecap:round;stroke-opacity:0.25;"/>
     </g>
    </g>
    <g id="xtick_33">
     <g id="line2d_33">
      <path clip-path="url(#p3b0d141aa9)" d="M 278.64878 535.5 
L 278.64878 73.44 
" style="fill:none;stroke:#808080;stroke-linecap:round;stroke-opacity:0.25;"/>
     </g>
    </g>
    <g id="xtick_34">
     <g id="line2d_34">
      <path clip-path="url(#p3b0d141aa9)" d="M 248.707317 535.5 
L 248.707317 73.44 
" style="fill:none;stroke:#808080;stroke-linecap:round;stroke-opacity:0.25;"/>
     </g>
    </g>
    <g id="xtick_35">
     <g id="line2d_35">
      <path clip-path="url(#p3b0d141aa9)" d="M 233.736585 535.5 
L 233.736585 73.44 
" style="fill:none;stroke:#808080;stroke-linecap:round;stroke-opacity:0.25;"/>
     </g>
    </g>
    <g id="xtick_36">
     <g id="line2d_36">
      <path clip-path="url(#p3b0d141aa9)" d="M 218.765854 535.5 
L 218.765854 73.44 
" style="fill:none;stroke:#808080;stroke-linecap:round;stroke-opacity:0.25;"/>
     </g>
    </g>
    <g id="xtick_37">
     <g id="line2d_37">
      <path clip-path="url(#p3b0d141aa9)" d="M 203.795122 535.5 
L 203.795122 73.44 
" style="fill:none;stroke:#808080;stroke-linecap:round;stroke-opacity:0.25;"/>
     </g>
    </g>
    <g id="xtick_38">
     <g id="line2d_38">
      <path clip-path="url(#p3b0d141aa9)" d="M 173.853659 535.5 
L 173.853659 73.44 
" style="fill:none;stroke:#808080;stroke-linecap:round;stroke-opacity:0.25;"/>
     </g>
    </g>
    <g id="xtick_39">
     <g id="line2d_39">
      <path clip-path="url(#p3b0d141aa9)" d="M 158.882927 535.5 
L 158.882927 73.44 
" style="fill:none;stroke:#808080;stroke-linecap:round;stroke-opacity:0.25;"/>
     </g>
    </g>
    <g id="xtick_40">
     <g id="line2d_40">
      <path clip-path="url(#p3b0d141aa9)" d="M 143.912195 535.5 
L 143.912195 73.44 
" style="fill:none;stroke:#808080;stroke-linecap:round;stroke-opacity:0.25;"/>
     </g>
    </g>
    <g id="xtick_41">
     <g id="line2d_41">
      <path clip-path="url(#p3b0d141aa9)" d="M 128.941463 535.5 
L 128.941463 73.44 
" style="fill:none;stroke:#808080;stroke-linecap:round;stroke-opacity:0.25;"/>
     </g>
    </g>
    <g id="text_10">
     <!-- Current in Dipole 1 (A) -->
     <defs>
      <path d="M 58.796875 25.09375 
L 68.265625 22.703125 
Q 65.28125 11.03125 57.546875 4.90625 
Q 49.8125 -1.21875 38.625 -1.21875 
Q 27.046875 -1.21875 19.796875 3.484375 
Q 12.546875 8.203125 8.765625 17.140625 
Q 4.984375 26.078125 4.984375 36.328125 
Q 4.984375 47.515625 9.25 55.828125 
Q 13.53125 64.15625 21.40625 68.46875 
Q 29.296875 72.796875 38.765625 72.796875 
Q 49.515625 72.796875 56.828125 67.328125 
Q 64.15625 61.859375 67.046875 51.953125 
L 57.71875 49.75 
Q 55.21875 57.5625 50.484375 61.125 
Q 45.75 64.703125 38.578125 64.703125 
Q 30.328125 64.703125 24.78125 60.734375 
Q 19.234375 56.78125 16.984375 50.109375 
Q 14.75 43.453125 14.75 36.375 
Q 14.75 27.25 17.40625 20.4375 
Q 20.0625 13.625 25.671875 10.25 
Q 31.296875 6.890625 37.84375 6.890625 
Q 45.796875 6.890625 51.3125 11.46875 
Q 56.84375 16.0625 58.796875 25.09375 
z
" id="ArialMT-67"/>
      <path d="M 40.578125 0 
L 40.578125 7.625 
Q 34.515625 -1.171875 24.125 -1.171875 
Q 19.53125 -1.171875 15.546875 0.578125 
Q 11.578125 2.34375 9.640625 5 
Q 7.71875 7.671875 6.9375 11.53125 
Q 6.390625 14.109375 6.390625 19.734375 
L 6.390625 51.859375 
L 15.1875 51.859375 
L 15.1875 23.09375 
Q 15.1875 16.21875 15.71875 13.8125 
Q 16.546875 10.359375 19.234375 8.375 
Q 21.921875 6.390625 25.875 6.390625 
Q 29.828125 6.390625 33.296875 8.421875 
Q 36.765625 10.453125 38.203125 13.9375 
Q 39.65625 17.4375 39.65625 24.078125 
L 39.65625 51.859375 
L 48.4375 51.859375 
L 48.4375 0 
z
" id="ArialMT-117"/>
      <path d="M 6.5 0 
L 6.5 51.859375 
L 14.40625 51.859375 
L 14.40625 44 
Q 17.4375 49.515625 20 51.265625 
Q 22.5625 53.03125 25.640625 53.03125 
Q 30.078125 53.03125 34.671875 50.203125 
L 31.640625 42.046875 
Q 28.421875 43.953125 25.203125 43.953125 
Q 22.3125 43.953125 20.015625 42.21875 
Q 17.71875 40.484375 16.75 37.40625 
Q 15.28125 32.71875 15.28125 27.15625 
L 15.28125 0 
z
" id="ArialMT-114"/>
      <path d="M 42.09375 16.703125 
L 51.171875 15.578125 
Q 49.03125 7.625 43.21875 3.21875 
Q 37.40625 -1.171875 28.375 -1.171875 
Q 17 -1.171875 10.328125 5.828125 
Q 3.65625 12.84375 3.65625 25.484375 
Q 3.65625 38.578125 10.390625 45.796875 
Q 17.140625 53.03125 27.875 53.03125 
Q 38.28125 53.03125 44.875 45.953125 
Q 51.46875 38.875 51.46875 26.03125 
Q 51.46875 25.25 51.421875 23.6875 
L 12.75 23.6875 
Q 13.234375 15.140625 17.578125 10.59375 
Q 21.921875 6.0625 28.421875 6.0625 
Q 33.25 6.0625 36.671875 8.59375 
Q 40.09375 11.140625 42.09375 16.703125 
z
M 13.234375 30.90625 
L 42.1875 30.90625 
Q 41.609375 37.453125 38.875 40.71875 
Q 34.671875 45.796875 27.984375 45.796875 
Q 21.921875 45.796875 17.796875 41.75 
Q 13.671875 37.703125 13.234375 30.90625 
z
" id="ArialMT-101"/>
      <path d="M 6.59375 0 
L 6.59375 51.859375 
L 14.5 51.859375 
L 14.5 44.484375 
Q 20.21875 53.03125 31 53.03125 
Q 35.6875 53.03125 39.625 51.34375 
Q 43.5625 49.65625 45.515625 46.921875 
Q 47.46875 44.1875 48.25 40.4375 
Q 48.734375 37.984375 48.734375 31.890625 
L 48.734375 0 
L 39.9375 0 
L 39.9375 31.546875 
Q 39.9375 36.921875 38.90625 39.578125 
Q 37.890625 42.234375 35.28125 43.8125 
Q 32.671875 45.40625 29.15625 45.40625 
Q 23.53125 45.40625 19.453125 41.84375 
Q 15.375 38.28125 15.375 28.328125 
L 15.375 0 
z
" id="ArialMT-110"/>
      <path d="M 25.78125 7.859375 
L 27.046875 0.09375 
Q 23.34375 -0.6875 20.40625 -0.6875 
Q 15.625 -0.6875 12.984375 0.828125 
Q 10.359375 2.34375 9.28125 4.8125 
Q 8.203125 7.28125 8.203125 15.1875 
L 8.203125 45.015625 
L 1.765625 45.015625 
L 1.765625 51.859375 
L 8.203125 51.859375 
L 8.203125 64.703125 
L 16.9375 69.96875 
L 16.9375 51.859375 
L 25.78125 51.859375 
L 25.78125 45.015625 
L 16.9375 45.015625 
L 16.9375 14.703125 
Q 16.9375 10.9375 17.40625 9.859375 
Q 17.875 8.796875 18.921875 8.15625 
Q 19.96875 7.515625 21.921875 7.515625 
Q 23.390625 7.515625 25.78125 7.859375 
z
" id="ArialMT-116"/>
      <path id="ArialMT-32"/>
      <path d="M 6.640625 61.46875 
L 6.640625 71.578125 
L 15.4375 71.578125 
L 15.4375 61.46875 
z
M 6.640625 0 
L 6.640625 51.859375 
L 15.4375 51.859375 
L 15.4375 0 
z
" id="ArialMT-105"/>
      <path d="M 7.71875 0 
L 7.71875 71.578125 
L 32.375 71.578125 
Q 40.71875 71.578125 45.125 70.5625 
Q 51.265625 69.140625 55.609375 65.4375 
Q 61.28125 60.640625 64.078125 53.1875 
Q 66.890625 45.75 66.890625 36.1875 
Q 66.890625 28.03125 64.984375 21.734375 
Q 63.09375 15.4375 60.109375 11.296875 
Q 57.125 7.171875 53.578125 4.796875 
Q 50.046875 2.4375 45.046875 1.21875 
Q 40.046875 0 33.546875 0 
z
M 17.1875 8.453125 
L 32.46875 8.453125 
Q 39.546875 8.453125 43.578125 9.765625 
Q 47.609375 11.078125 50 13.484375 
Q 53.375 16.84375 55.25 22.53125 
Q 57.125 28.21875 57.125 36.328125 
Q 57.125 47.5625 53.4375 53.59375 
Q 49.75 59.625 44.484375 61.671875 
Q 40.671875 63.140625 32.234375 63.140625 
L 17.1875 63.140625 
z
" id="ArialMT-68"/>
      <path d="M 6.59375 -19.875 
L 6.59375 51.859375 
L 14.59375 51.859375 
L 14.59375 45.125 
Q 17.4375 49.078125 21 51.046875 
Q 24.5625 53.03125 29.640625 53.03125 
Q 36.28125 53.03125 41.359375 49.609375 
Q 46.4375 46.1875 49.015625 39.953125 
Q 51.609375 33.734375 51.609375 26.3125 
Q 51.609375 18.359375 48.75 11.984375 
Q 45.90625 5.609375 40.453125 2.21875 
Q 35.015625 -1.171875 29 -1.171875 
Q 24.609375 -1.171875 21.109375 0.6875 
Q 17.625 2.546875 15.375 5.375 
L 15.375 -19.875 
z
M 14.546875 25.640625 
Q 14.546875 15.625 18.59375 10.84375 
Q 22.65625 6.0625 28.421875 6.0625 
Q 34.28125 6.0625 38.453125 11.015625 
Q 42.625 15.96875 42.625 26.375 
Q 42.625 36.28125 38.546875 41.203125 
Q 34.46875 46.140625 28.8125 46.140625 
Q 23.1875 46.140625 18.859375 40.890625 
Q 14.546875 35.640625 14.546875 25.640625 
z
" id="ArialMT-112"/>
      <path d="M 3.328125 25.921875 
Q 3.328125 40.328125 11.328125 47.265625 
Q 18.015625 53.03125 27.640625 53.03125 
Q 38.328125 53.03125 45.109375 46.015625 
Q 51.90625 39.015625 51.90625 26.65625 
Q 51.90625 16.65625 48.90625 10.90625 
Q 45.90625 5.171875 40.15625 2 
Q 34.421875 -1.171875 27.640625 -1.171875 
Q 16.75 -1.171875 10.03125 5.8125 
Q 3.328125 12.796875 3.328125 25.921875 
z
M 12.359375 25.921875 
Q 12.359375 15.96875 16.703125 11.015625 
Q 21.046875 6.0625 27.640625 6.0625 
Q 34.1875 6.0625 38.53125 11.03125 
Q 42.875 16.015625 42.875 26.21875 
Q 42.875 35.84375 38.5 40.796875 
Q 34.125 45.75 27.640625 45.75 
Q 21.046875 45.75 16.703125 40.8125 
Q 12.359375 35.890625 12.359375 25.921875 
z
" id="ArialMT-111"/>
      <path d="M 6.390625 0 
L 6.390625 71.578125 
L 15.1875 71.578125 
L 15.1875 0 
z
" id="ArialMT-108"/>
      <path d="M 23.390625 -21.046875 
Q 16.109375 -11.859375 11.078125 0.4375 
Q 6.0625 12.75 6.0625 25.921875 
Q 6.0625 37.546875 9.8125 48.1875 
Q 14.203125 60.546875 23.390625 72.796875 
L 29.6875 72.796875 
Q 23.78125 62.640625 21.875 58.296875 
Q 18.890625 51.5625 17.1875 44.234375 
Q 15.09375 35.109375 15.09375 25.875 
Q 15.09375 2.390625 29.6875 -21.046875 
z
" id="ArialMT-40"/>
      <path d="M -0.140625 0 
L 27.34375 71.578125 
L 37.546875 71.578125 
L 66.84375 0 
L 56.0625 0 
L 47.703125 21.6875 
L 17.78125 21.6875 
L 9.90625 0 
z
M 20.515625 29.390625 
L 44.78125 29.390625 
L 37.3125 49.21875 
Q 33.890625 58.25 32.234375 64.0625 
Q 30.859375 57.171875 28.375 50.390625 
z
" id="ArialMT-65"/>
      <path d="M 12.359375 -21.046875 
L 6.0625 -21.046875 
Q 20.65625 2.390625 20.65625 25.875 
Q 20.65625 35.0625 18.5625 44.09375 
Q 16.890625 51.421875 13.921875 58.15625 
Q 12.015625 62.546875 6.0625 72.796875 
L 12.359375 72.796875 
Q 21.53125 60.546875 25.921875 48.1875 
Q 29.6875 37.546875 29.6875 25.921875 
Q 29.6875 12.75 24.625 0.4375 
Q 19.578125 -11.859375 12.359375 -21.046875 
z
" id="ArialMT-41"/>
     </defs>
     <g style="fill:#262626;" transform="translate(346.214063 567.795469)scale(0.12 -0.12)">
      <use xlink:href="#ArialMT-67"/>
      <use x="72.216797" xlink:href="#ArialMT-117"/>
      <use x="127.832031" xlink:href="#ArialMT-114"/>
      <use x="161.132812" xlink:href="#ArialMT-114"/>
      <use x="194.433594" xlink:href="#ArialMT-101"/>
      <use x="250.048828" xlink:href="#ArialMT-110"/>
      <use x="305.664062" xlink:href="#ArialMT-116"/>
      <use x="333.447266" xlink:href="#ArialMT-32"/>
      <use x="361.230469" xlink:href="#ArialMT-105"/>
      <use x="383.447266" xlink:href="#ArialMT-110"/>
      <use x="439.0625" xlink:href="#ArialMT-32"/>
      <use x="466.845703" xlink:href="#ArialMT-68"/>
      <use x="539.0625" xlink:href="#ArialMT-105"/>
      <use x="561.279297" xlink:href="#ArialMT-112"/>
      <use x="616.894531" xlink:href="#ArialMT-111"/>
      <use x="672.509766" xlink:href="#ArialMT-108"/>
      <use x="694.726562" xlink:href="#ArialMT-101"/>
      <use x="750.341797" xlink:href="#ArialMT-32"/>
      <use x="778.125" xlink:href="#ArialMT-49"/>
      <use x="833.740234" xlink:href="#ArialMT-32"/>
      <use x="861.523438" xlink:href="#ArialMT-40"/>
      <use x="894.824219" xlink:href="#ArialMT-65"/>
      <use x="961.523438" xlink:href="#ArialMT-41"/>
     </g>
    </g>
   </g>
   <g id="matplotlib.axis_2">
    <g id="ytick_1">
     <g id="line2d_42">
      <path clip-path="url(#p3b0d141aa9)" d="M 99 479.303514 
L 712.8 479.303514 
" style="fill:none;stroke:#808080;stroke-linecap:round;stroke-opacity:0.25;"/>
     </g>
     <g id="text_11">
      <!-- −10 -->
      <defs>
       <path d="M 52.828125 31.203125 
L 5.5625 31.203125 
L 5.5625 39.40625 
L 52.828125 39.40625 
z
" id="ArialMT-8722"/>
      </defs>
      <g style="fill:#262626;" transform="translate(70.84125 483.24031)scale(0.11 -0.11)">
       <use xlink:href="#ArialMT-8722"/>
       <use x="58.398438" xlink:href="#ArialMT-49"/>
       <use x="114.013672" xlink:href="#ArialMT-48"/>
      </g>
     </g>
    </g>
    <g id="ytick_2">
     <g id="line2d_43">
      <path clip-path="url(#p3b0d141aa9)" d="M 99 416.862973 
L 712.8 416.862973 
" style="fill:none;stroke:#808080;stroke-linecap:round;stroke-opacity:0.25;"/>
     </g>
     <g id="text_12">
      <!-- 0 -->
      <g style="fill:#262626;" transform="translate(83.382969 420.79977)scale(0.11 -0.11)">
       <use xlink:href="#ArialMT-48"/>
      </g>
     </g>
    </g>
    <g id="ytick_3">
     <g id="line2d_44">
      <path clip-path="url(#p3b0d141aa9)" d="M 99 354.422432 
L 712.8 354.422432 
" style="fill:none;stroke:#808080;stroke-linecap:round;stroke-opacity:0.25;"/>
     </g>
     <g id="text_13">
      <!-- 10 -->
      <g style="fill:#262626;" transform="translate(77.265938 358.359229)scale(0.11 -0.11)">
       <use xlink:href="#ArialMT-49"/>
       <use x="55.615234" xlink:href="#ArialMT-48"/>
      </g>
     </g>
    </g>
    <g id="ytick_4">
     <g id="line2d_45">
      <path clip-path="url(#p3b0d141aa9)" d="M 99 291.981892 
L 712.8 291.981892 
" style="fill:none;stroke:#808080;stroke-linecap:round;stroke-opacity:0.25;"/>
     </g>
     <g id="text_14">
      <!-- 20 -->
      <g style="fill:#262626;" transform="translate(77.265938 295.918689)scale(0.11 -0.11)">
       <use xlink:href="#ArialMT-50"/>
       <use x="55.615234" xlink:href="#ArialMT-48"/>
      </g>
     </g>
    </g>
    <g id="ytick_5">
     <g id="line2d_46">
      <path clip-path="url(#p3b0d141aa9)" d="M 99 229.541351 
L 712.8 229.541351 
" style="fill:none;stroke:#808080;stroke-linecap:round;stroke-opacity:0.25;"/>
     </g>
     <g id="text_15">
      <!-- 30 -->
      <g style="fill:#262626;" transform="translate(77.265938 233.478148)scale(0.11 -0.11)">
       <use xlink:href="#ArialMT-51"/>
       <use x="55.615234" xlink:href="#ArialMT-48"/>
      </g>
     </g>
    </g>
    <g id="ytick_6">
     <g id="line2d_47">
      <path clip-path="url(#p3b0d141aa9)" d="M 99 167.100811 
L 712.8 167.100811 
" style="fill:none;stroke:#808080;stroke-linecap:round;stroke-opacity:0.25;"/>
     </g>
     <g id="text_16">
      <!-- 40 -->
      <g style="fill:#262626;" transform="translate(77.265938 171.037608)scale(0.11 -0.11)">
       <use xlink:href="#ArialMT-52"/>
       <use x="55.615234" xlink:href="#ArialMT-48"/>
      </g>
     </g>
    </g>
    <g id="ytick_7">
     <g id="line2d_48">
      <path clip-path="url(#p3b0d141aa9)" d="M 99 104.66027 
L 712.8 104.66027 
" style="fill:none;stroke:#808080;stroke-linecap:round;stroke-opacity:0.25;"/>
     </g>
     <g id="text_17">
      <!-- 50 -->
      <g style="fill:#262626;" transform="translate(77.265938 108.597067)scale(0.11 -0.11)">
       <use xlink:href="#ArialMT-53"/>
       <use x="55.615234" xlink:href="#ArialMT-48"/>
      </g>
     </g>
    </g>
    <g id="ytick_8">
     <g id="line2d_49">
      <path clip-path="url(#p3b0d141aa9)" d="M 99 529.255946 
L 712.8 529.255946 
" style="fill:none;stroke:#808080;stroke-linecap:round;stroke-opacity:0.25;"/>
     </g>
    </g>
    <g id="ytick_9">
     <g id="line2d_50">
      <path clip-path="url(#p3b0d141aa9)" d="M 99 516.767838 
L 712.8 516.767838 
" style="fill:none;stroke:#808080;stroke-linecap:round;stroke-opacity:0.25;"/>
     </g>
    </g>
    <g id="ytick_10">
     <g id="line2d_51">
      <path clip-path="url(#p3b0d141aa9)" d="M 99 504.27973 
L 712.8 504.27973 
" style="fill:none;stroke:#808080;stroke-linecap:round;stroke-opacity:0.25;"/>
     </g>
    </g>
    <g id="ytick_11">
     <g id="line2d_52">
      <path clip-path="url(#p3b0d141aa9)" d="M 99 491.791622 
L 712.8 491.791622 
" style="fill:none;stroke:#808080;stroke-linecap:round;stroke-opacity:0.25;"/>
     </g>
    </g>
    <g id="ytick_12">
     <g id="line2d_53">
      <path clip-path="url(#p3b0d141aa9)" d="M 99 466.815405 
L 712.8 466.815405 
" style="fill:none;stroke:#808080;stroke-linecap:round;stroke-opacity:0.25;"/>
     </g>
    </g>
    <g id="ytick_13">
     <g id="line2d_54">
      <path clip-path="url(#p3b0d141aa9)" d="M 99 454.327297 
L 712.8 454.327297 
" style="fill:none;stroke:#808080;stroke-linecap:round;stroke-opacity:0.25;"/>
     </g>
    </g>
    <g id="ytick_14">
     <g id="line2d_55">
      <path clip-path="url(#p3b0d141aa9)" d="M 99 441.839189 
L 712.8 441.839189 
" style="fill:none;stroke:#808080;stroke-linecap:round;stroke-opacity:0.25;"/>
     </g>
    </g>
    <g id="ytick_15">
     <g id="line2d_56">
      <path clip-path="url(#p3b0d141aa9)" d="M 99 429.351081 
L 712.8 429.351081 
" style="fill:none;stroke:#808080;stroke-linecap:round;stroke-opacity:0.25;"/>
     </g>
    </g>
    <g id="ytick_16">
     <g id="line2d_57">
      <path clip-path="url(#p3b0d141aa9)" d="M 99 404.374865 
L 712.8 404.374865 
" style="fill:none;stroke:#808080;stroke-linecap:round;stroke-opacity:0.25;"/>
     </g>
    </g>
    <g id="ytick_17">
     <g id="line2d_58">
      <path clip-path="url(#p3b0d141aa9)" d="M 99 391.886757 
L 712.8 391.886757 
" style="fill:none;stroke:#808080;stroke-linecap:round;stroke-opacity:0.25;"/>
     </g>
    </g>
    <g id="ytick_18">
     <g id="line2d_59">
      <path clip-path="url(#p3b0d141aa9)" d="M 99 379.398649 
L 712.8 379.398649 
" style="fill:none;stroke:#808080;stroke-linecap:round;stroke-opacity:0.25;"/>
     </g>
    </g>
    <g id="ytick_19">
     <g id="line2d_60">
      <path clip-path="url(#p3b0d141aa9)" d="M 99 366.910541 
L 712.8 366.910541 
" style="fill:none;stroke:#808080;stroke-linecap:round;stroke-opacity:0.25;"/>
     </g>
    </g>
    <g id="ytick_20">
     <g id="line2d_61">
      <path clip-path="url(#p3b0d141aa9)" d="M 99 341.934324 
L 712.8 341.934324 
" style="fill:none;stroke:#808080;stroke-linecap:round;stroke-opacity:0.25;"/>
     </g>
    </g>
    <g id="ytick_21">
     <g id="line2d_62">
      <path clip-path="url(#p3b0d141aa9)" d="M 99 329.446216 
L 712.8 329.446216 
" style="fill:none;stroke:#808080;stroke-linecap:round;stroke-opacity:0.25;"/>
     </g>
    </g>
    <g id="ytick_22">
     <g id="line2d_63">
      <path clip-path="url(#p3b0d141aa9)" d="M 99 316.958108 
L 712.8 316.958108 
" style="fill:none;stroke:#808080;stroke-linecap:round;stroke-opacity:0.25;"/>
     </g>
    </g>
    <g id="ytick_23">
     <g id="line2d_64">
      <path clip-path="url(#p3b0d141aa9)" d="M 99 304.47 
L 712.8 304.47 
" style="fill:none;stroke:#808080;stroke-linecap:round;stroke-opacity:0.25;"/>
     </g>
    </g>
    <g id="ytick_24">
     <g id="line2d_65">
      <path clip-path="url(#p3b0d141aa9)" d="M 99 279.493784 
L 712.8 279.493784 
" style="fill:none;stroke:#808080;stroke-linecap:round;stroke-opacity:0.25;"/>
     </g>
    </g>
    <g id="ytick_25">
     <g id="line2d_66">
      <path clip-path="url(#p3b0d141aa9)" d="M 99 267.005676 
L 712.8 267.005676 
" style="fill:none;stroke:#808080;stroke-linecap:round;stroke-opacity:0.25;"/>
     </g>
    </g>
    <g id="ytick_26">
     <g id="line2d_67">
      <path clip-path="url(#p3b0d141aa9)" d="M 99 254.517568 
L 712.8 254.517568 
" style="fill:none;stroke:#808080;stroke-linecap:round;stroke-opacity:0.25;"/>
     </g>
    </g>
    <g id="ytick_27">
     <g id="line2d_68">
      <path clip-path="url(#p3b0d141aa9)" d="M 99 242.029459 
L 712.8 242.029459 
" style="fill:none;stroke:#808080;stroke-linecap:round;stroke-opacity:0.25;"/>
     </g>
    </g>
    <g id="ytick_28">
     <g id="line2d_69">
      <path clip-path="url(#p3b0d141aa9)" d="M 99 217.053243 
L 712.8 217.053243 
" style="fill:none;stroke:#808080;stroke-linecap:round;stroke-opacity:0.25;"/>
     </g>
    </g>
    <g id="ytick_29">
     <g id="line2d_70">
      <path clip-path="url(#p3b0d141aa9)" d="M 99 204.565135 
L 712.8 204.565135 
" style="fill:none;stroke:#808080;stroke-linecap:round;stroke-opacity:0.25;"/>
     </g>
    </g>
    <g id="ytick_30">
     <g id="line2d_71">
      <path clip-path="url(#p3b0d141aa9)" d="M 99 192.077027 
L 712.8 192.077027 
" style="fill:none;stroke:#808080;stroke-linecap:round;stroke-opacity:0.25;"/>
     </g>
    </g>
    <g id="ytick_31">
     <g id="line2d_72">
      <path clip-path="url(#p3b0d141aa9)" d="M 99 179.588919 
L 712.8 179.588919 
" style="fill:none;stroke:#808080;stroke-linecap:round;stroke-opacity:0.25;"/>
     </g>
    </g>
    <g id="ytick_32">
     <g id="line2d_73">
      <path clip-path="url(#p3b0d141aa9)" d="M 99 154.612703 
L 712.8 154.612703 
" style="fill:none;stroke:#808080;stroke-linecap:round;stroke-opacity:0.25;"/>
     </g>
    </g>
    <g id="ytick_33">
     <g id="line2d_74">
      <path clip-path="url(#p3b0d141aa9)" d="M 99 142.124595 
L 712.8 142.124595 
" style="fill:none;stroke:#808080;stroke-linecap:round;stroke-opacity:0.25;"/>
     </g>
    </g>
    <g id="ytick_34">
     <g id="line2d_75">
      <path clip-path="url(#p3b0d141aa9)" d="M 99 129.636486 
L 712.8 129.636486 
" style="fill:none;stroke:#808080;stroke-linecap:round;stroke-opacity:0.25;"/>
     </g>
    </g>
    <g id="ytick_35">
     <g id="line2d_76">
      <path clip-path="url(#p3b0d141aa9)" d="M 99 117.148378 
L 712.8 117.148378 
" style="fill:none;stroke:#808080;stroke-linecap:round;stroke-opacity:0.25;"/>
     </g>
    </g>
    <g id="ytick_36">
     <g id="line2d_77">
      <path clip-path="url(#p3b0d141aa9)" d="M 99 92.172162 
L 712.8 92.172162 
" style="fill:none;stroke:#808080;stroke-linecap:round;stroke-opacity:0.25;"/>
     </g>
    </g>
    <g id="ytick_37">
     <g id="line2d_78">
      <path clip-path="url(#p3b0d141aa9)" d="M 99 79.684054 
L 712.8 79.684054 
" style="fill:none;stroke:#808080;stroke-linecap:round;stroke-opacity:0.25;"/>
     </g>
    </g>
    <g id="text_18">
     <!-- Current Collected as percentage of Emitted Current -->
     <defs>
      <path d="M 40.4375 19 
L 49.078125 17.875 
Q 47.65625 8.9375 41.8125 3.875 
Q 35.984375 -1.171875 27.484375 -1.171875 
Q 16.84375 -1.171875 10.375 5.78125 
Q 3.90625 12.75 3.90625 25.734375 
Q 3.90625 34.125 6.6875 40.421875 
Q 9.46875 46.734375 15.15625 49.875 
Q 20.84375 53.03125 27.546875 53.03125 
Q 35.984375 53.03125 41.359375 48.75 
Q 46.734375 44.484375 48.25 36.625 
L 39.703125 35.296875 
Q 38.484375 40.53125 35.375 43.15625 
Q 32.28125 45.796875 27.875 45.796875 
Q 21.234375 45.796875 17.078125 41.03125 
Q 12.9375 36.28125 12.9375 25.984375 
Q 12.9375 15.53125 16.9375 10.796875 
Q 20.953125 6.0625 27.390625 6.0625 
Q 32.5625 6.0625 36.03125 9.234375 
Q 39.5 12.40625 40.4375 19 
z
" id="ArialMT-99"/>
      <path d="M 40.234375 0 
L 40.234375 6.546875 
Q 35.296875 -1.171875 25.734375 -1.171875 
Q 19.53125 -1.171875 14.328125 2.25 
Q 9.125 5.671875 6.265625 11.796875 
Q 3.421875 17.921875 3.421875 25.875 
Q 3.421875 33.640625 6 39.96875 
Q 8.59375 46.296875 13.765625 49.65625 
Q 18.953125 53.03125 25.34375 53.03125 
Q 30.03125 53.03125 33.6875 51.046875 
Q 37.359375 49.078125 39.65625 45.90625 
L 39.65625 71.578125 
L 48.390625 71.578125 
L 48.390625 0 
z
M 12.453125 25.875 
Q 12.453125 15.921875 16.640625 10.984375 
Q 20.84375 6.0625 26.5625 6.0625 
Q 32.328125 6.0625 36.34375 10.765625 
Q 40.375 15.484375 40.375 25.140625 
Q 40.375 35.796875 36.265625 40.765625 
Q 32.171875 45.75 26.171875 45.75 
Q 20.3125 45.75 16.375 40.96875 
Q 12.453125 36.1875 12.453125 25.875 
z
" id="ArialMT-100"/>
      <path d="M 40.4375 6.390625 
Q 35.546875 2.25 31.03125 0.53125 
Q 26.515625 -1.171875 21.34375 -1.171875 
Q 12.796875 -1.171875 8.203125 3 
Q 3.609375 7.171875 3.609375 13.671875 
Q 3.609375 17.484375 5.34375 20.625 
Q 7.078125 23.78125 9.890625 25.6875 
Q 12.703125 27.59375 16.21875 28.5625 
Q 18.796875 29.25 24.03125 29.890625 
Q 34.671875 31.15625 39.703125 32.90625 
Q 39.75 34.71875 39.75 35.203125 
Q 39.75 40.578125 37.25 42.78125 
Q 33.890625 45.75 27.25 45.75 
Q 21.046875 45.75 18.09375 43.578125 
Q 15.140625 41.40625 13.71875 35.890625 
L 5.125 37.0625 
Q 6.296875 42.578125 8.984375 45.96875 
Q 11.671875 49.359375 16.75 51.1875 
Q 21.828125 53.03125 28.515625 53.03125 
Q 35.15625 53.03125 39.296875 51.46875 
Q 43.453125 49.90625 45.40625 47.53125 
Q 47.359375 45.171875 48.140625 41.546875 
Q 48.578125 39.3125 48.578125 33.453125 
L 48.578125 21.734375 
Q 48.578125 9.46875 49.140625 6.21875 
Q 49.703125 2.984375 51.375 0 
L 42.1875 0 
Q 40.828125 2.734375 40.4375 6.390625 
z
M 39.703125 26.03125 
Q 34.90625 24.078125 25.34375 22.703125 
Q 19.921875 21.921875 17.671875 20.9375 
Q 15.4375 19.96875 14.203125 18.09375 
Q 12.984375 16.21875 12.984375 13.921875 
Q 12.984375 10.40625 15.640625 8.0625 
Q 18.3125 5.71875 23.4375 5.71875 
Q 28.515625 5.71875 32.46875 7.9375 
Q 36.421875 10.15625 38.28125 14.015625 
Q 39.703125 17 39.703125 22.796875 
z
" id="ArialMT-97"/>
      <path d="M 3.078125 15.484375 
L 11.765625 16.84375 
Q 12.5 11.625 15.84375 8.84375 
Q 19.1875 6.0625 25.203125 6.0625 
Q 31.25 6.0625 34.171875 8.515625 
Q 37.109375 10.984375 37.109375 14.3125 
Q 37.109375 17.28125 34.515625 19 
Q 32.71875 20.171875 25.53125 21.96875 
Q 15.875 24.421875 12.140625 26.203125 
Q 8.40625 27.984375 6.46875 31.125 
Q 4.546875 34.28125 4.546875 38.09375 
Q 4.546875 41.546875 6.125 44.5 
Q 7.71875 47.46875 10.453125 49.421875 
Q 12.5 50.921875 16.03125 51.96875 
Q 19.578125 53.03125 23.640625 53.03125 
Q 29.734375 53.03125 34.34375 51.265625 
Q 38.96875 49.515625 41.15625 46.5 
Q 43.359375 43.5 44.1875 38.484375 
L 35.59375 37.3125 
Q 35.015625 41.3125 32.203125 43.546875 
Q 29.390625 45.796875 24.265625 45.796875 
Q 18.21875 45.796875 15.625 43.796875 
Q 13.03125 41.796875 13.03125 39.109375 
Q 13.03125 37.40625 14.109375 36.03125 
Q 15.1875 34.625 17.484375 33.6875 
Q 18.796875 33.203125 25.25 31.453125 
Q 34.578125 28.953125 38.25 27.359375 
Q 41.9375 25.78125 44.03125 22.75 
Q 46.140625 19.734375 46.140625 15.234375 
Q 46.140625 10.84375 43.578125 6.953125 
Q 41.015625 3.078125 36.171875 0.953125 
Q 31.34375 -1.171875 25.25 -1.171875 
Q 15.140625 -1.171875 9.84375 3.03125 
Q 4.546875 7.234375 3.078125 15.484375 
z
" id="ArialMT-115"/>
      <path d="M 4.984375 -4.296875 
L 13.53125 -5.5625 
Q 14.0625 -9.515625 16.5 -11.328125 
Q 19.78125 -13.765625 25.4375 -13.765625 
Q 31.546875 -13.765625 34.859375 -11.328125 
Q 38.1875 -8.890625 39.359375 -4.5 
Q 40.046875 -1.8125 39.984375 6.78125 
Q 34.234375 0 25.640625 0 
Q 14.9375 0 9.078125 7.71875 
Q 3.21875 15.4375 3.21875 26.21875 
Q 3.21875 33.640625 5.90625 39.90625 
Q 8.59375 46.1875 13.6875 49.609375 
Q 18.796875 53.03125 25.6875 53.03125 
Q 34.859375 53.03125 40.828125 45.609375 
L 40.828125 51.859375 
L 48.921875 51.859375 
L 48.921875 7.03125 
Q 48.921875 -5.078125 46.453125 -10.125 
Q 44 -15.1875 38.640625 -18.109375 
Q 33.296875 -21.046875 25.484375 -21.046875 
Q 16.21875 -21.046875 10.5 -16.875 
Q 4.78125 -12.703125 4.984375 -4.296875 
z
M 12.25 26.859375 
Q 12.25 16.65625 16.296875 11.96875 
Q 20.359375 7.28125 26.46875 7.28125 
Q 32.515625 7.28125 36.609375 11.9375 
Q 40.71875 16.609375 40.71875 26.5625 
Q 40.71875 36.078125 36.5 40.90625 
Q 32.28125 45.75 26.3125 45.75 
Q 20.453125 45.75 16.34375 40.984375 
Q 12.25 36.234375 12.25 26.859375 
z
" id="ArialMT-103"/>
      <path d="M 8.6875 0 
L 8.6875 45.015625 
L 0.921875 45.015625 
L 0.921875 51.859375 
L 8.6875 51.859375 
L 8.6875 57.375 
Q 8.6875 62.59375 9.625 65.140625 
Q 10.890625 68.5625 14.078125 70.671875 
Q 17.28125 72.796875 23.046875 72.796875 
Q 26.765625 72.796875 31.25 71.921875 
L 29.9375 64.265625 
Q 27.203125 64.75 24.75 64.75 
Q 20.75 64.75 19.09375 63.03125 
Q 17.4375 61.328125 17.4375 56.640625 
L 17.4375 51.859375 
L 27.546875 51.859375 
L 27.546875 45.015625 
L 17.4375 45.015625 
L 17.4375 0 
z
" id="ArialMT-102"/>
      <path d="M 7.90625 0 
L 7.90625 71.578125 
L 59.671875 71.578125 
L 59.671875 63.140625 
L 17.390625 63.140625 
L 17.390625 41.21875 
L 56.984375 41.21875 
L 56.984375 32.8125 
L 17.390625 32.8125 
L 17.390625 8.453125 
L 61.328125 8.453125 
L 61.328125 0 
z
" id="ArialMT-69"/>
      <path d="M 6.59375 0 
L 6.59375 51.859375 
L 14.453125 51.859375 
L 14.453125 44.578125 
Q 16.890625 48.390625 20.9375 50.703125 
Q 25 53.03125 30.171875 53.03125 
Q 35.9375 53.03125 39.625 50.640625 
Q 43.3125 48.25 44.828125 43.953125 
Q 50.984375 53.03125 60.84375 53.03125 
Q 68.5625 53.03125 72.703125 48.75 
Q 76.859375 44.484375 76.859375 35.59375 
L 76.859375 0 
L 68.109375 0 
L 68.109375 32.671875 
Q 68.109375 37.9375 67.25 40.25 
Q 66.40625 42.578125 64.15625 43.984375 
Q 61.921875 45.40625 58.890625 45.40625 
Q 53.421875 45.40625 49.796875 41.765625 
Q 46.1875 38.140625 46.1875 30.125 
L 46.1875 0 
L 37.40625 0 
L 37.40625 33.6875 
Q 37.40625 39.546875 35.25 42.46875 
Q 33.109375 45.40625 28.21875 45.40625 
Q 24.515625 45.40625 21.359375 43.453125 
Q 18.21875 41.5 16.796875 37.734375 
Q 15.375 33.984375 15.375 26.90625 
L 15.375 0 
z
" id="ArialMT-109"/>
     </defs>
     <g style="fill:#262626;" transform="translate(64.315625 441.195)rotate(-90)scale(0.12 -0.12)">
      <use xlink:href="#ArialMT-67"/>
      <use x="72.216797" xlink:href="#ArialMT-117"/>
      <use x="127.832031" xlink:href="#ArialMT-114"/>
      <use x="161.132812" xlink:href="#ArialMT-114"/>
      <use x="194.433594" xlink:href="#ArialMT-101"/>
      <use x="250.048828" xlink:href="#ArialMT-110"/>
      <use x="305.664062" xlink:href="#ArialMT-116"/>
      <use x="333.447266" xlink:href="#ArialMT-32"/>
      <use x="361.230469" xlink:href="#ArialMT-67"/>
      <use x="433.447266" xlink:href="#ArialMT-111"/>
      <use x="489.0625" xlink:href="#ArialMT-108"/>
      <use x="511.279297" xlink:href="#ArialMT-108"/>
      <use x="533.496094" xlink:href="#ArialMT-101"/>
      <use x="589.111328" xlink:href="#ArialMT-99"/>
      <use x="639.111328" xlink:href="#ArialMT-116"/>
      <use x="666.894531" xlink:href="#ArialMT-101"/>
      <use x="722.509766" xlink:href="#ArialMT-100"/>
      <use x="778.125" xlink:href="#ArialMT-32"/>
      <use x="805.908203" xlink:href="#ArialMT-97"/>
      <use x="861.523438" xlink:href="#ArialMT-115"/>
      <use x="911.523438" xlink:href="#ArialMT-32"/>
      <use x="939.306641" xlink:href="#ArialMT-112"/>
      <use x="994.921875" xlink:href="#ArialMT-101"/>
      <use x="1050.537109" xlink:href="#ArialMT-114"/>
      <use x="1083.837891" xlink:href="#ArialMT-99"/>
      <use x="1133.837891" xlink:href="#ArialMT-101"/>
      <use x="1189.453125" xlink:href="#ArialMT-110"/>
      <use x="1245.068359" xlink:href="#ArialMT-116"/>
      <use x="1272.851562" xlink:href="#ArialMT-97"/>
      <use x="1328.466797" xlink:href="#ArialMT-103"/>
      <use x="1384.082031" xlink:href="#ArialMT-101"/>
      <use x="1439.697266" xlink:href="#ArialMT-32"/>
      <use x="1467.480469" xlink:href="#ArialMT-111"/>
      <use x="1523.095703" xlink:href="#ArialMT-102"/>
      <use x="1550.878906" xlink:href="#ArialMT-32"/>
      <use x="1578.662109" xlink:href="#ArialMT-69"/>
      <use x="1645.361328" xlink:href="#ArialMT-109"/>
      <use x="1728.662109" xlink:href="#ArialMT-105"/>
      <use x="1750.878906" xlink:href="#ArialMT-116"/>
      <use x="1778.662109" xlink:href="#ArialMT-116"/>
      <use x="1806.445312" xlink:href="#ArialMT-101"/>
      <use x="1862.060547" xlink:href="#ArialMT-100"/>
      <use x="1917.675781" xlink:href="#ArialMT-32"/>
      <use x="1945.458984" xlink:href="#ArialMT-67"/>
      <use x="2017.675781" xlink:href="#ArialMT-117"/>
      <use x="2073.291016" xlink:href="#ArialMT-114"/>
      <use x="2106.591797" xlink:href="#ArialMT-114"/>
      <use x="2139.892578" xlink:href="#ArialMT-101"/>
      <use x="2195.507812" xlink:href="#ArialMT-110"/>
      <use x="2251.123047" xlink:href="#ArialMT-116"/>
     </g>
    </g>
   </g>
   <g id="LineCollection_1">
    <path clip-path="url(#p3b0d141aa9)" d="M -1 416.862973 
L 793 416.862973 
" style="fill:none;stroke:#1a1a1a;stroke-opacity:0.25;stroke-width:1.5;"/>
   </g>
   <g id="LineCollection_2">
    <path clip-path="url(#p3b0d141aa9)" d="M 414.422293 416.862973 
L 414.422293 416.862973 
" style="fill:none;stroke:#ff0000;stroke-opacity:0.25;stroke-width:1.5;"/>
   </g>
   <g id="LineCollection_3">
    <path clip-path="url(#p3b0d141aa9)" d="M 389.355859 416.862973 
L 389.355859 416.862973 
" style="fill:none;stroke:#ff0000;stroke-opacity:0.25;stroke-width:1.5;"/>
   </g>
   <g id="LineCollection_4">
    <path clip-path="url(#p3b0d141aa9)" d="M 364.289426 416.862973 
L 364.289426 416.862973 
" style="fill:none;stroke:#ff0000;stroke-opacity:0.25;stroke-width:1.5;"/>
   </g>
   <g id="LineCollection_5">
    <path clip-path="url(#p3b0d141aa9)" d="M 339.222992 416.862973 
L 339.222992 416.862973 
" style="fill:none;stroke:#ff0000;stroke-opacity:0.25;stroke-width:1.5;"/>
   </g>
   <g id="LineCollection_6">
    <path clip-path="url(#p3b0d141aa9)" d="M 314.156558 416.862973 
L 314.156558 416.862973 
" style="fill:none;stroke:#ff0000;stroke-opacity:0.25;stroke-width:1.5;"/>
   </g>
   <g id="LineCollection_7">
    <path clip-path="url(#p3b0d141aa9)" d="M 289.090125 416.862973 
L 289.090125 416.862973 
" style="fill:none;stroke:#ff0000;stroke-opacity:0.25;stroke-width:1.5;"/>
   </g>
   <g id="LineCollection_8">
    <path clip-path="url(#p3b0d141aa9)" d="M 264.023691 416.862973 
L 264.023691 416.862973 
" style="fill:none;stroke:#ff0000;stroke-opacity:0.25;stroke-width:1.5;"/>
   </g>
   <g id="LineCollection_9">
    <path clip-path="url(#p3b0d141aa9)" d="M 238.957257 416.862973 
L 238.957257 416.862973 
" style="fill:none;stroke:#ff0000;stroke-opacity:0.25;stroke-width:1.5;"/>
   </g>
   <g id="LineCollection_10">
    <path clip-path="url(#p3b0d141aa9)" d="M 213.890824 416.862973 
L 213.890824 416.862973 
" style="fill:none;stroke:#ff0000;stroke-opacity:0.25;stroke-width:1.5;"/>
   </g>
   <g id="LineCollection_11">
    <path clip-path="url(#p3b0d141aa9)" d="M 188.82439 416.862973 
L 188.82439 416.862973 
" style="fill:none;stroke:#ff0000;stroke-opacity:0.25;stroke-width:1.5;"/>
   </g>
   <g id="line2d_79">
    <path clip-path="url(#p3b0d141aa9)" d="M 11.587058 416.633387 
L 19.049237 416.679304 
L 26.511415 416.656346 
L 33.973594 416.679304 
L 41.435773 416.725221 
L 48.897952 414.498238 
L 56.360131 393.284499 
L 63.82231 369.109101 
L 71.284489 339.4466 
L 78.746667 315.294161 
L 86.208846 300.738414 
L 93.671025 286.572962 
L 101.133204 275.277336 
L 108.595383 268.757094 
L 116.057562 259.527742 
L 123.519741 252.731998 
L 130.981919 243.686314 
L 138.444098 233.400862 
L 145.906277 225.686777 
L 153.368456 218.248194 
L 160.830635 209.409133 
L 168.292814 204.863332 
L 175.754993 199.192558 
L 183.217171 194.968182 
L 190.67935 190.606047 
L 198.141529 185.463322 
L 205.603708 180.068055 
L 213.065887 174.420242 
L 220.528066 169.162722 
L 227.990245 165.787807 
L 235.452423 161.770052 
L 242.914602 158.854317 
L 250.376781 154.147803 
L 257.83896 151.714194 
L 265.301139 146.387801 
L 272.763318 142.944013 
L 280.225497 138.535958 
L 287.687675 134.793711 
L 295.149854 128.824477 
L 302.612033 125.380682 
L 310.074212 121.753231 
L 317.536391 120.352756 
L 324.99857 117.230384 
L 332.460748 115.508488 
L 339.922927 109.631095 
L 347.385106 106.003634 
L 354.847285 103.684816 
L 362.309464 100.883873 
L 369.771643 96.957951 
L 377.233822 91.998894 
L 384.696 86.557707 
L 392.158179 82.516994 
L 399.620358 80.381846 
L 407.082537 80.58847 
L 414.544716 82.815457 
L 422.006895 87.062794 
L 429.469074 92.25144 
L 436.931252 100.998663 
L 444.393431 110.962693 
L 451.85561 123.084826 
L 459.317789 138.650752 
L 466.779968 152.42591 
L 474.242147 166.384731 
L 481.704326 182.134328 
L 489.166504 195.2896 
L 496.628683 209.523927 
L 504.090862 222.771036 
L 511.553041 233.079444 
L 519.01522 245.477083 
L 526.477399 252.938625 
L 533.939578 259.091529 
L 541.401756 263.958749 
L 548.863935 268.34384 
L 556.326114 273.624314 
L 563.788293 278.537455 
L 571.250472 282.601125 
L 578.712651 287.307638 
L 586.174829 291.256517 
L 593.637008 296.238531 
L 601.099187 300.026698 
L 608.561366 302.368474 
L 616.023545 305.16942 
L 623.485724 307.465282 
L 630.947903 309.852975 
L 638.410081 312.493211 
L 645.87226 314.720198 
L 653.334439 317.153807 
L 660.796618 319.633335 
L 668.258797 321.699608 
L 675.720976 323.926591 
L 683.183155 326.153574 
L 690.645333 328.242806 
L 698.107512 330.194287 
L 705.569691 331.663636 
L 713.03187 333.661034 
L 720.494049 335.015591 
L 727.956228 336.553818 
L 735.418407 338.436423 
L 742.880585 340.341985 
L 750.342764 340.273109 
L 757.804943 341.030743 
L 765.267122 343.372521 
L 772.729301 345.553586 
" style="fill:none;stroke:#4c72b0;stroke-linecap:round;stroke-opacity:0.75;stroke-width:5;"/>
   </g>
   <g id="line2d_80">
    <path clip-path="url(#p3b0d141aa9)" d="M 11.587058 464.352329 
L 19.049237 441.177051 
L 26.511415 418.001774 
L 33.973594 394.826496 
L 41.435773 360.056774 
L 48.897952 313.050615 
L 56.360131 267.432794 
L 63.82231 238.944625 
L 71.284489 232.281959 
L 78.746667 251.514537 
L 86.208846 281.064376 
L 93.671025 310.655051 
L 101.133204 331.514161 
L 108.595383 341.395868 
L 116.057562 346.098524 
L 123.519741 347.10575 
L 130.981919 346.15297 
L 138.444098 346.513663 
L 145.906277 349.480898 
L 153.368456 355.551475 
L 160.830635 363.010398 
L 168.292814 368.835975 
L 175.754993 373.627106 
L 183.217171 376.723649 
L 190.67935 375.634757 
L 198.141529 374.852113 
L 205.603708 374.926969 
L 213.065887 376.322113 
L 220.528066 379.792964 
L 227.990245 382.392695 
L 235.452423 385.713823 
L 242.914602 386.006467 
L 250.376781 385.312299 
L 257.83896 384.468401 
L 265.301139 383.610894 
L 272.763318 381.984362 
L 280.225497 380.616432 
L 287.687675 381.664495 
L 295.149854 384.032841 
L 302.612033 387.258687 
L 310.074212 391.348837 
L 317.536391 392.60107 
L 324.99857 391.008566 
L 332.460748 390.035363 
L 339.922927 388.701477 
L 347.385106 388.402034 
L 354.847285 386.92522 
L 362.309464 386.047294 
L 369.771643 383.188949 
L 377.233822 382.16811 
L 384.696 386.176593 
L 392.158179 395.690802 
L 399.620358 409.683081 
L 407.082537 425.34273 
L 414.544716 442.254606 
L 422.006895 458.955507 
L 429.469074 475.472655 
L 436.931252 493.418972 
L 444.393431 509.044591 
L 451.85561 521.485191 
L 459.317789 530.570647 
L 466.779968 535.082749 
L 474.242147 536.1172 
L 481.704326 534.089136 
L 489.166504 530.135092 
L 496.628683 525.548131 
L 504.090862 516.564759 
L 511.553041 506.070552 
L 519.01522 492.690775 
L 526.477399 479.732944 
L 533.939578 469.742347 
L 541.401756 461.269398 
L 548.863935 457.635217 
L 556.326114 456.0291 
L 563.788293 455.042294 
L 571.250472 454.722433 
L 578.712651 453.40215 
L 586.174829 451.033805 
L 593.637008 448.461292 
L 601.099187 444.854332 
L 608.561366 441.580847 
L 616.023545 438.654446 
L 623.485724 437.320555 
L 630.947903 437.164027 
L 638.410081 436.912221 
L 645.87226 436.701245 
L 653.334439 436.29291 
L 660.796618 435.816519 
L 668.258797 435.496655 
L 675.720976 434.884154 
L 683.183155 433.876928 
L 690.645333 433.284843 
L 698.107512 432.189145 
L 705.569691 431.154698 
L 713.03187 430.691919 
L 720.494049 430.759975 
L 727.956228 429.494137 
L 735.418407 427.656628 
L 742.880585 427.493294 
L 750.342764 427.996907 
L 757.804943 429.049505 
L 765.267122 430.102103 
L 772.729301 431.154702 
" style="fill:none;stroke:#dd8452;stroke-linecap:round;stroke-opacity:0.75;stroke-width:5;"/>
   </g>
   <g id="line2d_81">
    <path clip-path="url(#p3b0d141aa9)" d="M 33.973593 416.750084 
L 26.511415 416.682351 
L 19.049236 416.659773 
L 11.587058 416.637195 
L 34.042866 416.637195 
L 41.504359 416.750084 
L 48.965852 416.659773 
L 56.427345 415.530885 
L 63.888838 403.948492 
L 71.350331 383.041485 
L 78.811824 353.261416 
L 86.273317 330.796543 
L 93.73481 311.718334 
L 101.196303 294.220567 
L 108.657796 280.831954 
L 116.119289 270.26556 
L 123.580782 261.30219 
L 131.042275 251.842108 
L 138.503768 241.998204 
L 145.965261 234.36692 
L 153.426754 226.238923 
L 160.888247 218.223818 
L 168.34974 211.834311 
L 175.811233 204.699741 
L 183.272726 198.310235 
L 190.734219 191.49175 
L 198.195712 185.463488 
L 205.657205 178.961092 
L 213.118698 172.029717 
L 220.580191 166.611055 
L 228.041684 161.824567 
L 235.503177 157.331593 
L 242.96467 152.116129 
L 250.426163 147.600578 
L 257.887656 144.868667 
L 265.349149 142.723781 
L 272.810642 135.927879 
L 280.272135 130.260855 
L 287.733628 125.67757 
L 295.195121 120.687887 
L 302.656614 115.269222 
L 310.118107 112.537313 
L 317.5796 109.060335 
L 325.041093 105.289852 
L 332.502586 102.422477 
L 339.964079 98.900344 
L 347.425572 96.032969 
L 354.887065 92.19475 
L 362.348558 88.491998 
L 369.810051 88.627464 
L 377.271544 86.482573 
L 384.733037 87.656619 
L 392.19453 80.815556 
L 399.656023 78.128802 
L 407.117516 76.548363 
L 414.579009 77.293426 
L 422.040502 72.326318 
L 429.501995 67.268898 
L 436.963488 79.393158 
L 444.424981 87.95013 
L 451.886474 98.945501 
L 459.347967 113.733933 
L 466.80946 125.677571 
L 474.270953 139.585471 
L 481.732446 153.673994 
L 489.193939 164.849988 
L 496.655432 180.383489 
L 504.116925 194.652633 
L 511.578418 207.499377 
L 519.039911 219.44302 
L 526.501404 227.909678 
L 533.962897 236.715007 
L 541.42439 244.843 
L 548.885883 250.916418 
L 556.347376 256.876948 
L 563.808869 262.205301 
L 571.270362 267.082095 
L 578.731855 271.958893 
L 586.193348 275.481026 
L 593.654841 279.725644 
L 601.116334 282.68333 
L 608.577827 286.160307 
L 616.03932 290.698437 
L 623.500813 294.649548 
L 630.962306 297.697542 
L 638.423799 298.600655 
L 645.885292 297.878165 
L 653.346785 301.897009 
L 660.808278 305.464295 
L 668.269771 308.896114 
L 675.731264 311.650601 
L 683.192757 314.653442 
L 690.65425 317.00153 
L 698.115743 319.349614 
L 705.577236 321.562236 
L 713.038729 323.820016 
L 720.500222 325.739123 
L 727.961715 327.590499 
L 735.423208 329.509609 
L 742.884701 331.270675 
L 750.346194 332.557608 
L 757.807687 334.296096 
L 765.26918 336.012006 
" style="fill:none;stroke:#55a868;stroke-linecap:round;stroke-opacity:0.75;stroke-width:5;"/>
   </g>
   <g id="line2d_82">
    <path clip-path="url(#p3b0d141aa9)" d="M 11.587058 416.447832 
L 18.976098 416.570333 
L 26.365139 416.692833 
L 33.754179 416.815334 
L 41.143219 415.855747 
L 48.53226 404.708202 
L 55.9213 378.465875 
L 63.310341 335.400148 
L 70.699381 291.123028 
L 78.088421 255.604693 
L 85.477462 235.814058 
L 92.866502 239.46185 
L 100.255543 260.191653 
L 107.644583 287.903986 
L 115.033624 307.851149 
L 122.422664 322.381069 
L 129.811704 333.773616 
L 137.200745 340.03475 
L 144.589785 343.396707 
L 151.978826 347.112553 
L 159.367866 351.182294 
L 166.756906 355.129535 
L 174.145947 357.178017 
L 181.534987 359.798168 
L 188.924028 361.479145 
L 196.313068 361.479142 
L 203.702108 362.799422 
L 211.091149 364.820678 
L 218.480189 367.998885 
L 225.86923 370.591811 
L 233.25827 373.701964 
L 240.64731 377.914621 
L 248.036351 382.106861 
L 255.425391 382.453952 
L 262.814432 381.154084 
L 270.203472 379.806577 
L 277.592513 377.200039 
L 284.981553 373.722385 
L 292.370593 374.225996 
L 299.759634 378.744899 
L 307.148674 381.807416 
L 314.537715 384.679373 
L 321.926755 387.231466 
L 329.315795 389.245921 
L 336.704836 388.687863 
L 344.093876 388.442864 
L 351.482917 391.376067 
L 358.871957 393.982602 
L 366.260997 399.862626 
L 373.650038 399.760541 
L 381.039078 399.222899 
L 388.428119 398.025121 
L 395.817159 397.752899 
L 403.206199 396.527895 
L 410.59524 393.057043 
L 417.98428 407.757102 
L 425.373321 424.437585 
L 432.762361 445.671003 
L 440.151402 472.097082 
L 447.540442 499.013162 
L 454.929482 517.932681 
L 462.318523 523.220616 
L 469.707563 527.18827 
L 477.096604 529.760782 
L 484.485644 530.631899 
L 491.874684 532.101901 
L 499.263725 530.509399 
L 506.652765 525.078545 
L 514.041806 517.973517 
L 521.430846 506.662638 
L 528.819886 495.46065 
L 536.208927 485.592555 
L 543.597967 477.27613 
L 550.987008 471.280412 
L 558.376048 465.543305 
L 565.765088 460.330231 
L 573.154129 457.070356 
L 580.543169 453.293257 
L 587.93221 450.271579 
L 595.32125 448.951297 
L 602.710291 448.495324 
L 610.099331 448.366016 
L 617.488371 445.5417 
L 624.877412 440.212928 
L 632.266452 436.612775 
L 639.655493 434.639157 
L 647.044533 435.421797 
L 654.433573 437.973893 
L 661.822614 441.791821 
L 669.211654 443.710996 
L 676.600695 441.335843 
L 683.989735 439.335001 
L 691.378775 437.749304 
L 698.767816 436.503883 
L 706.156856 435.176796 
L 713.545897 434.400959 
L 720.934937 433.57068 
L 728.323978 432.434146 
L 735.713018 431.556225 
L 743.102058 431.113866 
L 750.491099 430.605717 
L 757.880139 430.097567 
L 765.26918 429.589418 
" style="fill:none;stroke:#c44e52;stroke-linecap:round;stroke-opacity:0.75;stroke-width:5;"/>
   </g>
   <g id="line2d_83">
    <path clip-path="url(#p3b0d141aa9)" d="M 41.504359 416.718924 
L 34.042866 416.657189 
L 34.042866 416.657189 
L 41.504359 416.677767 
L 48.965852 416.698345 
L 56.427345 412.95307 
L 63.888838 399.782871 
L 71.350331 374.697758 
L 78.811824 346.958027 
L 86.273317 327.881817 
L 93.73481 309.01139 
L 101.196303 294.318389 
L 108.657796 282.835621 
L 116.119289 273.678216 
L 123.580782 263.286106 
L 131.042275 254.252175 
L 138.503768 247.132036 
L 145.965261 238.591987 
L 153.426754 229.002432 
L 160.888247 220.606432 
L 168.34974 213.897859 
L 175.811233 207.230448 
L 183.272726 203.073606 
L 190.734219 197.064704 
L 198.195712 190.520758 
L 205.657205 183.771029 
L 213.118698 178.461795 
L 220.580191 172.98793 
L 228.041684 149.075787 
L 235.503177 151.154211 
L 242.96467 149.302153 
L 250.426163 147.758768 
L 257.887656 142.922836 
L 265.349149 138.84831 
L 272.810642 136.378894 
L 280.272135 133.024608 
L 287.733628 130.452306 
L 295.195121 127.838841 
L 302.656614 97.876642 
L 310.118107 105.552397 
L 317.5796 114.339386 
L 325.041093 116.500123 
L 332.502586 110.655847 
L 339.964079 86.393873 
L 347.425572 92.773192 
L 354.887065 91.785424 
L 362.348558 89.377746 
L 369.810051 86.126353 
L 377.271544 82.483968 
L 384.733037 78.882741 
L 392.19453 49.126327 
L 399.656023 48.117985 
L 407.117516 54.126891 
L 414.579009 59.744794 
L 422.040502 67.935017 
L 429.501995 38.713636 
L 436.963488 43.014534 
L 444.424981 56.246471 
L 451.886474 71.104092 
L 459.347967 88.636921 
L 466.80946 106.457848 
L 474.270953 126.542399 
L 481.732446 113.824928 
L 489.193939 122.035724 
L 496.655432 144.486799 
L 504.116925 163.233753 
L 511.578418 181.239882 
L 519.039911 196.282722 
L 526.501404 205.645909 
L 533.962897 220.585851 
L 541.42439 223.878403 
L 548.885883 221.079735 
L 556.347376 229.804993 
L 563.808869 238.345043 
L 571.270362 246.843938 
L 578.731855 248.716574 
L 586.193348 256.515803 
L 593.654841 264.788333 
L 601.116334 271.558639 
L 608.577827 267.628156 
L 616.03932 271.291119 
L 623.500813 278.205473 
L 630.962306 283.885121 
L 638.423799 283.51471 
L 645.885292 281.580336 
L 653.346785 288.371221 
L 660.808278 294.133182 
L 668.269771 299.236636 
L 675.731264 297.508046 
L 683.192757 297.261103 
L 690.65425 300.471339 
L 698.115743 303.825625 
L 705.577236 306.932968 
L 713.038729 310.20494 
L 720.500222 313.415175 
L 727.961715 316.975246 
L 735.423208 321.029198 
L 742.884701 325.186043 
L 750.346194 325.906287 
L 757.807687 327.593719 
L 765.26918 331.338994 
L 772.730673 330.618749 
L 780.192166 329.507512 
" style="fill:none;stroke:#8172b3;stroke-linecap:round;stroke-opacity:0.75;stroke-width:5;"/>
   </g>
   <g id="line2d_84">
    <path clip-path="url(#p3b0d141aa9)" d="M 34.042866 453.361314 
L 41.358055 434.782073 
L 48.673245 416.202832 
L 55.988434 397.62359 
L 63.303623 362.840257 
L 70.618812 314.350481 
L 77.934001 269.984888 
L 85.249191 236.283641 
L 92.56438 223.63887 
L 99.879569 235.119889 
L 107.194758 263.12486 
L 114.509948 289.339963 
L 121.825137 306.74184 
L 129.140326 322.503571 
L 136.455515 331.534581 
L 143.770704 334.903343 
L 151.085894 336.352932 
L 158.401083 339.612802 
L 165.716272 342.280589 
L 173.031461 347.412 
L 180.34665 354.08828 
L 187.66184 359.532749 
L 194.977029 361.492752 
L 202.292218 362.037199 
L 209.607407 362.214141 
L 216.922596 343.376286 
L 224.237786 340.334192 
L 231.552975 344.676159 
L 238.868164 354.625922 
L 246.183353 364.990822 
L 253.498542 377.798934 
L 260.813732 394.016636 
L 268.128921 387.381189 
L 275.44411 386.251462 
L 282.759299 386.925213 
L 290.074489 362.928728 
L 297.389678 356.647174 
L 304.704867 366.05249 
L 312.020056 382.440333 
L 319.335245 395.166771 
L 326.650435 387.816745 
L 333.965624 397.909427 
L 341.280813 378.983105 
L 348.596002 369.836402 
L 355.911191 374.436973 
L 363.226381 387.612577 
L 370.54157 400.733735 
L 377.856759 362.744973 
L 385.171948 344.51963 
L 392.487137 345.717419 
L 399.802327 361.758172 
L 407.117516 391.423708 
L 414.432705 393.29524 
L 421.747894 409.145442 
L 429.063084 410.622258 
L 436.378273 423.151332 
L 443.693462 453.422566 
L 451.008651 497.39343 
L 458.32384 556.676858 
L 465.63903 545.304727 
L 472.954219 522.927975 
L 480.269408 514.196422 
L 487.584597 514.5367 
L 494.899786 525.466462 
L 502.214976 544.270289 
L 509.530165 569.226359 
L 516.845354 566.020927 
L 524.160543 541.636525 
L 531.475732 510.49418 
L 538.790922 487.4777 
L 546.106111 474.737647 
L 553.4213 471.443747 
L 560.736489 465.672613 
L 568.051678 473.158753 
L 575.366868 481.325452 
L 582.682057 478.977526 
L 589.997246 467.578174 
L 597.312435 458.60161 
L 604.627625 456.832159 
L 611.942814 452.803254 
L 619.258003 447.093372 
L 626.573192 441.478766 
L 633.888381 446.00448 
L 641.203571 445.487254 
L 648.51876 446.113369 
L 655.833949 444.929197 
L 663.149138 444.629749 
L 670.464327 442.601684 
L 677.779517 435.734851 
L 685.094706 433.577481 
L 692.409895 436.149991 
L 699.725084 443.343494 
L 707.040273 447.093373 
L 714.355463 448.100599 
L 721.670652 449.618245 
L 728.985841 448.114212 
L 736.30103 445.092532 
L 743.616219 443.282246 
L 750.931409 438.014724 
L 758.246598 430.664693 
L 765.561787 424.176702 
L 772.876976 417.688711 
L 780.192166 411.20072 
" style="fill:none;stroke:#937860;stroke-linecap:round;stroke-opacity:0.75;stroke-width:5;"/>
   </g>
   <g id="line2d_85">
    <path clip-path="url(#p3b0d141aa9)" d="M 18.797045 416.658074 
L 26.261672 416.699054 
L 33.7263 416.658074 
L 41.190927 416.678564 
L 48.655554 416.658074 
L 56.120182 416.535134 
L 63.584809 401.085729 
L 71.049436 389.631861 
L 78.514063 365.965996 
L 85.978691 350.270712 
L 93.443318 305.971492 
L 100.907945 300.8695 
L 108.372573 291.915403 
L 115.8372 279.170669 
L 123.301827 271.507437 
L 130.766455 269.089623 
L 138.231082 262.963136 
L 145.695709 227.618013 
L 153.160337 220.508009 
L 160.624964 214.053685 
L 168.089591 189.506748 
L 175.554219 186.72012 
L 183.018846 184.07692 
L 190.483473 178.032392 
L 197.948101 174.323713 
L 205.412728 169.95936 
L 212.877355 166.045787 
L 220.341982 160.329099 
L 227.80661 155.698369 
L 235.271237 149.694824 
L 242.735864 144.039602 
L 250.200492 143.486374 
L 257.665119 138.486833 
L 265.129746 134.347871 
L 272.594374 130.434292 
L 280.059001 124.717603 
L 287.523628 119.574631 
L 294.988256 113.509613 
L 302.452883 105.90785 
L 309.91751 100.416552 
L 317.382138 94.88427 
L 324.846765 91.462451 
L 332.311392 85.458906 
L 339.77602 80.746225 
L 347.240647 76.05403 
L 354.705274 71.156938 
L 362.169902 66.956501 
L 369.634529 62.346266 
L 377.099156 52.797962 
L 384.563783 40.504008 
L 392.028411 51.44563 
L 399.493038 53.679026 
L 406.957665 53.740498 
L 414.422293 22.431892 
L 421.88692 40.114695 
L 429.351547 48.228706 
L 436.816175 59.272772 
L 444.280802 69.866072 
L 451.745429 83.327954 
L 459.210057 98.756867 
L 466.674684 111.050824 
L 474.139311 126.110918 
L 481.603939 136.663231 
L 489.068566 147.174564 
L 496.533193 167.705468 
L 503.997821 184.978478 
L 511.462448 197.723212 
L 518.927075 209.93521 
L 526.391702 219.176162 
L 533.85633 229.851414 
L 541.320957 232.166773 
L 548.785584 242.329779 
L 556.250212 249.849584 
L 563.714839 256.611261 
L 571.179466 262.286968 
L 578.644094 267.409449 
L 586.108721 271.425474 
L 593.573348 267.102101 
L 601.037976 267.573369 
L 608.502603 271.364005 
L 615.96723 275.933259 
L 623.431858 280.686921 
L 630.896485 284.006291 
L 638.361112 287.243698 
L 645.82574 291.444135 
L 653.290367 295.685549 
L 660.754994 299.640106 
L 668.219621 302.816045 
L 675.684249 305.520712 
L 683.148876 305.623163 
L 690.613503 307.344316 
L 698.078131 311.913571 
L 705.542758 315.540288 
L 713.007385 318.408876 
L 720.472013 320.949628 
L 727.93664 323.531359 
L 735.401267 325.313983 
L 742.865895 327.547385 
L 750.330522 329.473436 
L 757.795149 331.235572 
L 765.259777 333.202605 
L 772.724404 333.141134 
L 780.189031 333.120645 
" style="fill:none;stroke:#da8bc3;stroke-linecap:round;stroke-opacity:0.75;stroke-width:5;"/>
   </g>
   <g id="line2d_86">
    <path clip-path="url(#p3b0d141aa9)" d="M 18.797045 453.014229 
L 26.261672 435.755271 
L 33.7263 418.496313 
L 41.190927 401.237355 
L 48.655554 379.500324 
L 56.120182 343.212957 
L 63.584809 308.08254 
L 71.049436 250.888423 
L 78.514063 225.353877 
L 85.978691 229.192226 
L 93.443318 241.197274 
L 100.907945 270.842393 
L 108.372573 305.870725 
L 115.8372 346.11894 
L 123.301827 321.292173 
L 130.766455 308.626985 
L 138.231082 304.32586 
L 145.695709 284.494389 
L 153.160337 281.486323 
L 160.624964 300.79376 
L 168.089591 334.175143 
L 175.554219 345.111711 
L 183.018846 359.954688 
L 190.483473 379.11241 
L 197.948101 375.906981 
L 205.412728 374.076275 
L 212.877355 373.055438 
L 220.341982 369.788756 
L 227.80661 372.33404 
L 235.271237 374.341687 
L 242.735864 377.479066 
L 250.200492 379.650051 
L 257.665119 379.901855 
L 265.129746 377.342956 
L 272.594374 371.231541 
L 280.059001 366.950827 
L 287.523628 363.037618 
L 294.988256 360.757751 
L 302.452883 362.976369 
L 309.91751 364.562072 
L 317.382138 367.658615 
L 324.846765 370.918489 
L 332.311392 371.639881 
L 339.77602 372.422522 
L 347.240647 372.374878 
L 354.705274 369.074167 
L 362.169902 358.389402 
L 369.634529 367.277499 
L 377.099156 381.889081 
L 384.563783 397.487478 
L 392.028411 382.093252 
L 399.493038 392.98218 
L 406.957665 406.654593 
L 414.422293 416.515879 
L 421.88692 445.235447 
L 429.351547 484.217825 
L 436.816175 528.808005 
L 444.280802 529.100651 
L 451.745429 538.458326 
L 459.210057 540.547638 
L 466.674684 538.410678 
L 474.139311 541.6093 
L 481.603939 547.407659 
L 489.068566 552.641152 
L 496.533193 553.505465 
L 503.997821 550.742395 
L 511.462448 541.724996 
L 518.927075 518.027954 
L 526.391702 503.504839 
L 533.85633 494.637167 
L 541.320957 487.892839 
L 548.785584 483.469215 
L 556.250212 479.038779 
L 563.714839 476.772519 
L 571.179466 459.465919 
L 578.644094 444.527664 
L 586.108721 434.972626 
L 593.573348 431.808033 
L 601.037976 434.503043 
L 608.502603 441.199738 
L 615.96723 450.94533 
L 623.431858 453.878539 
L 630.896485 453.579094 
L 638.361112 452.918953 
L 645.82574 452.102285 
L 653.290367 451.367278 
L 660.754994 446.89601 
L 668.219621 441.260985 
L 675.684249 439.0832 
L 683.148876 439.355423 
L 690.613503 441.14529 
L 698.078131 443.452385 
L 705.542758 445.902393 
L 713.007385 444.282666 
L 720.472013 440.634873 
L 727.93664 438.26653 
L 735.401267 436.639998 
L 742.865895 435.571521 
L 750.330522 432.903731 
L 757.795149 429.596219 
L 765.259777 424.991109 
L 772.724404 420.385999 
L 780.189031 415.780889 
" style="fill:none;stroke:#8c8c8c;stroke-linecap:round;stroke-opacity:0.75;stroke-width:5;"/>
   </g>
   <g id="patch_3">
    <path d="M 99 535.5 
L 99 73.44 
" style="fill:none;stroke:#ffffff;stroke-linecap:square;stroke-linejoin:miter;stroke-width:1.25;"/>
   </g>
   <g id="patch_4">
    <path d="M 712.8 535.5 
L 712.8 73.44 
" style="fill:none;stroke:#ffffff;stroke-linecap:square;stroke-linejoin:miter;stroke-width:1.25;"/>
   </g>
   <g id="patch_5">
    <path d="M 99 535.5 
L 712.8 535.5 
" style="fill:none;stroke:#ffffff;stroke-linecap:square;stroke-linejoin:miter;stroke-width:1.25;"/>
   </g>
   <g id="patch_6">
    <path d="M 99 73.44 
L 712.8 73.44 
" style="fill:none;stroke:#ffffff;stroke-linecap:square;stroke-linejoin:miter;stroke-width:1.25;"/>
   </g>
   <g id="text_19">
    <!-- Dipole 1 sweep through DBA Aperture -->
    <defs>
     <path d="M 16.15625 0 
L 0.296875 51.859375 
L 9.375 51.859375 
L 17.625 21.921875 
L 20.703125 10.796875 
Q 20.90625 11.625 23.390625 21.484375 
L 31.640625 51.859375 
L 40.671875 51.859375 
L 48.4375 21.78125 
L 51.03125 11.859375 
L 54 21.875 
L 62.890625 51.859375 
L 71.4375 51.859375 
L 55.21875 0 
L 46.09375 0 
L 37.84375 31.0625 
L 35.84375 39.890625 
L 25.34375 0 
z
" id="ArialMT-119"/>
     <path d="M 6.59375 0 
L 6.59375 71.578125 
L 15.375 71.578125 
L 15.375 45.90625 
Q 21.53125 53.03125 30.90625 53.03125 
Q 36.671875 53.03125 40.921875 50.75 
Q 45.171875 48.484375 47 44.484375 
Q 48.828125 40.484375 48.828125 32.859375 
L 48.828125 0 
L 40.046875 0 
L 40.046875 32.859375 
Q 40.046875 39.453125 37.1875 42.453125 
Q 34.328125 45.453125 29.109375 45.453125 
Q 25.203125 45.453125 21.75 43.421875 
Q 18.3125 41.40625 16.84375 37.9375 
Q 15.375 34.46875 15.375 28.375 
L 15.375 0 
z
" id="ArialMT-104"/>
     <path d="M 7.328125 0 
L 7.328125 71.578125 
L 34.1875 71.578125 
Q 42.390625 71.578125 47.34375 69.40625 
Q 52.296875 67.234375 55.09375 62.71875 
Q 57.90625 58.203125 57.90625 53.265625 
Q 57.90625 48.6875 55.421875 44.625 
Q 52.9375 40.578125 47.90625 38.09375 
Q 54.390625 36.1875 57.875 31.59375 
Q 61.375 27 61.375 20.75 
Q 61.375 15.71875 59.25 11.390625 
Q 57.125 7.078125 54 4.734375 
Q 50.875 2.390625 46.15625 1.1875 
Q 41.453125 0 34.625 0 
z
M 16.796875 41.5 
L 32.28125 41.5 
Q 38.578125 41.5 41.3125 42.328125 
Q 44.921875 43.40625 46.75 45.890625 
Q 48.578125 48.390625 48.578125 52.15625 
Q 48.578125 55.71875 46.875 58.421875 
Q 45.171875 61.140625 41.984375 62.140625 
Q 38.8125 63.140625 31.109375 63.140625 
L 16.796875 63.140625 
z
M 16.796875 8.453125 
L 34.625 8.453125 
Q 39.203125 8.453125 41.0625 8.796875 
Q 44.34375 9.375 46.53125 10.734375 
Q 48.734375 12.109375 50.140625 14.71875 
Q 51.5625 17.328125 51.5625 20.75 
Q 51.5625 24.75 49.515625 27.703125 
Q 47.46875 30.671875 43.828125 31.859375 
Q 40.1875 33.0625 33.34375 33.0625 
L 16.796875 33.0625 
z
" id="ArialMT-66"/>
    </defs>
    <g style="fill:#262626;" transform="translate(304.190625 67.44)scale(0.12 -0.12)">
     <use xlink:href="#ArialMT-68"/>
     <use x="72.216797" xlink:href="#ArialMT-105"/>
     <use x="94.433594" xlink:href="#ArialMT-112"/>
     <use x="150.048828" xlink:href="#ArialMT-111"/>
     <use x="205.664062" xlink:href="#ArialMT-108"/>
     <use x="227.880859" xlink:href="#ArialMT-101"/>
     <use x="283.496094" xlink:href="#ArialMT-32"/>
     <use x="311.279297" xlink:href="#ArialMT-49"/>
     <use x="366.894531" xlink:href="#ArialMT-32"/>
     <use x="394.677734" xlink:href="#ArialMT-115"/>
     <use x="444.677734" xlink:href="#ArialMT-119"/>
     <use x="516.894531" xlink:href="#ArialMT-101"/>
     <use x="572.509766" xlink:href="#ArialMT-101"/>
     <use x="628.125" xlink:href="#ArialMT-112"/>
     <use x="683.740234" xlink:href="#ArialMT-32"/>
     <use x="711.523438" xlink:href="#ArialMT-116"/>
     <use x="739.306641" xlink:href="#ArialMT-104"/>
     <use x="794.921875" xlink:href="#ArialMT-114"/>
     <use x="828.222656" xlink:href="#ArialMT-111"/>
     <use x="883.837891" xlink:href="#ArialMT-117"/>
     <use x="939.453125" xlink:href="#ArialMT-103"/>
     <use x="995.068359" xlink:href="#ArialMT-104"/>
     <use x="1050.683594" xlink:href="#ArialMT-32"/>
     <use x="1078.466797" xlink:href="#ArialMT-68"/>
     <use x="1150.683594" xlink:href="#ArialMT-66"/>
     <use x="1217.382812" xlink:href="#ArialMT-65"/>
     <use x="1284.003906" xlink:href="#ArialMT-32"/>
     <use x="1311.708984" xlink:href="#ArialMT-65"/>
     <use x="1378.408203" xlink:href="#ArialMT-112"/>
     <use x="1434.023438" xlink:href="#ArialMT-101"/>
     <use x="1489.638672" xlink:href="#ArialMT-114"/>
     <use x="1522.939453" xlink:href="#ArialMT-116"/>
     <use x="1550.722656" xlink:href="#ArialMT-117"/>
     <use x="1606.337891" xlink:href="#ArialMT-114"/>
     <use x="1639.638672" xlink:href="#ArialMT-101"/>
    </g>
   </g>
   <g id="legend_1">
    <g id="patch_7">
     <path d="M 106.7 530 
L 287.007188 530 
Q 289.207188 530 289.207188 527.8 
L 289.207188 404.16 
Q 289.207188 401.96 287.007188 401.96 
L 106.7 401.96 
Q 104.5 401.96 104.5 404.16 
L 104.5 527.8 
Q 104.5 530 106.7 530 
z
" style="fill:#eaeaf2;opacity:0.8;stroke:#cccccc;stroke-linejoin:miter;"/>
    </g>
    <g id="line2d_87">
     <path d="M 108.9 410.41625 
L 130.9 410.41625 
" style="fill:none;stroke:#4c72b0;stroke-linecap:round;stroke-opacity:0.75;stroke-width:5;"/>
    </g>
    <g id="line2d_88"/>
    <g id="text_20">
     <!-- 415 μA Emitted -->
     <defs>
      <path d="M 49.703125 51.859375 
L 49.703125 0 
L 41.84375 0 
L 41.84375 6.15625 
Q 39.3125 2.25 36.8125 0.78125 
Q 33.40625 -1.21875 28.859375 -1.21875 
Q 24.8125 -1.21875 21.6875 0.390625 
Q 19.34375 1.609375 16.5 5.21875 
L 16.5 -19.875 
L 7.8125 -19.875 
L 7.8125 51.859375 
L 16.5 51.859375 
L 16.5 29.890625 
Q 16.5 17.921875 17.765625 14.375 
Q 19.046875 10.84375 21.890625 8.78125 
Q 24.75 6.734375 28.46875 6.734375 
Q 32.375 6.734375 35.453125 8.875 
Q 38.53125 11.03125 39.796875 14.421875 
Q 41.0625 17.828125 41.0625 29.734375 
L 41.0625 51.859375 
z
" id="ArialMT-956"/>
     </defs>
     <g style="fill:#262626;" transform="translate(139.7 414.26625)scale(0.11 -0.11)">
      <use xlink:href="#ArialMT-52"/>
      <use x="55.615234" xlink:href="#ArialMT-49"/>
      <use x="111.230469" xlink:href="#ArialMT-53"/>
      <use x="166.845703" xlink:href="#ArialMT-32"/>
      <use x="194.628906" xlink:href="#ArialMT-956"/>
      <use x="252.246094" xlink:href="#ArialMT-65"/>
      <use x="318.867188" xlink:href="#ArialMT-32"/>
      <use x="346.650391" xlink:href="#ArialMT-69"/>
      <use x="413.349609" xlink:href="#ArialMT-109"/>
      <use x="496.650391" xlink:href="#ArialMT-105"/>
      <use x="518.867188" xlink:href="#ArialMT-116"/>
      <use x="546.650391" xlink:href="#ArialMT-116"/>
      <use x="574.433594" xlink:href="#ArialMT-101"/>
      <use x="630.048828" xlink:href="#ArialMT-100"/>
     </g>
    </g>
    <g id="line2d_89">
     <path d="M 108.9 426.00875 
L 130.9 426.00875 
" style="fill:none;stroke:#dd8452;stroke-linecap:round;stroke-opacity:0.75;stroke-width:5;"/>
    </g>
    <g id="line2d_90"/>
    <g id="text_21">
     <!-- 1st Derivative 415 μA Emitted -->
     <defs>
      <path d="M 21 0 
L 1.265625 51.859375 
L 10.546875 51.859375 
L 21.6875 20.796875 
Q 23.484375 15.765625 25 10.359375 
Q 26.171875 14.453125 28.265625 20.21875 
L 39.796875 51.859375 
L 48.828125 51.859375 
L 29.203125 0 
z
" id="ArialMT-118"/>
     </defs>
     <g style="fill:#262626;" transform="translate(139.7 429.85875)scale(0.11 -0.11)">
      <use xlink:href="#ArialMT-49"/>
      <use x="55.615234" xlink:href="#ArialMT-115"/>
      <use x="105.615234" xlink:href="#ArialMT-116"/>
      <use x="133.398438" xlink:href="#ArialMT-32"/>
      <use x="161.181641" xlink:href="#ArialMT-68"/>
      <use x="233.398438" xlink:href="#ArialMT-101"/>
      <use x="289.013672" xlink:href="#ArialMT-114"/>
      <use x="322.314453" xlink:href="#ArialMT-105"/>
      <use x="344.53125" xlink:href="#ArialMT-118"/>
      <use x="394.53125" xlink:href="#ArialMT-97"/>
      <use x="450.146484" xlink:href="#ArialMT-116"/>
      <use x="477.929688" xlink:href="#ArialMT-105"/>
      <use x="500.146484" xlink:href="#ArialMT-118"/>
      <use x="550.146484" xlink:href="#ArialMT-101"/>
      <use x="605.761719" xlink:href="#ArialMT-32"/>
      <use x="633.544922" xlink:href="#ArialMT-52"/>
      <use x="689.160156" xlink:href="#ArialMT-49"/>
      <use x="744.775391" xlink:href="#ArialMT-53"/>
      <use x="800.390625" xlink:href="#ArialMT-32"/>
      <use x="828.173828" xlink:href="#ArialMT-956"/>
      <use x="885.791016" xlink:href="#ArialMT-65"/>
      <use x="952.412109" xlink:href="#ArialMT-32"/>
      <use x="980.195312" xlink:href="#ArialMT-69"/>
      <use x="1046.894531" xlink:href="#ArialMT-109"/>
      <use x="1130.195312" xlink:href="#ArialMT-105"/>
      <use x="1152.412109" xlink:href="#ArialMT-116"/>
      <use x="1180.195312" xlink:href="#ArialMT-116"/>
      <use x="1207.978516" xlink:href="#ArialMT-101"/>
      <use x="1263.59375" xlink:href="#ArialMT-100"/>
     </g>
    </g>
    <g id="line2d_91">
     <path d="M 108.9 441.60125 
L 130.9 441.60125 
" style="fill:none;stroke:#55a868;stroke-linecap:round;stroke-opacity:0.75;stroke-width:5;"/>
    </g>
    <g id="line2d_92"/>
    <g id="text_22">
     <!-- 422 μA Emitted -->
     <g style="fill:#262626;" transform="translate(139.7 445.45125)scale(0.11 -0.11)">
      <use xlink:href="#ArialMT-52"/>
      <use x="55.615234" xlink:href="#ArialMT-50"/>
      <use x="111.230469" xlink:href="#ArialMT-50"/>
      <use x="166.845703" xlink:href="#ArialMT-32"/>
      <use x="194.628906" xlink:href="#ArialMT-956"/>
      <use x="252.246094" xlink:href="#ArialMT-65"/>
      <use x="318.867188" xlink:href="#ArialMT-32"/>
      <use x="346.650391" xlink:href="#ArialMT-69"/>
      <use x="413.349609" xlink:href="#ArialMT-109"/>
      <use x="496.650391" xlink:href="#ArialMT-105"/>
      <use x="518.867188" xlink:href="#ArialMT-116"/>
      <use x="546.650391" xlink:href="#ArialMT-116"/>
      <use x="574.433594" xlink:href="#ArialMT-101"/>
      <use x="630.048828" xlink:href="#ArialMT-100"/>
     </g>
    </g>
    <g id="line2d_93">
     <path d="M 108.9 457.19375 
L 130.9 457.19375 
" style="fill:none;stroke:#c44e52;stroke-linecap:round;stroke-opacity:0.75;stroke-width:5;"/>
    </g>
    <g id="line2d_94"/>
    <g id="text_23">
     <!-- 1st Derivative 422 μA Emitted -->
     <g style="fill:#262626;" transform="translate(139.7 461.04375)scale(0.11 -0.11)">
      <use xlink:href="#ArialMT-49"/>
      <use x="55.615234" xlink:href="#ArialMT-115"/>
      <use x="105.615234" xlink:href="#ArialMT-116"/>
      <use x="133.398438" xlink:href="#ArialMT-32"/>
      <use x="161.181641" xlink:href="#ArialMT-68"/>
      <use x="233.398438" xlink:href="#ArialMT-101"/>
      <use x="289.013672" xlink:href="#ArialMT-114"/>
      <use x="322.314453" xlink:href="#ArialMT-105"/>
      <use x="344.53125" xlink:href="#ArialMT-118"/>
      <use x="394.53125" xlink:href="#ArialMT-97"/>
      <use x="450.146484" xlink:href="#ArialMT-116"/>
      <use x="477.929688" xlink:href="#ArialMT-105"/>
      <use x="500.146484" xlink:href="#ArialMT-118"/>
      <use x="550.146484" xlink:href="#ArialMT-101"/>
      <use x="605.761719" xlink:href="#ArialMT-32"/>
      <use x="633.544922" xlink:href="#ArialMT-52"/>
      <use x="689.160156" xlink:href="#ArialMT-50"/>
      <use x="744.775391" xlink:href="#ArialMT-50"/>
      <use x="800.390625" xlink:href="#ArialMT-32"/>
      <use x="828.173828" xlink:href="#ArialMT-956"/>
      <use x="885.791016" xlink:href="#ArialMT-65"/>
      <use x="952.412109" xlink:href="#ArialMT-32"/>
      <use x="980.195312" xlink:href="#ArialMT-69"/>
      <use x="1046.894531" xlink:href="#ArialMT-109"/>
      <use x="1130.195312" xlink:href="#ArialMT-105"/>
      <use x="1152.412109" xlink:href="#ArialMT-116"/>
      <use x="1180.195312" xlink:href="#ArialMT-116"/>
      <use x="1207.978516" xlink:href="#ArialMT-101"/>
      <use x="1263.59375" xlink:href="#ArialMT-100"/>
     </g>
    </g>
    <g id="line2d_95">
     <path d="M 108.9 472.78625 
L 130.9 472.78625 
" style="fill:none;stroke:#8172b3;stroke-linecap:round;stroke-opacity:0.75;stroke-width:5;"/>
    </g>
    <g id="line2d_96"/>
    <g id="text_24">
     <!-- 463 μA Emitted -->
     <g style="fill:#262626;" transform="translate(139.7 476.63625)scale(0.11 -0.11)">
      <use xlink:href="#ArialMT-52"/>
      <use x="55.615234" xlink:href="#ArialMT-54"/>
      <use x="111.230469" xlink:href="#ArialMT-51"/>
      <use x="166.845703" xlink:href="#ArialMT-32"/>
      <use x="194.628906" xlink:href="#ArialMT-956"/>
      <use x="252.246094" xlink:href="#ArialMT-65"/>
      <use x="318.867188" xlink:href="#ArialMT-32"/>
      <use x="346.650391" xlink:href="#ArialMT-69"/>
      <use x="413.349609" xlink:href="#ArialMT-109"/>
      <use x="496.650391" xlink:href="#ArialMT-105"/>
      <use x="518.867188" xlink:href="#ArialMT-116"/>
      <use x="546.650391" xlink:href="#ArialMT-116"/>
      <use x="574.433594" xlink:href="#ArialMT-101"/>
      <use x="630.048828" xlink:href="#ArialMT-100"/>
     </g>
    </g>
    <g id="line2d_97">
     <path d="M 108.9 488.37875 
L 130.9 488.37875 
" style="fill:none;stroke:#937860;stroke-linecap:round;stroke-opacity:0.75;stroke-width:5;"/>
    </g>
    <g id="line2d_98"/>
    <g id="text_25">
     <!-- 1st Derivative 463 μA Emitted -->
     <g style="fill:#262626;" transform="translate(139.7 492.22875)scale(0.11 -0.11)">
      <use xlink:href="#ArialMT-49"/>
      <use x="55.615234" xlink:href="#ArialMT-115"/>
      <use x="105.615234" xlink:href="#ArialMT-116"/>
      <use x="133.398438" xlink:href="#ArialMT-32"/>
      <use x="161.181641" xlink:href="#ArialMT-68"/>
      <use x="233.398438" xlink:href="#ArialMT-101"/>
      <use x="289.013672" xlink:href="#ArialMT-114"/>
      <use x="322.314453" xlink:href="#ArialMT-105"/>
      <use x="344.53125" xlink:href="#ArialMT-118"/>
      <use x="394.53125" xlink:href="#ArialMT-97"/>
      <use x="450.146484" xlink:href="#ArialMT-116"/>
      <use x="477.929688" xlink:href="#ArialMT-105"/>
      <use x="500.146484" xlink:href="#ArialMT-118"/>
      <use x="550.146484" xlink:href="#ArialMT-101"/>
      <use x="605.761719" xlink:href="#ArialMT-32"/>
      <use x="633.544922" xlink:href="#ArialMT-52"/>
      <use x="689.160156" xlink:href="#ArialMT-54"/>
      <use x="744.775391" xlink:href="#ArialMT-51"/>
      <use x="800.390625" xlink:href="#ArialMT-32"/>
      <use x="828.173828" xlink:href="#ArialMT-956"/>
      <use x="885.791016" xlink:href="#ArialMT-65"/>
      <use x="952.412109" xlink:href="#ArialMT-32"/>
      <use x="980.195312" xlink:href="#ArialMT-69"/>
      <use x="1046.894531" xlink:href="#ArialMT-109"/>
      <use x="1130.195312" xlink:href="#ArialMT-105"/>
      <use x="1152.412109" xlink:href="#ArialMT-116"/>
      <use x="1180.195312" xlink:href="#ArialMT-116"/>
      <use x="1207.978516" xlink:href="#ArialMT-101"/>
      <use x="1263.59375" xlink:href="#ArialMT-100"/>
     </g>
    </g>
    <g id="line2d_99">
     <path d="M 108.9 503.97125 
L 130.9 503.97125 
" style="fill:none;stroke:#da8bc3;stroke-linecap:round;stroke-opacity:0.75;stroke-width:5;"/>
    </g>
    <g id="line2d_100"/>
    <g id="text_26">
     <!-- 465 μA Emitted -->
     <g style="fill:#262626;" transform="translate(139.7 507.82125)scale(0.11 -0.11)">
      <use xlink:href="#ArialMT-52"/>
      <use x="55.615234" xlink:href="#ArialMT-54"/>
      <use x="111.230469" xlink:href="#ArialMT-53"/>
      <use x="166.845703" xlink:href="#ArialMT-32"/>
      <use x="194.628906" xlink:href="#ArialMT-956"/>
      <use x="252.246094" xlink:href="#ArialMT-65"/>
      <use x="318.867188" xlink:href="#ArialMT-32"/>
      <use x="346.650391" xlink:href="#ArialMT-69"/>
      <use x="413.349609" xlink:href="#ArialMT-109"/>
      <use x="496.650391" xlink:href="#ArialMT-105"/>
      <use x="518.867188" xlink:href="#ArialMT-116"/>
      <use x="546.650391" xlink:href="#ArialMT-116"/>
      <use x="574.433594" xlink:href="#ArialMT-101"/>
      <use x="630.048828" xlink:href="#ArialMT-100"/>
     </g>
    </g>
    <g id="line2d_101">
     <path d="M 108.9 519.56375 
L 130.9 519.56375 
" style="fill:none;stroke:#8c8c8c;stroke-linecap:round;stroke-opacity:0.75;stroke-width:5;"/>
    </g>
    <g id="line2d_102"/>
    <g id="text_27">
     <!-- 1st Derivative 465 μA Emitted -->
     <g style="fill:#262626;" transform="translate(139.7 523.41375)scale(0.11 -0.11)">
      <use xlink:href="#ArialMT-49"/>
      <use x="55.615234" xlink:href="#ArialMT-115"/>
      <use x="105.615234" xlink:href="#ArialMT-116"/>
      <use x="133.398438" xlink:href="#ArialMT-32"/>
      <use x="161.181641" xlink:href="#ArialMT-68"/>
      <use x="233.398438" xlink:href="#ArialMT-101"/>
      <use x="289.013672" xlink:href="#ArialMT-114"/>
      <use x="322.314453" xlink:href="#ArialMT-105"/>
      <use x="344.53125" xlink:href="#ArialMT-118"/>
      <use x="394.53125" xlink:href="#ArialMT-97"/>
      <use x="450.146484" xlink:href="#ArialMT-116"/>
      <use x="477.929688" xlink:href="#ArialMT-105"/>
      <use x="500.146484" xlink:href="#ArialMT-118"/>
      <use x="550.146484" xlink:href="#ArialMT-101"/>
      <use x="605.761719" xlink:href="#ArialMT-32"/>
      <use x="633.544922" xlink:href="#ArialMT-52"/>
      <use x="689.160156" xlink:href="#ArialMT-54"/>
      <use x="744.775391" xlink:href="#ArialMT-53"/>
      <use x="800.390625" xlink:href="#ArialMT-32"/>
      <use x="828.173828" xlink:href="#ArialMT-956"/>
      <use x="885.791016" xlink:href="#ArialMT-65"/>
      <use x="952.412109" xlink:href="#ArialMT-32"/>
      <use x="980.195312" xlink:href="#ArialMT-69"/>
      <use x="1046.894531" xlink:href="#ArialMT-109"/>
      <use x="1130.195312" xlink:href="#ArialMT-105"/>
      <use x="1152.412109" xlink:href="#ArialMT-116"/>
      <use x="1180.195312" xlink:href="#ArialMT-116"/>
      <use x="1207.978516" xlink:href="#ArialMT-101"/>
      <use x="1263.59375" xlink:href="#ArialMT-100"/>
     </g>
    </g>
   </g>
  </g>
 </g>
 <defs>
  <clipPath id="p3b0d141aa9">
   <rect height="462.06" width="613.8" x="99" y="73.44"/>
  </clipPath>
 </defs>
</svg>
