<?xml version="1.0" encoding="utf-8" standalone="no"?>
<!DOCTYPE svg PUBLIC "-//W3C//DTD SVG 1.1//EN"
  "http://www.w3.org/Graphics/SVG/1.1/DTD/svg11.dtd">
<!-- Created with matplotlib (https://matplotlib.org/) -->
<svg height="612pt" version="1.1" viewBox="0 0 792 612" width="792pt" xmlns="http://www.w3.org/2000/svg" xmlns:xlink="http://www.w3.org/1999/xlink">
 <defs>
  <style type="text/css">
*{stroke-linecap:butt;stroke-linejoin:round;}
  </style>
 </defs>
 <g id="figure_1">
  <g id="patch_1">
   <path d="M 0 612 
L 792 612 
L 792 0 
L 0 0 
z
" style="fill:none;"/>
  </g>
  <g id="axes_1">
   <g id="patch_2">
    <path d="M 99 535.5 
L 712.8 535.5 
L 712.8 73.44 
L 99 73.44 
z
" style="fill:none;"/>
   </g>
   <g id="matplotlib.axis_1">
    <g id="xtick_1">
     <g id="line2d_1">
      <path clip-path="url(#p9f47ee2dff)" d="M 660.799035 535.5 
L 660.799035 73.44 
" style="fill:none;stroke:#808080;stroke-linecap:round;stroke-opacity:0.25;"/>
     </g>
     <g id="text_1">
      <!-- 0.45 -->
      <defs>
       <path d="M 4.15625 35.296875 
Q 4.15625 48 6.765625 55.734375 
Q 9.375 63.484375 14.515625 67.671875 
Q 19.671875 71.875 27.484375 71.875 
Q 33.25 71.875 37.59375 69.546875 
Q 41.9375 67.234375 44.765625 62.859375 
Q 47.609375 58.5 49.21875 52.21875 
Q 50.828125 45.953125 50.828125 35.296875 
Q 50.828125 22.703125 48.234375 14.96875 
Q 45.65625 7.234375 40.5 3 
Q 35.359375 -1.21875 27.484375 -1.21875 
Q 17.140625 -1.21875 11.234375 6.203125 
Q 4.15625 15.140625 4.15625 35.296875 
z
M 13.1875 35.296875 
Q 13.1875 17.671875 17.3125 11.828125 
Q 21.4375 6 27.484375 6 
Q 33.546875 6 37.671875 11.859375 
Q 41.796875 17.71875 41.796875 35.296875 
Q 41.796875 52.984375 37.671875 58.78125 
Q 33.546875 64.59375 27.390625 64.59375 
Q 21.34375 64.59375 17.71875 59.46875 
Q 13.1875 52.9375 13.1875 35.296875 
z
" id="ArialMT-48"/>
       <path d="M 9.078125 0 
L 9.078125 10.015625 
L 19.09375 10.015625 
L 19.09375 0 
z
" id="ArialMT-46"/>
       <path d="M 32.328125 0 
L 32.328125 17.140625 
L 1.265625 17.140625 
L 1.265625 25.203125 
L 33.9375 71.578125 
L 41.109375 71.578125 
L 41.109375 25.203125 
L 50.78125 25.203125 
L 50.78125 17.140625 
L 41.109375 17.140625 
L 41.109375 0 
z
M 32.328125 25.203125 
L 32.328125 57.46875 
L 9.90625 25.203125 
z
" id="ArialMT-52"/>
       <path d="M 4.15625 18.75 
L 13.375 19.53125 
Q 14.40625 12.796875 18.140625 9.390625 
Q 21.875 6 27.15625 6 
Q 33.5 6 37.890625 10.78125 
Q 42.28125 15.578125 42.28125 23.484375 
Q 42.28125 31 38.0625 35.34375 
Q 33.84375 39.703125 27 39.703125 
Q 22.75 39.703125 19.328125 37.765625 
Q 15.921875 35.84375 13.96875 32.765625 
L 5.71875 33.84375 
L 12.640625 70.609375 
L 48.25 70.609375 
L 48.25 62.203125 
L 19.671875 62.203125 
L 15.828125 42.96875 
Q 22.265625 47.46875 29.34375 47.46875 
Q 38.71875 47.46875 45.15625 40.96875 
Q 51.609375 34.46875 51.609375 24.265625 
Q 51.609375 14.546875 45.953125 7.46875 
Q 39.0625 -1.21875 27.15625 -1.21875 
Q 17.390625 -1.21875 11.203125 4.25 
Q 5.03125 9.71875 4.15625 18.75 
z
" id="ArialMT-53"/>
      </defs>
      <g style="fill:#262626;" transform="translate(650.095519 552.873594)scale(0.11 -0.11)">
       <use xlink:href="#ArialMT-48"/>
       <use x="55.615234" xlink:href="#ArialMT-46"/>
       <use x="83.398438" xlink:href="#ArialMT-52"/>
       <use x="139.013672" xlink:href="#ArialMT-53"/>
      </g>
     </g>
    </g>
    <g id="xtick_2">
     <g id="line2d_2">
      <path clip-path="url(#p9f47ee2dff)" d="M 548.862141 535.5 
L 548.862141 73.44 
" style="fill:none;stroke:#808080;stroke-linecap:round;stroke-opacity:0.25;"/>
     </g>
     <g id="text_2">
      <!-- 0.46 -->
      <defs>
       <path d="M 49.75 54.046875 
L 41.015625 53.375 
Q 39.84375 58.546875 37.703125 60.890625 
Q 34.125 64.65625 28.90625 64.65625 
Q 24.703125 64.65625 21.53125 62.3125 
Q 17.390625 59.28125 14.984375 53.46875 
Q 12.59375 47.65625 12.5 36.921875 
Q 15.671875 41.75 20.265625 44.09375 
Q 24.859375 46.4375 29.890625 46.4375 
Q 38.671875 46.4375 44.84375 39.96875 
Q 51.03125 33.5 51.03125 23.25 
Q 51.03125 16.5 48.125 10.71875 
Q 45.21875 4.9375 40.140625 1.859375 
Q 35.0625 -1.21875 28.609375 -1.21875 
Q 17.625 -1.21875 10.6875 6.859375 
Q 3.765625 14.9375 3.765625 33.5 
Q 3.765625 54.25 11.421875 63.671875 
Q 18.109375 71.875 29.4375 71.875 
Q 37.890625 71.875 43.28125 67.140625 
Q 48.6875 62.40625 49.75 54.046875 
z
M 13.875 23.1875 
Q 13.875 18.65625 15.796875 14.5 
Q 17.71875 10.359375 21.1875 8.171875 
Q 24.65625 6 28.46875 6 
Q 34.03125 6 38.03125 10.484375 
Q 42.046875 14.984375 42.046875 22.703125 
Q 42.046875 30.125 38.078125 34.390625 
Q 34.125 38.671875 28.125 38.671875 
Q 22.171875 38.671875 18.015625 34.390625 
Q 13.875 30.125 13.875 23.1875 
z
" id="ArialMT-54"/>
      </defs>
      <g style="fill:#262626;" transform="translate(538.158625 552.873594)scale(0.11 -0.11)">
       <use xlink:href="#ArialMT-48"/>
       <use x="55.615234" xlink:href="#ArialMT-46"/>
       <use x="83.398438" xlink:href="#ArialMT-52"/>
       <use x="139.013672" xlink:href="#ArialMT-54"/>
      </g>
     </g>
    </g>
    <g id="xtick_3">
     <g id="line2d_3">
      <path clip-path="url(#p9f47ee2dff)" d="M 436.925246 535.5 
L 436.925246 73.44 
" style="fill:none;stroke:#808080;stroke-linecap:round;stroke-opacity:0.25;"/>
     </g>
     <g id="text_3">
      <!-- 0.47 -->
      <defs>
       <path d="M 4.734375 62.203125 
L 4.734375 70.65625 
L 51.078125 70.65625 
L 51.078125 63.8125 
Q 44.234375 56.546875 37.515625 44.484375 
Q 30.8125 32.421875 27.15625 19.671875 
Q 24.515625 10.6875 23.78125 0 
L 14.75 0 
Q 14.890625 8.453125 18.0625 20.40625 
Q 21.234375 32.375 27.171875 43.484375 
Q 33.109375 54.59375 39.796875 62.203125 
z
" id="ArialMT-55"/>
      </defs>
      <g style="fill:#262626;" transform="translate(426.22173 552.873594)scale(0.11 -0.11)">
       <use xlink:href="#ArialMT-48"/>
       <use x="55.615234" xlink:href="#ArialMT-46"/>
       <use x="83.398438" xlink:href="#ArialMT-52"/>
       <use x="139.013672" xlink:href="#ArialMT-55"/>
      </g>
     </g>
    </g>
    <g id="xtick_4">
     <g id="line2d_4">
      <path clip-path="url(#p9f47ee2dff)" d="M 324.988352 535.5 
L 324.988352 73.44 
" style="fill:none;stroke:#808080;stroke-linecap:round;stroke-opacity:0.25;"/>
     </g>
     <g id="text_4">
      <!-- 0.48 -->
      <defs>
       <path d="M 17.671875 38.8125 
Q 12.203125 40.828125 9.5625 44.53125 
Q 6.9375 48.25 6.9375 53.421875 
Q 6.9375 61.234375 12.546875 66.546875 
Q 18.171875 71.875 27.484375 71.875 
Q 36.859375 71.875 42.578125 66.421875 
Q 48.296875 60.984375 48.296875 53.171875 
Q 48.296875 48.1875 45.671875 44.5 
Q 43.0625 40.828125 37.75 38.8125 
Q 44.34375 36.671875 47.78125 31.875 
Q 51.21875 27.09375 51.21875 20.453125 
Q 51.21875 11.28125 44.71875 5.03125 
Q 38.234375 -1.21875 27.640625 -1.21875 
Q 17.046875 -1.21875 10.546875 5.046875 
Q 4.046875 11.328125 4.046875 20.703125 
Q 4.046875 27.6875 7.59375 32.390625 
Q 11.140625 37.109375 17.671875 38.8125 
z
M 15.921875 53.71875 
Q 15.921875 48.640625 19.1875 45.40625 
Q 22.46875 42.1875 27.6875 42.1875 
Q 32.765625 42.1875 36.015625 45.375 
Q 39.265625 48.578125 39.265625 53.21875 
Q 39.265625 58.0625 35.90625 61.359375 
Q 32.5625 64.65625 27.59375 64.65625 
Q 22.5625 64.65625 19.234375 61.421875 
Q 15.921875 58.203125 15.921875 53.71875 
z
M 13.09375 20.65625 
Q 13.09375 16.890625 14.875 13.375 
Q 16.65625 9.859375 20.171875 7.921875 
Q 23.6875 6 27.734375 6 
Q 34.03125 6 38.125 10.046875 
Q 42.234375 14.109375 42.234375 20.359375 
Q 42.234375 26.703125 38.015625 30.859375 
Q 33.796875 35.015625 27.4375 35.015625 
Q 21.234375 35.015625 17.15625 30.90625 
Q 13.09375 26.8125 13.09375 20.65625 
z
" id="ArialMT-56"/>
      </defs>
      <g style="fill:#262626;" transform="translate(314.284836 552.873594)scale(0.11 -0.11)">
       <use xlink:href="#ArialMT-48"/>
       <use x="55.615234" xlink:href="#ArialMT-46"/>
       <use x="83.398438" xlink:href="#ArialMT-52"/>
       <use x="139.013672" xlink:href="#ArialMT-56"/>
      </g>
     </g>
    </g>
    <g id="xtick_5">
     <g id="line2d_5">
      <path clip-path="url(#p9f47ee2dff)" d="M 213.051457 535.5 
L 213.051457 73.44 
" style="fill:none;stroke:#808080;stroke-linecap:round;stroke-opacity:0.25;"/>
     </g>
     <g id="text_5">
      <!-- 0.49 -->
      <defs>
       <path d="M 5.46875 16.546875 
L 13.921875 17.328125 
Q 14.984375 11.375 18.015625 8.6875 
Q 21.046875 6 25.78125 6 
Q 29.828125 6 32.875 7.859375 
Q 35.9375 9.71875 37.890625 12.8125 
Q 39.84375 15.921875 41.15625 21.1875 
Q 42.484375 26.46875 42.484375 31.9375 
Q 42.484375 32.515625 42.4375 33.6875 
Q 39.796875 29.5 35.234375 26.875 
Q 30.671875 24.265625 25.34375 24.265625 
Q 16.453125 24.265625 10.296875 30.703125 
Q 4.15625 37.15625 4.15625 47.703125 
Q 4.15625 58.59375 10.578125 65.234375 
Q 17 71.875 26.65625 71.875 
Q 33.640625 71.875 39.421875 68.109375 
Q 45.21875 64.359375 48.21875 57.390625 
Q 51.21875 50.4375 51.21875 37.25 
Q 51.21875 23.53125 48.234375 15.40625 
Q 45.265625 7.28125 39.375 3.03125 
Q 33.5 -1.21875 25.59375 -1.21875 
Q 17.1875 -1.21875 11.859375 3.4375 
Q 6.546875 8.109375 5.46875 16.546875 
z
M 41.453125 48.140625 
Q 41.453125 55.71875 37.421875 60.15625 
Q 33.40625 64.59375 27.734375 64.59375 
Q 21.875 64.59375 17.53125 59.8125 
Q 13.1875 55.03125 13.1875 47.40625 
Q 13.1875 40.578125 17.3125 36.296875 
Q 21.4375 32.03125 27.484375 32.03125 
Q 33.59375 32.03125 37.515625 36.296875 
Q 41.453125 40.578125 41.453125 48.140625 
z
" id="ArialMT-57"/>
      </defs>
      <g style="fill:#262626;" transform="translate(202.347941 552.873594)scale(0.11 -0.11)">
       <use xlink:href="#ArialMT-48"/>
       <use x="55.615234" xlink:href="#ArialMT-46"/>
       <use x="83.398438" xlink:href="#ArialMT-52"/>
       <use x="139.013672" xlink:href="#ArialMT-57"/>
      </g>
     </g>
    </g>
    <g id="xtick_6">
     <g id="line2d_6">
      <path clip-path="url(#p9f47ee2dff)" d="M 101.114562 535.5 
L 101.114562 73.44 
" style="fill:none;stroke:#808080;stroke-linecap:round;stroke-opacity:0.25;"/>
     </g>
     <g id="text_6">
      <!-- 0.50 -->
      <g style="fill:#262626;" transform="translate(90.411047 552.873594)scale(0.11 -0.11)">
       <use xlink:href="#ArialMT-48"/>
       <use x="55.615234" xlink:href="#ArialMT-46"/>
       <use x="83.398438" xlink:href="#ArialMT-53"/>
       <use x="139.013672" xlink:href="#ArialMT-48"/>
      </g>
     </g>
    </g>
    <g id="xtick_7">
     <g id="line2d_7">
      <path clip-path="url(#p9f47ee2dff)" d="M 705.573793 535.5 
L 705.573793 73.44 
" style="fill:none;stroke:#808080;stroke-linecap:round;stroke-opacity:0.25;"/>
     </g>
    </g>
    <g id="xtick_8">
     <g id="line2d_8">
      <path clip-path="url(#p9f47ee2dff)" d="M 683.186414 535.5 
L 683.186414 73.44 
" style="fill:none;stroke:#808080;stroke-linecap:round;stroke-opacity:0.25;"/>
     </g>
    </g>
    <g id="xtick_9">
     <g id="line2d_9">
      <path clip-path="url(#p9f47ee2dff)" d="M 638.411656 535.5 
L 638.411656 73.44 
" style="fill:none;stroke:#808080;stroke-linecap:round;stroke-opacity:0.25;"/>
     </g>
    </g>
    <g id="xtick_10">
     <g id="line2d_10">
      <path clip-path="url(#p9f47ee2dff)" d="M 616.024277 535.5 
L 616.024277 73.44 
" style="fill:none;stroke:#808080;stroke-linecap:round;stroke-opacity:0.25;"/>
     </g>
    </g>
    <g id="xtick_11">
     <g id="line2d_11">
      <path clip-path="url(#p9f47ee2dff)" d="M 593.636898 535.5 
L 593.636898 73.44 
" style="fill:none;stroke:#808080;stroke-linecap:round;stroke-opacity:0.25;"/>
     </g>
    </g>
    <g id="xtick_12">
     <g id="line2d_12">
      <path clip-path="url(#p9f47ee2dff)" d="M 571.249519 535.5 
L 571.249519 73.44 
" style="fill:none;stroke:#808080;stroke-linecap:round;stroke-opacity:0.25;"/>
     </g>
    </g>
    <g id="xtick_13">
     <g id="line2d_13">
      <path clip-path="url(#p9f47ee2dff)" d="M 526.474762 535.5 
L 526.474762 73.44 
" style="fill:none;stroke:#808080;stroke-linecap:round;stroke-opacity:0.25;"/>
     </g>
    </g>
    <g id="xtick_14">
     <g id="line2d_14">
      <path clip-path="url(#p9f47ee2dff)" d="M 504.087383 535.5 
L 504.087383 73.44 
" style="fill:none;stroke:#808080;stroke-linecap:round;stroke-opacity:0.25;"/>
     </g>
    </g>
    <g id="xtick_15">
     <g id="line2d_15">
      <path clip-path="url(#p9f47ee2dff)" d="M 481.700004 535.5 
L 481.700004 73.44 
" style="fill:none;stroke:#808080;stroke-linecap:round;stroke-opacity:0.25;"/>
     </g>
    </g>
    <g id="xtick_16">
     <g id="line2d_16">
      <path clip-path="url(#p9f47ee2dff)" d="M 459.312625 535.5 
L 459.312625 73.44 
" style="fill:none;stroke:#808080;stroke-linecap:round;stroke-opacity:0.25;"/>
     </g>
    </g>
    <g id="xtick_17">
     <g id="line2d_17">
      <path clip-path="url(#p9f47ee2dff)" d="M 414.537867 535.5 
L 414.537867 73.44 
" style="fill:none;stroke:#808080;stroke-linecap:round;stroke-opacity:0.25;"/>
     </g>
    </g>
    <g id="xtick_18">
     <g id="line2d_18">
      <path clip-path="url(#p9f47ee2dff)" d="M 392.150488 535.5 
L 392.150488 73.44 
" style="fill:none;stroke:#808080;stroke-linecap:round;stroke-opacity:0.25;"/>
     </g>
    </g>
    <g id="xtick_19">
     <g id="line2d_19">
      <path clip-path="url(#p9f47ee2dff)" d="M 369.763109 535.5 
L 369.763109 73.44 
" style="fill:none;stroke:#808080;stroke-linecap:round;stroke-opacity:0.25;"/>
     </g>
    </g>
    <g id="xtick_20">
     <g id="line2d_20">
      <path clip-path="url(#p9f47ee2dff)" d="M 347.37573 535.5 
L 347.37573 73.44 
" style="fill:none;stroke:#808080;stroke-linecap:round;stroke-opacity:0.25;"/>
     </g>
    </g>
    <g id="xtick_21">
     <g id="line2d_21">
      <path clip-path="url(#p9f47ee2dff)" d="M 302.600973 535.5 
L 302.600973 73.44 
" style="fill:none;stroke:#808080;stroke-linecap:round;stroke-opacity:0.25;"/>
     </g>
    </g>
    <g id="xtick_22">
     <g id="line2d_22">
      <path clip-path="url(#p9f47ee2dff)" d="M 280.213594 535.5 
L 280.213594 73.44 
" style="fill:none;stroke:#808080;stroke-linecap:round;stroke-opacity:0.25;"/>
     </g>
    </g>
    <g id="xtick_23">
     <g id="line2d_23">
      <path clip-path="url(#p9f47ee2dff)" d="M 257.826215 535.5 
L 257.826215 73.44 
" style="fill:none;stroke:#808080;stroke-linecap:round;stroke-opacity:0.25;"/>
     </g>
    </g>
    <g id="xtick_24">
     <g id="line2d_24">
      <path clip-path="url(#p9f47ee2dff)" d="M 235.438836 535.5 
L 235.438836 73.44 
" style="fill:none;stroke:#808080;stroke-linecap:round;stroke-opacity:0.25;"/>
     </g>
    </g>
    <g id="xtick_25">
     <g id="line2d_25">
      <path clip-path="url(#p9f47ee2dff)" d="M 190.664078 535.5 
L 190.664078 73.44 
" style="fill:none;stroke:#808080;stroke-linecap:round;stroke-opacity:0.25;"/>
     </g>
    </g>
    <g id="xtick_26">
     <g id="line2d_26">
      <path clip-path="url(#p9f47ee2dff)" d="M 168.276699 535.5 
L 168.276699 73.44 
" style="fill:none;stroke:#808080;stroke-linecap:round;stroke-opacity:0.25;"/>
     </g>
    </g>
    <g id="xtick_27">
     <g id="line2d_27">
      <path clip-path="url(#p9f47ee2dff)" d="M 145.88932 535.5 
L 145.88932 73.44 
" style="fill:none;stroke:#808080;stroke-linecap:round;stroke-opacity:0.25;"/>
     </g>
    </g>
    <g id="xtick_28">
     <g id="line2d_28">
      <path clip-path="url(#p9f47ee2dff)" d="M 123.501941 535.5 
L 123.501941 73.44 
" style="fill:none;stroke:#808080;stroke-linecap:round;stroke-opacity:0.25;"/>
     </g>
    </g>
    <g id="text_7">
     <!-- Current in Dipole 1 (A) -->
     <defs>
      <path d="M 58.796875 25.09375 
L 68.265625 22.703125 
Q 65.28125 11.03125 57.546875 4.90625 
Q 49.8125 -1.21875 38.625 -1.21875 
Q 27.046875 -1.21875 19.796875 3.484375 
Q 12.546875 8.203125 8.765625 17.140625 
Q 4.984375 26.078125 4.984375 36.328125 
Q 4.984375 47.515625 9.25 55.828125 
Q 13.53125 64.15625 21.40625 68.46875 
Q 29.296875 72.796875 38.765625 72.796875 
Q 49.515625 72.796875 56.828125 67.328125 
Q 64.15625 61.859375 67.046875 51.953125 
L 57.71875 49.75 
Q 55.21875 57.5625 50.484375 61.125 
Q 45.75 64.703125 38.578125 64.703125 
Q 30.328125 64.703125 24.78125 60.734375 
Q 19.234375 56.78125 16.984375 50.109375 
Q 14.75 43.453125 14.75 36.375 
Q 14.75 27.25 17.40625 20.4375 
Q 20.0625 13.625 25.671875 10.25 
Q 31.296875 6.890625 37.84375 6.890625 
Q 45.796875 6.890625 51.3125 11.46875 
Q 56.84375 16.0625 58.796875 25.09375 
z
" id="ArialMT-67"/>
      <path d="M 40.578125 0 
L 40.578125 7.625 
Q 34.515625 -1.171875 24.125 -1.171875 
Q 19.53125 -1.171875 15.546875 0.578125 
Q 11.578125 2.34375 9.640625 5 
Q 7.71875 7.671875 6.9375 11.53125 
Q 6.390625 14.109375 6.390625 19.734375 
L 6.390625 51.859375 
L 15.1875 51.859375 
L 15.1875 23.09375 
Q 15.1875 16.21875 15.71875 13.8125 
Q 16.546875 10.359375 19.234375 8.375 
Q 21.921875 6.390625 25.875 6.390625 
Q 29.828125 6.390625 33.296875 8.421875 
Q 36.765625 10.453125 38.203125 13.9375 
Q 39.65625 17.4375 39.65625 24.078125 
L 39.65625 51.859375 
L 48.4375 51.859375 
L 48.4375 0 
z
" id="ArialMT-117"/>
      <path d="M 6.5 0 
L 6.5 51.859375 
L 14.40625 51.859375 
L 14.40625 44 
Q 17.4375 49.515625 20 51.265625 
Q 22.5625 53.03125 25.640625 53.03125 
Q 30.078125 53.03125 34.671875 50.203125 
L 31.640625 42.046875 
Q 28.421875 43.953125 25.203125 43.953125 
Q 22.3125 43.953125 20.015625 42.21875 
Q 17.71875 40.484375 16.75 37.40625 
Q 15.28125 32.71875 15.28125 27.15625 
L 15.28125 0 
z
" id="ArialMT-114"/>
      <path d="M 42.09375 16.703125 
L 51.171875 15.578125 
Q 49.03125 7.625 43.21875 3.21875 
Q 37.40625 -1.171875 28.375 -1.171875 
Q 17 -1.171875 10.328125 5.828125 
Q 3.65625 12.84375 3.65625 25.484375 
Q 3.65625 38.578125 10.390625 45.796875 
Q 17.140625 53.03125 27.875 53.03125 
Q 38.28125 53.03125 44.875 45.953125 
Q 51.46875 38.875 51.46875 26.03125 
Q 51.46875 25.25 51.421875 23.6875 
L 12.75 23.6875 
Q 13.234375 15.140625 17.578125 10.59375 
Q 21.921875 6.0625 28.421875 6.0625 
Q 33.25 6.0625 36.671875 8.59375 
Q 40.09375 11.140625 42.09375 16.703125 
z
M 13.234375 30.90625 
L 42.1875 30.90625 
Q 41.609375 37.453125 38.875 40.71875 
Q 34.671875 45.796875 27.984375 45.796875 
Q 21.921875 45.796875 17.796875 41.75 
Q 13.671875 37.703125 13.234375 30.90625 
z
" id="ArialMT-101"/>
      <path d="M 6.59375 0 
L 6.59375 51.859375 
L 14.5 51.859375 
L 14.5 44.484375 
Q 20.21875 53.03125 31 53.03125 
Q 35.6875 53.03125 39.625 51.34375 
Q 43.5625 49.65625 45.515625 46.921875 
Q 47.46875 44.1875 48.25 40.4375 
Q 48.734375 37.984375 48.734375 31.890625 
L 48.734375 0 
L 39.9375 0 
L 39.9375 31.546875 
Q 39.9375 36.921875 38.90625 39.578125 
Q 37.890625 42.234375 35.28125 43.8125 
Q 32.671875 45.40625 29.15625 45.40625 
Q 23.53125 45.40625 19.453125 41.84375 
Q 15.375 38.28125 15.375 28.328125 
L 15.375 0 
z
" id="ArialMT-110"/>
      <path d="M 25.78125 7.859375 
L 27.046875 0.09375 
Q 23.34375 -0.6875 20.40625 -0.6875 
Q 15.625 -0.6875 12.984375 0.828125 
Q 10.359375 2.34375 9.28125 4.8125 
Q 8.203125 7.28125 8.203125 15.1875 
L 8.203125 45.015625 
L 1.765625 45.015625 
L 1.765625 51.859375 
L 8.203125 51.859375 
L 8.203125 64.703125 
L 16.9375 69.96875 
L 16.9375 51.859375 
L 25.78125 51.859375 
L 25.78125 45.015625 
L 16.9375 45.015625 
L 16.9375 14.703125 
Q 16.9375 10.9375 17.40625 9.859375 
Q 17.875 8.796875 18.921875 8.15625 
Q 19.96875 7.515625 21.921875 7.515625 
Q 23.390625 7.515625 25.78125 7.859375 
z
" id="ArialMT-116"/>
      <path id="ArialMT-32"/>
      <path d="M 6.640625 61.46875 
L 6.640625 71.578125 
L 15.4375 71.578125 
L 15.4375 61.46875 
z
M 6.640625 0 
L 6.640625 51.859375 
L 15.4375 51.859375 
L 15.4375 0 
z
" id="ArialMT-105"/>
      <path d="M 7.71875 0 
L 7.71875 71.578125 
L 32.375 71.578125 
Q 40.71875 71.578125 45.125 70.5625 
Q 51.265625 69.140625 55.609375 65.4375 
Q 61.28125 60.640625 64.078125 53.1875 
Q 66.890625 45.75 66.890625 36.1875 
Q 66.890625 28.03125 64.984375 21.734375 
Q 63.09375 15.4375 60.109375 11.296875 
Q 57.125 7.171875 53.578125 4.796875 
Q 50.046875 2.4375 45.046875 1.21875 
Q 40.046875 0 33.546875 0 
z
M 17.1875 8.453125 
L 32.46875 8.453125 
Q 39.546875 8.453125 43.578125 9.765625 
Q 47.609375 11.078125 50 13.484375 
Q 53.375 16.84375 55.25 22.53125 
Q 57.125 28.21875 57.125 36.328125 
Q 57.125 47.5625 53.4375 53.59375 
Q 49.75 59.625 44.484375 61.671875 
Q 40.671875 63.140625 32.234375 63.140625 
L 17.1875 63.140625 
z
" id="ArialMT-68"/>
      <path d="M 6.59375 -19.875 
L 6.59375 51.859375 
L 14.59375 51.859375 
L 14.59375 45.125 
Q 17.4375 49.078125 21 51.046875 
Q 24.5625 53.03125 29.640625 53.03125 
Q 36.28125 53.03125 41.359375 49.609375 
Q 46.4375 46.1875 49.015625 39.953125 
Q 51.609375 33.734375 51.609375 26.3125 
Q 51.609375 18.359375 48.75 11.984375 
Q 45.90625 5.609375 40.453125 2.21875 
Q 35.015625 -1.171875 29 -1.171875 
Q 24.609375 -1.171875 21.109375 0.6875 
Q 17.625 2.546875 15.375 5.375 
L 15.375 -19.875 
z
M 14.546875 25.640625 
Q 14.546875 15.625 18.59375 10.84375 
Q 22.65625 6.0625 28.421875 6.0625 
Q 34.28125 6.0625 38.453125 11.015625 
Q 42.625 15.96875 42.625 26.375 
Q 42.625 36.28125 38.546875 41.203125 
Q 34.46875 46.140625 28.8125 46.140625 
Q 23.1875 46.140625 18.859375 40.890625 
Q 14.546875 35.640625 14.546875 25.640625 
z
" id="ArialMT-112"/>
      <path d="M 3.328125 25.921875 
Q 3.328125 40.328125 11.328125 47.265625 
Q 18.015625 53.03125 27.640625 53.03125 
Q 38.328125 53.03125 45.109375 46.015625 
Q 51.90625 39.015625 51.90625 26.65625 
Q 51.90625 16.65625 48.90625 10.90625 
Q 45.90625 5.171875 40.15625 2 
Q 34.421875 -1.171875 27.640625 -1.171875 
Q 16.75 -1.171875 10.03125 5.8125 
Q 3.328125 12.796875 3.328125 25.921875 
z
M 12.359375 25.921875 
Q 12.359375 15.96875 16.703125 11.015625 
Q 21.046875 6.0625 27.640625 6.0625 
Q 34.1875 6.0625 38.53125 11.03125 
Q 42.875 16.015625 42.875 26.21875 
Q 42.875 35.84375 38.5 40.796875 
Q 34.125 45.75 27.640625 45.75 
Q 21.046875 45.75 16.703125 40.8125 
Q 12.359375 35.890625 12.359375 25.921875 
z
" id="ArialMT-111"/>
      <path d="M 6.390625 0 
L 6.390625 71.578125 
L 15.1875 71.578125 
L 15.1875 0 
z
" id="ArialMT-108"/>
      <path d="M 37.25 0 
L 28.46875 0 
L 28.46875 56 
Q 25.296875 52.984375 20.140625 49.953125 
Q 14.984375 46.921875 10.890625 45.40625 
L 10.890625 53.90625 
Q 18.265625 57.375 23.78125 62.296875 
Q 29.296875 67.234375 31.59375 71.875 
L 37.25 71.875 
z
" id="ArialMT-49"/>
      <path d="M 23.390625 -21.046875 
Q 16.109375 -11.859375 11.078125 0.4375 
Q 6.0625 12.75 6.0625 25.921875 
Q 6.0625 37.546875 9.8125 48.1875 
Q 14.203125 60.546875 23.390625 72.796875 
L 29.6875 72.796875 
Q 23.78125 62.640625 21.875 58.296875 
Q 18.890625 51.5625 17.1875 44.234375 
Q 15.09375 35.109375 15.09375 25.875 
Q 15.09375 2.390625 29.6875 -21.046875 
z
" id="ArialMT-40"/>
      <path d="M -0.140625 0 
L 27.34375 71.578125 
L 37.546875 71.578125 
L 66.84375 0 
L 56.0625 0 
L 47.703125 21.6875 
L 17.78125 21.6875 
L 9.90625 0 
z
M 20.515625 29.390625 
L 44.78125 29.390625 
L 37.3125 49.21875 
Q 33.890625 58.25 32.234375 64.0625 
Q 30.859375 57.171875 28.375 50.390625 
z
" id="ArialMT-65"/>
      <path d="M 12.359375 -21.046875 
L 6.0625 -21.046875 
Q 20.65625 2.390625 20.65625 25.875 
Q 20.65625 35.0625 18.5625 44.09375 
Q 16.890625 51.421875 13.921875 58.15625 
Q 12.015625 62.546875 6.0625 72.796875 
L 12.359375 72.796875 
Q 21.53125 60.546875 25.921875 48.1875 
Q 29.6875 37.546875 29.6875 25.921875 
Q 29.6875 12.75 24.625 0.4375 
Q 19.578125 -11.859375 12.359375 -21.046875 
z
" id="ArialMT-41"/>
     </defs>
     <g style="fill:#262626;" transform="translate(346.214063 567.795469)scale(0.12 -0.12)">
      <use xlink:href="#ArialMT-67"/>
      <use x="72.216797" xlink:href="#ArialMT-117"/>
      <use x="127.832031" xlink:href="#ArialMT-114"/>
      <use x="161.132812" xlink:href="#ArialMT-114"/>
      <use x="194.433594" xlink:href="#ArialMT-101"/>
      <use x="250.048828" xlink:href="#ArialMT-110"/>
      <use x="305.664062" xlink:href="#ArialMT-116"/>
      <use x="333.447266" xlink:href="#ArialMT-32"/>
      <use x="361.230469" xlink:href="#ArialMT-105"/>
      <use x="383.447266" xlink:href="#ArialMT-110"/>
      <use x="439.0625" xlink:href="#ArialMT-32"/>
      <use x="466.845703" xlink:href="#ArialMT-68"/>
      <use x="539.0625" xlink:href="#ArialMT-105"/>
      <use x="561.279297" xlink:href="#ArialMT-112"/>
      <use x="616.894531" xlink:href="#ArialMT-111"/>
      <use x="672.509766" xlink:href="#ArialMT-108"/>
      <use x="694.726562" xlink:href="#ArialMT-101"/>
      <use x="750.341797" xlink:href="#ArialMT-32"/>
      <use x="778.125" xlink:href="#ArialMT-49"/>
      <use x="833.740234" xlink:href="#ArialMT-32"/>
      <use x="861.523438" xlink:href="#ArialMT-40"/>
      <use x="894.824219" xlink:href="#ArialMT-65"/>
      <use x="961.523438" xlink:href="#ArialMT-41"/>
     </g>
    </g>
   </g>
   <g id="matplotlib.axis_2">
    <g id="ytick_1">
     <g id="line2d_29">
      <path clip-path="url(#p9f47ee2dff)" d="M 99 514.497273 
L 712.8 514.497273 
" style="fill:none;stroke:#808080;stroke-linecap:round;stroke-opacity:0.25;"/>
     </g>
     <g id="text_8">
      <!-- 0 -->
      <g style="fill:#262626;" transform="translate(83.382969 518.43407)scale(0.11 -0.11)">
       <use xlink:href="#ArialMT-48"/>
      </g>
     </g>
    </g>
    <g id="ytick_2">
     <g id="line2d_30">
      <path clip-path="url(#p9f47ee2dff)" d="M 99 448.000401 
L 712.8 448.000401 
" style="fill:none;stroke:#808080;stroke-linecap:round;stroke-opacity:0.25;"/>
     </g>
     <g id="text_9">
      <!-- 10 -->
      <g style="fill:#262626;" transform="translate(77.265938 451.937198)scale(0.11 -0.11)">
       <use xlink:href="#ArialMT-49"/>
       <use x="55.615234" xlink:href="#ArialMT-48"/>
      </g>
     </g>
    </g>
    <g id="ytick_3">
     <g id="line2d_31">
      <path clip-path="url(#p9f47ee2dff)" d="M 99 381.50353 
L 712.8 381.50353 
" style="fill:none;stroke:#808080;stroke-linecap:round;stroke-opacity:0.25;"/>
     </g>
     <g id="text_10">
      <!-- 20 -->
      <defs>
       <path d="M 50.34375 8.453125 
L 50.34375 0 
L 3.03125 0 
Q 2.9375 3.171875 4.046875 6.109375 
Q 5.859375 10.9375 9.828125 15.625 
Q 13.8125 20.3125 21.34375 26.46875 
Q 33.015625 36.03125 37.109375 41.625 
Q 41.21875 47.21875 41.21875 52.203125 
Q 41.21875 57.421875 37.46875 61 
Q 33.734375 64.59375 27.734375 64.59375 
Q 21.390625 64.59375 17.578125 60.78125 
Q 13.765625 56.984375 13.71875 50.25 
L 4.6875 51.171875 
Q 5.609375 61.28125 11.65625 66.578125 
Q 17.71875 71.875 27.9375 71.875 
Q 38.234375 71.875 44.234375 66.15625 
Q 50.25 60.453125 50.25 52 
Q 50.25 47.703125 48.484375 43.546875 
Q 46.734375 39.40625 42.65625 34.8125 
Q 38.578125 30.21875 29.109375 22.21875 
Q 21.1875 15.578125 18.9375 13.203125 
Q 16.703125 10.84375 15.234375 8.453125 
z
" id="ArialMT-50"/>
      </defs>
      <g style="fill:#262626;" transform="translate(77.265938 385.440327)scale(0.11 -0.11)">
       <use xlink:href="#ArialMT-50"/>
       <use x="55.615234" xlink:href="#ArialMT-48"/>
      </g>
     </g>
    </g>
    <g id="ytick_4">
     <g id="line2d_32">
      <path clip-path="url(#p9f47ee2dff)" d="M 99 315.006658 
L 712.8 315.006658 
" style="fill:none;stroke:#808080;stroke-linecap:round;stroke-opacity:0.25;"/>
     </g>
     <g id="text_11">
      <!-- 30 -->
      <defs>
       <path d="M 4.203125 18.890625 
L 12.984375 20.0625 
Q 14.5 12.59375 18.140625 9.296875 
Q 21.78125 6 27 6 
Q 33.203125 6 37.46875 10.296875 
Q 41.75 14.59375 41.75 20.953125 
Q 41.75 27 37.796875 30.921875 
Q 33.84375 34.859375 27.734375 34.859375 
Q 25.25 34.859375 21.53125 33.890625 
L 22.515625 41.609375 
Q 23.390625 41.5 23.921875 41.5 
Q 29.546875 41.5 34.03125 44.421875 
Q 38.53125 47.359375 38.53125 53.46875 
Q 38.53125 58.296875 35.25 61.46875 
Q 31.984375 64.65625 26.8125 64.65625 
Q 21.6875 64.65625 18.265625 61.421875 
Q 14.84375 58.203125 13.875 51.765625 
L 5.078125 53.328125 
Q 6.6875 62.15625 12.390625 67.015625 
Q 18.109375 71.875 26.609375 71.875 
Q 32.46875 71.875 37.390625 69.359375 
Q 42.328125 66.84375 44.9375 62.5 
Q 47.5625 58.15625 47.5625 53.265625 
Q 47.5625 48.640625 45.0625 44.828125 
Q 42.578125 41.015625 37.703125 38.765625 
Q 44.046875 37.3125 47.5625 32.6875 
Q 51.078125 28.078125 51.078125 21.140625 
Q 51.078125 11.765625 44.234375 5.25 
Q 37.40625 -1.265625 26.953125 -1.265625 
Q 17.53125 -1.265625 11.296875 4.34375 
Q 5.078125 9.96875 4.203125 18.890625 
z
" id="ArialMT-51"/>
      </defs>
      <g style="fill:#262626;" transform="translate(77.265938 318.943455)scale(0.11 -0.11)">
       <use xlink:href="#ArialMT-51"/>
       <use x="55.615234" xlink:href="#ArialMT-48"/>
      </g>
     </g>
    </g>
    <g id="ytick_5">
     <g id="line2d_33">
      <path clip-path="url(#p9f47ee2dff)" d="M 99 248.509787 
L 712.8 248.509787 
" style="fill:none;stroke:#808080;stroke-linecap:round;stroke-opacity:0.25;"/>
     </g>
     <g id="text_12">
      <!-- 40 -->
      <g style="fill:#262626;" transform="translate(77.265938 252.446584)scale(0.11 -0.11)">
       <use xlink:href="#ArialMT-52"/>
       <use x="55.615234" xlink:href="#ArialMT-48"/>
      </g>
     </g>
    </g>
    <g id="ytick_6">
     <g id="line2d_34">
      <path clip-path="url(#p9f47ee2dff)" d="M 99 182.012915 
L 712.8 182.012915 
" style="fill:none;stroke:#808080;stroke-linecap:round;stroke-opacity:0.25;"/>
     </g>
     <g id="text_13">
      <!-- 50 -->
      <g style="fill:#262626;" transform="translate(77.265938 185.949712)scale(0.11 -0.11)">
       <use xlink:href="#ArialMT-53"/>
       <use x="55.615234" xlink:href="#ArialMT-48"/>
      </g>
     </g>
    </g>
    <g id="ytick_7">
     <g id="line2d_35">
      <path clip-path="url(#p9f47ee2dff)" d="M 99 115.516044 
L 712.8 115.516044 
" style="fill:none;stroke:#808080;stroke-linecap:round;stroke-opacity:0.25;"/>
     </g>
     <g id="text_14">
      <!-- 60 -->
      <g style="fill:#262626;" transform="translate(77.265938 119.452841)scale(0.11 -0.11)">
       <use xlink:href="#ArialMT-54"/>
       <use x="55.615234" xlink:href="#ArialMT-48"/>
      </g>
     </g>
    </g>
    <g id="ytick_8">
     <g id="line2d_36">
      <path clip-path="url(#p9f47ee2dff)" d="M 99 527.796647 
L 712.8 527.796647 
" style="fill:none;stroke:#808080;stroke-linecap:round;stroke-opacity:0.25;"/>
     </g>
    </g>
    <g id="ytick_9">
     <g id="line2d_37">
      <path clip-path="url(#p9f47ee2dff)" d="M 99 501.197898 
L 712.8 501.197898 
" style="fill:none;stroke:#808080;stroke-linecap:round;stroke-opacity:0.25;"/>
     </g>
    </g>
    <g id="ytick_10">
     <g id="line2d_38">
      <path clip-path="url(#p9f47ee2dff)" d="M 99 487.898524 
L 712.8 487.898524 
" style="fill:none;stroke:#808080;stroke-linecap:round;stroke-opacity:0.25;"/>
     </g>
    </g>
    <g id="ytick_11">
     <g id="line2d_39">
      <path clip-path="url(#p9f47ee2dff)" d="M 99 474.59915 
L 712.8 474.59915 
" style="fill:none;stroke:#808080;stroke-linecap:round;stroke-opacity:0.25;"/>
     </g>
    </g>
    <g id="ytick_12">
     <g id="line2d_40">
      <path clip-path="url(#p9f47ee2dff)" d="M 99 461.299776 
L 712.8 461.299776 
" style="fill:none;stroke:#808080;stroke-linecap:round;stroke-opacity:0.25;"/>
     </g>
    </g>
    <g id="ytick_13">
     <g id="line2d_41">
      <path clip-path="url(#p9f47ee2dff)" d="M 99 434.701027 
L 712.8 434.701027 
" style="fill:none;stroke:#808080;stroke-linecap:round;stroke-opacity:0.25;"/>
     </g>
    </g>
    <g id="ytick_14">
     <g id="line2d_42">
      <path clip-path="url(#p9f47ee2dff)" d="M 99 421.401653 
L 712.8 421.401653 
" style="fill:none;stroke:#808080;stroke-linecap:round;stroke-opacity:0.25;"/>
     </g>
    </g>
    <g id="ytick_15">
     <g id="line2d_43">
      <path clip-path="url(#p9f47ee2dff)" d="M 99 408.102278 
L 712.8 408.102278 
" style="fill:none;stroke:#808080;stroke-linecap:round;stroke-opacity:0.25;"/>
     </g>
    </g>
    <g id="ytick_16">
     <g id="line2d_44">
      <path clip-path="url(#p9f47ee2dff)" d="M 99 394.802904 
L 712.8 394.802904 
" style="fill:none;stroke:#808080;stroke-linecap:round;stroke-opacity:0.25;"/>
     </g>
    </g>
    <g id="ytick_17">
     <g id="line2d_45">
      <path clip-path="url(#p9f47ee2dff)" d="M 99 368.204155 
L 712.8 368.204155 
" style="fill:none;stroke:#808080;stroke-linecap:round;stroke-opacity:0.25;"/>
     </g>
    </g>
    <g id="ytick_18">
     <g id="line2d_46">
      <path clip-path="url(#p9f47ee2dff)" d="M 99 354.904781 
L 712.8 354.904781 
" style="fill:none;stroke:#808080;stroke-linecap:round;stroke-opacity:0.25;"/>
     </g>
    </g>
    <g id="ytick_19">
     <g id="line2d_47">
      <path clip-path="url(#p9f47ee2dff)" d="M 99 341.605407 
L 712.8 341.605407 
" style="fill:none;stroke:#808080;stroke-linecap:round;stroke-opacity:0.25;"/>
     </g>
    </g>
    <g id="ytick_20">
     <g id="line2d_48">
      <path clip-path="url(#p9f47ee2dff)" d="M 99 328.306033 
L 712.8 328.306033 
" style="fill:none;stroke:#808080;stroke-linecap:round;stroke-opacity:0.25;"/>
     </g>
    </g>
    <g id="ytick_21">
     <g id="line2d_49">
      <path clip-path="url(#p9f47ee2dff)" d="M 99 301.707284 
L 712.8 301.707284 
" style="fill:none;stroke:#808080;stroke-linecap:round;stroke-opacity:0.25;"/>
     </g>
    </g>
    <g id="ytick_22">
     <g id="line2d_50">
      <path clip-path="url(#p9f47ee2dff)" d="M 99 288.40791 
L 712.8 288.40791 
" style="fill:none;stroke:#808080;stroke-linecap:round;stroke-opacity:0.25;"/>
     </g>
    </g>
    <g id="ytick_23">
     <g id="line2d_51">
      <path clip-path="url(#p9f47ee2dff)" d="M 99 275.108535 
L 712.8 275.108535 
" style="fill:none;stroke:#808080;stroke-linecap:round;stroke-opacity:0.25;"/>
     </g>
    </g>
    <g id="ytick_24">
     <g id="line2d_52">
      <path clip-path="url(#p9f47ee2dff)" d="M 99 261.809161 
L 712.8 261.809161 
" style="fill:none;stroke:#808080;stroke-linecap:round;stroke-opacity:0.25;"/>
     </g>
    </g>
    <g id="ytick_25">
     <g id="line2d_53">
      <path clip-path="url(#p9f47ee2dff)" d="M 99 235.210412 
L 712.8 235.210412 
" style="fill:none;stroke:#808080;stroke-linecap:round;stroke-opacity:0.25;"/>
     </g>
    </g>
    <g id="ytick_26">
     <g id="line2d_54">
      <path clip-path="url(#p9f47ee2dff)" d="M 99 221.911038 
L 712.8 221.911038 
" style="fill:none;stroke:#808080;stroke-linecap:round;stroke-opacity:0.25;"/>
     </g>
    </g>
    <g id="ytick_27">
     <g id="line2d_55">
      <path clip-path="url(#p9f47ee2dff)" d="M 99 208.611664 
L 712.8 208.611664 
" style="fill:none;stroke:#808080;stroke-linecap:round;stroke-opacity:0.25;"/>
     </g>
    </g>
    <g id="ytick_28">
     <g id="line2d_56">
      <path clip-path="url(#p9f47ee2dff)" d="M 99 195.31229 
L 712.8 195.31229 
" style="fill:none;stroke:#808080;stroke-linecap:round;stroke-opacity:0.25;"/>
     </g>
    </g>
    <g id="ytick_29">
     <g id="line2d_57">
      <path clip-path="url(#p9f47ee2dff)" d="M 99 168.713541 
L 712.8 168.713541 
" style="fill:none;stroke:#808080;stroke-linecap:round;stroke-opacity:0.25;"/>
     </g>
    </g>
    <g id="ytick_30">
     <g id="line2d_58">
      <path clip-path="url(#p9f47ee2dff)" d="M 99 155.414167 
L 712.8 155.414167 
" style="fill:none;stroke:#808080;stroke-linecap:round;stroke-opacity:0.25;"/>
     </g>
    </g>
    <g id="ytick_31">
     <g id="line2d_59">
      <path clip-path="url(#p9f47ee2dff)" d="M 99 142.114792 
L 712.8 142.114792 
" style="fill:none;stroke:#808080;stroke-linecap:round;stroke-opacity:0.25;"/>
     </g>
    </g>
    <g id="ytick_32">
     <g id="line2d_60">
      <path clip-path="url(#p9f47ee2dff)" d="M 99 128.815418 
L 712.8 128.815418 
" style="fill:none;stroke:#808080;stroke-linecap:round;stroke-opacity:0.25;"/>
     </g>
    </g>
    <g id="ytick_33">
     <g id="line2d_61">
      <path clip-path="url(#p9f47ee2dff)" d="M 99 102.216669 
L 712.8 102.216669 
" style="fill:none;stroke:#808080;stroke-linecap:round;stroke-opacity:0.25;"/>
     </g>
    </g>
    <g id="ytick_34">
     <g id="line2d_62">
      <path clip-path="url(#p9f47ee2dff)" d="M 99 88.917295 
L 712.8 88.917295 
" style="fill:none;stroke:#808080;stroke-linecap:round;stroke-opacity:0.25;"/>
     </g>
    </g>
    <g id="ytick_35">
     <g id="line2d_63">
      <path clip-path="url(#p9f47ee2dff)" d="M 99 75.617921 
L 712.8 75.617921 
" style="fill:none;stroke:#808080;stroke-linecap:round;stroke-opacity:0.25;"/>
     </g>
    </g>
    <g id="text_15">
     <!-- Current Collected as percentage of Emitted Current -->
     <defs>
      <path d="M 40.4375 19 
L 49.078125 17.875 
Q 47.65625 8.9375 41.8125 3.875 
Q 35.984375 -1.171875 27.484375 -1.171875 
Q 16.84375 -1.171875 10.375 5.78125 
Q 3.90625 12.75 3.90625 25.734375 
Q 3.90625 34.125 6.6875 40.421875 
Q 9.46875 46.734375 15.15625 49.875 
Q 20.84375 53.03125 27.546875 53.03125 
Q 35.984375 53.03125 41.359375 48.75 
Q 46.734375 44.484375 48.25 36.625 
L 39.703125 35.296875 
Q 38.484375 40.53125 35.375 43.15625 
Q 32.28125 45.796875 27.875 45.796875 
Q 21.234375 45.796875 17.078125 41.03125 
Q 12.9375 36.28125 12.9375 25.984375 
Q 12.9375 15.53125 16.9375 10.796875 
Q 20.953125 6.0625 27.390625 6.0625 
Q 32.5625 6.0625 36.03125 9.234375 
Q 39.5 12.40625 40.4375 19 
z
" id="ArialMT-99"/>
      <path d="M 40.234375 0 
L 40.234375 6.546875 
Q 35.296875 -1.171875 25.734375 -1.171875 
Q 19.53125 -1.171875 14.328125 2.25 
Q 9.125 5.671875 6.265625 11.796875 
Q 3.421875 17.921875 3.421875 25.875 
Q 3.421875 33.640625 6 39.96875 
Q 8.59375 46.296875 13.765625 49.65625 
Q 18.953125 53.03125 25.34375 53.03125 
Q 30.03125 53.03125 33.6875 51.046875 
Q 37.359375 49.078125 39.65625 45.90625 
L 39.65625 71.578125 
L 48.390625 71.578125 
L 48.390625 0 
z
M 12.453125 25.875 
Q 12.453125 15.921875 16.640625 10.984375 
Q 20.84375 6.0625 26.5625 6.0625 
Q 32.328125 6.0625 36.34375 10.765625 
Q 40.375 15.484375 40.375 25.140625 
Q 40.375 35.796875 36.265625 40.765625 
Q 32.171875 45.75 26.171875 45.75 
Q 20.3125 45.75 16.375 40.96875 
Q 12.453125 36.1875 12.453125 25.875 
z
" id="ArialMT-100"/>
      <path d="M 40.4375 6.390625 
Q 35.546875 2.25 31.03125 0.53125 
Q 26.515625 -1.171875 21.34375 -1.171875 
Q 12.796875 -1.171875 8.203125 3 
Q 3.609375 7.171875 3.609375 13.671875 
Q 3.609375 17.484375 5.34375 20.625 
Q 7.078125 23.78125 9.890625 25.6875 
Q 12.703125 27.59375 16.21875 28.5625 
Q 18.796875 29.25 24.03125 29.890625 
Q 34.671875 31.15625 39.703125 32.90625 
Q 39.75 34.71875 39.75 35.203125 
Q 39.75 40.578125 37.25 42.78125 
Q 33.890625 45.75 27.25 45.75 
Q 21.046875 45.75 18.09375 43.578125 
Q 15.140625 41.40625 13.71875 35.890625 
L 5.125 37.0625 
Q 6.296875 42.578125 8.984375 45.96875 
Q 11.671875 49.359375 16.75 51.1875 
Q 21.828125 53.03125 28.515625 53.03125 
Q 35.15625 53.03125 39.296875 51.46875 
Q 43.453125 49.90625 45.40625 47.53125 
Q 47.359375 45.171875 48.140625 41.546875 
Q 48.578125 39.3125 48.578125 33.453125 
L 48.578125 21.734375 
Q 48.578125 9.46875 49.140625 6.21875 
Q 49.703125 2.984375 51.375 0 
L 42.1875 0 
Q 40.828125 2.734375 40.4375 6.390625 
z
M 39.703125 26.03125 
Q 34.90625 24.078125 25.34375 22.703125 
Q 19.921875 21.921875 17.671875 20.9375 
Q 15.4375 19.96875 14.203125 18.09375 
Q 12.984375 16.21875 12.984375 13.921875 
Q 12.984375 10.40625 15.640625 8.0625 
Q 18.3125 5.71875 23.4375 5.71875 
Q 28.515625 5.71875 32.46875 7.9375 
Q 36.421875 10.15625 38.28125 14.015625 
Q 39.703125 17 39.703125 22.796875 
z
" id="ArialMT-97"/>
      <path d="M 3.078125 15.484375 
L 11.765625 16.84375 
Q 12.5 11.625 15.84375 8.84375 
Q 19.1875 6.0625 25.203125 6.0625 
Q 31.25 6.0625 34.171875 8.515625 
Q 37.109375 10.984375 37.109375 14.3125 
Q 37.109375 17.28125 34.515625 19 
Q 32.71875 20.171875 25.53125 21.96875 
Q 15.875 24.421875 12.140625 26.203125 
Q 8.40625 27.984375 6.46875 31.125 
Q 4.546875 34.28125 4.546875 38.09375 
Q 4.546875 41.546875 6.125 44.5 
Q 7.71875 47.46875 10.453125 49.421875 
Q 12.5 50.921875 16.03125 51.96875 
Q 19.578125 53.03125 23.640625 53.03125 
Q 29.734375 53.03125 34.34375 51.265625 
Q 38.96875 49.515625 41.15625 46.5 
Q 43.359375 43.5 44.1875 38.484375 
L 35.59375 37.3125 
Q 35.015625 41.3125 32.203125 43.546875 
Q 29.390625 45.796875 24.265625 45.796875 
Q 18.21875 45.796875 15.625 43.796875 
Q 13.03125 41.796875 13.03125 39.109375 
Q 13.03125 37.40625 14.109375 36.03125 
Q 15.1875 34.625 17.484375 33.6875 
Q 18.796875 33.203125 25.25 31.453125 
Q 34.578125 28.953125 38.25 27.359375 
Q 41.9375 25.78125 44.03125 22.75 
Q 46.140625 19.734375 46.140625 15.234375 
Q 46.140625 10.84375 43.578125 6.953125 
Q 41.015625 3.078125 36.171875 0.953125 
Q 31.34375 -1.171875 25.25 -1.171875 
Q 15.140625 -1.171875 9.84375 3.03125 
Q 4.546875 7.234375 3.078125 15.484375 
z
" id="ArialMT-115"/>
      <path d="M 4.984375 -4.296875 
L 13.53125 -5.5625 
Q 14.0625 -9.515625 16.5 -11.328125 
Q 19.78125 -13.765625 25.4375 -13.765625 
Q 31.546875 -13.765625 34.859375 -11.328125 
Q 38.1875 -8.890625 39.359375 -4.5 
Q 40.046875 -1.8125 39.984375 6.78125 
Q 34.234375 0 25.640625 0 
Q 14.9375 0 9.078125 7.71875 
Q 3.21875 15.4375 3.21875 26.21875 
Q 3.21875 33.640625 5.90625 39.90625 
Q 8.59375 46.1875 13.6875 49.609375 
Q 18.796875 53.03125 25.6875 53.03125 
Q 34.859375 53.03125 40.828125 45.609375 
L 40.828125 51.859375 
L 48.921875 51.859375 
L 48.921875 7.03125 
Q 48.921875 -5.078125 46.453125 -10.125 
Q 44 -15.1875 38.640625 -18.109375 
Q 33.296875 -21.046875 25.484375 -21.046875 
Q 16.21875 -21.046875 10.5 -16.875 
Q 4.78125 -12.703125 4.984375 -4.296875 
z
M 12.25 26.859375 
Q 12.25 16.65625 16.296875 11.96875 
Q 20.359375 7.28125 26.46875 7.28125 
Q 32.515625 7.28125 36.609375 11.9375 
Q 40.71875 16.609375 40.71875 26.5625 
Q 40.71875 36.078125 36.5 40.90625 
Q 32.28125 45.75 26.3125 45.75 
Q 20.453125 45.75 16.34375 40.984375 
Q 12.25 36.234375 12.25 26.859375 
z
" id="ArialMT-103"/>
      <path d="M 8.6875 0 
L 8.6875 45.015625 
L 0.921875 45.015625 
L 0.921875 51.859375 
L 8.6875 51.859375 
L 8.6875 57.375 
Q 8.6875 62.59375 9.625 65.140625 
Q 10.890625 68.5625 14.078125 70.671875 
Q 17.28125 72.796875 23.046875 72.796875 
Q 26.765625 72.796875 31.25 71.921875 
L 29.9375 64.265625 
Q 27.203125 64.75 24.75 64.75 
Q 20.75 64.75 19.09375 63.03125 
Q 17.4375 61.328125 17.4375 56.640625 
L 17.4375 51.859375 
L 27.546875 51.859375 
L 27.546875 45.015625 
L 17.4375 45.015625 
L 17.4375 0 
z
" id="ArialMT-102"/>
      <path d="M 7.90625 0 
L 7.90625 71.578125 
L 59.671875 71.578125 
L 59.671875 63.140625 
L 17.390625 63.140625 
L 17.390625 41.21875 
L 56.984375 41.21875 
L 56.984375 32.8125 
L 17.390625 32.8125 
L 17.390625 8.453125 
L 61.328125 8.453125 
L 61.328125 0 
z
" id="ArialMT-69"/>
      <path d="M 6.59375 0 
L 6.59375 51.859375 
L 14.453125 51.859375 
L 14.453125 44.578125 
Q 16.890625 48.390625 20.9375 50.703125 
Q 25 53.03125 30.171875 53.03125 
Q 35.9375 53.03125 39.625 50.640625 
Q 43.3125 48.25 44.828125 43.953125 
Q 50.984375 53.03125 60.84375 53.03125 
Q 68.5625 53.03125 72.703125 48.75 
Q 76.859375 44.484375 76.859375 35.59375 
L 76.859375 0 
L 68.109375 0 
L 68.109375 32.671875 
Q 68.109375 37.9375 67.25 40.25 
Q 66.40625 42.578125 64.15625 43.984375 
Q 61.921875 45.40625 58.890625 45.40625 
Q 53.421875 45.40625 49.796875 41.765625 
Q 46.1875 38.140625 46.1875 30.125 
L 46.1875 0 
L 37.40625 0 
L 37.40625 33.6875 
Q 37.40625 39.546875 35.25 42.46875 
Q 33.109375 45.40625 28.21875 45.40625 
Q 24.515625 45.40625 21.359375 43.453125 
Q 18.21875 41.5 16.796875 37.734375 
Q 15.375 33.984375 15.375 26.90625 
L 15.375 0 
z
" id="ArialMT-109"/>
     </defs>
     <g style="fill:#262626;" transform="translate(70.740313 441.195)rotate(-90)scale(0.12 -0.12)">
      <use xlink:href="#ArialMT-67"/>
      <use x="72.216797" xlink:href="#ArialMT-117"/>
      <use x="127.832031" xlink:href="#ArialMT-114"/>
      <use x="161.132812" xlink:href="#ArialMT-114"/>
      <use x="194.433594" xlink:href="#ArialMT-101"/>
      <use x="250.048828" xlink:href="#ArialMT-110"/>
      <use x="305.664062" xlink:href="#ArialMT-116"/>
      <use x="333.447266" xlink:href="#ArialMT-32"/>
      <use x="361.230469" xlink:href="#ArialMT-67"/>
      <use x="433.447266" xlink:href="#ArialMT-111"/>
      <use x="489.0625" xlink:href="#ArialMT-108"/>
      <use x="511.279297" xlink:href="#ArialMT-108"/>
      <use x="533.496094" xlink:href="#ArialMT-101"/>
      <use x="589.111328" xlink:href="#ArialMT-99"/>
      <use x="639.111328" xlink:href="#ArialMT-116"/>
      <use x="666.894531" xlink:href="#ArialMT-101"/>
      <use x="722.509766" xlink:href="#ArialMT-100"/>
      <use x="778.125" xlink:href="#ArialMT-32"/>
      <use x="805.908203" xlink:href="#ArialMT-97"/>
      <use x="861.523438" xlink:href="#ArialMT-115"/>
      <use x="911.523438" xlink:href="#ArialMT-32"/>
      <use x="939.306641" xlink:href="#ArialMT-112"/>
      <use x="994.921875" xlink:href="#ArialMT-101"/>
      <use x="1050.537109" xlink:href="#ArialMT-114"/>
      <use x="1083.837891" xlink:href="#ArialMT-99"/>
      <use x="1133.837891" xlink:href="#ArialMT-101"/>
      <use x="1189.453125" xlink:href="#ArialMT-110"/>
      <use x="1245.068359" xlink:href="#ArialMT-116"/>
      <use x="1272.851562" xlink:href="#ArialMT-97"/>
      <use x="1328.466797" xlink:href="#ArialMT-103"/>
      <use x="1384.082031" xlink:href="#ArialMT-101"/>
      <use x="1439.697266" xlink:href="#ArialMT-32"/>
      <use x="1467.480469" xlink:href="#ArialMT-111"/>
      <use x="1523.095703" xlink:href="#ArialMT-102"/>
      <use x="1550.878906" xlink:href="#ArialMT-32"/>
      <use x="1578.662109" xlink:href="#ArialMT-69"/>
      <use x="1645.361328" xlink:href="#ArialMT-109"/>
      <use x="1728.662109" xlink:href="#ArialMT-105"/>
      <use x="1750.878906" xlink:href="#ArialMT-116"/>
      <use x="1778.662109" xlink:href="#ArialMT-116"/>
      <use x="1806.445312" xlink:href="#ArialMT-101"/>
      <use x="1862.060547" xlink:href="#ArialMT-100"/>
      <use x="1917.675781" xlink:href="#ArialMT-32"/>
      <use x="1945.458984" xlink:href="#ArialMT-67"/>
      <use x="2017.675781" xlink:href="#ArialMT-117"/>
      <use x="2073.291016" xlink:href="#ArialMT-114"/>
      <use x="2106.591797" xlink:href="#ArialMT-114"/>
      <use x="2139.892578" xlink:href="#ArialMT-101"/>
      <use x="2195.507812" xlink:href="#ArialMT-110"/>
      <use x="2251.123047" xlink:href="#ArialMT-116"/>
     </g>
    </g>
   </g>
   <g id="LineCollection_1">
    <path clip-path="url(#p9f47ee2dff)" d="M 126.9 514.497273 
L 126.9 489.387068 
" style="fill:none;stroke:#0000ff;stroke-opacity:0.25;stroke-width:1.5;"/>
   </g>
   <g id="LineCollection_2">
    <path clip-path="url(#p9f47ee2dff)" d="M 183.934968 514.497273 
L 183.934968 375.743219 
" style="fill:none;stroke:#0000ff;stroke-opacity:0.25;stroke-width:1.5;"/>
   </g>
   <g id="LineCollection_3">
    <path clip-path="url(#p9f47ee2dff)" d="M 240.969935 514.497273 
L 240.969935 330.070521 
" style="fill:none;stroke:#0000ff;stroke-opacity:0.25;stroke-width:1.5;"/>
   </g>
   <g id="LineCollection_4">
    <path clip-path="url(#p9f47ee2dff)" d="M 298.004903 514.497273 
L 298.004903 288.725479 
" style="fill:none;stroke:#0000ff;stroke-opacity:0.25;stroke-width:1.5;"/>
   </g>
   <g id="LineCollection_5">
    <path clip-path="url(#p9f47ee2dff)" d="M 355.03987 514.497273 
L 355.03987 262.319423 
" style="fill:none;stroke:#0000ff;stroke-opacity:0.25;stroke-width:1.5;"/>
   </g>
   <g id="LineCollection_6">
    <path clip-path="url(#p9f47ee2dff)" d="M 412.074838 514.497273 
L 412.074838 239.727576 
" style="fill:none;stroke:#0000ff;stroke-opacity:0.25;stroke-width:1.5;"/>
   </g>
   <g id="LineCollection_7">
    <path clip-path="url(#p9f47ee2dff)" d="M 469.109805 514.497273 
L 469.109805 218.089273 
" style="fill:none;stroke:#0000ff;stroke-opacity:0.25;stroke-width:1.5;"/>
   </g>
   <g id="LineCollection_8">
    <path clip-path="url(#p9f47ee2dff)" d="M 526.144773 514.497273 
L 526.144773 198.724834 
" style="fill:none;stroke:#0000ff;stroke-opacity:0.25;stroke-width:1.5;"/>
   </g>
   <g id="LineCollection_9">
    <path clip-path="url(#p9f47ee2dff)" d="M 583.17974 514.497273 
L 583.17974 180.974092 
" style="fill:none;stroke:#0000ff;stroke-opacity:0.25;stroke-width:1.5;"/>
   </g>
   <g id="LineCollection_10">
    <path clip-path="url(#p9f47ee2dff)" d="M 640.214708 514.497273 
L 640.214708 156.157289 
" style="fill:none;stroke:#0000ff;stroke-opacity:0.25;stroke-width:1.5;"/>
   </g>
   <g id="LineCollection_11">
    <path clip-path="url(#p9f47ee2dff)" d="M 138.158503 514.497273 
L 138.158503 500.743827 
" style="fill:none;stroke:#008000;stroke-opacity:0.25;stroke-width:1.5;"/>
   </g>
   <g id="LineCollection_12">
    <path clip-path="url(#p9f47ee2dff)" d="M 198.907558 514.497273 
L 198.907558 383.887637 
" style="fill:none;stroke:#008000;stroke-opacity:0.25;stroke-width:1.5;"/>
   </g>
   <g id="LineCollection_13">
    <path clip-path="url(#p9f47ee2dff)" d="M 259.656613 514.497273 
L 259.656613 328.272746 
" style="fill:none;stroke:#008000;stroke-opacity:0.25;stroke-width:1.5;"/>
   </g>
   <g id="LineCollection_14">
    <path clip-path="url(#p9f47ee2dff)" d="M 320.405668 514.497273 
L 320.405668 281.746672 
" style="fill:none;stroke:#008000;stroke-opacity:0.25;stroke-width:1.5;"/>
   </g>
   <g id="LineCollection_15">
    <path clip-path="url(#p9f47ee2dff)" d="M 381.154724 514.497273 
L 381.154724 247.988215 
" style="fill:none;stroke:#008000;stroke-opacity:0.25;stroke-width:1.5;"/>
   </g>
   <g id="LineCollection_16">
    <path clip-path="url(#p9f47ee2dff)" d="M 441.903779 514.497273 
L 441.903779 222.549149 
" style="fill:none;stroke:#008000;stroke-opacity:0.25;stroke-width:1.5;"/>
   </g>
   <g id="LineCollection_17">
    <path clip-path="url(#p9f47ee2dff)" d="M 502.652834 514.497273 
L 502.652834 193.311057 
" style="fill:none;stroke:#008000;stroke-opacity:0.25;stroke-width:1.5;"/>
   </g>
   <g id="LineCollection_18">
    <path clip-path="url(#p9f47ee2dff)" d="M 563.401889 514.497273 
L 563.401889 172.825158 
" style="fill:none;stroke:#008000;stroke-opacity:0.25;stroke-width:1.5;"/>
   </g>
   <g id="LineCollection_19">
    <path clip-path="url(#p9f47ee2dff)" d="M 624.150945 514.497273 
L 624.150945 163.904655 
" style="fill:none;stroke:#008000;stroke-opacity:0.25;stroke-width:1.5;"/>
   </g>
   <g id="LineCollection_20">
    <path clip-path="url(#p9f47ee2dff)" d="M 684.9 514.497273 
L 684.9 142.192484 
" style="fill:none;stroke:#008000;stroke-opacity:0.25;stroke-width:1.5;"/>
   </g>
   <g id="LineCollection_21">
    <path clip-path="url(#p9f47ee2dff)" d="M 127.000513 514.497273 
L 127.000513 510.333371 
" style="fill:none;stroke:#ff0000;stroke-opacity:0.25;stroke-width:1.5;"/>
   </g>
   <g id="LineCollection_22">
    <path clip-path="url(#p9f47ee2dff)" d="M 188.989345 514.497273 
L 188.989345 399.639317 
" style="fill:none;stroke:#ff0000;stroke-opacity:0.25;stroke-width:1.5;"/>
   </g>
   <g id="LineCollection_23">
    <path clip-path="url(#p9f47ee2dff)" d="M 250.978177 514.497273 
L 250.978177 333.740088 
" style="fill:none;stroke:#ff0000;stroke-opacity:0.25;stroke-width:1.5;"/>
   </g>
   <g id="LineCollection_24">
    <path clip-path="url(#p9f47ee2dff)" d="M 312.967009 514.497273 
L 312.967009 291.24637 
" style="fill:none;stroke:#ff0000;stroke-opacity:0.25;stroke-width:1.5;"/>
   </g>
   <g id="LineCollection_25">
    <path clip-path="url(#p9f47ee2dff)" d="M 374.955841 514.497273 
L 374.955841 254.779352 
" style="fill:none;stroke:#ff0000;stroke-opacity:0.25;stroke-width:1.5;"/>
   </g>
   <g id="LineCollection_26">
    <path clip-path="url(#p9f47ee2dff)" d="M 436.944672 514.497273 
L 436.944672 222.761136 
" style="fill:none;stroke:#ff0000;stroke-opacity:0.25;stroke-width:1.5;"/>
   </g>
   <g id="LineCollection_27">
    <path clip-path="url(#p9f47ee2dff)" d="M 498.933504 514.497273 
L 498.933504 174.788601 
" style="fill:none;stroke:#ff0000;stroke-opacity:0.25;stroke-width:1.5;"/>
   </g>
   <g id="LineCollection_28">
    <path clip-path="url(#p9f47ee2dff)" d="M 560.922336 514.497273 
L 560.922336 162.559876 
" style="fill:none;stroke:#ff0000;stroke-opacity:0.25;stroke-width:1.5;"/>
   </g>
   <g id="LineCollection_29">
    <path clip-path="url(#p9f47ee2dff)" d="M 622.911168 514.497273 
L 622.911168 154.560798 
" style="fill:none;stroke:#ff0000;stroke-opacity:0.25;stroke-width:1.5;"/>
   </g>
   <g id="LineCollection_30">
    <path clip-path="url(#p9f47ee2dff)" d="M 684.9 514.497273 
L 684.9 111.782184 
" style="fill:none;stroke:#ff0000;stroke-opacity:0.25;stroke-width:1.5;"/>
   </g>
   <g id="LineCollection_31">
    <path clip-path="url(#p9f47ee2dff)" d="M 137.703854 514.497273 
L 137.703854 497.695091 
" style="fill:none;stroke:#808080;stroke-opacity:0.25;stroke-width:1.5;"/>
   </g>
   <g id="LineCollection_32">
    <path clip-path="url(#p9f47ee2dff)" d="M 195.997833 514.497273 
L 195.997833 390.968505 
" style="fill:none;stroke:#808080;stroke-opacity:0.25;stroke-width:1.5;"/>
   </g>
   <g id="LineCollection_33">
    <path clip-path="url(#p9f47ee2dff)" d="M 254.291812 514.497273 
L 254.291812 350.599625 
" style="fill:none;stroke:#808080;stroke-opacity:0.25;stroke-width:1.5;"/>
   </g>
   <g id="LineCollection_34">
    <path clip-path="url(#p9f47ee2dff)" d="M 312.585791 514.497273 
L 312.585791 269.403627 
" style="fill:none;stroke:#808080;stroke-opacity:0.25;stroke-width:1.5;"/>
   </g>
   <g id="LineCollection_35">
    <path clip-path="url(#p9f47ee2dff)" d="M 370.87977 514.497273 
L 370.87977 247.386225 
" style="fill:none;stroke:#808080;stroke-opacity:0.25;stroke-width:1.5;"/>
   </g>
   <g id="LineCollection_36">
    <path clip-path="url(#p9f47ee2dff)" d="M 429.173749 514.497273 
L 429.173749 218.036957 
" style="fill:none;stroke:#808080;stroke-opacity:0.25;stroke-width:1.5;"/>
   </g>
   <g id="LineCollection_37">
    <path clip-path="url(#p9f47ee2dff)" d="M 487.467728 514.497273 
L 487.467728 191.437139 
" style="fill:none;stroke:#808080;stroke-opacity:0.25;stroke-width:1.5;"/>
   </g>
   <g id="LineCollection_38">
    <path clip-path="url(#p9f47ee2dff)" d="M 545.761708 514.497273 
L 545.761708 161.56417 
" style="fill:none;stroke:#808080;stroke-opacity:0.25;stroke-width:1.5;"/>
   </g>
   <g id="LineCollection_39">
    <path clip-path="url(#p9f47ee2dff)" d="M 604.055687 514.497273 
L 604.055687 136.950062 
" style="fill:none;stroke:#808080;stroke-opacity:0.25;stroke-width:1.5;"/>
   </g>
   <g id="LineCollection_40">
    <path clip-path="url(#p9f47ee2dff)" d="M 662.349666 514.497273 
L 662.349666 94.442727 
" style="fill:none;stroke:#808080;stroke-opacity:0.25;stroke-width:1.5;"/>
   </g>
   <g id="line2d_64">
    <path clip-path="url(#p9f47ee2dff)" d="M 126.9 489.387068 
L 138.059015 463.641162 
L 149.218031 432.051692 
L 160.377046 406.330236 
L 171.536062 390.828903 
L 182.695077 375.743219 
L 193.854092 363.713794 
L 205.013108 356.769977 
L 216.172123 346.941058 
L 227.331138 339.703841 
L 238.490154 330.070521 
L 249.649169 319.116895 
L 260.808185 310.901679 
L 271.9672 302.979862 
L 283.126215 293.566588 
L 294.285231 288.725479 
L 305.444246 282.686313 
L 316.603262 278.187509 
L 327.762277 273.541996 
L 338.921292 268.065184 
L 350.080308 262.319423 
L 361.239323 256.304711 
L 372.398338 250.705646 
L 383.557354 247.111486 
L 394.716369 242.832726 
L 405.875385 239.727576 
L 417.0344 234.715311 
L 428.193415 232.123608 
L 439.352431 226.451196 
L 450.511446 222.783688 
L 461.670462 218.089273 
L 472.829477 214.103918 
L 483.988492 207.746904 
L 495.147508 204.079389 
L 506.306523 200.216288 
L 517.465538 198.724834 
L 528.624554 195.399622 
L 539.783569 193.565866 
L 550.942585 187.30666 
L 562.1016 183.443548 
L 573.260615 180.974092 
L 584.419631 177.991192 
L 595.578646 173.81023 
L 606.737661 168.529016 
L 617.896677 162.734354 
L 629.055692 158.431143 
L 640.214708 156.157289 
" style="fill:none;stroke:#0000ff;stroke-linecap:round;stroke-opacity:0.5;stroke-width:1.5;"/>
   </g>
   <g id="line2d_65">
    <path clip-path="url(#p9f47ee2dff)" d="M 138.158503 500.743827 
L 149.316492 478.478636 
L 160.474482 446.763962 
L 171.632472 422.839701 
L 182.790462 402.522113 
L 193.948451 383.887637 
L 205.106441 369.629257 
L 216.264431 358.376438 
L 227.422421 348.830779 
L 238.58041 338.756141 
L 249.7384 328.272746 
L 260.89639 320.14571 
L 272.05438 311.489694 
L 283.212369 302.953903 
L 294.370359 296.149314 
L 305.528349 288.55126 
L 316.686339 281.746672 
L 327.844328 274.485237 
L 339.002318 268.06536 
L 350.160308 261.140549 
L 361.318298 253.75889 
L 372.476287 247.988215 
L 383.634277 242.890782 
L 394.792267 238.10593 
L 405.950256 232.551653 
L 417.108246 227.742758 
L 428.266236 224.833374 
L 439.424226 222.549149 
L 450.582215 215.311764 
L 461.740205 209.276594 
L 472.898195 204.395564 
L 484.056185 199.081735 
L 495.214174 193.311057 
L 506.372164 190.401675 
L 517.530154 186.698821 
L 528.688144 182.683396 
L 539.846133 179.629748 
L 551.004123 175.878807 
L 562.162113 172.825158 
L 573.320103 168.737596 
L 584.478092 164.794302 
L 595.636082 164.938568 
L 606.794072 162.654338 
L 617.952062 163.904655 
L 629.110051 156.619174 
L 640.268041 153.757881 
L 651.426031 152.074772 
L 662.584021 152.868236 
L 673.74201 147.578449 
L 684.9 142.192484 
" style="fill:none;stroke:#008000;stroke-linecap:round;stroke-opacity:0.5;stroke-width:1.5;"/>
   </g>
   <g id="line2d_66">
    <path clip-path="url(#p9f47ee2dff)" d="M 127.000513 510.333371 
L 138.158503 496.307594 
L 149.316492 469.592875 
L 160.474482 440.051085 
L 171.632472 419.735626 
L 182.790462 399.639317 
L 193.948451 383.991813 
L 205.106441 371.763089 
L 216.264431 362.01079 
L 227.422421 350.943577 
L 238.58041 341.322774 
L 249.7384 333.740088 
L 260.89639 324.645252 
L 272.05438 314.432729 
L 283.212369 305.491298 
L 294.370359 298.346917 
L 305.528349 291.24637 
L 316.686339 286.819486 
L 327.844328 280.420227 
L 339.002318 273.451167 
L 350.160308 266.262954 
L 361.318298 260.608816 
L 372.476287 254.779352 
L 383.634277 229.313802 
L 394.792267 231.527246 
L 405.950256 229.554872 
L 417.108246 227.911225 
L 428.266236 222.761136 
L 439.424226 218.421916 
L 450.582215 215.792079 
L 461.740205 212.219888 
L 472.898195 209.480481 
L 484.056185 206.697238 
L 495.214174 174.788601 
L 506.372164 182.962998 
L 517.530154 192.320816 
L 528.688144 194.621922 
L 539.846133 188.397983 
L 551.004123 162.559876 
L 562.162113 169.353616 
L 573.320103 168.301679 
L 584.478092 165.73759 
L 595.636082 162.274977 
L 606.794072 158.395972 
L 617.952062 154.560798 
L 629.110051 122.871315 
L 640.268041 121.797467 
L 651.426031 128.196731 
L 662.584021 134.179591 
L 673.74201 142.901876 
L 684.9 111.782184 
" style="fill:none;stroke:#ff0000;stroke-linecap:round;stroke-opacity:0.5;stroke-width:1.5;"/>
   </g>
   <g id="line2d_67">
    <path clip-path="url(#p9f47ee2dff)" d="M 137.703854 497.695091 
L 148.866531 485.497143 
L 160.029208 460.293871 
L 171.191885 443.578973 
L 182.354562 396.401937 
L 193.517238 390.968505 
L 204.679915 381.432721 
L 215.842592 367.86005 
L 227.005269 359.698991 
L 238.167946 357.124108 
L 249.330623 350.599625 
L 260.493299 312.958374 
L 271.655976 305.386483 
L 282.818653 298.512865 
L 293.98133 272.371283 
L 305.144007 269.403627 
L 316.306684 266.588717 
L 327.46936 260.151517 
L 338.632037 256.201911 
L 349.794714 251.554036 
L 360.957391 247.386225 
L 372.120068 241.298163 
L 383.282745 236.366607 
L 394.445422 229.973053 
L 405.608098 223.95045 
L 416.770775 223.361283 
L 427.933452 218.036957 
L 439.096129 213.629115 
L 450.258806 209.461297 
L 461.421483 203.373234 
L 472.584159 197.896159 
L 483.746836 191.437139 
L 494.909513 183.341542 
L 506.07219 177.493512 
L 517.234867 171.601836 
L 528.397544 167.957725 
L 539.56022 161.56417 
L 550.722897 156.54534 
L 561.885574 151.548325 
L 573.048251 146.333103 
L 584.210928 141.859793 
L 595.373605 136.950062 
L 606.536281 126.781471 
L 617.698958 113.688863 
L 628.861635 125.341287 
L 640.024312 127.719771 
L 651.186989 127.785237 
L 662.349666 94.442727 
" style="fill:none;stroke:#808080;stroke-linecap:round;stroke-opacity:0.5;stroke-width:1.5;"/>
   </g>
   <g id="patch_3">
    <path d="M 99 535.5 
L 99 73.44 
" style="fill:none;stroke:#ffffff;stroke-linecap:square;stroke-linejoin:miter;stroke-width:1.25;"/>
   </g>
   <g id="patch_4">
    <path d="M 712.8 535.5 
L 712.8 73.44 
" style="fill:none;stroke:#ffffff;stroke-linecap:square;stroke-linejoin:miter;stroke-width:1.25;"/>
   </g>
   <g id="patch_5">
    <path d="M 99 535.5 
L 712.8 535.5 
" style="fill:none;stroke:#ffffff;stroke-linecap:square;stroke-linejoin:miter;stroke-width:1.25;"/>
   </g>
   <g id="patch_6">
    <path d="M 99 73.44 
L 712.8 73.44 
" style="fill:none;stroke:#ffffff;stroke-linecap:square;stroke-linejoin:miter;stroke-width:1.25;"/>
   </g>
   <g id="text_16">
    <!-- Collected Current Through DBA Aperture at Various Emissions -->
    <defs>
     <path d="M 25.921875 0 
L 25.921875 63.140625 
L 2.34375 63.140625 
L 2.34375 71.578125 
L 59.078125 71.578125 
L 59.078125 63.140625 
L 35.40625 63.140625 
L 35.40625 0 
z
" id="ArialMT-84"/>
     <path d="M 6.59375 0 
L 6.59375 71.578125 
L 15.375 71.578125 
L 15.375 45.90625 
Q 21.53125 53.03125 30.90625 53.03125 
Q 36.671875 53.03125 40.921875 50.75 
Q 45.171875 48.484375 47 44.484375 
Q 48.828125 40.484375 48.828125 32.859375 
L 48.828125 0 
L 40.046875 0 
L 40.046875 32.859375 
Q 40.046875 39.453125 37.1875 42.453125 
Q 34.328125 45.453125 29.109375 45.453125 
Q 25.203125 45.453125 21.75 43.421875 
Q 18.3125 41.40625 16.84375 37.9375 
Q 15.375 34.46875 15.375 28.375 
L 15.375 0 
z
" id="ArialMT-104"/>
     <path d="M 7.328125 0 
L 7.328125 71.578125 
L 34.1875 71.578125 
Q 42.390625 71.578125 47.34375 69.40625 
Q 52.296875 67.234375 55.09375 62.71875 
Q 57.90625 58.203125 57.90625 53.265625 
Q 57.90625 48.6875 55.421875 44.625 
Q 52.9375 40.578125 47.90625 38.09375 
Q 54.390625 36.1875 57.875 31.59375 
Q 61.375 27 61.375 20.75 
Q 61.375 15.71875 59.25 11.390625 
Q 57.125 7.078125 54 4.734375 
Q 50.875 2.390625 46.15625 1.1875 
Q 41.453125 0 34.625 0 
z
M 16.796875 41.5 
L 32.28125 41.5 
Q 38.578125 41.5 41.3125 42.328125 
Q 44.921875 43.40625 46.75 45.890625 
Q 48.578125 48.390625 48.578125 52.15625 
Q 48.578125 55.71875 46.875 58.421875 
Q 45.171875 61.140625 41.984375 62.140625 
Q 38.8125 63.140625 31.109375 63.140625 
L 16.796875 63.140625 
z
M 16.796875 8.453125 
L 34.625 8.453125 
Q 39.203125 8.453125 41.0625 8.796875 
Q 44.34375 9.375 46.53125 10.734375 
Q 48.734375 12.109375 50.140625 14.71875 
Q 51.5625 17.328125 51.5625 20.75 
Q 51.5625 24.75 49.515625 27.703125 
Q 47.46875 30.671875 43.828125 31.859375 
Q 40.1875 33.0625 33.34375 33.0625 
L 16.796875 33.0625 
z
" id="ArialMT-66"/>
     <path d="M 28.171875 0 
L 0.4375 71.578125 
L 10.6875 71.578125 
L 29.296875 19.578125 
Q 31.546875 13.328125 33.0625 7.859375 
Q 34.71875 13.71875 36.921875 19.578125 
L 56.25 71.578125 
L 65.921875 71.578125 
L 37.890625 0 
z
" id="ArialMT-86"/>
    </defs>
    <g style="fill:#262626;" transform="translate(238.851563 67.44)scale(0.12 -0.12)">
     <use xlink:href="#ArialMT-67"/>
     <use x="72.216797" xlink:href="#ArialMT-111"/>
     <use x="127.832031" xlink:href="#ArialMT-108"/>
     <use x="150.048828" xlink:href="#ArialMT-108"/>
     <use x="172.265625" xlink:href="#ArialMT-101"/>
     <use x="227.880859" xlink:href="#ArialMT-99"/>
     <use x="277.880859" xlink:href="#ArialMT-116"/>
     <use x="305.664062" xlink:href="#ArialMT-101"/>
     <use x="361.279297" xlink:href="#ArialMT-100"/>
     <use x="416.894531" xlink:href="#ArialMT-32"/>
     <use x="444.677734" xlink:href="#ArialMT-67"/>
     <use x="516.894531" xlink:href="#ArialMT-117"/>
     <use x="572.509766" xlink:href="#ArialMT-114"/>
     <use x="605.810547" xlink:href="#ArialMT-114"/>
     <use x="639.111328" xlink:href="#ArialMT-101"/>
     <use x="694.726562" xlink:href="#ArialMT-110"/>
     <use x="750.341797" xlink:href="#ArialMT-116"/>
     <use x="778.125" xlink:href="#ArialMT-32"/>
     <use x="805.892578" xlink:href="#ArialMT-84"/>
     <use x="866.976562" xlink:href="#ArialMT-104"/>
     <use x="922.591797" xlink:href="#ArialMT-114"/>
     <use x="955.892578" xlink:href="#ArialMT-111"/>
     <use x="1011.507812" xlink:href="#ArialMT-117"/>
     <use x="1067.123047" xlink:href="#ArialMT-103"/>
     <use x="1122.738281" xlink:href="#ArialMT-104"/>
     <use x="1178.353516" xlink:href="#ArialMT-32"/>
     <use x="1206.136719" xlink:href="#ArialMT-68"/>
     <use x="1278.353516" xlink:href="#ArialMT-66"/>
     <use x="1345.052734" xlink:href="#ArialMT-65"/>
     <use x="1411.673828" xlink:href="#ArialMT-32"/>
     <use x="1439.378906" xlink:href="#ArialMT-65"/>
     <use x="1506.078125" xlink:href="#ArialMT-112"/>
     <use x="1561.693359" xlink:href="#ArialMT-101"/>
     <use x="1617.308594" xlink:href="#ArialMT-114"/>
     <use x="1650.609375" xlink:href="#ArialMT-116"/>
     <use x="1678.392578" xlink:href="#ArialMT-117"/>
     <use x="1734.007812" xlink:href="#ArialMT-114"/>
     <use x="1767.308594" xlink:href="#ArialMT-101"/>
     <use x="1822.923828" xlink:href="#ArialMT-32"/>
     <use x="1850.707031" xlink:href="#ArialMT-97"/>
     <use x="1906.322266" xlink:href="#ArialMT-116"/>
     <use x="1934.105469" xlink:href="#ArialMT-32"/>
     <use x="1961.888672" xlink:href="#ArialMT-86"/>
     <use x="2028.478516" xlink:href="#ArialMT-97"/>
     <use x="2084.09375" xlink:href="#ArialMT-114"/>
     <use x="2117.394531" xlink:href="#ArialMT-105"/>
     <use x="2139.611328" xlink:href="#ArialMT-111"/>
     <use x="2195.226562" xlink:href="#ArialMT-117"/>
     <use x="2250.841797" xlink:href="#ArialMT-115"/>
     <use x="2300.841797" xlink:href="#ArialMT-32"/>
     <use x="2328.625" xlink:href="#ArialMT-69"/>
     <use x="2395.324219" xlink:href="#ArialMT-109"/>
     <use x="2478.625" xlink:href="#ArialMT-105"/>
     <use x="2500.841797" xlink:href="#ArialMT-115"/>
     <use x="2550.841797" xlink:href="#ArialMT-115"/>
     <use x="2600.841797" xlink:href="#ArialMT-105"/>
     <use x="2623.058594" xlink:href="#ArialMT-111"/>
     <use x="2678.673828" xlink:href="#ArialMT-110"/>
     <use x="2734.289062" xlink:href="#ArialMT-115"/>
    </g>
   </g>
   <g id="legend_1">
    <g id="patch_7">
     <path d="M 106.7 144.61 
L 217.320469 144.61 
Q 219.520469 144.61 219.520469 142.41 
L 219.520469 81.14 
Q 219.520469 78.94 217.320469 78.94 
L 106.7 78.94 
Q 104.5 78.94 104.5 81.14 
L 104.5 142.41 
Q 104.5 144.61 106.7 144.61 
z
" style="fill:#eaeaf2;opacity:0.8;stroke:#cccccc;stroke-linejoin:miter;"/>
    </g>
    <g id="line2d_68">
     <path d="M 108.9 87.39625 
L 130.9 87.39625 
" style="fill:none;stroke:#0000ff;stroke-linecap:round;stroke-opacity:0.5;stroke-width:1.5;"/>
    </g>
    <g id="line2d_69"/>
    <g id="text_17">
     <!-- 415 A Emitted -->
     <defs>
      <path d="M 49.703125 51.859375 
L 49.703125 0 
L 41.84375 0 
L 41.84375 6.15625 
Q 39.3125 2.25 36.8125 0.78125 
Q 33.40625 -1.21875 28.859375 -1.21875 
Q 24.8125 -1.21875 21.6875 0.390625 
Q 19.34375 1.609375 16.5 5.21875 
L 16.5 -19.875 
L 7.8125 -19.875 
L 7.8125 51.859375 
L 16.5 51.859375 
L 16.5 29.890625 
Q 16.5 17.921875 17.765625 14.375 
Q 19.046875 10.84375 21.890625 8.78125 
Q 24.75 6.734375 28.46875 6.734375 
Q 32.375 6.734375 35.453125 8.875 
Q 38.53125 11.03125 39.796875 14.421875 
Q 41.0625 17.828125 41.0625 29.734375 
L 41.0625 51.859375 
z
" id="ArialMT-956"/>
     </defs>
     <g style="fill:#262626;" transform="translate(139.7 91.24625)scale(0.11 -0.11)">
      <use xlink:href="#ArialMT-52"/>
      <use x="55.615234" xlink:href="#ArialMT-49"/>
      <use x="111.230469" xlink:href="#ArialMT-53"/>
      <use x="166.845703" xlink:href="#ArialMT-32"/>
      <use x="194.628906" xlink:href="#ArialMT-956"/>
      <use x="252.246094" xlink:href="#ArialMT-65"/>
      <use x="318.867188" xlink:href="#ArialMT-32"/>
      <use x="346.650391" xlink:href="#ArialMT-69"/>
      <use x="413.349609" xlink:href="#ArialMT-109"/>
      <use x="496.650391" xlink:href="#ArialMT-105"/>
      <use x="518.867188" xlink:href="#ArialMT-116"/>
      <use x="546.650391" xlink:href="#ArialMT-116"/>
      <use x="574.433594" xlink:href="#ArialMT-101"/>
      <use x="630.048828" xlink:href="#ArialMT-100"/>
     </g>
    </g>
    <g id="line2d_70">
     <path d="M 108.9 102.98875 
L 130.9 102.98875 
" style="fill:none;stroke:#008000;stroke-linecap:round;stroke-opacity:0.5;stroke-width:1.5;"/>
    </g>
    <g id="line2d_71"/>
    <g id="text_18">
     <!-- 422 A Emitted -->
     <g style="fill:#262626;" transform="translate(139.7 106.83875)scale(0.11 -0.11)">
      <use xlink:href="#ArialMT-52"/>
      <use x="55.615234" xlink:href="#ArialMT-50"/>
      <use x="111.230469" xlink:href="#ArialMT-50"/>
      <use x="166.845703" xlink:href="#ArialMT-32"/>
      <use x="194.628906" xlink:href="#ArialMT-956"/>
      <use x="252.246094" xlink:href="#ArialMT-65"/>
      <use x="318.867188" xlink:href="#ArialMT-32"/>
      <use x="346.650391" xlink:href="#ArialMT-69"/>
      <use x="413.349609" xlink:href="#ArialMT-109"/>
      <use x="496.650391" xlink:href="#ArialMT-105"/>
      <use x="518.867188" xlink:href="#ArialMT-116"/>
      <use x="546.650391" xlink:href="#ArialMT-116"/>
      <use x="574.433594" xlink:href="#ArialMT-101"/>
      <use x="630.048828" xlink:href="#ArialMT-100"/>
     </g>
    </g>
    <g id="line2d_72">
     <path d="M 108.9 118.58125 
L 130.9 118.58125 
" style="fill:none;stroke:#ff0000;stroke-linecap:round;stroke-opacity:0.5;stroke-width:1.5;"/>
    </g>
    <g id="line2d_73"/>
    <g id="text_19">
     <!-- 463 A Emitted -->
     <g style="fill:#262626;" transform="translate(139.7 122.43125)scale(0.11 -0.11)">
      <use xlink:href="#ArialMT-52"/>
      <use x="55.615234" xlink:href="#ArialMT-54"/>
      <use x="111.230469" xlink:href="#ArialMT-51"/>
      <use x="166.845703" xlink:href="#ArialMT-32"/>
      <use x="194.628906" xlink:href="#ArialMT-956"/>
      <use x="252.246094" xlink:href="#ArialMT-65"/>
      <use x="318.867188" xlink:href="#ArialMT-32"/>
      <use x="346.650391" xlink:href="#ArialMT-69"/>
      <use x="413.349609" xlink:href="#ArialMT-109"/>
      <use x="496.650391" xlink:href="#ArialMT-105"/>
      <use x="518.867188" xlink:href="#ArialMT-116"/>
      <use x="546.650391" xlink:href="#ArialMT-116"/>
      <use x="574.433594" xlink:href="#ArialMT-101"/>
      <use x="630.048828" xlink:href="#ArialMT-100"/>
     </g>
    </g>
    <g id="line2d_74">
     <path d="M 108.9 134.17375 
L 130.9 134.17375 
" style="fill:none;stroke:#808080;stroke-linecap:round;stroke-opacity:0.5;stroke-width:1.5;"/>
    </g>
    <g id="line2d_75"/>
    <g id="text_20">
     <!-- 465 A Emitted -->
     <g style="fill:#262626;" transform="translate(139.7 138.02375)scale(0.11 -0.11)">
      <use xlink:href="#ArialMT-52"/>
      <use x="55.615234" xlink:href="#ArialMT-54"/>
      <use x="111.230469" xlink:href="#ArialMT-53"/>
      <use x="166.845703" xlink:href="#ArialMT-32"/>
      <use x="194.628906" xlink:href="#ArialMT-956"/>
      <use x="252.246094" xlink:href="#ArialMT-65"/>
      <use x="318.867188" xlink:href="#ArialMT-32"/>
      <use x="346.650391" xlink:href="#ArialMT-69"/>
      <use x="413.349609" xlink:href="#ArialMT-109"/>
      <use x="496.650391" xlink:href="#ArialMT-105"/>
      <use x="518.867188" xlink:href="#ArialMT-116"/>
      <use x="546.650391" xlink:href="#ArialMT-116"/>
      <use x="574.433594" xlink:href="#ArialMT-101"/>
      <use x="630.048828" xlink:href="#ArialMT-100"/>
     </g>
    </g>
   </g>
  </g>
 </g>
 <defs>
  <clipPath id="p9f47ee2dff">
   <rect height="462.06" width="613.8" x="99" y="73.44"/>
  </clipPath>
 </defs>
</svg>
