<?xml version="1.0" encoding="utf-8" standalone="no"?>
<!DOCTYPE svg PUBLIC "-//W3C//DTD SVG 1.1//EN"
  "http://www.w3.org/Graphics/SVG/1.1/DTD/svg11.dtd">
<!-- Created with matplotlib (https://matplotlib.org/) -->
<svg height="525.906094pt" version="1.1" viewBox="0 0 671.62 525.906094" width="671.62pt" xmlns="http://www.w3.org/2000/svg" xmlns:xlink="http://www.w3.org/1999/xlink">
 <defs>
  <style type="text/css">
*{stroke-linecap:butt;stroke-linejoin:round;}
  </style>
 </defs>
 <g id="figure_1">
  <g id="patch_1">
   <path d="M 0 525.906094 
L 671.62 525.906094 
L 671.62 0 
L 0 0 
z
" style="fill:none;"/>
  </g>
  <g id="axes_1">
   <g id="patch_2">
    <path d="M 50.62 483.885 
L 664.42 483.885 
L 664.42 21.825 
L 50.62 21.825 
z
" style="fill:none;"/>
   </g>
   <g id="matplotlib.axis_1">
    <g id="xtick_1">
     <g id="line2d_1">
      <path clip-path="url(#p0b62c18da4)" d="M 568.47122 483.885 
L 568.47122 21.825 
" style="fill:none;stroke:#808080;stroke-linecap:round;stroke-opacity:0.25;"/>
     </g>
     <g id="text_1">
      <!-- 0.42 -->
      <defs>
       <path d="M 4.15625 35.296875 
Q 4.15625 48 6.765625 55.734375 
Q 9.375 63.484375 14.515625 67.671875 
Q 19.671875 71.875 27.484375 71.875 
Q 33.25 71.875 37.59375 69.546875 
Q 41.9375 67.234375 44.765625 62.859375 
Q 47.609375 58.5 49.21875 52.21875 
Q 50.828125 45.953125 50.828125 35.296875 
Q 50.828125 22.703125 48.234375 14.96875 
Q 45.65625 7.234375 40.5 3 
Q 35.359375 -1.21875 27.484375 -1.21875 
Q 17.140625 -1.21875 11.234375 6.203125 
Q 4.15625 15.140625 4.15625 35.296875 
z
M 13.1875 35.296875 
Q 13.1875 17.671875 17.3125 11.828125 
Q 21.4375 6 27.484375 6 
Q 33.546875 6 37.671875 11.859375 
Q 41.796875 17.71875 41.796875 35.296875 
Q 41.796875 52.984375 37.671875 58.78125 
Q 33.546875 64.59375 27.390625 64.59375 
Q 21.34375 64.59375 17.71875 59.46875 
Q 13.1875 52.9375 13.1875 35.296875 
z
" id="ArialMT-48"/>
       <path d="M 9.078125 0 
L 9.078125 10.015625 
L 19.09375 10.015625 
L 19.09375 0 
z
" id="ArialMT-46"/>
       <path d="M 32.328125 0 
L 32.328125 17.140625 
L 1.265625 17.140625 
L 1.265625 25.203125 
L 33.9375 71.578125 
L 41.109375 71.578125 
L 41.109375 25.203125 
L 50.78125 25.203125 
L 50.78125 17.140625 
L 41.109375 17.140625 
L 41.109375 0 
z
M 32.328125 25.203125 
L 32.328125 57.46875 
L 9.90625 25.203125 
z
" id="ArialMT-52"/>
       <path d="M 50.34375 8.453125 
L 50.34375 0 
L 3.03125 0 
Q 2.9375 3.171875 4.046875 6.109375 
Q 5.859375 10.9375 9.828125 15.625 
Q 13.8125 20.3125 21.34375 26.46875 
Q 33.015625 36.03125 37.109375 41.625 
Q 41.21875 47.21875 41.21875 52.203125 
Q 41.21875 57.421875 37.46875 61 
Q 33.734375 64.59375 27.734375 64.59375 
Q 21.390625 64.59375 17.578125 60.78125 
Q 13.765625 56.984375 13.71875 50.25 
L 4.6875 51.171875 
Q 5.609375 61.28125 11.65625 66.578125 
Q 17.71875 71.875 27.9375 71.875 
Q 38.234375 71.875 44.234375 66.15625 
Q 50.25 60.453125 50.25 52 
Q 50.25 47.703125 48.484375 43.546875 
Q 46.734375 39.40625 42.65625 34.8125 
Q 38.578125 30.21875 29.109375 22.21875 
Q 21.1875 15.578125 18.9375 13.203125 
Q 16.703125 10.84375 15.234375 8.453125 
z
" id="ArialMT-50"/>
      </defs>
      <g style="fill:#262626;" transform="translate(557.767704 501.258594)scale(0.11 -0.11)">
       <use xlink:href="#ArialMT-48"/>
       <use x="55.615234" xlink:href="#ArialMT-46"/>
       <use x="83.398438" xlink:href="#ArialMT-52"/>
       <use x="139.013672" xlink:href="#ArialMT-50"/>
      </g>
     </g>
    </g>
    <g id="xtick_2">
     <g id="line2d_2">
      <path clip-path="url(#p0b62c18da4)" d="M 432.373659 483.885 
L 432.373659 21.825 
" style="fill:none;stroke:#808080;stroke-linecap:round;stroke-opacity:0.25;"/>
     </g>
     <g id="text_2">
      <!-- 0.44 -->
      <g style="fill:#262626;" transform="translate(421.670143 501.258594)scale(0.11 -0.11)">
       <use xlink:href="#ArialMT-48"/>
       <use x="55.615234" xlink:href="#ArialMT-46"/>
       <use x="83.398438" xlink:href="#ArialMT-52"/>
       <use x="139.013672" xlink:href="#ArialMT-52"/>
      </g>
     </g>
    </g>
    <g id="xtick_3">
     <g id="line2d_3">
      <path clip-path="url(#p0b62c18da4)" d="M 296.276098 483.885 
L 296.276098 21.825 
" style="fill:none;stroke:#808080;stroke-linecap:round;stroke-opacity:0.25;"/>
     </g>
     <g id="text_3">
      <!-- 0.46 -->
      <defs>
       <path d="M 49.75 54.046875 
L 41.015625 53.375 
Q 39.84375 58.546875 37.703125 60.890625 
Q 34.125 64.65625 28.90625 64.65625 
Q 24.703125 64.65625 21.53125 62.3125 
Q 17.390625 59.28125 14.984375 53.46875 
Q 12.59375 47.65625 12.5 36.921875 
Q 15.671875 41.75 20.265625 44.09375 
Q 24.859375 46.4375 29.890625 46.4375 
Q 38.671875 46.4375 44.84375 39.96875 
Q 51.03125 33.5 51.03125 23.25 
Q 51.03125 16.5 48.125 10.71875 
Q 45.21875 4.9375 40.140625 1.859375 
Q 35.0625 -1.21875 28.609375 -1.21875 
Q 17.625 -1.21875 10.6875 6.859375 
Q 3.765625 14.9375 3.765625 33.5 
Q 3.765625 54.25 11.421875 63.671875 
Q 18.109375 71.875 29.4375 71.875 
Q 37.890625 71.875 43.28125 67.140625 
Q 48.6875 62.40625 49.75 54.046875 
z
M 13.875 23.1875 
Q 13.875 18.65625 15.796875 14.5 
Q 17.71875 10.359375 21.1875 8.171875 
Q 24.65625 6 28.46875 6 
Q 34.03125 6 38.03125 10.484375 
Q 42.046875 14.984375 42.046875 22.703125 
Q 42.046875 30.125 38.078125 34.390625 
Q 34.125 38.671875 28.125 38.671875 
Q 22.171875 38.671875 18.015625 34.390625 
Q 13.875 30.125 13.875 23.1875 
z
" id="ArialMT-54"/>
      </defs>
      <g style="fill:#262626;" transform="translate(285.572582 501.258594)scale(0.11 -0.11)">
       <use xlink:href="#ArialMT-48"/>
       <use x="55.615234" xlink:href="#ArialMT-46"/>
       <use x="83.398438" xlink:href="#ArialMT-52"/>
       <use x="139.013672" xlink:href="#ArialMT-54"/>
      </g>
     </g>
    </g>
    <g id="xtick_4">
     <g id="line2d_4">
      <path clip-path="url(#p0b62c18da4)" d="M 160.178537 483.885 
L 160.178537 21.825 
" style="fill:none;stroke:#808080;stroke-linecap:round;stroke-opacity:0.25;"/>
     </g>
     <g id="text_4">
      <!-- 0.48 -->
      <defs>
       <path d="M 17.671875 38.8125 
Q 12.203125 40.828125 9.5625 44.53125 
Q 6.9375 48.25 6.9375 53.421875 
Q 6.9375 61.234375 12.546875 66.546875 
Q 18.171875 71.875 27.484375 71.875 
Q 36.859375 71.875 42.578125 66.421875 
Q 48.296875 60.984375 48.296875 53.171875 
Q 48.296875 48.1875 45.671875 44.5 
Q 43.0625 40.828125 37.75 38.8125 
Q 44.34375 36.671875 47.78125 31.875 
Q 51.21875 27.09375 51.21875 20.453125 
Q 51.21875 11.28125 44.71875 5.03125 
Q 38.234375 -1.21875 27.640625 -1.21875 
Q 17.046875 -1.21875 10.546875 5.046875 
Q 4.046875 11.328125 4.046875 20.703125 
Q 4.046875 27.6875 7.59375 32.390625 
Q 11.140625 37.109375 17.671875 38.8125 
z
M 15.921875 53.71875 
Q 15.921875 48.640625 19.1875 45.40625 
Q 22.46875 42.1875 27.6875 42.1875 
Q 32.765625 42.1875 36.015625 45.375 
Q 39.265625 48.578125 39.265625 53.21875 
Q 39.265625 58.0625 35.90625 61.359375 
Q 32.5625 64.65625 27.59375 64.65625 
Q 22.5625 64.65625 19.234375 61.421875 
Q 15.921875 58.203125 15.921875 53.71875 
z
M 13.09375 20.65625 
Q 13.09375 16.890625 14.875 13.375 
Q 16.65625 9.859375 20.171875 7.921875 
Q 23.6875 6 27.734375 6 
Q 34.03125 6 38.125 10.046875 
Q 42.234375 14.109375 42.234375 20.359375 
Q 42.234375 26.703125 38.015625 30.859375 
Q 33.796875 35.015625 27.4375 35.015625 
Q 21.234375 35.015625 17.15625 30.90625 
Q 13.09375 26.8125 13.09375 20.65625 
z
" id="ArialMT-56"/>
      </defs>
      <g style="fill:#262626;" transform="translate(149.475021 501.258594)scale(0.11 -0.11)">
       <use xlink:href="#ArialMT-48"/>
       <use x="55.615234" xlink:href="#ArialMT-46"/>
       <use x="83.398438" xlink:href="#ArialMT-52"/>
       <use x="139.013672" xlink:href="#ArialMT-56"/>
      </g>
     </g>
    </g>
    <g id="xtick_5">
     <g id="line2d_5">
      <path clip-path="url(#p0b62c18da4)" d="M 636.52 483.885 
L 636.52 21.825 
" style="fill:none;stroke:#808080;stroke-linecap:round;stroke-opacity:0.25;"/>
     </g>
    </g>
    <g id="xtick_6">
     <g id="line2d_6">
      <path clip-path="url(#p0b62c18da4)" d="M 602.49561 483.885 
L 602.49561 21.825 
" style="fill:none;stroke:#808080;stroke-linecap:round;stroke-opacity:0.25;"/>
     </g>
    </g>
    <g id="xtick_7">
     <g id="line2d_7">
      <path clip-path="url(#p0b62c18da4)" d="M 534.446829 483.885 
L 534.446829 21.825 
" style="fill:none;stroke:#808080;stroke-linecap:round;stroke-opacity:0.25;"/>
     </g>
    </g>
    <g id="xtick_8">
     <g id="line2d_8">
      <path clip-path="url(#p0b62c18da4)" d="M 500.422439 483.885 
L 500.422439 21.825 
" style="fill:none;stroke:#808080;stroke-linecap:round;stroke-opacity:0.25;"/>
     </g>
    </g>
    <g id="xtick_9">
     <g id="line2d_9">
      <path clip-path="url(#p0b62c18da4)" d="M 466.398049 483.885 
L 466.398049 21.825 
" style="fill:none;stroke:#808080;stroke-linecap:round;stroke-opacity:0.25;"/>
     </g>
    </g>
    <g id="xtick_10">
     <g id="line2d_10">
      <path clip-path="url(#p0b62c18da4)" d="M 398.349268 483.885 
L 398.349268 21.825 
" style="fill:none;stroke:#808080;stroke-linecap:round;stroke-opacity:0.25;"/>
     </g>
    </g>
    <g id="xtick_11">
     <g id="line2d_11">
      <path clip-path="url(#p0b62c18da4)" d="M 364.324878 483.885 
L 364.324878 21.825 
" style="fill:none;stroke:#808080;stroke-linecap:round;stroke-opacity:0.25;"/>
     </g>
    </g>
    <g id="xtick_12">
     <g id="line2d_12">
      <path clip-path="url(#p0b62c18da4)" d="M 330.300488 483.885 
L 330.300488 21.825 
" style="fill:none;stroke:#808080;stroke-linecap:round;stroke-opacity:0.25;"/>
     </g>
    </g>
    <g id="xtick_13">
     <g id="line2d_13">
      <path clip-path="url(#p0b62c18da4)" d="M 262.251707 483.885 
L 262.251707 21.825 
" style="fill:none;stroke:#808080;stroke-linecap:round;stroke-opacity:0.25;"/>
     </g>
    </g>
    <g id="xtick_14">
     <g id="line2d_14">
      <path clip-path="url(#p0b62c18da4)" d="M 228.227317 483.885 
L 228.227317 21.825 
" style="fill:none;stroke:#808080;stroke-linecap:round;stroke-opacity:0.25;"/>
     </g>
    </g>
    <g id="xtick_15">
     <g id="line2d_15">
      <path clip-path="url(#p0b62c18da4)" d="M 194.202927 483.885 
L 194.202927 21.825 
" style="fill:none;stroke:#808080;stroke-linecap:round;stroke-opacity:0.25;"/>
     </g>
    </g>
    <g id="xtick_16">
     <g id="line2d_16">
      <path clip-path="url(#p0b62c18da4)" d="M 126.154146 483.885 
L 126.154146 21.825 
" style="fill:none;stroke:#808080;stroke-linecap:round;stroke-opacity:0.25;"/>
     </g>
    </g>
    <g id="xtick_17">
     <g id="line2d_17">
      <path clip-path="url(#p0b62c18da4)" d="M 92.129756 483.885 
L 92.129756 21.825 
" style="fill:none;stroke:#808080;stroke-linecap:round;stroke-opacity:0.25;"/>
     </g>
    </g>
    <g id="xtick_18">
     <g id="line2d_18">
      <path clip-path="url(#p0b62c18da4)" d="M 58.105366 483.885 
L 58.105366 21.825 
" style="fill:none;stroke:#808080;stroke-linecap:round;stroke-opacity:0.25;"/>
     </g>
    </g>
    <g id="text_5">
     <!-- Current in Dipole 1 (A) -->
     <defs>
      <path d="M 58.796875 25.09375 
L 68.265625 22.703125 
Q 65.28125 11.03125 57.546875 4.90625 
Q 49.8125 -1.21875 38.625 -1.21875 
Q 27.046875 -1.21875 19.796875 3.484375 
Q 12.546875 8.203125 8.765625 17.140625 
Q 4.984375 26.078125 4.984375 36.328125 
Q 4.984375 47.515625 9.25 55.828125 
Q 13.53125 64.15625 21.40625 68.46875 
Q 29.296875 72.796875 38.765625 72.796875 
Q 49.515625 72.796875 56.828125 67.328125 
Q 64.15625 61.859375 67.046875 51.953125 
L 57.71875 49.75 
Q 55.21875 57.5625 50.484375 61.125 
Q 45.75 64.703125 38.578125 64.703125 
Q 30.328125 64.703125 24.78125 60.734375 
Q 19.234375 56.78125 16.984375 50.109375 
Q 14.75 43.453125 14.75 36.375 
Q 14.75 27.25 17.40625 20.4375 
Q 20.0625 13.625 25.671875 10.25 
Q 31.296875 6.890625 37.84375 6.890625 
Q 45.796875 6.890625 51.3125 11.46875 
Q 56.84375 16.0625 58.796875 25.09375 
z
" id="ArialMT-67"/>
      <path d="M 40.578125 0 
L 40.578125 7.625 
Q 34.515625 -1.171875 24.125 -1.171875 
Q 19.53125 -1.171875 15.546875 0.578125 
Q 11.578125 2.34375 9.640625 5 
Q 7.71875 7.671875 6.9375 11.53125 
Q 6.390625 14.109375 6.390625 19.734375 
L 6.390625 51.859375 
L 15.1875 51.859375 
L 15.1875 23.09375 
Q 15.1875 16.21875 15.71875 13.8125 
Q 16.546875 10.359375 19.234375 8.375 
Q 21.921875 6.390625 25.875 6.390625 
Q 29.828125 6.390625 33.296875 8.421875 
Q 36.765625 10.453125 38.203125 13.9375 
Q 39.65625 17.4375 39.65625 24.078125 
L 39.65625 51.859375 
L 48.4375 51.859375 
L 48.4375 0 
z
" id="ArialMT-117"/>
      <path d="M 6.5 0 
L 6.5 51.859375 
L 14.40625 51.859375 
L 14.40625 44 
Q 17.4375 49.515625 20 51.265625 
Q 22.5625 53.03125 25.640625 53.03125 
Q 30.078125 53.03125 34.671875 50.203125 
L 31.640625 42.046875 
Q 28.421875 43.953125 25.203125 43.953125 
Q 22.3125 43.953125 20.015625 42.21875 
Q 17.71875 40.484375 16.75 37.40625 
Q 15.28125 32.71875 15.28125 27.15625 
L 15.28125 0 
z
" id="ArialMT-114"/>
      <path d="M 42.09375 16.703125 
L 51.171875 15.578125 
Q 49.03125 7.625 43.21875 3.21875 
Q 37.40625 -1.171875 28.375 -1.171875 
Q 17 -1.171875 10.328125 5.828125 
Q 3.65625 12.84375 3.65625 25.484375 
Q 3.65625 38.578125 10.390625 45.796875 
Q 17.140625 53.03125 27.875 53.03125 
Q 38.28125 53.03125 44.875 45.953125 
Q 51.46875 38.875 51.46875 26.03125 
Q 51.46875 25.25 51.421875 23.6875 
L 12.75 23.6875 
Q 13.234375 15.140625 17.578125 10.59375 
Q 21.921875 6.0625 28.421875 6.0625 
Q 33.25 6.0625 36.671875 8.59375 
Q 40.09375 11.140625 42.09375 16.703125 
z
M 13.234375 30.90625 
L 42.1875 30.90625 
Q 41.609375 37.453125 38.875 40.71875 
Q 34.671875 45.796875 27.984375 45.796875 
Q 21.921875 45.796875 17.796875 41.75 
Q 13.671875 37.703125 13.234375 30.90625 
z
" id="ArialMT-101"/>
      <path d="M 6.59375 0 
L 6.59375 51.859375 
L 14.5 51.859375 
L 14.5 44.484375 
Q 20.21875 53.03125 31 53.03125 
Q 35.6875 53.03125 39.625 51.34375 
Q 43.5625 49.65625 45.515625 46.921875 
Q 47.46875 44.1875 48.25 40.4375 
Q 48.734375 37.984375 48.734375 31.890625 
L 48.734375 0 
L 39.9375 0 
L 39.9375 31.546875 
Q 39.9375 36.921875 38.90625 39.578125 
Q 37.890625 42.234375 35.28125 43.8125 
Q 32.671875 45.40625 29.15625 45.40625 
Q 23.53125 45.40625 19.453125 41.84375 
Q 15.375 38.28125 15.375 28.328125 
L 15.375 0 
z
" id="ArialMT-110"/>
      <path d="M 25.78125 7.859375 
L 27.046875 0.09375 
Q 23.34375 -0.6875 20.40625 -0.6875 
Q 15.625 -0.6875 12.984375 0.828125 
Q 10.359375 2.34375 9.28125 4.8125 
Q 8.203125 7.28125 8.203125 15.1875 
L 8.203125 45.015625 
L 1.765625 45.015625 
L 1.765625 51.859375 
L 8.203125 51.859375 
L 8.203125 64.703125 
L 16.9375 69.96875 
L 16.9375 51.859375 
L 25.78125 51.859375 
L 25.78125 45.015625 
L 16.9375 45.015625 
L 16.9375 14.703125 
Q 16.9375 10.9375 17.40625 9.859375 
Q 17.875 8.796875 18.921875 8.15625 
Q 19.96875 7.515625 21.921875 7.515625 
Q 23.390625 7.515625 25.78125 7.859375 
z
" id="ArialMT-116"/>
      <path id="ArialMT-32"/>
      <path d="M 6.640625 61.46875 
L 6.640625 71.578125 
L 15.4375 71.578125 
L 15.4375 61.46875 
z
M 6.640625 0 
L 6.640625 51.859375 
L 15.4375 51.859375 
L 15.4375 0 
z
" id="ArialMT-105"/>
      <path d="M 7.71875 0 
L 7.71875 71.578125 
L 32.375 71.578125 
Q 40.71875 71.578125 45.125 70.5625 
Q 51.265625 69.140625 55.609375 65.4375 
Q 61.28125 60.640625 64.078125 53.1875 
Q 66.890625 45.75 66.890625 36.1875 
Q 66.890625 28.03125 64.984375 21.734375 
Q 63.09375 15.4375 60.109375 11.296875 
Q 57.125 7.171875 53.578125 4.796875 
Q 50.046875 2.4375 45.046875 1.21875 
Q 40.046875 0 33.546875 0 
z
M 17.1875 8.453125 
L 32.46875 8.453125 
Q 39.546875 8.453125 43.578125 9.765625 
Q 47.609375 11.078125 50 13.484375 
Q 53.375 16.84375 55.25 22.53125 
Q 57.125 28.21875 57.125 36.328125 
Q 57.125 47.5625 53.4375 53.59375 
Q 49.75 59.625 44.484375 61.671875 
Q 40.671875 63.140625 32.234375 63.140625 
L 17.1875 63.140625 
z
" id="ArialMT-68"/>
      <path d="M 6.59375 -19.875 
L 6.59375 51.859375 
L 14.59375 51.859375 
L 14.59375 45.125 
Q 17.4375 49.078125 21 51.046875 
Q 24.5625 53.03125 29.640625 53.03125 
Q 36.28125 53.03125 41.359375 49.609375 
Q 46.4375 46.1875 49.015625 39.953125 
Q 51.609375 33.734375 51.609375 26.3125 
Q 51.609375 18.359375 48.75 11.984375 
Q 45.90625 5.609375 40.453125 2.21875 
Q 35.015625 -1.171875 29 -1.171875 
Q 24.609375 -1.171875 21.109375 0.6875 
Q 17.625 2.546875 15.375 5.375 
L 15.375 -19.875 
z
M 14.546875 25.640625 
Q 14.546875 15.625 18.59375 10.84375 
Q 22.65625 6.0625 28.421875 6.0625 
Q 34.28125 6.0625 38.453125 11.015625 
Q 42.625 15.96875 42.625 26.375 
Q 42.625 36.28125 38.546875 41.203125 
Q 34.46875 46.140625 28.8125 46.140625 
Q 23.1875 46.140625 18.859375 40.890625 
Q 14.546875 35.640625 14.546875 25.640625 
z
" id="ArialMT-112"/>
      <path d="M 3.328125 25.921875 
Q 3.328125 40.328125 11.328125 47.265625 
Q 18.015625 53.03125 27.640625 53.03125 
Q 38.328125 53.03125 45.109375 46.015625 
Q 51.90625 39.015625 51.90625 26.65625 
Q 51.90625 16.65625 48.90625 10.90625 
Q 45.90625 5.171875 40.15625 2 
Q 34.421875 -1.171875 27.640625 -1.171875 
Q 16.75 -1.171875 10.03125 5.8125 
Q 3.328125 12.796875 3.328125 25.921875 
z
M 12.359375 25.921875 
Q 12.359375 15.96875 16.703125 11.015625 
Q 21.046875 6.0625 27.640625 6.0625 
Q 34.1875 6.0625 38.53125 11.03125 
Q 42.875 16.015625 42.875 26.21875 
Q 42.875 35.84375 38.5 40.796875 
Q 34.125 45.75 27.640625 45.75 
Q 21.046875 45.75 16.703125 40.8125 
Q 12.359375 35.890625 12.359375 25.921875 
z
" id="ArialMT-111"/>
      <path d="M 6.390625 0 
L 6.390625 71.578125 
L 15.1875 71.578125 
L 15.1875 0 
z
" id="ArialMT-108"/>
      <path d="M 37.25 0 
L 28.46875 0 
L 28.46875 56 
Q 25.296875 52.984375 20.140625 49.953125 
Q 14.984375 46.921875 10.890625 45.40625 
L 10.890625 53.90625 
Q 18.265625 57.375 23.78125 62.296875 
Q 29.296875 67.234375 31.59375 71.875 
L 37.25 71.875 
z
" id="ArialMT-49"/>
      <path d="M 23.390625 -21.046875 
Q 16.109375 -11.859375 11.078125 0.4375 
Q 6.0625 12.75 6.0625 25.921875 
Q 6.0625 37.546875 9.8125 48.1875 
Q 14.203125 60.546875 23.390625 72.796875 
L 29.6875 72.796875 
Q 23.78125 62.640625 21.875 58.296875 
Q 18.890625 51.5625 17.1875 44.234375 
Q 15.09375 35.109375 15.09375 25.875 
Q 15.09375 2.390625 29.6875 -21.046875 
z
" id="ArialMT-40"/>
      <path d="M -0.140625 0 
L 27.34375 71.578125 
L 37.546875 71.578125 
L 66.84375 0 
L 56.0625 0 
L 47.703125 21.6875 
L 17.78125 21.6875 
L 9.90625 0 
z
M 20.515625 29.390625 
L 44.78125 29.390625 
L 37.3125 49.21875 
Q 33.890625 58.25 32.234375 64.0625 
Q 30.859375 57.171875 28.375 50.390625 
z
" id="ArialMT-65"/>
      <path d="M 12.359375 -21.046875 
L 6.0625 -21.046875 
Q 20.65625 2.390625 20.65625 25.875 
Q 20.65625 35.0625 18.5625 44.09375 
Q 16.890625 51.421875 13.921875 58.15625 
Q 12.015625 62.546875 6.0625 72.796875 
L 12.359375 72.796875 
Q 21.53125 60.546875 25.921875 48.1875 
Q 29.6875 37.546875 29.6875 25.921875 
Q 29.6875 12.75 24.625 0.4375 
Q 19.578125 -11.859375 12.359375 -21.046875 
z
" id="ArialMT-41"/>
     </defs>
     <g style="fill:#262626;" transform="translate(297.834063 516.180469)scale(0.12 -0.12)">
      <use xlink:href="#ArialMT-67"/>
      <use x="72.216797" xlink:href="#ArialMT-117"/>
      <use x="127.832031" xlink:href="#ArialMT-114"/>
      <use x="161.132812" xlink:href="#ArialMT-114"/>
      <use x="194.433594" xlink:href="#ArialMT-101"/>
      <use x="250.048828" xlink:href="#ArialMT-110"/>
      <use x="305.664062" xlink:href="#ArialMT-116"/>
      <use x="333.447266" xlink:href="#ArialMT-32"/>
      <use x="361.230469" xlink:href="#ArialMT-105"/>
      <use x="383.447266" xlink:href="#ArialMT-110"/>
      <use x="439.0625" xlink:href="#ArialMT-32"/>
      <use x="466.845703" xlink:href="#ArialMT-68"/>
      <use x="539.0625" xlink:href="#ArialMT-105"/>
      <use x="561.279297" xlink:href="#ArialMT-112"/>
      <use x="616.894531" xlink:href="#ArialMT-111"/>
      <use x="672.509766" xlink:href="#ArialMT-108"/>
      <use x="694.726562" xlink:href="#ArialMT-101"/>
      <use x="750.341797" xlink:href="#ArialMT-32"/>
      <use x="778.125" xlink:href="#ArialMT-49"/>
      <use x="833.740234" xlink:href="#ArialMT-32"/>
      <use x="861.523438" xlink:href="#ArialMT-40"/>
      <use x="894.824219" xlink:href="#ArialMT-65"/>
      <use x="961.523438" xlink:href="#ArialMT-41"/>
     </g>
    </g>
   </g>
   <g id="matplotlib.axis_2">
    <g id="ytick_1">
     <g id="line2d_19">
      <path clip-path="url(#p0b62c18da4)" d="M 50.62 476.230101 
L 664.42 476.230101 
" style="fill:none;stroke:#808080;stroke-linecap:round;stroke-opacity:0.25;"/>
     </g>
     <g id="text_6">
      <!-- −20 -->
      <defs>
       <path d="M 52.828125 31.203125 
L 5.5625 31.203125 
L 5.5625 39.40625 
L 52.828125 39.40625 
z
" id="ArialMT-8722"/>
      </defs>
      <g style="fill:#262626;" transform="translate(22.46125 480.166898)scale(0.11 -0.11)">
       <use xlink:href="#ArialMT-8722"/>
       <use x="58.398438" xlink:href="#ArialMT-50"/>
       <use x="114.013672" xlink:href="#ArialMT-48"/>
      </g>
     </g>
    </g>
    <g id="ytick_2">
     <g id="line2d_20">
      <path clip-path="url(#p0b62c18da4)" d="M 50.62 419.944078 
L 664.42 419.944078 
" style="fill:none;stroke:#808080;stroke-linecap:round;stroke-opacity:0.25;"/>
     </g>
     <g id="text_7">
      <!-- −10 -->
      <g style="fill:#262626;" transform="translate(22.46125 423.880875)scale(0.11 -0.11)">
       <use xlink:href="#ArialMT-8722"/>
       <use x="58.398438" xlink:href="#ArialMT-49"/>
       <use x="114.013672" xlink:href="#ArialMT-48"/>
      </g>
     </g>
    </g>
    <g id="ytick_3">
     <g id="line2d_21">
      <path clip-path="url(#p0b62c18da4)" d="M 50.62 363.658056 
L 664.42 363.658056 
" style="fill:none;stroke:#808080;stroke-linecap:round;stroke-opacity:0.25;"/>
     </g>
     <g id="text_8">
      <!-- 0 -->
      <g style="fill:#262626;" transform="translate(35.002969 367.594853)scale(0.11 -0.11)">
       <use xlink:href="#ArialMT-48"/>
      </g>
     </g>
    </g>
    <g id="ytick_4">
     <g id="line2d_22">
      <path clip-path="url(#p0b62c18da4)" d="M 50.62 307.372033 
L 664.42 307.372033 
" style="fill:none;stroke:#808080;stroke-linecap:round;stroke-opacity:0.25;"/>
     </g>
     <g id="text_9">
      <!-- 10 -->
      <g style="fill:#262626;" transform="translate(28.885938 311.30883)scale(0.11 -0.11)">
       <use xlink:href="#ArialMT-49"/>
       <use x="55.615234" xlink:href="#ArialMT-48"/>
      </g>
     </g>
    </g>
    <g id="ytick_5">
     <g id="line2d_23">
      <path clip-path="url(#p0b62c18da4)" d="M 50.62 251.086011 
L 664.42 251.086011 
" style="fill:none;stroke:#808080;stroke-linecap:round;stroke-opacity:0.25;"/>
     </g>
     <g id="text_10">
      <!-- 20 -->
      <g style="fill:#262626;" transform="translate(28.885938 255.022808)scale(0.11 -0.11)">
       <use xlink:href="#ArialMT-50"/>
       <use x="55.615234" xlink:href="#ArialMT-48"/>
      </g>
     </g>
    </g>
    <g id="ytick_6">
     <g id="line2d_24">
      <path clip-path="url(#p0b62c18da4)" d="M 50.62 194.799988 
L 664.42 194.799988 
" style="fill:none;stroke:#808080;stroke-linecap:round;stroke-opacity:0.25;"/>
     </g>
     <g id="text_11">
      <!-- 30 -->
      <defs>
       <path d="M 4.203125 18.890625 
L 12.984375 20.0625 
Q 14.5 12.59375 18.140625 9.296875 
Q 21.78125 6 27 6 
Q 33.203125 6 37.46875 10.296875 
Q 41.75 14.59375 41.75 20.953125 
Q 41.75 27 37.796875 30.921875 
Q 33.84375 34.859375 27.734375 34.859375 
Q 25.25 34.859375 21.53125 33.890625 
L 22.515625 41.609375 
Q 23.390625 41.5 23.921875 41.5 
Q 29.546875 41.5 34.03125 44.421875 
Q 38.53125 47.359375 38.53125 53.46875 
Q 38.53125 58.296875 35.25 61.46875 
Q 31.984375 64.65625 26.8125 64.65625 
Q 21.6875 64.65625 18.265625 61.421875 
Q 14.84375 58.203125 13.875 51.765625 
L 5.078125 53.328125 
Q 6.6875 62.15625 12.390625 67.015625 
Q 18.109375 71.875 26.609375 71.875 
Q 32.46875 71.875 37.390625 69.359375 
Q 42.328125 66.84375 44.9375 62.5 
Q 47.5625 58.15625 47.5625 53.265625 
Q 47.5625 48.640625 45.0625 44.828125 
Q 42.578125 41.015625 37.703125 38.765625 
Q 44.046875 37.3125 47.5625 32.6875 
Q 51.078125 28.078125 51.078125 21.140625 
Q 51.078125 11.765625 44.234375 5.25 
Q 37.40625 -1.265625 26.953125 -1.265625 
Q 17.53125 -1.265625 11.296875 4.34375 
Q 5.078125 9.96875 4.203125 18.890625 
z
" id="ArialMT-51"/>
      </defs>
      <g style="fill:#262626;" transform="translate(28.885938 198.736785)scale(0.11 -0.11)">
       <use xlink:href="#ArialMT-51"/>
       <use x="55.615234" xlink:href="#ArialMT-48"/>
      </g>
     </g>
    </g>
    <g id="ytick_7">
     <g id="line2d_25">
      <path clip-path="url(#p0b62c18da4)" d="M 50.62 138.513966 
L 664.42 138.513966 
" style="fill:none;stroke:#808080;stroke-linecap:round;stroke-opacity:0.25;"/>
     </g>
     <g id="text_12">
      <!-- 40 -->
      <g style="fill:#262626;" transform="translate(28.885938 142.450762)scale(0.11 -0.11)">
       <use xlink:href="#ArialMT-52"/>
       <use x="55.615234" xlink:href="#ArialMT-48"/>
      </g>
     </g>
    </g>
    <g id="ytick_8">
     <g id="line2d_26">
      <path clip-path="url(#p0b62c18da4)" d="M 50.62 82.227943 
L 664.42 82.227943 
" style="fill:none;stroke:#808080;stroke-linecap:round;stroke-opacity:0.25;"/>
     </g>
     <g id="text_13">
      <!-- 50 -->
      <defs>
       <path d="M 4.15625 18.75 
L 13.375 19.53125 
Q 14.40625 12.796875 18.140625 9.390625 
Q 21.875 6 27.15625 6 
Q 33.5 6 37.890625 10.78125 
Q 42.28125 15.578125 42.28125 23.484375 
Q 42.28125 31 38.0625 35.34375 
Q 33.84375 39.703125 27 39.703125 
Q 22.75 39.703125 19.328125 37.765625 
Q 15.921875 35.84375 13.96875 32.765625 
L 5.71875 33.84375 
L 12.640625 70.609375 
L 48.25 70.609375 
L 48.25 62.203125 
L 19.671875 62.203125 
L 15.828125 42.96875 
Q 22.265625 47.46875 29.34375 47.46875 
Q 38.71875 47.46875 45.15625 40.96875 
Q 51.609375 34.46875 51.609375 24.265625 
Q 51.609375 14.546875 45.953125 7.46875 
Q 39.0625 -1.21875 27.15625 -1.21875 
Q 17.390625 -1.21875 11.203125 4.25 
Q 5.03125 9.71875 4.15625 18.75 
z
" id="ArialMT-53"/>
      </defs>
      <g style="fill:#262626;" transform="translate(28.885938 86.16474)scale(0.11 -0.11)">
       <use xlink:href="#ArialMT-53"/>
       <use x="55.615234" xlink:href="#ArialMT-48"/>
      </g>
     </g>
    </g>
    <g id="ytick_9">
     <g id="line2d_27">
      <path clip-path="url(#p0b62c18da4)" d="M 50.62 25.941921 
L 664.42 25.941921 
" style="fill:none;stroke:#808080;stroke-linecap:round;stroke-opacity:0.25;"/>
     </g>
     <g id="text_14">
      <!-- 60 -->
      <g style="fill:#262626;" transform="translate(28.885938 29.878717)scale(0.11 -0.11)">
       <use xlink:href="#ArialMT-54"/>
       <use x="55.615234" xlink:href="#ArialMT-48"/>
      </g>
     </g>
    </g>
    <g id="ytick_10">
     <g id="line2d_28">
      <path clip-path="url(#p0b62c18da4)" d="M 50.62 464.972896 
L 664.42 464.972896 
" style="fill:none;stroke:#808080;stroke-linecap:round;stroke-opacity:0.25;"/>
     </g>
    </g>
    <g id="ytick_11">
     <g id="line2d_29">
      <path clip-path="url(#p0b62c18da4)" d="M 50.62 453.715692 
L 664.42 453.715692 
" style="fill:none;stroke:#808080;stroke-linecap:round;stroke-opacity:0.25;"/>
     </g>
    </g>
    <g id="ytick_12">
     <g id="line2d_30">
      <path clip-path="url(#p0b62c18da4)" d="M 50.62 442.458487 
L 664.42 442.458487 
" style="fill:none;stroke:#808080;stroke-linecap:round;stroke-opacity:0.25;"/>
     </g>
    </g>
    <g id="ytick_13">
     <g id="line2d_31">
      <path clip-path="url(#p0b62c18da4)" d="M 50.62 431.201283 
L 664.42 431.201283 
" style="fill:none;stroke:#808080;stroke-linecap:round;stroke-opacity:0.25;"/>
     </g>
    </g>
    <g id="ytick_14">
     <g id="line2d_32">
      <path clip-path="url(#p0b62c18da4)" d="M 50.62 408.686874 
L 664.42 408.686874 
" style="fill:none;stroke:#808080;stroke-linecap:round;stroke-opacity:0.25;"/>
     </g>
    </g>
    <g id="ytick_15">
     <g id="line2d_33">
      <path clip-path="url(#p0b62c18da4)" d="M 50.62 397.429669 
L 664.42 397.429669 
" style="fill:none;stroke:#808080;stroke-linecap:round;stroke-opacity:0.25;"/>
     </g>
    </g>
    <g id="ytick_16">
     <g id="line2d_34">
      <path clip-path="url(#p0b62c18da4)" d="M 50.62 386.172465 
L 664.42 386.172465 
" style="fill:none;stroke:#808080;stroke-linecap:round;stroke-opacity:0.25;"/>
     </g>
    </g>
    <g id="ytick_17">
     <g id="line2d_35">
      <path clip-path="url(#p0b62c18da4)" d="M 50.62 374.91526 
L 664.42 374.91526 
" style="fill:none;stroke:#808080;stroke-linecap:round;stroke-opacity:0.25;"/>
     </g>
    </g>
    <g id="ytick_18">
     <g id="line2d_36">
      <path clip-path="url(#p0b62c18da4)" d="M 50.62 352.400851 
L 664.42 352.400851 
" style="fill:none;stroke:#808080;stroke-linecap:round;stroke-opacity:0.25;"/>
     </g>
    </g>
    <g id="ytick_19">
     <g id="line2d_37">
      <path clip-path="url(#p0b62c18da4)" d="M 50.62 341.143647 
L 664.42 341.143647 
" style="fill:none;stroke:#808080;stroke-linecap:round;stroke-opacity:0.25;"/>
     </g>
    </g>
    <g id="ytick_20">
     <g id="line2d_38">
      <path clip-path="url(#p0b62c18da4)" d="M 50.62 329.886442 
L 664.42 329.886442 
" style="fill:none;stroke:#808080;stroke-linecap:round;stroke-opacity:0.25;"/>
     </g>
    </g>
    <g id="ytick_21">
     <g id="line2d_39">
      <path clip-path="url(#p0b62c18da4)" d="M 50.62 318.629238 
L 664.42 318.629238 
" style="fill:none;stroke:#808080;stroke-linecap:round;stroke-opacity:0.25;"/>
     </g>
    </g>
    <g id="ytick_22">
     <g id="line2d_40">
      <path clip-path="url(#p0b62c18da4)" d="M 50.62 296.114829 
L 664.42 296.114829 
" style="fill:none;stroke:#808080;stroke-linecap:round;stroke-opacity:0.25;"/>
     </g>
    </g>
    <g id="ytick_23">
     <g id="line2d_41">
      <path clip-path="url(#p0b62c18da4)" d="M 50.62 284.857624 
L 664.42 284.857624 
" style="fill:none;stroke:#808080;stroke-linecap:round;stroke-opacity:0.25;"/>
     </g>
    </g>
    <g id="ytick_24">
     <g id="line2d_42">
      <path clip-path="url(#p0b62c18da4)" d="M 50.62 273.60042 
L 664.42 273.60042 
" style="fill:none;stroke:#808080;stroke-linecap:round;stroke-opacity:0.25;"/>
     </g>
    </g>
    <g id="ytick_25">
     <g id="line2d_43">
      <path clip-path="url(#p0b62c18da4)" d="M 50.62 262.343215 
L 664.42 262.343215 
" style="fill:none;stroke:#808080;stroke-linecap:round;stroke-opacity:0.25;"/>
     </g>
    </g>
    <g id="ytick_26">
     <g id="line2d_44">
      <path clip-path="url(#p0b62c18da4)" d="M 50.62 239.828806 
L 664.42 239.828806 
" style="fill:none;stroke:#808080;stroke-linecap:round;stroke-opacity:0.25;"/>
     </g>
    </g>
    <g id="ytick_27">
     <g id="line2d_45">
      <path clip-path="url(#p0b62c18da4)" d="M 50.62 228.571602 
L 664.42 228.571602 
" style="fill:none;stroke:#808080;stroke-linecap:round;stroke-opacity:0.25;"/>
     </g>
    </g>
    <g id="ytick_28">
     <g id="line2d_46">
      <path clip-path="url(#p0b62c18da4)" d="M 50.62 217.314397 
L 664.42 217.314397 
" style="fill:none;stroke:#808080;stroke-linecap:round;stroke-opacity:0.25;"/>
     </g>
    </g>
    <g id="ytick_29">
     <g id="line2d_47">
      <path clip-path="url(#p0b62c18da4)" d="M 50.62 206.057193 
L 664.42 206.057193 
" style="fill:none;stroke:#808080;stroke-linecap:round;stroke-opacity:0.25;"/>
     </g>
    </g>
    <g id="ytick_30">
     <g id="line2d_48">
      <path clip-path="url(#p0b62c18da4)" d="M 50.62 183.542784 
L 664.42 183.542784 
" style="fill:none;stroke:#808080;stroke-linecap:round;stroke-opacity:0.25;"/>
     </g>
    </g>
    <g id="ytick_31">
     <g id="line2d_49">
      <path clip-path="url(#p0b62c18da4)" d="M 50.62 172.285579 
L 664.42 172.285579 
" style="fill:none;stroke:#808080;stroke-linecap:round;stroke-opacity:0.25;"/>
     </g>
    </g>
    <g id="ytick_32">
     <g id="line2d_50">
      <path clip-path="url(#p0b62c18da4)" d="M 50.62 161.028375 
L 664.42 161.028375 
" style="fill:none;stroke:#808080;stroke-linecap:round;stroke-opacity:0.25;"/>
     </g>
    </g>
    <g id="ytick_33">
     <g id="line2d_51">
      <path clip-path="url(#p0b62c18da4)" d="M 50.62 149.77117 
L 664.42 149.77117 
" style="fill:none;stroke:#808080;stroke-linecap:round;stroke-opacity:0.25;"/>
     </g>
    </g>
    <g id="ytick_34">
     <g id="line2d_52">
      <path clip-path="url(#p0b62c18da4)" d="M 50.62 127.256761 
L 664.42 127.256761 
" style="fill:none;stroke:#808080;stroke-linecap:round;stroke-opacity:0.25;"/>
     </g>
    </g>
    <g id="ytick_35">
     <g id="line2d_53">
      <path clip-path="url(#p0b62c18da4)" d="M 50.62 115.999557 
L 664.42 115.999557 
" style="fill:none;stroke:#808080;stroke-linecap:round;stroke-opacity:0.25;"/>
     </g>
    </g>
    <g id="ytick_36">
     <g id="line2d_54">
      <path clip-path="url(#p0b62c18da4)" d="M 50.62 104.742352 
L 664.42 104.742352 
" style="fill:none;stroke:#808080;stroke-linecap:round;stroke-opacity:0.25;"/>
     </g>
    </g>
    <g id="ytick_37">
     <g id="line2d_55">
      <path clip-path="url(#p0b62c18da4)" d="M 50.62 93.485148 
L 664.42 93.485148 
" style="fill:none;stroke:#808080;stroke-linecap:round;stroke-opacity:0.25;"/>
     </g>
    </g>
    <g id="ytick_38">
     <g id="line2d_56">
      <path clip-path="url(#p0b62c18da4)" d="M 50.62 70.970739 
L 664.42 70.970739 
" style="fill:none;stroke:#808080;stroke-linecap:round;stroke-opacity:0.25;"/>
     </g>
    </g>
    <g id="ytick_39">
     <g id="line2d_57">
      <path clip-path="url(#p0b62c18da4)" d="M 50.62 59.713534 
L 664.42 59.713534 
" style="fill:none;stroke:#808080;stroke-linecap:round;stroke-opacity:0.25;"/>
     </g>
    </g>
    <g id="ytick_40">
     <g id="line2d_58">
      <path clip-path="url(#p0b62c18da4)" d="M 50.62 48.45633 
L 664.42 48.45633 
" style="fill:none;stroke:#808080;stroke-linecap:round;stroke-opacity:0.25;"/>
     </g>
    </g>
    <g id="ytick_41">
     <g id="line2d_59">
      <path clip-path="url(#p0b62c18da4)" d="M 50.62 37.199125 
L 664.42 37.199125 
" style="fill:none;stroke:#808080;stroke-linecap:round;stroke-opacity:0.25;"/>
     </g>
    </g>
    <g id="text_15">
     <!-- Current Collected as percentage of Emitted Current -->
     <defs>
      <path d="M 40.4375 19 
L 49.078125 17.875 
Q 47.65625 8.9375 41.8125 3.875 
Q 35.984375 -1.171875 27.484375 -1.171875 
Q 16.84375 -1.171875 10.375 5.78125 
Q 3.90625 12.75 3.90625 25.734375 
Q 3.90625 34.125 6.6875 40.421875 
Q 9.46875 46.734375 15.15625 49.875 
Q 20.84375 53.03125 27.546875 53.03125 
Q 35.984375 53.03125 41.359375 48.75 
Q 46.734375 44.484375 48.25 36.625 
L 39.703125 35.296875 
Q 38.484375 40.53125 35.375 43.15625 
Q 32.28125 45.796875 27.875 45.796875 
Q 21.234375 45.796875 17.078125 41.03125 
Q 12.9375 36.28125 12.9375 25.984375 
Q 12.9375 15.53125 16.9375 10.796875 
Q 20.953125 6.0625 27.390625 6.0625 
Q 32.5625 6.0625 36.03125 9.234375 
Q 39.5 12.40625 40.4375 19 
z
" id="ArialMT-99"/>
      <path d="M 40.234375 0 
L 40.234375 6.546875 
Q 35.296875 -1.171875 25.734375 -1.171875 
Q 19.53125 -1.171875 14.328125 2.25 
Q 9.125 5.671875 6.265625 11.796875 
Q 3.421875 17.921875 3.421875 25.875 
Q 3.421875 33.640625 6 39.96875 
Q 8.59375 46.296875 13.765625 49.65625 
Q 18.953125 53.03125 25.34375 53.03125 
Q 30.03125 53.03125 33.6875 51.046875 
Q 37.359375 49.078125 39.65625 45.90625 
L 39.65625 71.578125 
L 48.390625 71.578125 
L 48.390625 0 
z
M 12.453125 25.875 
Q 12.453125 15.921875 16.640625 10.984375 
Q 20.84375 6.0625 26.5625 6.0625 
Q 32.328125 6.0625 36.34375 10.765625 
Q 40.375 15.484375 40.375 25.140625 
Q 40.375 35.796875 36.265625 40.765625 
Q 32.171875 45.75 26.171875 45.75 
Q 20.3125 45.75 16.375 40.96875 
Q 12.453125 36.1875 12.453125 25.875 
z
" id="ArialMT-100"/>
      <path d="M 40.4375 6.390625 
Q 35.546875 2.25 31.03125 0.53125 
Q 26.515625 -1.171875 21.34375 -1.171875 
Q 12.796875 -1.171875 8.203125 3 
Q 3.609375 7.171875 3.609375 13.671875 
Q 3.609375 17.484375 5.34375 20.625 
Q 7.078125 23.78125 9.890625 25.6875 
Q 12.703125 27.59375 16.21875 28.5625 
Q 18.796875 29.25 24.03125 29.890625 
Q 34.671875 31.15625 39.703125 32.90625 
Q 39.75 34.71875 39.75 35.203125 
Q 39.75 40.578125 37.25 42.78125 
Q 33.890625 45.75 27.25 45.75 
Q 21.046875 45.75 18.09375 43.578125 
Q 15.140625 41.40625 13.71875 35.890625 
L 5.125 37.0625 
Q 6.296875 42.578125 8.984375 45.96875 
Q 11.671875 49.359375 16.75 51.1875 
Q 21.828125 53.03125 28.515625 53.03125 
Q 35.15625 53.03125 39.296875 51.46875 
Q 43.453125 49.90625 45.40625 47.53125 
Q 47.359375 45.171875 48.140625 41.546875 
Q 48.578125 39.3125 48.578125 33.453125 
L 48.578125 21.734375 
Q 48.578125 9.46875 49.140625 6.21875 
Q 49.703125 2.984375 51.375 0 
L 42.1875 0 
Q 40.828125 2.734375 40.4375 6.390625 
z
M 39.703125 26.03125 
Q 34.90625 24.078125 25.34375 22.703125 
Q 19.921875 21.921875 17.671875 20.9375 
Q 15.4375 19.96875 14.203125 18.09375 
Q 12.984375 16.21875 12.984375 13.921875 
Q 12.984375 10.40625 15.640625 8.0625 
Q 18.3125 5.71875 23.4375 5.71875 
Q 28.515625 5.71875 32.46875 7.9375 
Q 36.421875 10.15625 38.28125 14.015625 
Q 39.703125 17 39.703125 22.796875 
z
" id="ArialMT-97"/>
      <path d="M 3.078125 15.484375 
L 11.765625 16.84375 
Q 12.5 11.625 15.84375 8.84375 
Q 19.1875 6.0625 25.203125 6.0625 
Q 31.25 6.0625 34.171875 8.515625 
Q 37.109375 10.984375 37.109375 14.3125 
Q 37.109375 17.28125 34.515625 19 
Q 32.71875 20.171875 25.53125 21.96875 
Q 15.875 24.421875 12.140625 26.203125 
Q 8.40625 27.984375 6.46875 31.125 
Q 4.546875 34.28125 4.546875 38.09375 
Q 4.546875 41.546875 6.125 44.5 
Q 7.71875 47.46875 10.453125 49.421875 
Q 12.5 50.921875 16.03125 51.96875 
Q 19.578125 53.03125 23.640625 53.03125 
Q 29.734375 53.03125 34.34375 51.265625 
Q 38.96875 49.515625 41.15625 46.5 
Q 43.359375 43.5 44.1875 38.484375 
L 35.59375 37.3125 
Q 35.015625 41.3125 32.203125 43.546875 
Q 29.390625 45.796875 24.265625 45.796875 
Q 18.21875 45.796875 15.625 43.796875 
Q 13.03125 41.796875 13.03125 39.109375 
Q 13.03125 37.40625 14.109375 36.03125 
Q 15.1875 34.625 17.484375 33.6875 
Q 18.796875 33.203125 25.25 31.453125 
Q 34.578125 28.953125 38.25 27.359375 
Q 41.9375 25.78125 44.03125 22.75 
Q 46.140625 19.734375 46.140625 15.234375 
Q 46.140625 10.84375 43.578125 6.953125 
Q 41.015625 3.078125 36.171875 0.953125 
Q 31.34375 -1.171875 25.25 -1.171875 
Q 15.140625 -1.171875 9.84375 3.03125 
Q 4.546875 7.234375 3.078125 15.484375 
z
" id="ArialMT-115"/>
      <path d="M 4.984375 -4.296875 
L 13.53125 -5.5625 
Q 14.0625 -9.515625 16.5 -11.328125 
Q 19.78125 -13.765625 25.4375 -13.765625 
Q 31.546875 -13.765625 34.859375 -11.328125 
Q 38.1875 -8.890625 39.359375 -4.5 
Q 40.046875 -1.8125 39.984375 6.78125 
Q 34.234375 0 25.640625 0 
Q 14.9375 0 9.078125 7.71875 
Q 3.21875 15.4375 3.21875 26.21875 
Q 3.21875 33.640625 5.90625 39.90625 
Q 8.59375 46.1875 13.6875 49.609375 
Q 18.796875 53.03125 25.6875 53.03125 
Q 34.859375 53.03125 40.828125 45.609375 
L 40.828125 51.859375 
L 48.921875 51.859375 
L 48.921875 7.03125 
Q 48.921875 -5.078125 46.453125 -10.125 
Q 44 -15.1875 38.640625 -18.109375 
Q 33.296875 -21.046875 25.484375 -21.046875 
Q 16.21875 -21.046875 10.5 -16.875 
Q 4.78125 -12.703125 4.984375 -4.296875 
z
M 12.25 26.859375 
Q 12.25 16.65625 16.296875 11.96875 
Q 20.359375 7.28125 26.46875 7.28125 
Q 32.515625 7.28125 36.609375 11.9375 
Q 40.71875 16.609375 40.71875 26.5625 
Q 40.71875 36.078125 36.5 40.90625 
Q 32.28125 45.75 26.3125 45.75 
Q 20.453125 45.75 16.34375 40.984375 
Q 12.25 36.234375 12.25 26.859375 
z
" id="ArialMT-103"/>
      <path d="M 8.6875 0 
L 8.6875 45.015625 
L 0.921875 45.015625 
L 0.921875 51.859375 
L 8.6875 51.859375 
L 8.6875 57.375 
Q 8.6875 62.59375 9.625 65.140625 
Q 10.890625 68.5625 14.078125 70.671875 
Q 17.28125 72.796875 23.046875 72.796875 
Q 26.765625 72.796875 31.25 71.921875 
L 29.9375 64.265625 
Q 27.203125 64.75 24.75 64.75 
Q 20.75 64.75 19.09375 63.03125 
Q 17.4375 61.328125 17.4375 56.640625 
L 17.4375 51.859375 
L 27.546875 51.859375 
L 27.546875 45.015625 
L 17.4375 45.015625 
L 17.4375 0 
z
" id="ArialMT-102"/>
      <path d="M 7.90625 0 
L 7.90625 71.578125 
L 59.671875 71.578125 
L 59.671875 63.140625 
L 17.390625 63.140625 
L 17.390625 41.21875 
L 56.984375 41.21875 
L 56.984375 32.8125 
L 17.390625 32.8125 
L 17.390625 8.453125 
L 61.328125 8.453125 
L 61.328125 0 
z
" id="ArialMT-69"/>
      <path d="M 6.59375 0 
L 6.59375 51.859375 
L 14.453125 51.859375 
L 14.453125 44.578125 
Q 16.890625 48.390625 20.9375 50.703125 
Q 25 53.03125 30.171875 53.03125 
Q 35.9375 53.03125 39.625 50.640625 
Q 43.3125 48.25 44.828125 43.953125 
Q 50.984375 53.03125 60.84375 53.03125 
Q 68.5625 53.03125 72.703125 48.75 
Q 76.859375 44.484375 76.859375 35.59375 
L 76.859375 0 
L 68.109375 0 
L 68.109375 32.671875 
Q 68.109375 37.9375 67.25 40.25 
Q 66.40625 42.578125 64.15625 43.984375 
Q 61.921875 45.40625 58.890625 45.40625 
Q 53.421875 45.40625 49.796875 41.765625 
Q 46.1875 38.140625 46.1875 30.125 
L 46.1875 0 
L 37.40625 0 
L 37.40625 33.6875 
Q 37.40625 39.546875 35.25 42.46875 
Q 33.109375 45.40625 28.21875 45.40625 
Q 24.515625 45.40625 21.359375 43.453125 
Q 18.21875 41.5 16.796875 37.734375 
Q 15.375 33.984375 15.375 26.90625 
L 15.375 0 
z
" id="ArialMT-109"/>
     </defs>
     <g style="fill:#262626;" transform="translate(15.935625 389.58)rotate(-90)scale(0.12 -0.12)">
      <use xlink:href="#ArialMT-67"/>
      <use x="72.216797" xlink:href="#ArialMT-117"/>
      <use x="127.832031" xlink:href="#ArialMT-114"/>
      <use x="161.132812" xlink:href="#ArialMT-114"/>
      <use x="194.433594" xlink:href="#ArialMT-101"/>
      <use x="250.048828" xlink:href="#ArialMT-110"/>
      <use x="305.664062" xlink:href="#ArialMT-116"/>
      <use x="333.447266" xlink:href="#ArialMT-32"/>
      <use x="361.230469" xlink:href="#ArialMT-67"/>
      <use x="433.447266" xlink:href="#ArialMT-111"/>
      <use x="489.0625" xlink:href="#ArialMT-108"/>
      <use x="511.279297" xlink:href="#ArialMT-108"/>
      <use x="533.496094" xlink:href="#ArialMT-101"/>
      <use x="589.111328" xlink:href="#ArialMT-99"/>
      <use x="639.111328" xlink:href="#ArialMT-116"/>
      <use x="666.894531" xlink:href="#ArialMT-101"/>
      <use x="722.509766" xlink:href="#ArialMT-100"/>
      <use x="778.125" xlink:href="#ArialMT-32"/>
      <use x="805.908203" xlink:href="#ArialMT-97"/>
      <use x="861.523438" xlink:href="#ArialMT-115"/>
      <use x="911.523438" xlink:href="#ArialMT-32"/>
      <use x="939.306641" xlink:href="#ArialMT-112"/>
      <use x="994.921875" xlink:href="#ArialMT-101"/>
      <use x="1050.537109" xlink:href="#ArialMT-114"/>
      <use x="1083.837891" xlink:href="#ArialMT-99"/>
      <use x="1133.837891" xlink:href="#ArialMT-101"/>
      <use x="1189.453125" xlink:href="#ArialMT-110"/>
      <use x="1245.068359" xlink:href="#ArialMT-116"/>
      <use x="1272.851562" xlink:href="#ArialMT-97"/>
      <use x="1328.466797" xlink:href="#ArialMT-103"/>
      <use x="1384.082031" xlink:href="#ArialMT-101"/>
      <use x="1439.697266" xlink:href="#ArialMT-32"/>
      <use x="1467.480469" xlink:href="#ArialMT-111"/>
      <use x="1523.095703" xlink:href="#ArialMT-102"/>
      <use x="1550.878906" xlink:href="#ArialMT-32"/>
      <use x="1578.662109" xlink:href="#ArialMT-69"/>
      <use x="1645.361328" xlink:href="#ArialMT-109"/>
      <use x="1728.662109" xlink:href="#ArialMT-105"/>
      <use x="1750.878906" xlink:href="#ArialMT-116"/>
      <use x="1778.662109" xlink:href="#ArialMT-116"/>
      <use x="1806.445312" xlink:href="#ArialMT-101"/>
      <use x="1862.060547" xlink:href="#ArialMT-100"/>
      <use x="1917.675781" xlink:href="#ArialMT-32"/>
      <use x="1945.458984" xlink:href="#ArialMT-67"/>
      <use x="2017.675781" xlink:href="#ArialMT-117"/>
      <use x="2073.291016" xlink:href="#ArialMT-114"/>
      <use x="2106.591797" xlink:href="#ArialMT-114"/>
      <use x="2139.892578" xlink:href="#ArialMT-101"/>
      <use x="2195.507812" xlink:href="#ArialMT-110"/>
      <use x="2251.123047" xlink:href="#ArialMT-116"/>
     </g>
    </g>
   </g>
   <g id="LineCollection_1">
    <path clip-path="url(#p0b62c18da4)" d="M 486.812683 363.658056 
L 486.812683 42.827727 
" style="fill:none;stroke:#ff0000;stroke-dasharray:5.55,2.4;stroke-dashoffset:0;stroke-opacity:0.5;stroke-width:1.5;"/>
   </g>
   <g id="LineCollection_2">
    <path clip-path="url(#p0b62c18da4)" d="M 450.52 363.658056 
L 450.52 51.833491 
" style="fill:none;stroke:#ff0000;stroke-dasharray:5.55,2.4;stroke-dashoffset:0;stroke-opacity:0.5;stroke-width:1.5;"/>
   </g>
   <g id="LineCollection_3">
    <path clip-path="url(#p0b62c18da4)" d="M 414.227317 363.658056 
L 414.227317 68.719298 
" style="fill:none;stroke:#ff0000;stroke-dasharray:5.55,2.4;stroke-dashoffset:0;stroke-opacity:0.5;stroke-width:1.5;"/>
   </g>
   <g id="LineCollection_4">
    <path clip-path="url(#p0b62c18da4)" d="M 377.934634 363.658056 
L 377.934634 84.197954 
" style="fill:none;stroke:#ff0000;stroke-dasharray:5.55,2.4;stroke-dashoffset:0;stroke-opacity:0.5;stroke-width:1.5;"/>
   </g>
   <g id="LineCollection_5">
    <path clip-path="url(#p0b62c18da4)" d="M 341.641951 363.658056 
L 341.641951 99.11375 
" style="fill:none;stroke:#ff0000;stroke-dasharray:5.55,2.4;stroke-dashoffset:0;stroke-opacity:0.5;stroke-width:1.5;"/>
   </g>
   <g id="LineCollection_6">
    <path clip-path="url(#p0b62c18da4)" d="M 305.349268 363.658056 
L 305.349268 119.376718 
" style="fill:none;stroke:#ff0000;stroke-dasharray:5.55,2.4;stroke-dashoffset:0;stroke-opacity:0.5;stroke-width:1.5;"/>
   </g>
   <g id="LineCollection_7">
    <path clip-path="url(#p0b62c18da4)" d="M 269.056585 363.658056 
L 269.056585 141.609697 
" style="fill:none;stroke:#ff0000;stroke-dasharray:5.55,2.4;stroke-dashoffset:0;stroke-opacity:0.5;stroke-width:1.5;"/>
   </g>
   <g id="LineCollection_8">
    <path clip-path="url(#p0b62c18da4)" d="M 232.763902 363.658056 
L 232.763902 164.686966 
" style="fill:none;stroke:#ff0000;stroke-dasharray:5.55,2.4;stroke-dashoffset:0;stroke-opacity:0.5;stroke-width:1.5;"/>
   </g>
   <g id="LineCollection_9">
    <path clip-path="url(#p0b62c18da4)" d="M 196.47122 363.658056 
L 196.47122 203.524322 
" style="fill:none;stroke:#ff0000;stroke-dasharray:5.55,2.4;stroke-dashoffset:0;stroke-opacity:0.5;stroke-width:1.5;"/>
   </g>
   <g id="LineCollection_10">
    <path clip-path="url(#p0b62c18da4)" d="M 160.178537 363.658056 
L 160.178537 257.840333 
" style="fill:none;stroke:#ff0000;stroke-dasharray:5.55,2.4;stroke-dashoffset:0;stroke-opacity:0.5;stroke-width:1.5;"/>
   </g>
   <g id="line2d_60">
    <path clip-path="url(#p0b62c18da4)" d="M 78.52 363.376626 
L 85.324878 363.376626 
L 92.129756 363.376626 
L 98.934634 363.095196 
L 105.739512 363.095196 
L 112.54439 363.376626 
L 119.349268 363.376626 
L 126.154146 363.095196 
L 132.959024 363.095196 
L 139.763902 359.155174 
L 146.56878 319.754958 
L 153.373659 280.073312 
L 160.178537 257.840333 
L 166.983415 240.673097 
L 173.788293 229.978752 
L 180.593171 221.254419 
L 187.398049 209.997214 
L 194.202927 203.524322 
L 201.007805 195.925709 
L 207.812683 188.608526 
L 214.617561 183.261354 
L 221.422439 174.53702 
L 228.227317 170.315568 
L 235.032195 164.686966 
L 241.837073 159.058364 
L 248.641951 153.711192 
L 255.446829 148.36402 
L 262.251707 144.142568 
L 269.056585 141.609697 
L 275.861463 136.825385 
L 282.666341 131.196783 
L 289.47122 126.693901 
L 296.276098 123.035309 
L 303.080976 119.376718 
L 309.885854 115.155266 
L 316.690732 110.933815 
L 323.49561 108.119513 
L 330.300488 104.742352 
L 337.105366 101.365191 
L 343.910244 99.11375 
L 350.715122 96.299449 
L 357.52 93.766578 
L 364.324878 89.826556 
L 371.129756 86.449395 
L 377.934634 84.197954 
L 384.739512 81.383653 
L 391.54439 77.725061 
L 398.349268 74.3479 
L 405.154146 70.407878 
L 411.959024 68.719298 
L 418.763902 67.593577 
L 425.56878 65.342136 
L 432.373659 62.527835 
L 439.178537 58.869244 
L 445.983415 55.492082 
L 452.788293 51.833491 
L 459.593171 49.58205 
L 466.398049 47.893469 
L 473.202927 46.486319 
L 480.007805 44.797738 
L 486.812683 42.827727 
L 493.617561 43.390587 
L 500.422439 82.509373 
L 507.227317 124.72389 
L 514.032195 149.48974 
L 520.837073 162.154095 
L 527.641951 172.848439 
L 534.446829 181.291343 
L 541.251707 187.201375 
L 548.056585 193.392838 
L 554.861463 199.02144 
L 561.666341 204.087182 
L 568.47122 209.152924 
L 575.276098 212.530085 
L 582.080976 218.158688 
L 588.885854 222.942999 
L 595.690732 225.757301 
L 602.49561 229.134462 
L 609.300488 232.793053 
L 616.105366 235.607355 
L 622.910244 238.421656 
L 629.715122 240.673097 
L 636.52 242.643107 
" style="fill:none;stroke:#4c72b0;stroke-linecap:round;stroke-opacity:0.75;stroke-width:5;"/>
   </g>
   <g id="line2d_61">
    <path clip-path="url(#p0b62c18da4)" d="M 78.52 363.054991 
L 85.324878 363.242611 
L 92.129756 363.430231 
L 98.934634 363.617852 
L 105.739512 363.577647 
L 112.54439 363.577647 
L 119.349268 361.929271 
L 126.154146 343.837335 
L 132.959024 314.930442 
L 139.763902 288.516216 
L 146.56878 269.821215 
L 153.373659 263.911183 
L 160.178537 273.278785 
L 166.983415 295.833399 
L 173.788293 314.407786 
L 180.593171 323.654776 
L 187.398049 329.082356 
L 194.202927 332.2987 
L 201.007805 333.866668 
L 207.812683 336.560356 
L 214.617561 337.686077 
L 221.422439 339.173636 
L 228.227317 340.379765 
L 235.032195 341.143647 
L 241.837073 342.792023 
L 248.641951 343.957948 
L 255.446829 345.365098 
L 262.251707 345.927959 
L 269.056585 346.12898 
L 275.861463 346.330002 
L 282.666341 346.289797 
L 289.47122 346.169185 
L 296.276098 346.933066 
L 303.080976 348.139195 
L 309.885854 348.782464 
L 316.690732 349.184507 
L 323.49561 350.14941 
L 330.300488 351.234927 
L 337.105366 352.119421 
L 343.910244 351.958604 
L 350.715122 351.757582 
L 357.52 351.757582 
L 364.324878 351.556561 
L 371.129756 351.355539 
L 377.934634 351.154518 
L 384.739512 350.953496 
L 391.54439 351.114314 
L 398.349268 351.878195 
L 405.154146 353.084324 
L 411.959024 354.169841 
L 418.763902 354.290454 
L 425.56878 353.727593 
L 432.373659 352.039013 
L 439.178537 351.074109 
L 445.983415 351.476152 
L 452.788293 352.802894 
L 459.593171 354.491475 
L 466.398049 355.778013 
L 473.202927 357.667615 
L 480.007805 375.960572 
L 486.812683 406.676659 
L 493.617561 436.307229 
L 500.422439 456.047541 
L 507.227317 462.882273 
L 514.032195 453.916713 
L 520.837073 428.025143 
L 527.641951 406.59625 
L 534.446829 395.861702 
L 541.251707 390.836164 
L 548.056585 387.418798 
L 554.861463 384.845723 
L 561.666341 383.840615 
L 568.47122 382.996325 
L 575.276098 381.790196 
L 582.080976 380.624271 
L 588.885854 379.619164 
L 595.690732 378.614056 
L 602.49561 376.96568 
L 609.300488 375.799755 
L 616.105366 374.995669 
L 622.910244 373.655526 
L 629.715122 372.315382 
L 636.52 370.975239 
" style="fill:none;stroke:#dd8452;stroke-linecap:round;stroke-opacity:0.75;stroke-width:5;"/>
   </g>
   <g id="patch_3">
    <path d="M 50.62 483.885 
L 50.62 21.825 
" style="fill:none;stroke:#ffffff;stroke-linecap:square;stroke-linejoin:miter;stroke-width:1.25;"/>
   </g>
   <g id="patch_4">
    <path d="M 664.42 483.885 
L 664.42 21.825 
" style="fill:none;stroke:#ffffff;stroke-linecap:square;stroke-linejoin:miter;stroke-width:1.25;"/>
   </g>
   <g id="patch_5">
    <path d="M 50.62 483.885 
L 664.42 483.885 
" style="fill:none;stroke:#ffffff;stroke-linecap:square;stroke-linejoin:miter;stroke-width:1.25;"/>
   </g>
   <g id="patch_6">
    <path d="M 50.62 21.825 
L 664.42 21.825 
" style="fill:none;stroke:#ffffff;stroke-linecap:square;stroke-linejoin:miter;stroke-width:1.25;"/>
   </g>
   <g id="text_16">
    <!-- Dipole 1 sweep through DBA Aperture, -35 Degrees -->
    <defs>
     <path d="M 16.15625 0 
L 0.296875 51.859375 
L 9.375 51.859375 
L 17.625 21.921875 
L 20.703125 10.796875 
Q 20.90625 11.625 23.390625 21.484375 
L 31.640625 51.859375 
L 40.671875 51.859375 
L 48.4375 21.78125 
L 51.03125 11.859375 
L 54 21.875 
L 62.890625 51.859375 
L 71.4375 51.859375 
L 55.21875 0 
L 46.09375 0 
L 37.84375 31.0625 
L 35.84375 39.890625 
L 25.34375 0 
z
" id="ArialMT-119"/>
     <path d="M 6.59375 0 
L 6.59375 71.578125 
L 15.375 71.578125 
L 15.375 45.90625 
Q 21.53125 53.03125 30.90625 53.03125 
Q 36.671875 53.03125 40.921875 50.75 
Q 45.171875 48.484375 47 44.484375 
Q 48.828125 40.484375 48.828125 32.859375 
L 48.828125 0 
L 40.046875 0 
L 40.046875 32.859375 
Q 40.046875 39.453125 37.1875 42.453125 
Q 34.328125 45.453125 29.109375 45.453125 
Q 25.203125 45.453125 21.75 43.421875 
Q 18.3125 41.40625 16.84375 37.9375 
Q 15.375 34.46875 15.375 28.375 
L 15.375 0 
z
" id="ArialMT-104"/>
     <path d="M 7.328125 0 
L 7.328125 71.578125 
L 34.1875 71.578125 
Q 42.390625 71.578125 47.34375 69.40625 
Q 52.296875 67.234375 55.09375 62.71875 
Q 57.90625 58.203125 57.90625 53.265625 
Q 57.90625 48.6875 55.421875 44.625 
Q 52.9375 40.578125 47.90625 38.09375 
Q 54.390625 36.1875 57.875 31.59375 
Q 61.375 27 61.375 20.75 
Q 61.375 15.71875 59.25 11.390625 
Q 57.125 7.078125 54 4.734375 
Q 50.875 2.390625 46.15625 1.1875 
Q 41.453125 0 34.625 0 
z
M 16.796875 41.5 
L 32.28125 41.5 
Q 38.578125 41.5 41.3125 42.328125 
Q 44.921875 43.40625 46.75 45.890625 
Q 48.578125 48.390625 48.578125 52.15625 
Q 48.578125 55.71875 46.875 58.421875 
Q 45.171875 61.140625 41.984375 62.140625 
Q 38.8125 63.140625 31.109375 63.140625 
L 16.796875 63.140625 
z
M 16.796875 8.453125 
L 34.625 8.453125 
Q 39.203125 8.453125 41.0625 8.796875 
Q 44.34375 9.375 46.53125 10.734375 
Q 48.734375 12.109375 50.140625 14.71875 
Q 51.5625 17.328125 51.5625 20.75 
Q 51.5625 24.75 49.515625 27.703125 
Q 47.46875 30.671875 43.828125 31.859375 
Q 40.1875 33.0625 33.34375 33.0625 
L 16.796875 33.0625 
z
" id="ArialMT-66"/>
     <path d="M 8.890625 0 
L 8.890625 10.015625 
L 18.890625 10.015625 
L 18.890625 0 
Q 18.890625 -5.515625 16.9375 -8.90625 
Q 14.984375 -12.3125 10.75 -14.15625 
L 8.296875 -10.40625 
Q 11.078125 -9.1875 12.390625 -6.8125 
Q 13.71875 -4.4375 13.875 0 
z
" id="ArialMT-44"/>
     <path d="M 3.171875 21.484375 
L 3.171875 30.328125 
L 30.171875 30.328125 
L 30.171875 21.484375 
z
" id="ArialMT-45"/>
    </defs>
    <g style="fill:#262626;" transform="translate(219.461875 15.825)scale(0.12 -0.12)">
     <use xlink:href="#ArialMT-68"/>
     <use x="72.216797" xlink:href="#ArialMT-105"/>
     <use x="94.433594" xlink:href="#ArialMT-112"/>
     <use x="150.048828" xlink:href="#ArialMT-111"/>
     <use x="205.664062" xlink:href="#ArialMT-108"/>
     <use x="227.880859" xlink:href="#ArialMT-101"/>
     <use x="283.496094" xlink:href="#ArialMT-32"/>
     <use x="311.279297" xlink:href="#ArialMT-49"/>
     <use x="366.894531" xlink:href="#ArialMT-32"/>
     <use x="394.677734" xlink:href="#ArialMT-115"/>
     <use x="444.677734" xlink:href="#ArialMT-119"/>
     <use x="516.894531" xlink:href="#ArialMT-101"/>
     <use x="572.509766" xlink:href="#ArialMT-101"/>
     <use x="628.125" xlink:href="#ArialMT-112"/>
     <use x="683.740234" xlink:href="#ArialMT-32"/>
     <use x="711.523438" xlink:href="#ArialMT-116"/>
     <use x="739.306641" xlink:href="#ArialMT-104"/>
     <use x="794.921875" xlink:href="#ArialMT-114"/>
     <use x="828.222656" xlink:href="#ArialMT-111"/>
     <use x="883.837891" xlink:href="#ArialMT-117"/>
     <use x="939.453125" xlink:href="#ArialMT-103"/>
     <use x="995.068359" xlink:href="#ArialMT-104"/>
     <use x="1050.683594" xlink:href="#ArialMT-32"/>
     <use x="1078.466797" xlink:href="#ArialMT-68"/>
     <use x="1150.683594" xlink:href="#ArialMT-66"/>
     <use x="1217.382812" xlink:href="#ArialMT-65"/>
     <use x="1284.003906" xlink:href="#ArialMT-32"/>
     <use x="1311.708984" xlink:href="#ArialMT-65"/>
     <use x="1378.408203" xlink:href="#ArialMT-112"/>
     <use x="1434.023438" xlink:href="#ArialMT-101"/>
     <use x="1489.638672" xlink:href="#ArialMT-114"/>
     <use x="1522.939453" xlink:href="#ArialMT-116"/>
     <use x="1550.722656" xlink:href="#ArialMT-117"/>
     <use x="1606.337891" xlink:href="#ArialMT-114"/>
     <use x="1639.638672" xlink:href="#ArialMT-101"/>
     <use x="1695.253906" xlink:href="#ArialMT-44"/>
     <use x="1723.037109" xlink:href="#ArialMT-32"/>
     <use x="1750.820312" xlink:href="#ArialMT-45"/>
     <use x="1784.121094" xlink:href="#ArialMT-51"/>
     <use x="1839.736328" xlink:href="#ArialMT-53"/>
     <use x="1895.351562" xlink:href="#ArialMT-32"/>
     <use x="1923.134766" xlink:href="#ArialMT-68"/>
     <use x="1995.351562" xlink:href="#ArialMT-101"/>
     <use x="2050.966797" xlink:href="#ArialMT-103"/>
     <use x="2106.582031" xlink:href="#ArialMT-114"/>
     <use x="2139.882812" xlink:href="#ArialMT-101"/>
     <use x="2195.498047" xlink:href="#ArialMT-101"/>
     <use x="2251.113281" xlink:href="#ArialMT-115"/>
    </g>
   </g>
   <g id="legend_1">
    <g id="patch_7">
     <path d="M 58.32 61.81 
L 238.627188 61.81 
Q 240.827188 61.81 240.827188 59.61 
L 240.827188 29.525 
Q 240.827188 27.325 238.627188 27.325 
L 58.32 27.325 
Q 56.12 27.325 56.12 29.525 
L 56.12 59.61 
Q 56.12 61.81 58.32 61.81 
z
" style="fill:#eaeaf2;opacity:0.8;stroke:#cccccc;stroke-linejoin:miter;"/>
    </g>
    <g id="line2d_62">
     <path d="M 60.52 35.78125 
L 82.52 35.78125 
" style="fill:none;stroke:#4c72b0;stroke-linecap:round;stroke-opacity:0.75;stroke-width:5;"/>
    </g>
    <g id="line2d_63"/>
    <g id="text_17">
     <!-- 200 μA Emitted -->
     <defs>
      <path d="M 49.703125 51.859375 
L 49.703125 0 
L 41.84375 0 
L 41.84375 6.15625 
Q 39.3125 2.25 36.8125 0.78125 
Q 33.40625 -1.21875 28.859375 -1.21875 
Q 24.8125 -1.21875 21.6875 0.390625 
Q 19.34375 1.609375 16.5 5.21875 
L 16.5 -19.875 
L 7.8125 -19.875 
L 7.8125 51.859375 
L 16.5 51.859375 
L 16.5 29.890625 
Q 16.5 17.921875 17.765625 14.375 
Q 19.046875 10.84375 21.890625 8.78125 
Q 24.75 6.734375 28.46875 6.734375 
Q 32.375 6.734375 35.453125 8.875 
Q 38.53125 11.03125 39.796875 14.421875 
Q 41.0625 17.828125 41.0625 29.734375 
L 41.0625 51.859375 
z
" id="ArialMT-956"/>
     </defs>
     <g style="fill:#262626;" transform="translate(91.32 39.63125)scale(0.11 -0.11)">
      <use xlink:href="#ArialMT-50"/>
      <use x="55.615234" xlink:href="#ArialMT-48"/>
      <use x="111.230469" xlink:href="#ArialMT-48"/>
      <use x="166.845703" xlink:href="#ArialMT-32"/>
      <use x="194.628906" xlink:href="#ArialMT-956"/>
      <use x="252.246094" xlink:href="#ArialMT-65"/>
      <use x="318.867188" xlink:href="#ArialMT-32"/>
      <use x="346.650391" xlink:href="#ArialMT-69"/>
      <use x="413.349609" xlink:href="#ArialMT-109"/>
      <use x="496.650391" xlink:href="#ArialMT-105"/>
      <use x="518.867188" xlink:href="#ArialMT-116"/>
      <use x="546.650391" xlink:href="#ArialMT-116"/>
      <use x="574.433594" xlink:href="#ArialMT-101"/>
      <use x="630.048828" xlink:href="#ArialMT-100"/>
     </g>
    </g>
    <g id="line2d_64">
     <path d="M 60.52 51.37375 
L 82.52 51.37375 
" style="fill:none;stroke:#dd8452;stroke-linecap:round;stroke-opacity:0.75;stroke-width:5;"/>
    </g>
    <g id="line2d_65"/>
    <g id="text_18">
     <!-- 1st Derivative 200 μA Emitted -->
     <defs>
      <path d="M 21 0 
L 1.265625 51.859375 
L 10.546875 51.859375 
L 21.6875 20.796875 
Q 23.484375 15.765625 25 10.359375 
Q 26.171875 14.453125 28.265625 20.21875 
L 39.796875 51.859375 
L 48.828125 51.859375 
L 29.203125 0 
z
" id="ArialMT-118"/>
     </defs>
     <g style="fill:#262626;" transform="translate(91.32 55.22375)scale(0.11 -0.11)">
      <use xlink:href="#ArialMT-49"/>
      <use x="55.615234" xlink:href="#ArialMT-115"/>
      <use x="105.615234" xlink:href="#ArialMT-116"/>
      <use x="133.398438" xlink:href="#ArialMT-32"/>
      <use x="161.181641" xlink:href="#ArialMT-68"/>
      <use x="233.398438" xlink:href="#ArialMT-101"/>
      <use x="289.013672" xlink:href="#ArialMT-114"/>
      <use x="322.314453" xlink:href="#ArialMT-105"/>
      <use x="344.53125" xlink:href="#ArialMT-118"/>
      <use x="394.53125" xlink:href="#ArialMT-97"/>
      <use x="450.146484" xlink:href="#ArialMT-116"/>
      <use x="477.929688" xlink:href="#ArialMT-105"/>
      <use x="500.146484" xlink:href="#ArialMT-118"/>
      <use x="550.146484" xlink:href="#ArialMT-101"/>
      <use x="605.761719" xlink:href="#ArialMT-32"/>
      <use x="633.544922" xlink:href="#ArialMT-50"/>
      <use x="689.160156" xlink:href="#ArialMT-48"/>
      <use x="744.775391" xlink:href="#ArialMT-48"/>
      <use x="800.390625" xlink:href="#ArialMT-32"/>
      <use x="828.173828" xlink:href="#ArialMT-956"/>
      <use x="885.791016" xlink:href="#ArialMT-65"/>
      <use x="952.412109" xlink:href="#ArialMT-32"/>
      <use x="980.195312" xlink:href="#ArialMT-69"/>
      <use x="1046.894531" xlink:href="#ArialMT-109"/>
      <use x="1130.195312" xlink:href="#ArialMT-105"/>
      <use x="1152.412109" xlink:href="#ArialMT-116"/>
      <use x="1180.195312" xlink:href="#ArialMT-116"/>
      <use x="1207.978516" xlink:href="#ArialMT-101"/>
      <use x="1263.59375" xlink:href="#ArialMT-100"/>
     </g>
    </g>
   </g>
  </g>
 </g>
 <defs>
  <clipPath id="p0b62c18da4">
   <rect height="462.06" width="613.8" x="50.62" y="21.825"/>
  </clipPath>
 </defs>
</svg>
