<?xml version="1.0" encoding="utf-8" standalone="no"?>
<!DOCTYPE svg PUBLIC "-//W3C//DTD SVG 1.1//EN"
  "http://www.w3.org/Graphics/SVG/1.1/DTD/svg11.dtd">
<!-- Created with matplotlib (https://matplotlib.org/) -->
<svg height="612pt" version="1.1" viewBox="0 0 792 612" width="792pt" xmlns="http://www.w3.org/2000/svg" xmlns:xlink="http://www.w3.org/1999/xlink">
 <defs>
  <style type="text/css">
*{stroke-linecap:butt;stroke-linejoin:round;}
  </style>
 </defs>
 <g id="figure_1">
  <g id="patch_1">
   <path d="M 0 612 
L 792 612 
L 792 0 
L 0 0 
z
" style="fill:none;"/>
  </g>
  <g id="axes_1">
   <g id="patch_2">
    <path d="M 99 544.68 
L 712.8 544.68 
L 712.8 73.44 
L 99 73.44 
z
" style="fill:none;"/>
   </g>
   <g id="matplotlib.axis_1">
    <g id="xtick_1">
     <g id="line2d_1">
      <path clip-path="url(#pd9e9f6d40e)" d="M 616.85122 544.68 
L 616.85122 73.44 
" style="fill:none;stroke:#808080;stroke-linecap:round;stroke-opacity:0.25;"/>
     </g>
     <g id="text_1">
      <!-- 0.42 -->
      <defs>
       <path d="M 4.15625 35.296875 
Q 4.15625 48 6.765625 55.734375 
Q 9.375 63.484375 14.515625 67.671875 
Q 19.671875 71.875 27.484375 71.875 
Q 33.25 71.875 37.59375 69.546875 
Q 41.9375 67.234375 44.765625 62.859375 
Q 47.609375 58.5 49.21875 52.21875 
Q 50.828125 45.953125 50.828125 35.296875 
Q 50.828125 22.703125 48.234375 14.96875 
Q 45.65625 7.234375 40.5 3 
Q 35.359375 -1.21875 27.484375 -1.21875 
Q 17.140625 -1.21875 11.234375 6.203125 
Q 4.15625 15.140625 4.15625 35.296875 
z
M 13.1875 35.296875 
Q 13.1875 17.671875 17.3125 11.828125 
Q 21.4375 6 27.484375 6 
Q 33.546875 6 37.671875 11.859375 
Q 41.796875 17.71875 41.796875 35.296875 
Q 41.796875 52.984375 37.671875 58.78125 
Q 33.546875 64.59375 27.390625 64.59375 
Q 21.34375 64.59375 17.71875 59.46875 
Q 13.1875 52.9375 13.1875 35.296875 
z
" id="ArialMT-48"/>
       <path d="M 9.078125 0 
L 9.078125 10.015625 
L 19.09375 10.015625 
L 19.09375 0 
z
" id="ArialMT-46"/>
       <path d="M 32.328125 0 
L 32.328125 17.140625 
L 1.265625 17.140625 
L 1.265625 25.203125 
L 33.9375 71.578125 
L 41.109375 71.578125 
L 41.109375 25.203125 
L 50.78125 25.203125 
L 50.78125 17.140625 
L 41.109375 17.140625 
L 41.109375 0 
z
M 32.328125 25.203125 
L 32.328125 57.46875 
L 9.90625 25.203125 
z
" id="ArialMT-52"/>
       <path d="M 50.34375 8.453125 
L 50.34375 0 
L 3.03125 0 
Q 2.9375 3.171875 4.046875 6.109375 
Q 5.859375 10.9375 9.828125 15.625 
Q 13.8125 20.3125 21.34375 26.46875 
Q 33.015625 36.03125 37.109375 41.625 
Q 41.21875 47.21875 41.21875 52.203125 
Q 41.21875 57.421875 37.46875 61 
Q 33.734375 64.59375 27.734375 64.59375 
Q 21.390625 64.59375 17.578125 60.78125 
Q 13.765625 56.984375 13.71875 50.25 
L 4.6875 51.171875 
Q 5.609375 61.28125 11.65625 66.578125 
Q 17.71875 71.875 27.9375 71.875 
Q 38.234375 71.875 44.234375 66.15625 
Q 50.25 60.453125 50.25 52 
Q 50.25 47.703125 48.484375 43.546875 
Q 46.734375 39.40625 42.65625 34.8125 
Q 38.578125 30.21875 29.109375 22.21875 
Q 21.1875 15.578125 18.9375 13.203125 
Q 16.703125 10.84375 15.234375 8.453125 
z
" id="ArialMT-50"/>
      </defs>
      <g style="fill:#262626;" transform="translate(606.147704 562.053594)scale(0.11 -0.11)">
       <use xlink:href="#ArialMT-48"/>
       <use x="55.615234" xlink:href="#ArialMT-46"/>
       <use x="83.398438" xlink:href="#ArialMT-52"/>
       <use x="139.013672" xlink:href="#ArialMT-50"/>
      </g>
     </g>
    </g>
    <g id="xtick_2">
     <g id="line2d_2">
      <path clip-path="url(#pd9e9f6d40e)" d="M 480.753659 544.68 
L 480.753659 73.44 
" style="fill:none;stroke:#808080;stroke-linecap:round;stroke-opacity:0.25;"/>
     </g>
     <g id="text_2">
      <!-- 0.44 -->
      <g style="fill:#262626;" transform="translate(470.050143 562.053594)scale(0.11 -0.11)">
       <use xlink:href="#ArialMT-48"/>
       <use x="55.615234" xlink:href="#ArialMT-46"/>
       <use x="83.398438" xlink:href="#ArialMT-52"/>
       <use x="139.013672" xlink:href="#ArialMT-52"/>
      </g>
     </g>
    </g>
    <g id="xtick_3">
     <g id="line2d_3">
      <path clip-path="url(#pd9e9f6d40e)" d="M 344.656098 544.68 
L 344.656098 73.44 
" style="fill:none;stroke:#808080;stroke-linecap:round;stroke-opacity:0.25;"/>
     </g>
     <g id="text_3">
      <!-- 0.46 -->
      <defs>
       <path d="M 49.75 54.046875 
L 41.015625 53.375 
Q 39.84375 58.546875 37.703125 60.890625 
Q 34.125 64.65625 28.90625 64.65625 
Q 24.703125 64.65625 21.53125 62.3125 
Q 17.390625 59.28125 14.984375 53.46875 
Q 12.59375 47.65625 12.5 36.921875 
Q 15.671875 41.75 20.265625 44.09375 
Q 24.859375 46.4375 29.890625 46.4375 
Q 38.671875 46.4375 44.84375 39.96875 
Q 51.03125 33.5 51.03125 23.25 
Q 51.03125 16.5 48.125 10.71875 
Q 45.21875 4.9375 40.140625 1.859375 
Q 35.0625 -1.21875 28.609375 -1.21875 
Q 17.625 -1.21875 10.6875 6.859375 
Q 3.765625 14.9375 3.765625 33.5 
Q 3.765625 54.25 11.421875 63.671875 
Q 18.109375 71.875 29.4375 71.875 
Q 37.890625 71.875 43.28125 67.140625 
Q 48.6875 62.40625 49.75 54.046875 
z
M 13.875 23.1875 
Q 13.875 18.65625 15.796875 14.5 
Q 17.71875 10.359375 21.1875 8.171875 
Q 24.65625 6 28.46875 6 
Q 34.03125 6 38.03125 10.484375 
Q 42.046875 14.984375 42.046875 22.703125 
Q 42.046875 30.125 38.078125 34.390625 
Q 34.125 38.671875 28.125 38.671875 
Q 22.171875 38.671875 18.015625 34.390625 
Q 13.875 30.125 13.875 23.1875 
z
" id="ArialMT-54"/>
      </defs>
      <g style="fill:#262626;" transform="translate(333.952582 562.053594)scale(0.11 -0.11)">
       <use xlink:href="#ArialMT-48"/>
       <use x="55.615234" xlink:href="#ArialMT-46"/>
       <use x="83.398438" xlink:href="#ArialMT-52"/>
       <use x="139.013672" xlink:href="#ArialMT-54"/>
      </g>
     </g>
    </g>
    <g id="xtick_4">
     <g id="line2d_4">
      <path clip-path="url(#pd9e9f6d40e)" d="M 208.558537 544.68 
L 208.558537 73.44 
" style="fill:none;stroke:#808080;stroke-linecap:round;stroke-opacity:0.25;"/>
     </g>
     <g id="text_4">
      <!-- 0.48 -->
      <defs>
       <path d="M 17.671875 38.8125 
Q 12.203125 40.828125 9.5625 44.53125 
Q 6.9375 48.25 6.9375 53.421875 
Q 6.9375 61.234375 12.546875 66.546875 
Q 18.171875 71.875 27.484375 71.875 
Q 36.859375 71.875 42.578125 66.421875 
Q 48.296875 60.984375 48.296875 53.171875 
Q 48.296875 48.1875 45.671875 44.5 
Q 43.0625 40.828125 37.75 38.8125 
Q 44.34375 36.671875 47.78125 31.875 
Q 51.21875 27.09375 51.21875 20.453125 
Q 51.21875 11.28125 44.71875 5.03125 
Q 38.234375 -1.21875 27.640625 -1.21875 
Q 17.046875 -1.21875 10.546875 5.046875 
Q 4.046875 11.328125 4.046875 20.703125 
Q 4.046875 27.6875 7.59375 32.390625 
Q 11.140625 37.109375 17.671875 38.8125 
z
M 15.921875 53.71875 
Q 15.921875 48.640625 19.1875 45.40625 
Q 22.46875 42.1875 27.6875 42.1875 
Q 32.765625 42.1875 36.015625 45.375 
Q 39.265625 48.578125 39.265625 53.21875 
Q 39.265625 58.0625 35.90625 61.359375 
Q 32.5625 64.65625 27.59375 64.65625 
Q 22.5625 64.65625 19.234375 61.421875 
Q 15.921875 58.203125 15.921875 53.71875 
z
M 13.09375 20.65625 
Q 13.09375 16.890625 14.875 13.375 
Q 16.65625 9.859375 20.171875 7.921875 
Q 23.6875 6 27.734375 6 
Q 34.03125 6 38.125 10.046875 
Q 42.234375 14.109375 42.234375 20.359375 
Q 42.234375 26.703125 38.015625 30.859375 
Q 33.796875 35.015625 27.4375 35.015625 
Q 21.234375 35.015625 17.15625 30.90625 
Q 13.09375 26.8125 13.09375 20.65625 
z
" id="ArialMT-56"/>
      </defs>
      <g style="fill:#262626;" transform="translate(197.855021 562.053594)scale(0.11 -0.11)">
       <use xlink:href="#ArialMT-48"/>
       <use x="55.615234" xlink:href="#ArialMT-46"/>
       <use x="83.398438" xlink:href="#ArialMT-52"/>
       <use x="139.013672" xlink:href="#ArialMT-56"/>
      </g>
     </g>
    </g>
    <g id="xtick_5">
     <g id="line2d_5">
      <path clip-path="url(#pd9e9f6d40e)" d="M 684.9 544.68 
L 684.9 73.44 
" style="fill:none;stroke:#808080;stroke-linecap:round;stroke-opacity:0.25;"/>
     </g>
    </g>
    <g id="xtick_6">
     <g id="line2d_6">
      <path clip-path="url(#pd9e9f6d40e)" d="M 650.87561 544.68 
L 650.87561 73.44 
" style="fill:none;stroke:#808080;stroke-linecap:round;stroke-opacity:0.25;"/>
     </g>
    </g>
    <g id="xtick_7">
     <g id="line2d_7">
      <path clip-path="url(#pd9e9f6d40e)" d="M 582.826829 544.68 
L 582.826829 73.44 
" style="fill:none;stroke:#808080;stroke-linecap:round;stroke-opacity:0.25;"/>
     </g>
    </g>
    <g id="xtick_8">
     <g id="line2d_8">
      <path clip-path="url(#pd9e9f6d40e)" d="M 548.802439 544.68 
L 548.802439 73.44 
" style="fill:none;stroke:#808080;stroke-linecap:round;stroke-opacity:0.25;"/>
     </g>
    </g>
    <g id="xtick_9">
     <g id="line2d_9">
      <path clip-path="url(#pd9e9f6d40e)" d="M 514.778049 544.68 
L 514.778049 73.44 
" style="fill:none;stroke:#808080;stroke-linecap:round;stroke-opacity:0.25;"/>
     </g>
    </g>
    <g id="xtick_10">
     <g id="line2d_10">
      <path clip-path="url(#pd9e9f6d40e)" d="M 446.729268 544.68 
L 446.729268 73.44 
" style="fill:none;stroke:#808080;stroke-linecap:round;stroke-opacity:0.25;"/>
     </g>
    </g>
    <g id="xtick_11">
     <g id="line2d_11">
      <path clip-path="url(#pd9e9f6d40e)" d="M 412.704878 544.68 
L 412.704878 73.44 
" style="fill:none;stroke:#808080;stroke-linecap:round;stroke-opacity:0.25;"/>
     </g>
    </g>
    <g id="xtick_12">
     <g id="line2d_12">
      <path clip-path="url(#pd9e9f6d40e)" d="M 378.680488 544.68 
L 378.680488 73.44 
" style="fill:none;stroke:#808080;stroke-linecap:round;stroke-opacity:0.25;"/>
     </g>
    </g>
    <g id="xtick_13">
     <g id="line2d_13">
      <path clip-path="url(#pd9e9f6d40e)" d="M 310.631707 544.68 
L 310.631707 73.44 
" style="fill:none;stroke:#808080;stroke-linecap:round;stroke-opacity:0.25;"/>
     </g>
    </g>
    <g id="xtick_14">
     <g id="line2d_14">
      <path clip-path="url(#pd9e9f6d40e)" d="M 276.607317 544.68 
L 276.607317 73.44 
" style="fill:none;stroke:#808080;stroke-linecap:round;stroke-opacity:0.25;"/>
     </g>
    </g>
    <g id="xtick_15">
     <g id="line2d_15">
      <path clip-path="url(#pd9e9f6d40e)" d="M 242.582927 544.68 
L 242.582927 73.44 
" style="fill:none;stroke:#808080;stroke-linecap:round;stroke-opacity:0.25;"/>
     </g>
    </g>
    <g id="xtick_16">
     <g id="line2d_16">
      <path clip-path="url(#pd9e9f6d40e)" d="M 174.534146 544.68 
L 174.534146 73.44 
" style="fill:none;stroke:#808080;stroke-linecap:round;stroke-opacity:0.25;"/>
     </g>
    </g>
    <g id="xtick_17">
     <g id="line2d_17">
      <path clip-path="url(#pd9e9f6d40e)" d="M 140.509756 544.68 
L 140.509756 73.44 
" style="fill:none;stroke:#808080;stroke-linecap:round;stroke-opacity:0.25;"/>
     </g>
    </g>
    <g id="xtick_18">
     <g id="line2d_18">
      <path clip-path="url(#pd9e9f6d40e)" d="M 106.485366 544.68 
L 106.485366 73.44 
" style="fill:none;stroke:#808080;stroke-linecap:round;stroke-opacity:0.25;"/>
     </g>
    </g>
    <g id="text_5">
     <!-- Current in Dipole 1 (A) -->
     <defs>
      <path d="M 58.796875 25.09375 
L 68.265625 22.703125 
Q 65.28125 11.03125 57.546875 4.90625 
Q 49.8125 -1.21875 38.625 -1.21875 
Q 27.046875 -1.21875 19.796875 3.484375 
Q 12.546875 8.203125 8.765625 17.140625 
Q 4.984375 26.078125 4.984375 36.328125 
Q 4.984375 47.515625 9.25 55.828125 
Q 13.53125 64.15625 21.40625 68.46875 
Q 29.296875 72.796875 38.765625 72.796875 
Q 49.515625 72.796875 56.828125 67.328125 
Q 64.15625 61.859375 67.046875 51.953125 
L 57.71875 49.75 
Q 55.21875 57.5625 50.484375 61.125 
Q 45.75 64.703125 38.578125 64.703125 
Q 30.328125 64.703125 24.78125 60.734375 
Q 19.234375 56.78125 16.984375 50.109375 
Q 14.75 43.453125 14.75 36.375 
Q 14.75 27.25 17.40625 20.4375 
Q 20.0625 13.625 25.671875 10.25 
Q 31.296875 6.890625 37.84375 6.890625 
Q 45.796875 6.890625 51.3125 11.46875 
Q 56.84375 16.0625 58.796875 25.09375 
z
" id="ArialMT-67"/>
      <path d="M 40.578125 0 
L 40.578125 7.625 
Q 34.515625 -1.171875 24.125 -1.171875 
Q 19.53125 -1.171875 15.546875 0.578125 
Q 11.578125 2.34375 9.640625 5 
Q 7.71875 7.671875 6.9375 11.53125 
Q 6.390625 14.109375 6.390625 19.734375 
L 6.390625 51.859375 
L 15.1875 51.859375 
L 15.1875 23.09375 
Q 15.1875 16.21875 15.71875 13.8125 
Q 16.546875 10.359375 19.234375 8.375 
Q 21.921875 6.390625 25.875 6.390625 
Q 29.828125 6.390625 33.296875 8.421875 
Q 36.765625 10.453125 38.203125 13.9375 
Q 39.65625 17.4375 39.65625 24.078125 
L 39.65625 51.859375 
L 48.4375 51.859375 
L 48.4375 0 
z
" id="ArialMT-117"/>
      <path d="M 6.5 0 
L 6.5 51.859375 
L 14.40625 51.859375 
L 14.40625 44 
Q 17.4375 49.515625 20 51.265625 
Q 22.5625 53.03125 25.640625 53.03125 
Q 30.078125 53.03125 34.671875 50.203125 
L 31.640625 42.046875 
Q 28.421875 43.953125 25.203125 43.953125 
Q 22.3125 43.953125 20.015625 42.21875 
Q 17.71875 40.484375 16.75 37.40625 
Q 15.28125 32.71875 15.28125 27.15625 
L 15.28125 0 
z
" id="ArialMT-114"/>
      <path d="M 42.09375 16.703125 
L 51.171875 15.578125 
Q 49.03125 7.625 43.21875 3.21875 
Q 37.40625 -1.171875 28.375 -1.171875 
Q 17 -1.171875 10.328125 5.828125 
Q 3.65625 12.84375 3.65625 25.484375 
Q 3.65625 38.578125 10.390625 45.796875 
Q 17.140625 53.03125 27.875 53.03125 
Q 38.28125 53.03125 44.875 45.953125 
Q 51.46875 38.875 51.46875 26.03125 
Q 51.46875 25.25 51.421875 23.6875 
L 12.75 23.6875 
Q 13.234375 15.140625 17.578125 10.59375 
Q 21.921875 6.0625 28.421875 6.0625 
Q 33.25 6.0625 36.671875 8.59375 
Q 40.09375 11.140625 42.09375 16.703125 
z
M 13.234375 30.90625 
L 42.1875 30.90625 
Q 41.609375 37.453125 38.875 40.71875 
Q 34.671875 45.796875 27.984375 45.796875 
Q 21.921875 45.796875 17.796875 41.75 
Q 13.671875 37.703125 13.234375 30.90625 
z
" id="ArialMT-101"/>
      <path d="M 6.59375 0 
L 6.59375 51.859375 
L 14.5 51.859375 
L 14.5 44.484375 
Q 20.21875 53.03125 31 53.03125 
Q 35.6875 53.03125 39.625 51.34375 
Q 43.5625 49.65625 45.515625 46.921875 
Q 47.46875 44.1875 48.25 40.4375 
Q 48.734375 37.984375 48.734375 31.890625 
L 48.734375 0 
L 39.9375 0 
L 39.9375 31.546875 
Q 39.9375 36.921875 38.90625 39.578125 
Q 37.890625 42.234375 35.28125 43.8125 
Q 32.671875 45.40625 29.15625 45.40625 
Q 23.53125 45.40625 19.453125 41.84375 
Q 15.375 38.28125 15.375 28.328125 
L 15.375 0 
z
" id="ArialMT-110"/>
      <path d="M 25.78125 7.859375 
L 27.046875 0.09375 
Q 23.34375 -0.6875 20.40625 -0.6875 
Q 15.625 -0.6875 12.984375 0.828125 
Q 10.359375 2.34375 9.28125 4.8125 
Q 8.203125 7.28125 8.203125 15.1875 
L 8.203125 45.015625 
L 1.765625 45.015625 
L 1.765625 51.859375 
L 8.203125 51.859375 
L 8.203125 64.703125 
L 16.9375 69.96875 
L 16.9375 51.859375 
L 25.78125 51.859375 
L 25.78125 45.015625 
L 16.9375 45.015625 
L 16.9375 14.703125 
Q 16.9375 10.9375 17.40625 9.859375 
Q 17.875 8.796875 18.921875 8.15625 
Q 19.96875 7.515625 21.921875 7.515625 
Q 23.390625 7.515625 25.78125 7.859375 
z
" id="ArialMT-116"/>
      <path id="ArialMT-32"/>
      <path d="M 6.640625 61.46875 
L 6.640625 71.578125 
L 15.4375 71.578125 
L 15.4375 61.46875 
z
M 6.640625 0 
L 6.640625 51.859375 
L 15.4375 51.859375 
L 15.4375 0 
z
" id="ArialMT-105"/>
      <path d="M 7.71875 0 
L 7.71875 71.578125 
L 32.375 71.578125 
Q 40.71875 71.578125 45.125 70.5625 
Q 51.265625 69.140625 55.609375 65.4375 
Q 61.28125 60.640625 64.078125 53.1875 
Q 66.890625 45.75 66.890625 36.1875 
Q 66.890625 28.03125 64.984375 21.734375 
Q 63.09375 15.4375 60.109375 11.296875 
Q 57.125 7.171875 53.578125 4.796875 
Q 50.046875 2.4375 45.046875 1.21875 
Q 40.046875 0 33.546875 0 
z
M 17.1875 8.453125 
L 32.46875 8.453125 
Q 39.546875 8.453125 43.578125 9.765625 
Q 47.609375 11.078125 50 13.484375 
Q 53.375 16.84375 55.25 22.53125 
Q 57.125 28.21875 57.125 36.328125 
Q 57.125 47.5625 53.4375 53.59375 
Q 49.75 59.625 44.484375 61.671875 
Q 40.671875 63.140625 32.234375 63.140625 
L 17.1875 63.140625 
z
" id="ArialMT-68"/>
      <path d="M 6.59375 -19.875 
L 6.59375 51.859375 
L 14.59375 51.859375 
L 14.59375 45.125 
Q 17.4375 49.078125 21 51.046875 
Q 24.5625 53.03125 29.640625 53.03125 
Q 36.28125 53.03125 41.359375 49.609375 
Q 46.4375 46.1875 49.015625 39.953125 
Q 51.609375 33.734375 51.609375 26.3125 
Q 51.609375 18.359375 48.75 11.984375 
Q 45.90625 5.609375 40.453125 2.21875 
Q 35.015625 -1.171875 29 -1.171875 
Q 24.609375 -1.171875 21.109375 0.6875 
Q 17.625 2.546875 15.375 5.375 
L 15.375 -19.875 
z
M 14.546875 25.640625 
Q 14.546875 15.625 18.59375 10.84375 
Q 22.65625 6.0625 28.421875 6.0625 
Q 34.28125 6.0625 38.453125 11.015625 
Q 42.625 15.96875 42.625 26.375 
Q 42.625 36.28125 38.546875 41.203125 
Q 34.46875 46.140625 28.8125 46.140625 
Q 23.1875 46.140625 18.859375 40.890625 
Q 14.546875 35.640625 14.546875 25.640625 
z
" id="ArialMT-112"/>
      <path d="M 3.328125 25.921875 
Q 3.328125 40.328125 11.328125 47.265625 
Q 18.015625 53.03125 27.640625 53.03125 
Q 38.328125 53.03125 45.109375 46.015625 
Q 51.90625 39.015625 51.90625 26.65625 
Q 51.90625 16.65625 48.90625 10.90625 
Q 45.90625 5.171875 40.15625 2 
Q 34.421875 -1.171875 27.640625 -1.171875 
Q 16.75 -1.171875 10.03125 5.8125 
Q 3.328125 12.796875 3.328125 25.921875 
z
M 12.359375 25.921875 
Q 12.359375 15.96875 16.703125 11.015625 
Q 21.046875 6.0625 27.640625 6.0625 
Q 34.1875 6.0625 38.53125 11.03125 
Q 42.875 16.015625 42.875 26.21875 
Q 42.875 35.84375 38.5 40.796875 
Q 34.125 45.75 27.640625 45.75 
Q 21.046875 45.75 16.703125 40.8125 
Q 12.359375 35.890625 12.359375 25.921875 
z
" id="ArialMT-111"/>
      <path d="M 6.390625 0 
L 6.390625 71.578125 
L 15.1875 71.578125 
L 15.1875 0 
z
" id="ArialMT-108"/>
      <path d="M 37.25 0 
L 28.46875 0 
L 28.46875 56 
Q 25.296875 52.984375 20.140625 49.953125 
Q 14.984375 46.921875 10.890625 45.40625 
L 10.890625 53.90625 
Q 18.265625 57.375 23.78125 62.296875 
Q 29.296875 67.234375 31.59375 71.875 
L 37.25 71.875 
z
" id="ArialMT-49"/>
      <path d="M 23.390625 -21.046875 
Q 16.109375 -11.859375 11.078125 0.4375 
Q 6.0625 12.75 6.0625 25.921875 
Q 6.0625 37.546875 9.8125 48.1875 
Q 14.203125 60.546875 23.390625 72.796875 
L 29.6875 72.796875 
Q 23.78125 62.640625 21.875 58.296875 
Q 18.890625 51.5625 17.1875 44.234375 
Q 15.09375 35.109375 15.09375 25.875 
Q 15.09375 2.390625 29.6875 -21.046875 
z
" id="ArialMT-40"/>
      <path d="M -0.140625 0 
L 27.34375 71.578125 
L 37.546875 71.578125 
L 66.84375 0 
L 56.0625 0 
L 47.703125 21.6875 
L 17.78125 21.6875 
L 9.90625 0 
z
M 20.515625 29.390625 
L 44.78125 29.390625 
L 37.3125 49.21875 
Q 33.890625 58.25 32.234375 64.0625 
Q 30.859375 57.171875 28.375 50.390625 
z
" id="ArialMT-65"/>
      <path d="M 12.359375 -21.046875 
L 6.0625 -21.046875 
Q 20.65625 2.390625 20.65625 25.875 
Q 20.65625 35.0625 18.5625 44.09375 
Q 16.890625 51.421875 13.921875 58.15625 
Q 12.015625 62.546875 6.0625 72.796875 
L 12.359375 72.796875 
Q 21.53125 60.546875 25.921875 48.1875 
Q 29.6875 37.546875 29.6875 25.921875 
Q 29.6875 12.75 24.625 0.4375 
Q 19.578125 -11.859375 12.359375 -21.046875 
z
" id="ArialMT-41"/>
     </defs>
     <g style="fill:#262626;" transform="translate(346.214063 576.975469)scale(0.12 -0.12)">
      <use xlink:href="#ArialMT-67"/>
      <use x="72.216797" xlink:href="#ArialMT-117"/>
      <use x="127.832031" xlink:href="#ArialMT-114"/>
      <use x="161.132812" xlink:href="#ArialMT-114"/>
      <use x="194.433594" xlink:href="#ArialMT-101"/>
      <use x="250.048828" xlink:href="#ArialMT-110"/>
      <use x="305.664062" xlink:href="#ArialMT-116"/>
      <use x="333.447266" xlink:href="#ArialMT-32"/>
      <use x="361.230469" xlink:href="#ArialMT-105"/>
      <use x="383.447266" xlink:href="#ArialMT-110"/>
      <use x="439.0625" xlink:href="#ArialMT-32"/>
      <use x="466.845703" xlink:href="#ArialMT-68"/>
      <use x="539.0625" xlink:href="#ArialMT-105"/>
      <use x="561.279297" xlink:href="#ArialMT-112"/>
      <use x="616.894531" xlink:href="#ArialMT-111"/>
      <use x="672.509766" xlink:href="#ArialMT-108"/>
      <use x="694.726562" xlink:href="#ArialMT-101"/>
      <use x="750.341797" xlink:href="#ArialMT-32"/>
      <use x="778.125" xlink:href="#ArialMT-49"/>
      <use x="833.740234" xlink:href="#ArialMT-32"/>
      <use x="861.523438" xlink:href="#ArialMT-40"/>
      <use x="894.824219" xlink:href="#ArialMT-65"/>
      <use x="961.523438" xlink:href="#ArialMT-41"/>
     </g>
    </g>
   </g>
   <g id="matplotlib.axis_2">
    <g id="ytick_1">
     <g id="line2d_19">
      <path clip-path="url(#pd9e9f6d40e)" d="M 99 523.26 
L 712.8 523.26 
" style="fill:none;stroke:#808080;stroke-linecap:round;stroke-opacity:0.25;"/>
     </g>
     <g id="text_6">
      <!-- 0 -->
      <g style="fill:#262626;" transform="translate(83.382969 527.196797)scale(0.11 -0.11)">
       <use xlink:href="#ArialMT-48"/>
      </g>
     </g>
    </g>
    <g id="ytick_2">
     <g id="line2d_20">
      <path clip-path="url(#pd9e9f6d40e)" d="M 99 461.352486 
L 712.8 461.352486 
" style="fill:none;stroke:#808080;stroke-linecap:round;stroke-opacity:0.25;"/>
     </g>
     <g id="text_7">
      <!-- 10 -->
      <g style="fill:#262626;" transform="translate(77.265938 465.289282)scale(0.11 -0.11)">
       <use xlink:href="#ArialMT-49"/>
       <use x="55.615234" xlink:href="#ArialMT-48"/>
      </g>
     </g>
    </g>
    <g id="ytick_3">
     <g id="line2d_21">
      <path clip-path="url(#pd9e9f6d40e)" d="M 99 399.444971 
L 712.8 399.444971 
" style="fill:none;stroke:#808080;stroke-linecap:round;stroke-opacity:0.25;"/>
     </g>
     <g id="text_8">
      <!-- 20 -->
      <g style="fill:#262626;" transform="translate(77.265938 403.381768)scale(0.11 -0.11)">
       <use xlink:href="#ArialMT-50"/>
       <use x="55.615234" xlink:href="#ArialMT-48"/>
      </g>
     </g>
    </g>
    <g id="ytick_4">
     <g id="line2d_22">
      <path clip-path="url(#pd9e9f6d40e)" d="M 99 337.537457 
L 712.8 337.537457 
" style="fill:none;stroke:#808080;stroke-linecap:round;stroke-opacity:0.25;"/>
     </g>
     <g id="text_9">
      <!-- 30 -->
      <defs>
       <path d="M 4.203125 18.890625 
L 12.984375 20.0625 
Q 14.5 12.59375 18.140625 9.296875 
Q 21.78125 6 27 6 
Q 33.203125 6 37.46875 10.296875 
Q 41.75 14.59375 41.75 20.953125 
Q 41.75 27 37.796875 30.921875 
Q 33.84375 34.859375 27.734375 34.859375 
Q 25.25 34.859375 21.53125 33.890625 
L 22.515625 41.609375 
Q 23.390625 41.5 23.921875 41.5 
Q 29.546875 41.5 34.03125 44.421875 
Q 38.53125 47.359375 38.53125 53.46875 
Q 38.53125 58.296875 35.25 61.46875 
Q 31.984375 64.65625 26.8125 64.65625 
Q 21.6875 64.65625 18.265625 61.421875 
Q 14.84375 58.203125 13.875 51.765625 
L 5.078125 53.328125 
Q 6.6875 62.15625 12.390625 67.015625 
Q 18.109375 71.875 26.609375 71.875 
Q 32.46875 71.875 37.390625 69.359375 
Q 42.328125 66.84375 44.9375 62.5 
Q 47.5625 58.15625 47.5625 53.265625 
Q 47.5625 48.640625 45.0625 44.828125 
Q 42.578125 41.015625 37.703125 38.765625 
Q 44.046875 37.3125 47.5625 32.6875 
Q 51.078125 28.078125 51.078125 21.140625 
Q 51.078125 11.765625 44.234375 5.25 
Q 37.40625 -1.265625 26.953125 -1.265625 
Q 17.53125 -1.265625 11.296875 4.34375 
Q 5.078125 9.96875 4.203125 18.890625 
z
" id="ArialMT-51"/>
      </defs>
      <g style="fill:#262626;" transform="translate(77.265938 341.474254)scale(0.11 -0.11)">
       <use xlink:href="#ArialMT-51"/>
       <use x="55.615234" xlink:href="#ArialMT-48"/>
      </g>
     </g>
    </g>
    <g id="ytick_5">
     <g id="line2d_23">
      <path clip-path="url(#pd9e9f6d40e)" d="M 99 275.629942 
L 712.8 275.629942 
" style="fill:none;stroke:#808080;stroke-linecap:round;stroke-opacity:0.25;"/>
     </g>
     <g id="text_10">
      <!-- 40 -->
      <g style="fill:#262626;" transform="translate(77.265938 279.566739)scale(0.11 -0.11)">
       <use xlink:href="#ArialMT-52"/>
       <use x="55.615234" xlink:href="#ArialMT-48"/>
      </g>
     </g>
    </g>
    <g id="ytick_6">
     <g id="line2d_24">
      <path clip-path="url(#pd9e9f6d40e)" d="M 99 213.722428 
L 712.8 213.722428 
" style="fill:none;stroke:#808080;stroke-linecap:round;stroke-opacity:0.25;"/>
     </g>
     <g id="text_11">
      <!-- 50 -->
      <defs>
       <path d="M 4.15625 18.75 
L 13.375 19.53125 
Q 14.40625 12.796875 18.140625 9.390625 
Q 21.875 6 27.15625 6 
Q 33.5 6 37.890625 10.78125 
Q 42.28125 15.578125 42.28125 23.484375 
Q 42.28125 31 38.0625 35.34375 
Q 33.84375 39.703125 27 39.703125 
Q 22.75 39.703125 19.328125 37.765625 
Q 15.921875 35.84375 13.96875 32.765625 
L 5.71875 33.84375 
L 12.640625 70.609375 
L 48.25 70.609375 
L 48.25 62.203125 
L 19.671875 62.203125 
L 15.828125 42.96875 
Q 22.265625 47.46875 29.34375 47.46875 
Q 38.71875 47.46875 45.15625 40.96875 
Q 51.609375 34.46875 51.609375 24.265625 
Q 51.609375 14.546875 45.953125 7.46875 
Q 39.0625 -1.21875 27.15625 -1.21875 
Q 17.390625 -1.21875 11.203125 4.25 
Q 5.03125 9.71875 4.15625 18.75 
z
" id="ArialMT-53"/>
      </defs>
      <g style="fill:#262626;" transform="translate(77.265938 217.659225)scale(0.11 -0.11)">
       <use xlink:href="#ArialMT-53"/>
       <use x="55.615234" xlink:href="#ArialMT-48"/>
      </g>
     </g>
    </g>
    <g id="ytick_7">
     <g id="line2d_25">
      <path clip-path="url(#pd9e9f6d40e)" d="M 99 151.814913 
L 712.8 151.814913 
" style="fill:none;stroke:#808080;stroke-linecap:round;stroke-opacity:0.25;"/>
     </g>
     <g id="text_12">
      <!-- 60 -->
      <g style="fill:#262626;" transform="translate(77.265938 155.75171)scale(0.11 -0.11)">
       <use xlink:href="#ArialMT-54"/>
       <use x="55.615234" xlink:href="#ArialMT-48"/>
      </g>
     </g>
    </g>
    <g id="ytick_8">
     <g id="line2d_26">
      <path clip-path="url(#pd9e9f6d40e)" d="M 99 89.907399 
L 712.8 89.907399 
" style="fill:none;stroke:#808080;stroke-linecap:round;stroke-opacity:0.25;"/>
     </g>
     <g id="text_13">
      <!-- 70 -->
      <defs>
       <path d="M 4.734375 62.203125 
L 4.734375 70.65625 
L 51.078125 70.65625 
L 51.078125 63.8125 
Q 44.234375 56.546875 37.515625 44.484375 
Q 30.8125 32.421875 27.15625 19.671875 
Q 24.515625 10.6875 23.78125 0 
L 14.75 0 
Q 14.890625 8.453125 18.0625 20.40625 
Q 21.234375 32.375 27.171875 43.484375 
Q 33.109375 54.59375 39.796875 62.203125 
z
" id="ArialMT-55"/>
      </defs>
      <g style="fill:#262626;" transform="translate(77.265938 93.844196)scale(0.11 -0.11)">
       <use xlink:href="#ArialMT-55"/>
       <use x="55.615234" xlink:href="#ArialMT-48"/>
      </g>
     </g>
    </g>
    <g id="ytick_9">
     <g id="line2d_27">
      <path clip-path="url(#pd9e9f6d40e)" d="M 99 535.641503 
L 712.8 535.641503 
" style="fill:none;stroke:#808080;stroke-linecap:round;stroke-opacity:0.25;"/>
     </g>
    </g>
    <g id="ytick_10">
     <g id="line2d_28">
      <path clip-path="url(#pd9e9f6d40e)" d="M 99 510.878497 
L 712.8 510.878497 
" style="fill:none;stroke:#808080;stroke-linecap:round;stroke-opacity:0.25;"/>
     </g>
    </g>
    <g id="ytick_11">
     <g id="line2d_29">
      <path clip-path="url(#pd9e9f6d40e)" d="M 99 498.496994 
L 712.8 498.496994 
" style="fill:none;stroke:#808080;stroke-linecap:round;stroke-opacity:0.25;"/>
     </g>
    </g>
    <g id="ytick_12">
     <g id="line2d_30">
      <path clip-path="url(#pd9e9f6d40e)" d="M 99 486.115491 
L 712.8 486.115491 
" style="fill:none;stroke:#808080;stroke-linecap:round;stroke-opacity:0.25;"/>
     </g>
    </g>
    <g id="ytick_13">
     <g id="line2d_31">
      <path clip-path="url(#pd9e9f6d40e)" d="M 99 473.733988 
L 712.8 473.733988 
" style="fill:none;stroke:#808080;stroke-linecap:round;stroke-opacity:0.25;"/>
     </g>
    </g>
    <g id="ytick_14">
     <g id="line2d_32">
      <path clip-path="url(#pd9e9f6d40e)" d="M 99 448.970983 
L 712.8 448.970983 
" style="fill:none;stroke:#808080;stroke-linecap:round;stroke-opacity:0.25;"/>
     </g>
    </g>
    <g id="ytick_15">
     <g id="line2d_33">
      <path clip-path="url(#pd9e9f6d40e)" d="M 99 436.58948 
L 712.8 436.58948 
" style="fill:none;stroke:#808080;stroke-linecap:round;stroke-opacity:0.25;"/>
     </g>
    </g>
    <g id="ytick_16">
     <g id="line2d_34">
      <path clip-path="url(#pd9e9f6d40e)" d="M 99 424.207977 
L 712.8 424.207977 
" style="fill:none;stroke:#808080;stroke-linecap:round;stroke-opacity:0.25;"/>
     </g>
    </g>
    <g id="ytick_17">
     <g id="line2d_35">
      <path clip-path="url(#pd9e9f6d40e)" d="M 99 411.826474 
L 712.8 411.826474 
" style="fill:none;stroke:#808080;stroke-linecap:round;stroke-opacity:0.25;"/>
     </g>
    </g>
    <g id="ytick_18">
     <g id="line2d_36">
      <path clip-path="url(#pd9e9f6d40e)" d="M 99 387.063468 
L 712.8 387.063468 
" style="fill:none;stroke:#808080;stroke-linecap:round;stroke-opacity:0.25;"/>
     </g>
    </g>
    <g id="ytick_19">
     <g id="line2d_37">
      <path clip-path="url(#pd9e9f6d40e)" d="M 99 374.681965 
L 712.8 374.681965 
" style="fill:none;stroke:#808080;stroke-linecap:round;stroke-opacity:0.25;"/>
     </g>
    </g>
    <g id="ytick_20">
     <g id="line2d_38">
      <path clip-path="url(#pd9e9f6d40e)" d="M 99 362.300462 
L 712.8 362.300462 
" style="fill:none;stroke:#808080;stroke-linecap:round;stroke-opacity:0.25;"/>
     </g>
    </g>
    <g id="ytick_21">
     <g id="line2d_39">
      <path clip-path="url(#pd9e9f6d40e)" d="M 99 349.91896 
L 712.8 349.91896 
" style="fill:none;stroke:#808080;stroke-linecap:round;stroke-opacity:0.25;"/>
     </g>
    </g>
    <g id="ytick_22">
     <g id="line2d_40">
      <path clip-path="url(#pd9e9f6d40e)" d="M 99 325.155954 
L 712.8 325.155954 
" style="fill:none;stroke:#808080;stroke-linecap:round;stroke-opacity:0.25;"/>
     </g>
    </g>
    <g id="ytick_23">
     <g id="line2d_41">
      <path clip-path="url(#pd9e9f6d40e)" d="M 99 312.774451 
L 712.8 312.774451 
" style="fill:none;stroke:#808080;stroke-linecap:round;stroke-opacity:0.25;"/>
     </g>
    </g>
    <g id="ytick_24">
     <g id="line2d_42">
      <path clip-path="url(#pd9e9f6d40e)" d="M 99 300.392948 
L 712.8 300.392948 
" style="fill:none;stroke:#808080;stroke-linecap:round;stroke-opacity:0.25;"/>
     </g>
    </g>
    <g id="ytick_25">
     <g id="line2d_43">
      <path clip-path="url(#pd9e9f6d40e)" d="M 99 288.011445 
L 712.8 288.011445 
" style="fill:none;stroke:#808080;stroke-linecap:round;stroke-opacity:0.25;"/>
     </g>
    </g>
    <g id="ytick_26">
     <g id="line2d_44">
      <path clip-path="url(#pd9e9f6d40e)" d="M 99 263.248439 
L 712.8 263.248439 
" style="fill:none;stroke:#808080;stroke-linecap:round;stroke-opacity:0.25;"/>
     </g>
    </g>
    <g id="ytick_27">
     <g id="line2d_45">
      <path clip-path="url(#pd9e9f6d40e)" d="M 99 250.866936 
L 712.8 250.866936 
" style="fill:none;stroke:#808080;stroke-linecap:round;stroke-opacity:0.25;"/>
     </g>
    </g>
    <g id="ytick_28">
     <g id="line2d_46">
      <path clip-path="url(#pd9e9f6d40e)" d="M 99 238.485434 
L 712.8 238.485434 
" style="fill:none;stroke:#808080;stroke-linecap:round;stroke-opacity:0.25;"/>
     </g>
    </g>
    <g id="ytick_29">
     <g id="line2d_47">
      <path clip-path="url(#pd9e9f6d40e)" d="M 99 226.103931 
L 712.8 226.103931 
" style="fill:none;stroke:#808080;stroke-linecap:round;stroke-opacity:0.25;"/>
     </g>
    </g>
    <g id="ytick_30">
     <g id="line2d_48">
      <path clip-path="url(#pd9e9f6d40e)" d="M 99 201.340925 
L 712.8 201.340925 
" style="fill:none;stroke:#808080;stroke-linecap:round;stroke-opacity:0.25;"/>
     </g>
    </g>
    <g id="ytick_31">
     <g id="line2d_49">
      <path clip-path="url(#pd9e9f6d40e)" d="M 99 188.959422 
L 712.8 188.959422 
" style="fill:none;stroke:#808080;stroke-linecap:round;stroke-opacity:0.25;"/>
     </g>
    </g>
    <g id="ytick_32">
     <g id="line2d_50">
      <path clip-path="url(#pd9e9f6d40e)" d="M 99 176.577919 
L 712.8 176.577919 
" style="fill:none;stroke:#808080;stroke-linecap:round;stroke-opacity:0.25;"/>
     </g>
    </g>
    <g id="ytick_33">
     <g id="line2d_51">
      <path clip-path="url(#pd9e9f6d40e)" d="M 99 164.196416 
L 712.8 164.196416 
" style="fill:none;stroke:#808080;stroke-linecap:round;stroke-opacity:0.25;"/>
     </g>
    </g>
    <g id="ytick_34">
     <g id="line2d_52">
      <path clip-path="url(#pd9e9f6d40e)" d="M 99 139.43341 
L 712.8 139.43341 
" style="fill:none;stroke:#808080;stroke-linecap:round;stroke-opacity:0.25;"/>
     </g>
    </g>
    <g id="ytick_35">
     <g id="line2d_53">
      <path clip-path="url(#pd9e9f6d40e)" d="M 99 127.051908 
L 712.8 127.051908 
" style="fill:none;stroke:#808080;stroke-linecap:round;stroke-opacity:0.25;"/>
     </g>
    </g>
    <g id="ytick_36">
     <g id="line2d_54">
      <path clip-path="url(#pd9e9f6d40e)" d="M 99 114.670405 
L 712.8 114.670405 
" style="fill:none;stroke:#808080;stroke-linecap:round;stroke-opacity:0.25;"/>
     </g>
    </g>
    <g id="ytick_37">
     <g id="line2d_55">
      <path clip-path="url(#pd9e9f6d40e)" d="M 99 102.288902 
L 712.8 102.288902 
" style="fill:none;stroke:#808080;stroke-linecap:round;stroke-opacity:0.25;"/>
     </g>
    </g>
    <g id="ytick_38">
     <g id="line2d_56">
      <path clip-path="url(#pd9e9f6d40e)" d="M 99 77.525896 
L 712.8 77.525896 
" style="fill:none;stroke:#808080;stroke-linecap:round;stroke-opacity:0.25;"/>
     </g>
    </g>
    <g id="text_14">
     <!-- Current Collected as percentage of Emitted Current -->
     <defs>
      <path d="M 40.4375 19 
L 49.078125 17.875 
Q 47.65625 8.9375 41.8125 3.875 
Q 35.984375 -1.171875 27.484375 -1.171875 
Q 16.84375 -1.171875 10.375 5.78125 
Q 3.90625 12.75 3.90625 25.734375 
Q 3.90625 34.125 6.6875 40.421875 
Q 9.46875 46.734375 15.15625 49.875 
Q 20.84375 53.03125 27.546875 53.03125 
Q 35.984375 53.03125 41.359375 48.75 
Q 46.734375 44.484375 48.25 36.625 
L 39.703125 35.296875 
Q 38.484375 40.53125 35.375 43.15625 
Q 32.28125 45.796875 27.875 45.796875 
Q 21.234375 45.796875 17.078125 41.03125 
Q 12.9375 36.28125 12.9375 25.984375 
Q 12.9375 15.53125 16.9375 10.796875 
Q 20.953125 6.0625 27.390625 6.0625 
Q 32.5625 6.0625 36.03125 9.234375 
Q 39.5 12.40625 40.4375 19 
z
" id="ArialMT-99"/>
      <path d="M 40.234375 0 
L 40.234375 6.546875 
Q 35.296875 -1.171875 25.734375 -1.171875 
Q 19.53125 -1.171875 14.328125 2.25 
Q 9.125 5.671875 6.265625 11.796875 
Q 3.421875 17.921875 3.421875 25.875 
Q 3.421875 33.640625 6 39.96875 
Q 8.59375 46.296875 13.765625 49.65625 
Q 18.953125 53.03125 25.34375 53.03125 
Q 30.03125 53.03125 33.6875 51.046875 
Q 37.359375 49.078125 39.65625 45.90625 
L 39.65625 71.578125 
L 48.390625 71.578125 
L 48.390625 0 
z
M 12.453125 25.875 
Q 12.453125 15.921875 16.640625 10.984375 
Q 20.84375 6.0625 26.5625 6.0625 
Q 32.328125 6.0625 36.34375 10.765625 
Q 40.375 15.484375 40.375 25.140625 
Q 40.375 35.796875 36.265625 40.765625 
Q 32.171875 45.75 26.171875 45.75 
Q 20.3125 45.75 16.375 40.96875 
Q 12.453125 36.1875 12.453125 25.875 
z
" id="ArialMT-100"/>
      <path d="M 40.4375 6.390625 
Q 35.546875 2.25 31.03125 0.53125 
Q 26.515625 -1.171875 21.34375 -1.171875 
Q 12.796875 -1.171875 8.203125 3 
Q 3.609375 7.171875 3.609375 13.671875 
Q 3.609375 17.484375 5.34375 20.625 
Q 7.078125 23.78125 9.890625 25.6875 
Q 12.703125 27.59375 16.21875 28.5625 
Q 18.796875 29.25 24.03125 29.890625 
Q 34.671875 31.15625 39.703125 32.90625 
Q 39.75 34.71875 39.75 35.203125 
Q 39.75 40.578125 37.25 42.78125 
Q 33.890625 45.75 27.25 45.75 
Q 21.046875 45.75 18.09375 43.578125 
Q 15.140625 41.40625 13.71875 35.890625 
L 5.125 37.0625 
Q 6.296875 42.578125 8.984375 45.96875 
Q 11.671875 49.359375 16.75 51.1875 
Q 21.828125 53.03125 28.515625 53.03125 
Q 35.15625 53.03125 39.296875 51.46875 
Q 43.453125 49.90625 45.40625 47.53125 
Q 47.359375 45.171875 48.140625 41.546875 
Q 48.578125 39.3125 48.578125 33.453125 
L 48.578125 21.734375 
Q 48.578125 9.46875 49.140625 6.21875 
Q 49.703125 2.984375 51.375 0 
L 42.1875 0 
Q 40.828125 2.734375 40.4375 6.390625 
z
M 39.703125 26.03125 
Q 34.90625 24.078125 25.34375 22.703125 
Q 19.921875 21.921875 17.671875 20.9375 
Q 15.4375 19.96875 14.203125 18.09375 
Q 12.984375 16.21875 12.984375 13.921875 
Q 12.984375 10.40625 15.640625 8.0625 
Q 18.3125 5.71875 23.4375 5.71875 
Q 28.515625 5.71875 32.46875 7.9375 
Q 36.421875 10.15625 38.28125 14.015625 
Q 39.703125 17 39.703125 22.796875 
z
" id="ArialMT-97"/>
      <path d="M 3.078125 15.484375 
L 11.765625 16.84375 
Q 12.5 11.625 15.84375 8.84375 
Q 19.1875 6.0625 25.203125 6.0625 
Q 31.25 6.0625 34.171875 8.515625 
Q 37.109375 10.984375 37.109375 14.3125 
Q 37.109375 17.28125 34.515625 19 
Q 32.71875 20.171875 25.53125 21.96875 
Q 15.875 24.421875 12.140625 26.203125 
Q 8.40625 27.984375 6.46875 31.125 
Q 4.546875 34.28125 4.546875 38.09375 
Q 4.546875 41.546875 6.125 44.5 
Q 7.71875 47.46875 10.453125 49.421875 
Q 12.5 50.921875 16.03125 51.96875 
Q 19.578125 53.03125 23.640625 53.03125 
Q 29.734375 53.03125 34.34375 51.265625 
Q 38.96875 49.515625 41.15625 46.5 
Q 43.359375 43.5 44.1875 38.484375 
L 35.59375 37.3125 
Q 35.015625 41.3125 32.203125 43.546875 
Q 29.390625 45.796875 24.265625 45.796875 
Q 18.21875 45.796875 15.625 43.796875 
Q 13.03125 41.796875 13.03125 39.109375 
Q 13.03125 37.40625 14.109375 36.03125 
Q 15.1875 34.625 17.484375 33.6875 
Q 18.796875 33.203125 25.25 31.453125 
Q 34.578125 28.953125 38.25 27.359375 
Q 41.9375 25.78125 44.03125 22.75 
Q 46.140625 19.734375 46.140625 15.234375 
Q 46.140625 10.84375 43.578125 6.953125 
Q 41.015625 3.078125 36.171875 0.953125 
Q 31.34375 -1.171875 25.25 -1.171875 
Q 15.140625 -1.171875 9.84375 3.03125 
Q 4.546875 7.234375 3.078125 15.484375 
z
" id="ArialMT-115"/>
      <path d="M 4.984375 -4.296875 
L 13.53125 -5.5625 
Q 14.0625 -9.515625 16.5 -11.328125 
Q 19.78125 -13.765625 25.4375 -13.765625 
Q 31.546875 -13.765625 34.859375 -11.328125 
Q 38.1875 -8.890625 39.359375 -4.5 
Q 40.046875 -1.8125 39.984375 6.78125 
Q 34.234375 0 25.640625 0 
Q 14.9375 0 9.078125 7.71875 
Q 3.21875 15.4375 3.21875 26.21875 
Q 3.21875 33.640625 5.90625 39.90625 
Q 8.59375 46.1875 13.6875 49.609375 
Q 18.796875 53.03125 25.6875 53.03125 
Q 34.859375 53.03125 40.828125 45.609375 
L 40.828125 51.859375 
L 48.921875 51.859375 
L 48.921875 7.03125 
Q 48.921875 -5.078125 46.453125 -10.125 
Q 44 -15.1875 38.640625 -18.109375 
Q 33.296875 -21.046875 25.484375 -21.046875 
Q 16.21875 -21.046875 10.5 -16.875 
Q 4.78125 -12.703125 4.984375 -4.296875 
z
M 12.25 26.859375 
Q 12.25 16.65625 16.296875 11.96875 
Q 20.359375 7.28125 26.46875 7.28125 
Q 32.515625 7.28125 36.609375 11.9375 
Q 40.71875 16.609375 40.71875 26.5625 
Q 40.71875 36.078125 36.5 40.90625 
Q 32.28125 45.75 26.3125 45.75 
Q 20.453125 45.75 16.34375 40.984375 
Q 12.25 36.234375 12.25 26.859375 
z
" id="ArialMT-103"/>
      <path d="M 8.6875 0 
L 8.6875 45.015625 
L 0.921875 45.015625 
L 0.921875 51.859375 
L 8.6875 51.859375 
L 8.6875 57.375 
Q 8.6875 62.59375 9.625 65.140625 
Q 10.890625 68.5625 14.078125 70.671875 
Q 17.28125 72.796875 23.046875 72.796875 
Q 26.765625 72.796875 31.25 71.921875 
L 29.9375 64.265625 
Q 27.203125 64.75 24.75 64.75 
Q 20.75 64.75 19.09375 63.03125 
Q 17.4375 61.328125 17.4375 56.640625 
L 17.4375 51.859375 
L 27.546875 51.859375 
L 27.546875 45.015625 
L 17.4375 45.015625 
L 17.4375 0 
z
" id="ArialMT-102"/>
      <path d="M 7.90625 0 
L 7.90625 71.578125 
L 59.671875 71.578125 
L 59.671875 63.140625 
L 17.390625 63.140625 
L 17.390625 41.21875 
L 56.984375 41.21875 
L 56.984375 32.8125 
L 17.390625 32.8125 
L 17.390625 8.453125 
L 61.328125 8.453125 
L 61.328125 0 
z
" id="ArialMT-69"/>
      <path d="M 6.59375 0 
L 6.59375 51.859375 
L 14.453125 51.859375 
L 14.453125 44.578125 
Q 16.890625 48.390625 20.9375 50.703125 
Q 25 53.03125 30.171875 53.03125 
Q 35.9375 53.03125 39.625 50.640625 
Q 43.3125 48.25 44.828125 43.953125 
Q 50.984375 53.03125 60.84375 53.03125 
Q 68.5625 53.03125 72.703125 48.75 
Q 76.859375 44.484375 76.859375 35.59375 
L 76.859375 0 
L 68.109375 0 
L 68.109375 32.671875 
Q 68.109375 37.9375 67.25 40.25 
Q 66.40625 42.578125 64.15625 43.984375 
Q 61.921875 45.40625 58.890625 45.40625 
Q 53.421875 45.40625 49.796875 41.765625 
Q 46.1875 38.140625 46.1875 30.125 
L 46.1875 0 
L 37.40625 0 
L 37.40625 33.6875 
Q 37.40625 39.546875 35.25 42.46875 
Q 33.109375 45.40625 28.21875 45.40625 
Q 24.515625 45.40625 21.359375 43.453125 
Q 18.21875 41.5 16.796875 37.734375 
Q 15.375 33.984375 15.375 26.90625 
L 15.375 0 
z
" id="ArialMT-109"/>
     </defs>
     <g style="fill:#262626;" transform="translate(70.740313 445.785)rotate(-90)scale(0.12 -0.12)">
      <use xlink:href="#ArialMT-67"/>
      <use x="72.216797" xlink:href="#ArialMT-117"/>
      <use x="127.832031" xlink:href="#ArialMT-114"/>
      <use x="161.132812" xlink:href="#ArialMT-114"/>
      <use x="194.433594" xlink:href="#ArialMT-101"/>
      <use x="250.048828" xlink:href="#ArialMT-110"/>
      <use x="305.664062" xlink:href="#ArialMT-116"/>
      <use x="333.447266" xlink:href="#ArialMT-32"/>
      <use x="361.230469" xlink:href="#ArialMT-67"/>
      <use x="433.447266" xlink:href="#ArialMT-111"/>
      <use x="489.0625" xlink:href="#ArialMT-108"/>
      <use x="511.279297" xlink:href="#ArialMT-108"/>
      <use x="533.496094" xlink:href="#ArialMT-101"/>
      <use x="589.111328" xlink:href="#ArialMT-99"/>
      <use x="639.111328" xlink:href="#ArialMT-116"/>
      <use x="666.894531" xlink:href="#ArialMT-101"/>
      <use x="722.509766" xlink:href="#ArialMT-100"/>
      <use x="778.125" xlink:href="#ArialMT-32"/>
      <use x="805.908203" xlink:href="#ArialMT-97"/>
      <use x="861.523438" xlink:href="#ArialMT-115"/>
      <use x="911.523438" xlink:href="#ArialMT-32"/>
      <use x="939.306641" xlink:href="#ArialMT-112"/>
      <use x="994.921875" xlink:href="#ArialMT-101"/>
      <use x="1050.537109" xlink:href="#ArialMT-114"/>
      <use x="1083.837891" xlink:href="#ArialMT-99"/>
      <use x="1133.837891" xlink:href="#ArialMT-101"/>
      <use x="1189.453125" xlink:href="#ArialMT-110"/>
      <use x="1245.068359" xlink:href="#ArialMT-116"/>
      <use x="1272.851562" xlink:href="#ArialMT-97"/>
      <use x="1328.466797" xlink:href="#ArialMT-103"/>
      <use x="1384.082031" xlink:href="#ArialMT-101"/>
      <use x="1439.697266" xlink:href="#ArialMT-32"/>
      <use x="1467.480469" xlink:href="#ArialMT-111"/>
      <use x="1523.095703" xlink:href="#ArialMT-102"/>
      <use x="1550.878906" xlink:href="#ArialMT-32"/>
      <use x="1578.662109" xlink:href="#ArialMT-69"/>
      <use x="1645.361328" xlink:href="#ArialMT-109"/>
      <use x="1728.662109" xlink:href="#ArialMT-105"/>
      <use x="1750.878906" xlink:href="#ArialMT-116"/>
      <use x="1778.662109" xlink:href="#ArialMT-116"/>
      <use x="1806.445312" xlink:href="#ArialMT-101"/>
      <use x="1862.060547" xlink:href="#ArialMT-100"/>
      <use x="1917.675781" xlink:href="#ArialMT-32"/>
      <use x="1945.458984" xlink:href="#ArialMT-67"/>
      <use x="2017.675781" xlink:href="#ArialMT-117"/>
      <use x="2073.291016" xlink:href="#ArialMT-114"/>
      <use x="2106.591797" xlink:href="#ArialMT-114"/>
      <use x="2139.892578" xlink:href="#ArialMT-101"/>
      <use x="2195.507812" xlink:href="#ArialMT-110"/>
      <use x="2251.123047" xlink:href="#ArialMT-116"/>
     </g>
    </g>
   </g>
   <g id="line2d_57">
    <path clip-path="url(#pd9e9f6d40e)" d="M 126.9 518.307399 
L 133.704878 520.783699 
L 140.509756 520.783699 
L 147.314634 520.783699 
L 154.119512 520.783699 
L 160.92439 520.783699 
L 167.729268 520.783699 
L 174.534146 520.783699 
L 181.339024 520.783699 
L 188.143902 520.783699 
L 194.94878 505.925896 
L 201.753659 431.636879 
L 208.558537 384.587168 
L 215.363415 354.871561 
L 222.168293 342.490058 
L 228.973171 330.108555 
L 235.778049 317.727052 
L 242.582927 310.29815 
L 249.387805 300.392948 
L 256.192683 290.487746 
L 262.997561 283.058844 
L 269.802439 275.629942 
L 276.607317 268.20104 
L 283.412195 258.295838 
L 290.217073 250.866936 
L 297.021951 243.438035 
L 303.826829 238.485434 
L 310.631707 233.532832 
L 317.436585 226.103931 
L 324.241463 223.62763 
L 331.046341 218.675029 
L 337.85122 208.769827 
L 344.656098 201.340925 
L 351.460976 201.340925 
L 358.265854 196.388324 
L 365.070732 188.959422 
L 371.87561 181.53052 
L 378.680488 174.101618 
L 385.485366 169.149017 
L 392.290244 164.196416 
L 399.095122 161.720116 
L 405.9 159.243815 
L 412.704878 156.767514 
L 419.509756 151.814913 
L 426.314634 149.338613 
L 433.119512 149.338613 
L 439.92439 144.386012 
L 446.729268 141.909711 
L 453.534146 141.909711 
L 460.339024 141.909711 
L 467.143902 134.480809 
L 473.94878 132.004509 
L 480.753659 127.051908 
L 487.558537 124.575607 
L 494.363415 119.623006 
L 501.168293 114.670405 
L 507.973171 109.717803 
L 514.778049 104.765202 
L 521.582927 99.812601 
L 528.387805 94.86 
L 535.192683 97.336301 
L 541.997561 102.288902 
L 548.802439 154.291214 
L 555.607317 213.722428 
L 562.412195 270.677341 
L 569.217073 292.964046 
L 576.021951 307.82185 
L 582.826829 320.203353 
L 589.631707 330.108555 
L 596.436585 337.537457 
L 603.241463 344.966358 
L 610.046341 352.39526 
L 616.85122 357.347861 
L 623.656098 359.824162 
L 630.460976 367.253064 
L 637.265854 372.205665 
L 644.070732 377.158266 
L 650.87561 382.110867 
L 657.680488 387.063468 
L 664.485366 389.539769 
L 671.290244 394.49237 
L 678.095122 396.968671 
L 684.9 399.444971 
" style="fill:none;stroke:#4c72b0;stroke-linecap:round;stroke-opacity:0.5;stroke-width:1.5;"/>
   </g>
   <g id="line2d_58">
    <path clip-path="url(#pd9e9f6d40e)" d="M 126.9 522.02185 
L 133.704878 522.02185 
L 140.509756 520.783699 
L 147.314634 522.02185 
L 154.119512 522.02185 
L 160.92439 522.02185 
L 167.729268 520.783699 
L 174.534146 522.02185 
L 181.339024 522.02185 
L 188.143902 519.545549 
L 194.94878 466.305087 
L 201.753659 401.921272 
L 208.558537 380.872717 
L 215.363415 363.538613 
L 222.168293 352.39526 
L 228.973171 341.251908 
L 235.778049 331.346705 
L 242.582927 321.441503 
L 249.387805 312.774451 
L 256.192683 302.869249 
L 262.997561 297.916647 
L 269.802439 290.487746 
L 276.607317 286.773295 
L 283.412195 279.344393 
L 290.217073 273.153642 
L 297.021951 268.20104 
L 303.826829 264.48659 
L 310.631707 255.819538 
L 317.436585 250.866936 
L 324.241463 245.914335 
L 331.046341 242.199884 
L 337.85122 238.485434 
L 344.656098 233.532832 
L 351.460976 227.342081 
L 358.265854 222.38948 
L 365.070732 216.198728 
L 371.87561 212.484277 
L 378.680488 210.007977 
L 385.485366 207.531676 
L 392.290244 203.817225 
L 399.095122 200.102775 
L 405.9 196.388324 
L 412.704878 192.673873 
L 419.509756 190.197572 
L 426.314634 188.959422 
L 433.119512 185.244971 
L 439.92439 180.29237 
L 446.729268 175.339769 
L 453.534146 170.387168 
L 460.339024 166.672717 
L 467.143902 164.196416 
L 473.94878 160.481965 
L 480.753659 158.005665 
L 487.558537 154.291214 
L 494.363415 151.814913 
L 501.168293 151.814913 
L 507.973171 149.338613 
L 514.778049 143.147861 
L 521.582927 141.909711 
L 528.387805 139.43341 
L 535.192683 139.43341 
L 541.997561 165.434566 
L 548.802439 239.723584 
L 555.607317 278.106243 
L 562.412195 297.916647 
L 569.217073 309.06 
L 576.021951 318.965202 
L 582.826829 330.108555 
L 589.631707 338.775607 
L 596.436585 344.966358 
L 603.241463 349.91896 
L 610.046341 356.109711 
L 616.85122 361.062312 
L 623.656098 366.014913 
L 630.460976 370.967514 
L 637.265854 373.443815 
L 644.070732 377.158266 
L 650.87561 382.110867 
L 657.680488 384.587168 
L 664.485366 389.539769 
L 671.290244 393.25422 
L 678.095122 395.73052 
L 684.9 398.206821 
" style="fill:none;stroke:#dd8452;stroke-linecap:round;stroke-opacity:0.5;stroke-width:1.5;"/>
   </g>
   <g id="line2d_59">
    <path clip-path="url(#pd9e9f6d40e)" d="M 126.9 522.640925 
L 133.704878 522.640925 
L 140.509756 522.640925 
L 147.314634 522.640925 
L 154.119512 522.640925 
L 160.92439 522.640925 
L 167.729268 522.640925 
L 174.534146 522.02185 
L 181.339024 522.640925 
L 188.143902 522.640925 
L 194.94878 478.067514 
L 201.753659 421.731676 
L 208.558537 398.206821 
L 215.363415 380.872717 
L 222.168293 367.872139 
L 228.973171 358.586012 
L 235.778049 348.680809 
L 242.582927 340.013757 
L 249.387805 329.48948 
L 256.192683 322.679653 
L 262.997561 315.250751 
L 269.802439 307.202775 
L 276.607317 300.392948 
L 283.412195 294.202197 
L 290.217073 288.63052 
L 297.021951 283.058844 
L 303.826829 278.106243 
L 310.631707 271.296416 
L 317.436585 267.581965 
L 324.241463 263.248439 
L 331.046341 260.153064 
L 337.85122 253.962312 
L 344.656098 249.009711 
L 351.460976 244.676185 
L 358.265854 239.723584 
L 365.070732 236.009133 
L 371.87561 233.532832 
L 378.680488 229.199306 
L 385.485366 224.86578 
L 392.290244 222.38948 
L 399.095122 219.913179 
L 405.9 216.198728 
L 412.704878 212.484277 
L 419.509756 208.150751 
L 426.314634 203.817225 
L 433.119512 201.340925 
L 439.92439 198.245549 
L 446.729268 195.769249 
L 453.534146 191.435723 
L 460.339024 189.578497 
L 467.143902 185.864046 
L 473.94878 182.768671 
L 480.753659 180.911445 
L 487.558537 178.435145 
L 494.363415 175.339769 
L 501.168293 173.482543 
L 507.973171 169.768092 
L 514.778049 167.291792 
L 521.582927 166.053642 
L 528.387805 163.577341 
L 535.192683 161.10104 
L 541.997561 161.720116 
L 548.802439 210.007977 
L 555.607317 255.819538 
L 562.412195 288.011445 
L 569.217073 301.012023 
L 576.021951 313.393526 
L 582.826829 323.917803 
L 589.631707 330.108555 
L 596.436585 338.775607 
L 603.241463 346.204509 
L 610.046341 351.15711 
L 616.85122 356.728786 
L 623.656098 361.681387 
L 630.460976 366.633988 
L 637.265854 370.348439 
L 644.070732 373.443815 
L 650.87561 377.777341 
L 657.680488 382.110867 
L 664.485366 385.206243 
L 671.290244 387.682543 
L 678.095122 390.158844 
L 684.9 393.25422 
" style="fill:none;stroke:#55a868;stroke-linecap:round;stroke-opacity:0.5;stroke-width:1.5;"/>
   </g>
   <g id="line2d_60">
    <path clip-path="url(#pd9e9f6d40e)" d="M 126.9 522.950462 
L 133.704878 522.950462 
L 140.509756 522.950462 
L 147.314634 522.640925 
L 154.119512 522.640925 
L 160.92439 522.950462 
L 167.729268 522.950462 
L 174.534146 522.640925 
L 181.339024 522.640925 
L 188.143902 518.307399 
L 194.94878 474.972139 
L 201.753659 431.327341 
L 208.558537 406.873873 
L 215.363415 387.992081 
L 222.168293 376.229653 
L 228.973171 366.633988 
L 235.778049 354.252486 
L 242.582927 347.133121 
L 249.387805 338.775607 
L 256.192683 330.72763 
L 262.997561 324.846416 
L 269.802439 315.250751 
L 276.607317 310.607688 
L 283.412195 304.416936 
L 290.217073 298.226185 
L 297.021951 292.344971 
L 303.826829 286.463757 
L 310.631707 281.820694 
L 317.436585 279.034855 
L 324.241463 273.772717 
L 331.046341 267.581965 
L 337.85122 262.629364 
L 344.656098 258.605376 
L 351.460976 254.581387 
L 358.265854 249.938324 
L 365.070732 245.29526 
L 371.87561 242.199884 
L 378.680488 238.485434 
L 385.485366 234.770983 
L 392.290244 232.294682 
L 399.095122 229.199306 
L 405.9 226.413468 
L 412.704878 222.079942 
L 419.509756 218.365491 
L 426.314634 215.889191 
L 433.119512 212.793815 
L 439.92439 208.769827 
L 446.729268 205.055376 
L 453.534146 200.72185 
L 460.339024 198.864624 
L 467.143902 197.626474 
L 473.94878 195.150173 
L 480.753659 192.054798 
L 487.558537 188.030809 
L 494.363415 184.316358 
L 501.168293 180.29237 
L 507.973171 177.816069 
L 514.778049 175.958844 
L 521.582927 174.411156 
L 528.387805 172.553931 
L 535.192683 170.387168 
L 541.997561 171.006243 
L 548.802439 214.031965 
L 555.607317 260.462601 
L 562.412195 287.701908 
L 569.217073 301.631098 
L 576.021951 313.393526 
L 582.826829 322.679653 
L 589.631707 329.179942 
L 596.436585 335.989769 
L 603.241463 342.18052 
L 610.046341 347.752197 
L 616.85122 353.323873 
L 623.656098 357.038324 
L 630.460976 363.229075 
L 637.265854 368.491214 
L 644.070732 371.58659 
L 650.87561 375.30104 
L 657.680488 379.325029 
L 664.485366 382.420405 
L 671.290244 385.51578 
L 678.095122 387.992081 
L 684.9 390.158844 
" style="fill:none;stroke:#c44e52;stroke-linecap:round;stroke-opacity:0.5;stroke-width:1.5;"/>
   </g>
   <g id="line2d_61">
    <path clip-path="url(#pd9e9f6d40e)" d="M 126.9 523.105231 
L 133.704878 522.950462 
L 140.509756 523.105231 
L 147.314634 522.950462 
L 154.119512 523.105231 
L 160.92439 523.105231 
L 167.729268 523.105231 
L 174.534146 523.105231 
L 181.339024 523.105231 
L 188.143902 517.378786 
L 194.94878 475.436445 
L 201.753659 431.946416 
L 208.558537 411.826474 
L 215.363415 391.861301 
L 222.168293 381.646561 
L 228.973171 370.812746 
L 235.778049 360.752775 
L 242.582927 352.704798 
L 249.387805 344.656821 
L 256.192683 334.59685 
L 262.997561 327.322717 
L 269.802439 320.358121 
L 276.607317 315.250751 
L 283.412195 310.917225 
L 290.217073 304.571705 
L 297.021951 299.773873 
L 303.826829 293.583121 
L 310.631707 288.011445 
L 317.436585 282.904075 
L 324.241463 277.17763 
L 331.046341 273.927486 
L 337.85122 269.903497 
L 344.656098 265.415202 
L 351.460976 260.772139 
L 358.265854 255.200462 
L 365.070732 252.259855 
L 371.87561 249.009711 
L 378.680488 244.676185 
L 385.485366 240.961734 
L 392.290244 236.782977 
L 399.095122 233.223295 
L 405.9 230.282688 
L 412.704878 227.49685 
L 419.509756 224.401474 
L 426.314634 221.615636 
L 433.119512 217.436879 
L 439.92439 213.103353 
L 446.729268 211.091358 
L 453.534146 208.924595 
L 460.339024 205.210145 
L 467.143902 202.269538 
L 473.94878 198.245549 
L 480.753659 196.233555 
L 487.558537 194.066792 
L 494.363415 191.74526 
L 501.168293 188.185578 
L 507.973171 185.864046 
L 514.778049 183.697283 
L 521.582927 181.066214 
L 528.387805 178.744682 
L 535.192683 177.816069 
L 541.997561 181.994827 
L 548.802439 218.675029 
L 555.607317 257.057688 
L 562.412195 285.380376 
L 569.217073 297.761879 
L 576.021951 309.679075 
L 582.826829 319.429509 
L 589.631707 326.084566 
L 596.436585 333.358699 
L 603.241463 339.858988 
L 610.046341 346.359277 
L 616.85122 352.39526 
L 623.656098 356.574017 
L 630.460976 361.37185 
L 637.265854 365.860145 
L 644.070732 369.419827 
L 650.87561 373.443815 
L 657.680488 376.69396 
L 664.485366 379.634566 
L 671.290244 381.801329 
L 678.095122 385.361012 
L 684.9 388.456387 
" style="fill:none;stroke:#8172b3;stroke-linecap:round;stroke-opacity:0.5;stroke-width:1.5;"/>
   </g>
   <g id="line2d_62">
    <path clip-path="url(#pd9e9f6d40e)" d="M 126.9 523.053642 
L 133.704878 523.156821 
L 140.509756 523.156821 
L 147.314634 523.156821 
L 154.119512 523.156821 
L 160.92439 523.156821 
L 167.729268 523.156821 
L 174.534146 523.156821 
L 181.339024 523.26 
L 188.143902 515.212023 
L 194.94878 477.035723 
L 201.753659 434.01 
L 208.558537 412.032832 
L 215.363415 392.635145 
L 222.168293 380.769538 
L 228.973171 370.761156 
L 235.778049 357.863757 
L 242.582927 352.911156 
L 249.387805 344.140925 
L 256.192683 336.505665 
L 262.997561 330.624451 
L 269.802439 321.85422 
L 276.607317 316.385723 
L 283.412195 310.401329 
L 290.217073 304.107399 
L 297.021951 299.464335 
L 303.826829 293.583121 
L 310.631707 287.289191 
L 317.436585 282.749306 
L 324.241463 277.590347 
L 331.046341 273.979075 
L 337.85122 269.645549 
L 344.656098 264.899306 
L 351.460976 260.359422 
L 358.265854 256.438613 
L 365.070732 252.414624 
L 371.87561 248.493815 
L 378.680488 244.985723 
L 385.485366 241.580809 
L 392.290244 237.866358 
L 399.095122 234.977341 
L 405.9 231.572428 
L 412.704878 227.238902 
L 419.509756 223.937168 
L 426.314634 220.325896 
L 433.119512 217.127341 
L 439.92439 215.063757 
L 446.729268 212.896994 
L 453.534146 209.285723 
L 460.339024 205.77763 
L 467.143902 202.166358 
L 473.94878 199.896416 
L 480.753659 196.90422 
L 487.558537 194.531098 
L 494.363415 191.74526 
L 501.168293 189.475318 
L 507.973171 186.586301 
L 514.778049 184.522717 
L 521.582927 182.252775 
L 528.387805 178.641503 
L 535.192683 177.093815 
L 541.997561 188.753064 
L 548.802439 236.009133 
L 555.607317 267.478786 
L 562.412195 292.757688 
L 569.217073 304.107399 
L 576.021951 314.425318 
L 582.826829 323.814624 
L 589.631707 330.314913 
L 596.436585 337.950173 
L 603.241463 344.037746 
L 610.046341 349.299884 
L 616.85122 354.355665 
L 623.656098 358.173295 
L 630.460976 363.125896 
L 637.265854 367.562601 
L 644.070732 371.689769 
L 650.87561 375.507399 
L 657.680488 378.602775 
L 664.485366 381.594971 
L 671.290244 384.071272 
L 678.095122 387.166647 
L 684.9 389.746127 
" style="fill:none;stroke:#937860;stroke-linecap:round;stroke-opacity:0.5;stroke-width:1.5;"/>
   </g>
   <g id="line2d_63">
    <path clip-path="url(#pd9e9f6d40e)" d="M 126.9 523.105231 
L 133.704878 523.105231 
L 140.509756 523.182616 
L 147.314634 523.182616 
L 154.119512 523.182616 
L 160.92439 523.182616 
L 167.729268 523.182616 
L 174.534146 523.182616 
L 181.339024 523.027847 
L 188.143902 512.194032 
L 194.94878 475.204292 
L 201.753659 432.642876 
L 208.558537 413.761084 
L 215.363415 393.486373 
L 222.168293 381.569176 
L 228.973171 373.675968 
L 235.778049 363.538613 
L 242.582927 354.639408 
L 249.387805 345.198512 
L 256.192683 337.305303 
L 262.997561 331.733627 
L 269.802439 323.453497 
L 276.607317 319.429509 
L 283.412195 311.768454 
L 290.217073 304.571705 
L 297.021951 299.851257 
L 303.826829 294.202197 
L 310.631707 289.868671 
L 317.436585 285.45776 
L 324.241463 281.124234 
L 331.046341 274.701329 
L 337.85122 269.671344 
L 344.656098 266.189046 
L 351.460976 263.248439 
L 358.265854 258.68276 
L 365.070732 253.962312 
L 371.87561 250.015708 
L 378.680488 246.688179 
L 385.485366 242.432038 
L 392.290244 239.878353 
L 399.095122 236.396055 
L 405.9 233.532832 
L 412.704878 230.592225 
L 419.509756 226.490853 
L 426.314634 223.62763 
L 433.119512 219.835795 
L 439.92439 215.811806 
L 446.729268 212.948584 
L 453.534146 210.085361 
L 460.339024 207.376908 
L 467.143902 204.281532 
L 473.94878 200.412312 
L 480.753659 199.251546 
L 487.558537 196.388324 
L 494.363415 192.906026 
L 501.168293 191.513107 
L 507.973171 189.501113 
L 514.778049 186.405737 
L 521.582927 183.697283 
L 528.387805 180.911445 
L 535.192683 179.05422 
L 541.997561 185.709277 
L 548.802439 220.764408 
L 555.607317 258.605376 
L 562.412195 283.987457 
L 569.217073 298.071416 
L 576.021951 310.29815 
L 582.826829 320.667659 
L 589.631707 326.935795 
L 596.436585 334.055159 
L 603.241463 341.793598 
L 610.046341 347.520043 
L 616.85122 352.240491 
L 623.656098 356.26448 
L 630.460976 361.681387 
L 637.265854 365.550607 
L 644.070732 368.878136 
L 650.87561 372.592587 
L 657.680488 376.152269 
L 664.485366 379.479798 
L 671.290244 382.34302 
L 678.095122 385.670549 
L 684.9 387.914697 
" style="fill:none;stroke:#da8bc3;stroke-linecap:round;stroke-opacity:0.5;stroke-width:1.5;"/>
   </g>
   <g id="line2d_64">
    <path clip-path="url(#pd9e9f6d40e)" d="M 126.9 523.136185 
L 133.704878 523.136185 
L 140.509756 523.198092 
L 147.314634 523.198092 
L 154.119512 523.136185 
L 160.92439 523.198092 
L 167.729268 523.198092 
L 174.534146 523.136185 
L 181.339024 522.145665 
L 188.143902 510.445145 
L 194.94878 473.733988 
L 201.753659 431.017803 
L 208.558537 413.436069 
L 215.363415 394.616185 
L 222.168293 383.28711 
L 228.973171 373.32 
L 235.778049 362.795723 
L 242.582927 353.819133 
L 249.387805 344.594913 
L 256.192683 337.166012 
L 262.997561 331.96578 
L 269.802439 323.608266 
L 276.607317 316.612717 
L 283.412195 310.29815 
L 290.217073 304.850289 
L 297.021951 299.58815 
L 303.826829 294.573642 
L 310.631707 290.178208 
L 317.436585 284.606532 
L 324.241463 279.715838 
L 331.046341 275.072775 
L 337.85122 270.367803 
L 344.656098 265.415202 
L 351.460976 261.081676 
L 358.265854 257.367225 
L 365.070732 253.652775 
L 371.87561 250.000231 
L 378.680488 246.223873 
L 385.485366 242.81896 
L 392.290244 239.414046 
L 399.095122 235.761503 
L 405.9 233.780462 
L 412.704878 230.004104 
L 419.509756 224.989595 
L 426.314634 222.38948 
L 433.119512 219.789364 
L 439.92439 216.013006 
L 446.729268 212.855723 
L 453.534146 210.812775 
L 460.339024 207.779306 
L 467.143902 204.250578 
L 473.94878 201.774277 
L 480.753659 200.47422 
L 487.558537 195.954971 
L 494.363415 192.550058 
L 501.168293 190.75474 
L 507.973171 187.473642 
L 514.778049 184.563988 
L 521.582927 184.625896 
L 528.387805 182.149595 
L 535.192683 181.77815 
L 541.997561 199.855145 
L 548.802439 245.04763 
L 555.607317 271.296416 
L 562.412195 291.106821 
L 569.217073 302.312081 
L 576.021951 314.322139 
L 582.826829 324.598786 
L 589.631707 331.284798 
L 596.436585 337.908902 
L 603.241463 344.099653 
L 610.046341 348.990347 
L 616.85122 354.623931 
L 623.656098 358.524104 
L 630.460976 363.724335 
L 637.265854 368.181676 
L 644.070732 371.277052 
L 650.87561 374.929595 
L 657.680488 378.582139 
L 664.485366 381.677514 
L 671.290244 384.52526 
L 678.095122 387.373006 
L 684.9 389.911214 
" style="fill:none;stroke:#8c8c8c;stroke-linecap:round;stroke-opacity:0.5;stroke-width:1.5;"/>
   </g>
   <g id="line2d_65">
    <path clip-path="url(#pd9e9f6d40e)" d="M 126.9 523.20841 
L 133.704878 523.20841 
L 140.509756 523.20841 
L 147.314634 523.20841 
L 154.119512 523.20841 
L 160.92439 523.156821 
L 167.729268 523.20841 
L 174.534146 523.20841 
L 181.339024 516.089046 
L 188.143902 495.814335 
L 194.94878 452.994971 
L 201.753659 422.815058 
L 208.558537 407.596127 
L 215.363415 390.829509 
L 222.168293 377.983699 
L 228.973171 368.903931 
L 235.778049 358.586012 
L 242.582927 353.169104 
L 249.387805 344.553642 
L 256.192683 333.668237 
L 262.997561 327.941792 
L 269.802439 321.493092 
L 276.607317 316.334133 
L 283.412195 310.34974 
L 290.217073 304.778064 
L 297.021951 299.619104 
L 303.826829 293.892659 
L 310.631707 288.269393 
L 317.436585 283.832688 
L 324.241463 278.828497 
L 331.046341 275.062457 
L 337.85122 269.955087 
L 344.656098 264.899306 
L 351.460976 261.339624 
L 358.265854 257.676763 
L 365.070732 251.898728 
L 371.87561 250.247861 
L 378.680488 247.410434 
L 385.485366 242.612601 
L 392.290244 239.775173 
L 399.095122 236.731387 
L 405.9 233.429653 
L 412.704878 228.992948 
L 419.509756 226.052341 
L 426.314634 223.67922 
L 433.119512 219.964769 
L 439.92439 215.99237 
L 446.729268 212.277919 
L 453.534146 209.853208 
L 460.339024 208.253931 
L 467.143902 205.003786 
L 473.94878 202.579075 
L 480.753659 199.586879 
L 487.558537 196.955809 
L 494.363415 193.550896 
L 501.168293 191.177775 
L 507.973171 188.753064 
L 514.778049 187.102197 
L 521.582927 184.987023 
L 528.387805 181.169393 
L 535.192683 181.58211 
L 541.997561 196.439913 
L 548.802439 239.826763 
L 555.607317 268.613757 
L 562.412195 289.817081 
L 569.217073 302.404942 
L 576.021951 313.187168 
L 582.826829 323.14396 
L 589.631707 330.418092 
L 596.436585 337.07315 
L 603.241463 343.212312 
L 610.046341 348.835578 
L 616.85122 354.200896 
L 623.656098 358.482832 
L 630.460976 363.693382 
L 637.265854 367.76896 
L 644.070732 371.070694 
L 650.87561 374.785145 
L 657.680488 378.293237 
L 664.485366 381.182254 
L 671.290244 383.245838 
L 678.095122 386.547572 
L 684.9 388.869104 
" style="fill:none;stroke:#ccb974;stroke-linecap:round;stroke-opacity:0.5;stroke-width:1.5;"/>
   </g>
   <g id="line2d_66">
    <path clip-path="url(#pd9e9f6d40e)" d="M 126.9 523.171561 
L 133.704878 523.21578 
L 140.509756 523.21578 
L 147.314634 523.21578 
L 154.119512 523.21578 
L 160.92439 523.21578 
L 167.729268 523.21578 
L 174.534146 523.21578 
L 181.339024 518.086301 
L 188.143902 496.772428 
L 194.94878 458.21289 
L 201.753659 424.119538 
L 208.558537 408.51 
L 215.363415 391.485434 
L 222.168293 378.131098 
L 228.973171 368.093237 
L 235.778049 356.905665 
L 242.582927 351.599306 
L 249.387805 342.22474 
L 256.192683 334.928497 
L 262.997561 331.037168 
L 269.802439 323.785145 
L 276.607317 314.896994 
L 283.412195 311.403642 
L 290.217073 305.389769 
L 297.021951 304.770694 
L 303.826829 291.19526 
L 310.631707 288.011445 
L 317.436585 289.603353 
L 324.241463 283.014624 
L 331.046341 277.531387 
L 337.85122 271.296416 
L 344.656098 261.966069 
L 351.460976 259.003353 
L 358.265854 255.421561 
L 365.070732 251.574451 
L 371.87561 248.081098 
L 378.680488 246.135434 
L 385.485366 243.305376 
L 392.290244 241.094393 
L 399.095122 238.441214 
L 405.9 233.090636 
L 412.704878 228.491792 
L 419.509756 223.892948 
L 426.314634 219.86896 
L 433.119512 223.362312 
L 439.92439 225.927052 
L 446.729268 219.338324 
L 453.534146 213.589769 
L 460.339024 209.521561 
L 467.143902 198.731965 
L 473.94878 196.211445 
L 480.753659 193.823584 
L 487.558537 192.98341 
L 494.363415 190.905087 
L 501.168293 191.037746 
L 507.973171 189.136301 
L 514.778049 190.595549 
L 521.582927 197.405376 
L 528.387805 183.210867 
L 535.192683 181.751618 
L 541.997561 199.041503 
L 548.802439 239.856243 
L 555.607317 279.565491 
L 562.412195 291.106821 
L 569.217073 300.437168 
L 576.021951 314.675896 
L 582.826829 325.288613 
L 589.631707 334.972717 
L 596.436585 338.200751 
L 603.241463 344.081965 
L 610.046341 351.687746 
L 616.85122 355.844393 
L 623.656098 361.32763 
L 630.460976 360.222139 
L 637.265854 365.086301 
L 644.070732 371.100173 
L 650.87561 373.664913 
L 657.680488 379.14815 
L 664.485366 381.845549 
L 671.290244 384.23341 
L 678.095122 388.522717 
L 684.9 390.777919 
" style="fill:none;stroke:#64b5cd;stroke-linecap:round;stroke-opacity:0.5;stroke-width:1.5;"/>
   </g>
   <g id="patch_3">
    <path d="M 99 544.68 
L 99 73.44 
" style="fill:none;stroke:#ffffff;stroke-linecap:square;stroke-linejoin:miter;stroke-width:1.25;"/>
   </g>
   <g id="patch_4">
    <path d="M 712.8 544.68 
L 712.8 73.44 
" style="fill:none;stroke:#ffffff;stroke-linecap:square;stroke-linejoin:miter;stroke-width:1.25;"/>
   </g>
   <g id="patch_5">
    <path d="M 99 544.68 
L 712.8 544.68 
" style="fill:none;stroke:#ffffff;stroke-linecap:square;stroke-linejoin:miter;stroke-width:1.25;"/>
   </g>
   <g id="patch_6">
    <path d="M 99 73.44 
L 712.8 73.44 
" style="fill:none;stroke:#ffffff;stroke-linecap:square;stroke-linejoin:miter;stroke-width:1.25;"/>
   </g>
   <g id="text_15">
    <!-- Collected Current Through DBA Aperture at Various Emissions -->
    <defs>
     <path d="M 25.921875 0 
L 25.921875 63.140625 
L 2.34375 63.140625 
L 2.34375 71.578125 
L 59.078125 71.578125 
L 59.078125 63.140625 
L 35.40625 63.140625 
L 35.40625 0 
z
" id="ArialMT-84"/>
     <path d="M 6.59375 0 
L 6.59375 71.578125 
L 15.375 71.578125 
L 15.375 45.90625 
Q 21.53125 53.03125 30.90625 53.03125 
Q 36.671875 53.03125 40.921875 50.75 
Q 45.171875 48.484375 47 44.484375 
Q 48.828125 40.484375 48.828125 32.859375 
L 48.828125 0 
L 40.046875 0 
L 40.046875 32.859375 
Q 40.046875 39.453125 37.1875 42.453125 
Q 34.328125 45.453125 29.109375 45.453125 
Q 25.203125 45.453125 21.75 43.421875 
Q 18.3125 41.40625 16.84375 37.9375 
Q 15.375 34.46875 15.375 28.375 
L 15.375 0 
z
" id="ArialMT-104"/>
     <path d="M 7.328125 0 
L 7.328125 71.578125 
L 34.1875 71.578125 
Q 42.390625 71.578125 47.34375 69.40625 
Q 52.296875 67.234375 55.09375 62.71875 
Q 57.90625 58.203125 57.90625 53.265625 
Q 57.90625 48.6875 55.421875 44.625 
Q 52.9375 40.578125 47.90625 38.09375 
Q 54.390625 36.1875 57.875 31.59375 
Q 61.375 27 61.375 20.75 
Q 61.375 15.71875 59.25 11.390625 
Q 57.125 7.078125 54 4.734375 
Q 50.875 2.390625 46.15625 1.1875 
Q 41.453125 0 34.625 0 
z
M 16.796875 41.5 
L 32.28125 41.5 
Q 38.578125 41.5 41.3125 42.328125 
Q 44.921875 43.40625 46.75 45.890625 
Q 48.578125 48.390625 48.578125 52.15625 
Q 48.578125 55.71875 46.875 58.421875 
Q 45.171875 61.140625 41.984375 62.140625 
Q 38.8125 63.140625 31.109375 63.140625 
L 16.796875 63.140625 
z
M 16.796875 8.453125 
L 34.625 8.453125 
Q 39.203125 8.453125 41.0625 8.796875 
Q 44.34375 9.375 46.53125 10.734375 
Q 48.734375 12.109375 50.140625 14.71875 
Q 51.5625 17.328125 51.5625 20.75 
Q 51.5625 24.75 49.515625 27.703125 
Q 47.46875 30.671875 43.828125 31.859375 
Q 40.1875 33.0625 33.34375 33.0625 
L 16.796875 33.0625 
z
" id="ArialMT-66"/>
     <path d="M 28.171875 0 
L 0.4375 71.578125 
L 10.6875 71.578125 
L 29.296875 19.578125 
Q 31.546875 13.328125 33.0625 7.859375 
Q 34.71875 13.71875 36.921875 19.578125 
L 56.25 71.578125 
L 65.921875 71.578125 
L 37.890625 0 
z
" id="ArialMT-86"/>
    </defs>
    <g style="fill:#262626;" transform="translate(238.851563 67.44)scale(0.12 -0.12)">
     <use xlink:href="#ArialMT-67"/>
     <use x="72.216797" xlink:href="#ArialMT-111"/>
     <use x="127.832031" xlink:href="#ArialMT-108"/>
     <use x="150.048828" xlink:href="#ArialMT-108"/>
     <use x="172.265625" xlink:href="#ArialMT-101"/>
     <use x="227.880859" xlink:href="#ArialMT-99"/>
     <use x="277.880859" xlink:href="#ArialMT-116"/>
     <use x="305.664062" xlink:href="#ArialMT-101"/>
     <use x="361.279297" xlink:href="#ArialMT-100"/>
     <use x="416.894531" xlink:href="#ArialMT-32"/>
     <use x="444.677734" xlink:href="#ArialMT-67"/>
     <use x="516.894531" xlink:href="#ArialMT-117"/>
     <use x="572.509766" xlink:href="#ArialMT-114"/>
     <use x="605.810547" xlink:href="#ArialMT-114"/>
     <use x="639.111328" xlink:href="#ArialMT-101"/>
     <use x="694.726562" xlink:href="#ArialMT-110"/>
     <use x="750.341797" xlink:href="#ArialMT-116"/>
     <use x="778.125" xlink:href="#ArialMT-32"/>
     <use x="805.892578" xlink:href="#ArialMT-84"/>
     <use x="866.976562" xlink:href="#ArialMT-104"/>
     <use x="922.591797" xlink:href="#ArialMT-114"/>
     <use x="955.892578" xlink:href="#ArialMT-111"/>
     <use x="1011.507812" xlink:href="#ArialMT-117"/>
     <use x="1067.123047" xlink:href="#ArialMT-103"/>
     <use x="1122.738281" xlink:href="#ArialMT-104"/>
     <use x="1178.353516" xlink:href="#ArialMT-32"/>
     <use x="1206.136719" xlink:href="#ArialMT-68"/>
     <use x="1278.353516" xlink:href="#ArialMT-66"/>
     <use x="1345.052734" xlink:href="#ArialMT-65"/>
     <use x="1411.673828" xlink:href="#ArialMT-32"/>
     <use x="1439.378906" xlink:href="#ArialMT-65"/>
     <use x="1506.078125" xlink:href="#ArialMT-112"/>
     <use x="1561.693359" xlink:href="#ArialMT-101"/>
     <use x="1617.308594" xlink:href="#ArialMT-114"/>
     <use x="1650.609375" xlink:href="#ArialMT-116"/>
     <use x="1678.392578" xlink:href="#ArialMT-117"/>
     <use x="1734.007812" xlink:href="#ArialMT-114"/>
     <use x="1767.308594" xlink:href="#ArialMT-101"/>
     <use x="1822.923828" xlink:href="#ArialMT-32"/>
     <use x="1850.707031" xlink:href="#ArialMT-97"/>
     <use x="1906.322266" xlink:href="#ArialMT-116"/>
     <use x="1934.105469" xlink:href="#ArialMT-32"/>
     <use x="1961.888672" xlink:href="#ArialMT-86"/>
     <use x="2028.478516" xlink:href="#ArialMT-97"/>
     <use x="2084.09375" xlink:href="#ArialMT-114"/>
     <use x="2117.394531" xlink:href="#ArialMT-105"/>
     <use x="2139.611328" xlink:href="#ArialMT-111"/>
     <use x="2195.226562" xlink:href="#ArialMT-117"/>
     <use x="2250.841797" xlink:href="#ArialMT-115"/>
     <use x="2300.841797" xlink:href="#ArialMT-32"/>
     <use x="2328.625" xlink:href="#ArialMT-69"/>
     <use x="2395.324219" xlink:href="#ArialMT-109"/>
     <use x="2478.625" xlink:href="#ArialMT-105"/>
     <use x="2500.841797" xlink:href="#ArialMT-115"/>
     <use x="2550.841797" xlink:href="#ArialMT-115"/>
     <use x="2600.841797" xlink:href="#ArialMT-105"/>
     <use x="2623.058594" xlink:href="#ArialMT-111"/>
     <use x="2678.673828" xlink:href="#ArialMT-110"/>
     <use x="2734.289062" xlink:href="#ArialMT-115"/>
    </g>
   </g>
   <g id="legend_1">
    <g id="patch_7">
     <path d="M 588.3625 238.165 
L 705.1 238.165 
Q 707.3 238.165 707.3 235.965 
L 707.3 81.14 
Q 707.3 78.94 705.1 78.94 
L 588.3625 78.94 
Q 586.1625 78.94 586.1625 81.14 
L 586.1625 235.965 
Q 586.1625 238.165 588.3625 238.165 
z
" style="fill:#eaeaf2;opacity:0.8;stroke:#cccccc;stroke-linejoin:miter;"/>
    </g>
    <g id="line2d_67">
     <path d="M 590.5625 87.39625 
L 612.5625 87.39625 
" style="fill:none;stroke:#4c72b0;stroke-linecap:round;stroke-opacity:0.5;stroke-width:1.5;"/>
    </g>
    <g id="line2d_68"/>
    <g id="text_16">
     <!-- 25 A Emitted -->
     <defs>
      <path d="M 49.703125 51.859375 
L 49.703125 0 
L 41.84375 0 
L 41.84375 6.15625 
Q 39.3125 2.25 36.8125 0.78125 
Q 33.40625 -1.21875 28.859375 -1.21875 
Q 24.8125 -1.21875 21.6875 0.390625 
Q 19.34375 1.609375 16.5 5.21875 
L 16.5 -19.875 
L 7.8125 -19.875 
L 7.8125 51.859375 
L 16.5 51.859375 
L 16.5 29.890625 
Q 16.5 17.921875 17.765625 14.375 
Q 19.046875 10.84375 21.890625 8.78125 
Q 24.75 6.734375 28.46875 6.734375 
Q 32.375 6.734375 35.453125 8.875 
Q 38.53125 11.03125 39.796875 14.421875 
Q 41.0625 17.828125 41.0625 29.734375 
L 41.0625 51.859375 
z
" id="ArialMT-956"/>
     </defs>
     <g style="fill:#262626;" transform="translate(621.3625 91.24625)scale(0.11 -0.11)">
      <use xlink:href="#ArialMT-50"/>
      <use x="55.615234" xlink:href="#ArialMT-53"/>
      <use x="111.230469" xlink:href="#ArialMT-32"/>
      <use x="139.013672" xlink:href="#ArialMT-956"/>
      <use x="196.630859" xlink:href="#ArialMT-65"/>
      <use x="263.251953" xlink:href="#ArialMT-32"/>
      <use x="291.035156" xlink:href="#ArialMT-69"/>
      <use x="357.734375" xlink:href="#ArialMT-109"/>
      <use x="441.035156" xlink:href="#ArialMT-105"/>
      <use x="463.251953" xlink:href="#ArialMT-116"/>
      <use x="491.035156" xlink:href="#ArialMT-116"/>
      <use x="518.818359" xlink:href="#ArialMT-101"/>
      <use x="574.433594" xlink:href="#ArialMT-100"/>
     </g>
    </g>
    <g id="line2d_69">
     <path d="M 590.5625 102.98875 
L 612.5625 102.98875 
" style="fill:none;stroke:#dd8452;stroke-linecap:round;stroke-opacity:0.5;stroke-width:1.5;"/>
    </g>
    <g id="line2d_70"/>
    <g id="text_17">
     <!-- 50 A Emitted -->
     <g style="fill:#262626;" transform="translate(621.3625 106.83875)scale(0.11 -0.11)">
      <use xlink:href="#ArialMT-53"/>
      <use x="55.615234" xlink:href="#ArialMT-48"/>
      <use x="111.230469" xlink:href="#ArialMT-32"/>
      <use x="139.013672" xlink:href="#ArialMT-956"/>
      <use x="196.630859" xlink:href="#ArialMT-65"/>
      <use x="263.251953" xlink:href="#ArialMT-32"/>
      <use x="291.035156" xlink:href="#ArialMT-69"/>
      <use x="357.734375" xlink:href="#ArialMT-109"/>
      <use x="441.035156" xlink:href="#ArialMT-105"/>
      <use x="463.251953" xlink:href="#ArialMT-116"/>
      <use x="491.035156" xlink:href="#ArialMT-116"/>
      <use x="518.818359" xlink:href="#ArialMT-101"/>
      <use x="574.433594" xlink:href="#ArialMT-100"/>
     </g>
    </g>
    <g id="line2d_71">
     <path d="M 590.5625 118.58125 
L 612.5625 118.58125 
" style="fill:none;stroke:#55a868;stroke-linecap:round;stroke-opacity:0.5;stroke-width:1.5;"/>
    </g>
    <g id="line2d_72"/>
    <g id="text_18">
     <!-- 100 A Emitted -->
     <g style="fill:#262626;" transform="translate(621.3625 122.43125)scale(0.11 -0.11)">
      <use xlink:href="#ArialMT-49"/>
      <use x="55.615234" xlink:href="#ArialMT-48"/>
      <use x="111.230469" xlink:href="#ArialMT-48"/>
      <use x="166.845703" xlink:href="#ArialMT-32"/>
      <use x="194.628906" xlink:href="#ArialMT-956"/>
      <use x="252.246094" xlink:href="#ArialMT-65"/>
      <use x="318.867188" xlink:href="#ArialMT-32"/>
      <use x="346.650391" xlink:href="#ArialMT-69"/>
      <use x="413.349609" xlink:href="#ArialMT-109"/>
      <use x="496.650391" xlink:href="#ArialMT-105"/>
      <use x="518.867188" xlink:href="#ArialMT-116"/>
      <use x="546.650391" xlink:href="#ArialMT-116"/>
      <use x="574.433594" xlink:href="#ArialMT-101"/>
      <use x="630.048828" xlink:href="#ArialMT-100"/>
     </g>
    </g>
    <g id="line2d_73">
     <path d="M 590.5625 134.17375 
L 612.5625 134.17375 
" style="fill:none;stroke:#c44e52;stroke-linecap:round;stroke-opacity:0.5;stroke-width:1.5;"/>
    </g>
    <g id="line2d_74"/>
    <g id="text_19">
     <!-- 200 A Emitted -->
     <g style="fill:#262626;" transform="translate(621.3625 138.02375)scale(0.11 -0.11)">
      <use xlink:href="#ArialMT-50"/>
      <use x="55.615234" xlink:href="#ArialMT-48"/>
      <use x="111.230469" xlink:href="#ArialMT-48"/>
      <use x="166.845703" xlink:href="#ArialMT-32"/>
      <use x="194.628906" xlink:href="#ArialMT-956"/>
      <use x="252.246094" xlink:href="#ArialMT-65"/>
      <use x="318.867188" xlink:href="#ArialMT-32"/>
      <use x="346.650391" xlink:href="#ArialMT-69"/>
      <use x="413.349609" xlink:href="#ArialMT-109"/>
      <use x="496.650391" xlink:href="#ArialMT-105"/>
      <use x="518.867188" xlink:href="#ArialMT-116"/>
      <use x="546.650391" xlink:href="#ArialMT-116"/>
      <use x="574.433594" xlink:href="#ArialMT-101"/>
      <use x="630.048828" xlink:href="#ArialMT-100"/>
     </g>
    </g>
    <g id="line2d_75">
     <path d="M 590.5625 149.76625 
L 612.5625 149.76625 
" style="fill:none;stroke:#8172b3;stroke-linecap:round;stroke-opacity:0.5;stroke-width:1.5;"/>
    </g>
    <g id="line2d_76"/>
    <g id="text_20">
     <!-- 400 A Emitted -->
     <g style="fill:#262626;" transform="translate(621.3625 153.61625)scale(0.11 -0.11)">
      <use xlink:href="#ArialMT-52"/>
      <use x="55.615234" xlink:href="#ArialMT-48"/>
      <use x="111.230469" xlink:href="#ArialMT-48"/>
      <use x="166.845703" xlink:href="#ArialMT-32"/>
      <use x="194.628906" xlink:href="#ArialMT-956"/>
      <use x="252.246094" xlink:href="#ArialMT-65"/>
      <use x="318.867188" xlink:href="#ArialMT-32"/>
      <use x="346.650391" xlink:href="#ArialMT-69"/>
      <use x="413.349609" xlink:href="#ArialMT-109"/>
      <use x="496.650391" xlink:href="#ArialMT-105"/>
      <use x="518.867188" xlink:href="#ArialMT-116"/>
      <use x="546.650391" xlink:href="#ArialMT-116"/>
      <use x="574.433594" xlink:href="#ArialMT-101"/>
      <use x="630.048828" xlink:href="#ArialMT-100"/>
     </g>
    </g>
    <g id="line2d_77">
     <path d="M 590.5625 165.35875 
L 612.5625 165.35875 
" style="fill:none;stroke:#937860;stroke-linecap:round;stroke-opacity:0.5;stroke-width:1.5;"/>
    </g>
    <g id="line2d_78"/>
    <g id="text_21">
     <!-- 600 A Emitted -->
     <g style="fill:#262626;" transform="translate(621.3625 169.20875)scale(0.11 -0.11)">
      <use xlink:href="#ArialMT-54"/>
      <use x="55.615234" xlink:href="#ArialMT-48"/>
      <use x="111.230469" xlink:href="#ArialMT-48"/>
      <use x="166.845703" xlink:href="#ArialMT-32"/>
      <use x="194.628906" xlink:href="#ArialMT-956"/>
      <use x="252.246094" xlink:href="#ArialMT-65"/>
      <use x="318.867188" xlink:href="#ArialMT-32"/>
      <use x="346.650391" xlink:href="#ArialMT-69"/>
      <use x="413.349609" xlink:href="#ArialMT-109"/>
      <use x="496.650391" xlink:href="#ArialMT-105"/>
      <use x="518.867188" xlink:href="#ArialMT-116"/>
      <use x="546.650391" xlink:href="#ArialMT-116"/>
      <use x="574.433594" xlink:href="#ArialMT-101"/>
      <use x="630.048828" xlink:href="#ArialMT-100"/>
     </g>
    </g>
    <g id="line2d_79">
     <path d="M 590.5625 180.95125 
L 612.5625 180.95125 
" style="fill:none;stroke:#da8bc3;stroke-linecap:round;stroke-opacity:0.5;stroke-width:1.5;"/>
    </g>
    <g id="line2d_80"/>
    <g id="text_22">
     <!-- 800 A Emitted -->
     <g style="fill:#262626;" transform="translate(621.3625 184.80125)scale(0.11 -0.11)">
      <use xlink:href="#ArialMT-56"/>
      <use x="55.615234" xlink:href="#ArialMT-48"/>
      <use x="111.230469" xlink:href="#ArialMT-48"/>
      <use x="166.845703" xlink:href="#ArialMT-32"/>
      <use x="194.628906" xlink:href="#ArialMT-956"/>
      <use x="252.246094" xlink:href="#ArialMT-65"/>
      <use x="318.867188" xlink:href="#ArialMT-32"/>
      <use x="346.650391" xlink:href="#ArialMT-69"/>
      <use x="413.349609" xlink:href="#ArialMT-109"/>
      <use x="496.650391" xlink:href="#ArialMT-105"/>
      <use x="518.867188" xlink:href="#ArialMT-116"/>
      <use x="546.650391" xlink:href="#ArialMT-116"/>
      <use x="574.433594" xlink:href="#ArialMT-101"/>
      <use x="630.048828" xlink:href="#ArialMT-100"/>
     </g>
    </g>
    <g id="line2d_81">
     <path d="M 590.5625 196.54375 
L 612.5625 196.54375 
" style="fill:none;stroke:#8c8c8c;stroke-linecap:round;stroke-opacity:0.5;stroke-width:1.5;"/>
    </g>
    <g id="line2d_82"/>
    <g id="text_23">
     <!-- 1000 A Emitted -->
     <g style="fill:#262626;" transform="translate(621.3625 200.39375)scale(0.11 -0.11)">
      <use xlink:href="#ArialMT-49"/>
      <use x="55.615234" xlink:href="#ArialMT-48"/>
      <use x="111.230469" xlink:href="#ArialMT-48"/>
      <use x="166.845703" xlink:href="#ArialMT-48"/>
      <use x="222.460938" xlink:href="#ArialMT-32"/>
      <use x="250.244141" xlink:href="#ArialMT-956"/>
      <use x="307.861328" xlink:href="#ArialMT-65"/>
      <use x="374.482422" xlink:href="#ArialMT-32"/>
      <use x="402.265625" xlink:href="#ArialMT-69"/>
      <use x="468.964844" xlink:href="#ArialMT-109"/>
      <use x="552.265625" xlink:href="#ArialMT-105"/>
      <use x="574.482422" xlink:href="#ArialMT-116"/>
      <use x="602.265625" xlink:href="#ArialMT-116"/>
      <use x="630.048828" xlink:href="#ArialMT-101"/>
      <use x="685.664062" xlink:href="#ArialMT-100"/>
     </g>
    </g>
    <g id="line2d_83">
     <path d="M 590.5625 212.13625 
L 612.5625 212.13625 
" style="fill:none;stroke:#ccb974;stroke-linecap:round;stroke-opacity:0.5;stroke-width:1.5;"/>
    </g>
    <g id="line2d_84"/>
    <g id="text_24">
     <!-- 1200 A Emitted -->
     <g style="fill:#262626;" transform="translate(621.3625 215.98625)scale(0.11 -0.11)">
      <use xlink:href="#ArialMT-49"/>
      <use x="55.615234" xlink:href="#ArialMT-50"/>
      <use x="111.230469" xlink:href="#ArialMT-48"/>
      <use x="166.845703" xlink:href="#ArialMT-48"/>
      <use x="222.460938" xlink:href="#ArialMT-32"/>
      <use x="250.244141" xlink:href="#ArialMT-956"/>
      <use x="307.861328" xlink:href="#ArialMT-65"/>
      <use x="374.482422" xlink:href="#ArialMT-32"/>
      <use x="402.265625" xlink:href="#ArialMT-69"/>
      <use x="468.964844" xlink:href="#ArialMT-109"/>
      <use x="552.265625" xlink:href="#ArialMT-105"/>
      <use x="574.482422" xlink:href="#ArialMT-116"/>
      <use x="602.265625" xlink:href="#ArialMT-116"/>
      <use x="630.048828" xlink:href="#ArialMT-101"/>
      <use x="685.664062" xlink:href="#ArialMT-100"/>
     </g>
    </g>
    <g id="line2d_85">
     <path d="M 590.5625 227.72875 
L 612.5625 227.72875 
" style="fill:none;stroke:#64b5cd;stroke-linecap:round;stroke-opacity:0.5;stroke-width:1.5;"/>
    </g>
    <g id="line2d_86"/>
    <g id="text_25">
     <!-- 1400 A Emitted -->
     <g style="fill:#262626;" transform="translate(621.3625 231.57875)scale(0.11 -0.11)">
      <use xlink:href="#ArialMT-49"/>
      <use x="55.615234" xlink:href="#ArialMT-52"/>
      <use x="111.230469" xlink:href="#ArialMT-48"/>
      <use x="166.845703" xlink:href="#ArialMT-48"/>
      <use x="222.460938" xlink:href="#ArialMT-32"/>
      <use x="250.244141" xlink:href="#ArialMT-956"/>
      <use x="307.861328" xlink:href="#ArialMT-65"/>
      <use x="374.482422" xlink:href="#ArialMT-32"/>
      <use x="402.265625" xlink:href="#ArialMT-69"/>
      <use x="468.964844" xlink:href="#ArialMT-109"/>
      <use x="552.265625" xlink:href="#ArialMT-105"/>
      <use x="574.482422" xlink:href="#ArialMT-116"/>
      <use x="602.265625" xlink:href="#ArialMT-116"/>
      <use x="630.048828" xlink:href="#ArialMT-101"/>
      <use x="685.664062" xlink:href="#ArialMT-100"/>
     </g>
    </g>
   </g>
  </g>
 </g>
 <defs>
  <clipPath id="pd9e9f6d40e">
   <rect height="471.24" width="613.8" x="99" y="73.44"/>
  </clipPath>
 </defs>
</svg>
